<?xml version="1.0" encoding="utf-8"?>
<!-- Generator: Adobe Illustrator 24.0.0, SVG Export Plug-In . SVG Version: 6.00 Build 0)  -->
<svg version="1.1" id="Livello_1" xmlns="http://www.w3.org/2000/svg" xmlns:xlink="http://www.w3.org/1999/xlink" x="0px" y="0px"
	 viewBox="0 0 50 50" style="enable-background:new 0 0 50 50;" xml:space="preserve">
<style type="text/css">
	.st0{fill:#4472A1;}
	.st1{fill:#727791;}
	.st2{fill:#BE8078;}
	.st3{fill:#E9856C;}
	.st4{fill:#987C84;}
</style>
<path class="st4" d="M25,0C11.2,0,0,11.2,0,25S11.2,50,25,50S50,38.8,50,25S38.8,0,25,0z M17.74,37.79h-6.09V19.48h6.09V37.79z
	 M14.69,16.97h-0.04c-2.04,0-3.36-1.41-3.36-3.16c0-1.8,1.36-3.17,3.44-3.17s3.36,1.37,3.4,3.17
	C18.14,15.57,16.81,16.97,14.69,16.97z M39.69,37.79H33.6v-9.8c0-2.46-0.88-4.14-3.08-4.14c-1.68,0-2.68,1.13-3.12,2.23
	c-0.16,0.39-0.2,0.94-0.2,1.49v10.23H21.1c0,0,0.08-16.6,0-18.32h6.09v2.59c0.81-1.25,2.26-3.02,5.49-3.02
	c4.01,0,7.01,2.62,7.01,8.24V37.79z"/>
</svg>
