<?xml version="1.0" encoding="utf-8"?>
<!-- Generator: Adobe Illustrator 24.0.0, SVG Export Plug-In . SVG Version: 6.00 Build 0)  -->
<svg version="1.1" id="Livello_1" xmlns="http://www.w3.org/2000/svg" xmlns:xlink="http://www.w3.org/1999/xlink" x="0px" y="0px"
	 viewBox="0 0 50 50" style="enable-background:new 0 0 50 50;" xml:space="preserve">
<style type="text/css">
	.st0{fill:#4472A1;}
	.st1{fill:#727791;}
	.st2{fill:#BE8078;}
	.st3{fill:#E9856C;}
	.st4{fill:#987C84;}
</style>
<g>
	<g>
		<path class="st2" d="M25,0C11.19,0,0,11.19,0,25c0,13.81,11.19,25,25,25s25-11.19,25-25C50,11.19,38.81,0,25,0z M25,8.78
			l14.79,9.23H10.21L25,8.78z M39.98,32.74L39.98,32.74c0,1.48-1.2,2.68-2.68,2.68H12.7c-1.48,0-2.68-1.2-2.68-2.68V18.59
			c0-0.16,0.02-0.31,0.04-0.46l14.13,8.81c0.02,0.01,0.04,0.02,0.05,0.03c0.02,0.01,0.04,0.02,0.06,0.03
			c0.1,0.05,0.2,0.09,0.31,0.12c0.01,0,0.02,0,0.03,0.01c0.12,0.03,0.23,0.04,0.35,0.04h0c0,0,0,0,0,0c0.12,0,0.23-0.02,0.35-0.04
			c0.01,0,0.02,0,0.03-0.01c0.11-0.03,0.21-0.07,0.31-0.12c0.02-0.01,0.04-0.02,0.06-0.03c0.02-0.01,0.04-0.02,0.05-0.03l14.13-8.81
			c0.03,0.15,0.04,0.3,0.04,0.46L39.98,32.74L39.98,32.74z"/>
	</g>
</g>
</svg>
