<?xml version="1.0" encoding="utf-8"?>
<!-- Generator: Adobe Illustrator 24.0.0, SVG Export Plug-In . SVG Version: 6.00 Build 0)  -->
<svg version="1.1" id="Livello_1" xmlns="http://www.w3.org/2000/svg" xmlns:xlink="http://www.w3.org/1999/xlink" x="0px" y="0px"
	 viewBox="0 0 50 50" style="enable-background:new 0 0 50 50;" xml:space="preserve">
<style type="text/css">
	.st0{fill:#4472A1;}
	.st1{fill:#727791;}
	.st2{fill:#BE8078;}
	.st3{fill:#E9856C;}
	.st4{fill:#987C84;}
</style>
<g>
	<g>
		<path class="st0" d="M25,0.1c-13.81,0-25,11.19-25,25c0,12.38,9.01,22.64,20.83,24.62V30.32H14.8v-6.98h6.03v-5.15
			c0-5.98,3.65-9.23,8.98-9.23c2.55,0,4.75,0.19,5.38,0.27v6.25l-3.7,0c-2.9,0-3.46,1.38-3.46,3.4v4.46h6.92l-0.9,6.98h-6.01V49.9
			C40.41,48.39,50,37.87,50,25.1C50,11.3,38.81,0.1,25,0.1z"/>
	</g>
</g>
</svg>
