<?xml version="1.0" encoding="utf-8"?>
<!-- Generator: Adobe Illustrator 24.0.0, SVG Export Plug-In . SVG Version: 6.00 Build 0)  -->
<svg version="1.1" id="Livello_1" xmlns="http://www.w3.org/2000/svg" xmlns:xlink="http://www.w3.org/1999/xlink" x="0px" y="0px"
	 viewBox="0 0 50 50" style="enable-background:new 0 0 50 50;" xml:space="preserve">
<style type="text/css">
	.st0{fill:#4472A1;}
	.st1{fill:#727791;}
	.st2{fill:#BE8078;}
	.st3{fill:#E9856C;}
	.st4{fill:#987C84;}
</style>
<path class="st3" d="M25,50c13.81,0,25-11.19,25-25S38.81,0,25,0S0,11.19,0,25S11.19,50,25,50z M11.44,24.46l24.1-9.29
	c1.12-0.4,2.1,0.27,1.73,1.96l0,0l-4.1,19.34c-0.3,1.37-1.12,1.7-2.26,1.06l-6.25-4.61l-3.01,2.9c-0.33,0.33-0.61,0.61-1.26,0.61
	l0.44-6.36l11.58-10.46c0.5-0.44-0.11-0.69-0.78-0.25l-14.31,9.01l-6.17-1.92C9.82,26.02,9.79,25.1,11.44,24.46L11.44,24.46z"/>
</svg>
