<?xml version="1.0" encoding="utf-8"?>
<!-- Generator: Adobe Illustrator 24.0.0, SVG Export Plug-In . SVG Version: 6.00 Build 0)  -->
<svg version="1.1" id="Livello_1" xmlns="http://www.w3.org/2000/svg" xmlns:xlink="http://www.w3.org/1999/xlink" x="0px" y="0px"
	 viewBox="0 0 50 50" style="enable-background:new 0 0 50 50;" xml:space="preserve">
<style type="text/css">
	.st0{fill:#4472A1;}
	.st1{fill:#727791;}
	.st2{fill:#BE8078;}
	.st3{fill:#E9856C;}
	.st4{fill:#987C84;}
</style>
<g>
	<path class="st1" d="M25,0C11.19,0,0,11.19,0,25c0,13.81,11.19,25,25,25s25-11.19,25-25C50,11.19,38.81,0,25,0z M38.09,20.53
		c0.01,0.25,0.02,0.5,0.02,0.76c0,7.77-5.92,16.74-16.74,16.74c-3.32,0-6.41-0.97-9.02-2.64c0.46,0.05,0.93,0.08,1.4,0.08
		c2.76,0,5.29-0.94,7.31-2.52c-2.57-0.05-4.75-1.75-5.49-4.08c0.36,0.07,0.73,0.1,1.11,0.1c0.54,0,1.06-0.07,1.55-0.21
		c-2.69-0.54-4.72-2.92-4.72-5.77c0-0.02,0-0.05,0-0.07c0.8,0.44,1.7,0.7,2.67,0.74c-1.58-1.05-2.62-2.85-2.62-4.9
		c0-1.07,0.29-2.09,0.8-2.96c2.9,3.56,7.24,5.9,12.13,6.15c-0.1-0.43-0.15-0.88-0.15-1.34c0-3.25,2.63-5.88,5.88-5.88
		c1.69,0,3.22,0.71,4.29,1.86c1.34-0.26,2.6-0.75,3.74-1.42c-0.44,1.37-1.37,2.52-2.59,3.25c1.19-0.14,2.32-0.46,3.38-0.92
		C40.24,18.66,39.24,19.7,38.09,20.53z"/>
</g>
</svg>
