<?xml version="1.0" standalone="no"?>
<!DOCTYPE svg PUBLIC "-//W3C//DTD SVG 1.1//EN" "http://www.w3.org/Graphics/SVG/1.1/DTD/svg11.dtd" >
<svg xmlns="http://www.w3.org/2000/svg" xmlns:xlink="http://www.w3.org/1999/xlink" version="1.1">
<metadata>
Created by FontForge 20170731 at Wed May 27 09:00:25 2020
 By Aleksey,,,
Copyright (c) 2020 by Alfredo Marco Pradil. All rights reserved.
</metadata>
<defs>
<font id="HKGrotesk-Bold" horiz-adv-x="0" >
  <font-face 
    font-family="HK Grotesk"
    font-weight="700"
    font-stretch="normal"
    units-per-em="1000"
    panose-1="0 0 8 0 0 0 0 0 0 0"
    ascent="697"
    descent="-303"
    x-height="493"
    cap-height="697"
    bbox="-718 -258 1312 1126"
    underline-thickness="48"
    underline-position="-169"
    unicode-range="U+0020-FB02"
  />
<missing-glyph horiz-adv-x="507" 
d="M457 0h-407v472h407v-472zM90 432v-391h326v391h-326z" />
    <glyph glyph-name="fi" unicode="fi" horiz-adv-x="559" 
d="M493 493v-493h-115v403h-160v-403h-115v403h-82v90h82v36q0 55 28 95t75 61.5t102 21.5q59 0 102.5 -12.5t85.5 -38.5l-54 -81q-57 38 -128 38q-48 0 -72 -23t-24 -64v-33h275z" />
    <glyph glyph-name="fl" unicode="fl" horiz-adv-x="624" 
d="M433.5 21.5q-30.5 31.5 -30.5 94.5v480q-40 17 -90 17q-48 0 -71.5 -23t-23.5 -64v-33h101l-1 -90h-100v-403h-116v403h-81v90h81v36q0 55 28 95t75 61.5t102 21.5q62 0 105 -10t107 -42v-518q0 -41 36 -41q14 0 38 8v-99q-40 -15 -79 -15q-50 0 -80.5 31.5z" />
    <glyph glyph-name="f_f" unicode="ff" horiz-adv-x="638" 
d="M103 0v403h-82v90h82v36q0 55 28 95t75 61.5t103 21.5q75 0 130 -34q46 34 104 34q46 0 89 -20l-37 -95q-21 12 -40 12q-52 0 -52 -53v-58h121v-90h-121v-403h-116v403h-169v-403h-115zM218 493h170v67q0 21 6 33q-35 20 -79 20q-48 0 -72.5 -23t-24.5 -63v-34z" />
    <glyph glyph-name="f_f_i" unicode="ffi" horiz-adv-x="849" 
d="M103 0v403h-82v90h82v36q0 55 28 95t75 61.5t103 21.5q39 0 76.5 -10.5t68.5 -32.5q27 21 63 32t75 11q58 0 102 -12.5t86 -38.5l-54 -81q-55 38 -128 38q-48 0 -71.5 -23t-23.5 -64v-33h283v-493h-115v403h-168v-403h-116v403h-169v-403h-115zM218 493h169v36
q0 17 3.5 37t7.5 26q-35 21 -83 21t-72.5 -23t-24.5 -63v-34z" />
    <glyph glyph-name="f_f_l" unicode="ffl" horiz-adv-x="892" 
d="M701.5 21.5q-30.5 31.5 -30.5 94.5v486q-41 11 -73 11q-48 0 -71.5 -23t-23.5 -64v-33h95v-90h-95v-403h-116v403h-169v-403h-115v403h-82v90h82v36q0 55 28 95t75 61.5t103 21.5q38 0 76 -10.5t68 -31.5q28 20 64 31t75 11q59 0 103.5 -13t91.5 -41v-516q0 -41 36 -41
q14 0 38 8v-99q-40 -15 -79 -15q-50 0 -80.5 31.5zM218 493h169v36q0 30 11 63q-37 21 -83 21q-48 0 -72.5 -23t-24.5 -63v-34z" />
    <glyph glyph-name="H_d_c_o.liga" unicode="Hdco" horiz-adv-x="839" 
d="M229.5 21q-86.5 51 -137.5 138t-51 189t51 189t137.5 138t189.5 51t189.5 -51t137.5 -138t51 -189t-51 -189t-137.5 -138t-189.5 -51t-189.5 51zM590.5 52q78.5 46 124.5 124.5t46 171.5t-46 171.5t-124.5 124.5t-171.5 46t-171.5 -46t-124.5 -124.5t-46 -171.5
t46 -171.5t124.5 -124.5t171.5 -46t171.5 46zM190.5 202.5q-5.5 5.5 -5.5 12.5v265q0 8 5.5 13t12.5 5q8 0 13 -5t5 -13v-265q0 -7 -5 -12.5t-13 -5.5q-7 0 -12.5 5.5zM406.5 202.5q-5.5 5.5 -5.5 12.5v265q0 8 5.5 13t12.5 5q8 0 13 -5t5 -13v-265q0 -7 -5 -12.5t-13 -5.5
q-7 0 -12.5 5.5zM624 202l-145 134q-5 4 -5 12q0 7 5 12l143 131q7 7 14 7q6 0 11.5 -4.5t5.5 -12.5q0 -7 -5 -12l-132 -121l132 -122q5 -5 5 -12q0 -6 -4.5 -11.5t-11.5 -5.5q-8 0 -13 5zM275 330q-7 0 -12.5 5.5t-5.5 12.5q0 8 5.5 13t12.5 5h72q8 0 13 -5t5 -13
q0 -7 -5 -12.5t-13 -5.5h-72z" />
    <glyph glyph-name="h_d_c_o.liga" unicode="hdco" horiz-adv-x="839" 
d="M229.5 41q-86.5 51 -137.5 138t-51 189t51 189t137.5 138t189.5 51t189.5 -51t137.5 -138t51 -189t-51 -189t-137.5 -138t-189.5 -51t-189.5 51zM590.5 72q78.5 46 124.5 124.5t46 171.5t-46 171.5t-124.5 124.5t-171.5 46t-171.5 -46t-124.5 -124.5t-46 -171.5
t46 -171.5t124.5 -124.5t171.5 -46t171.5 46zM190.5 222.5q-5.5 5.5 -5.5 12.5v265q0 8 5.5 13t12.5 5q8 0 13 -5t5 -13v-265q0 -7 -5 -12.5t-13 -5.5q-7 0 -12.5 5.5zM406.5 222.5q-5.5 5.5 -5.5 12.5v265q0 8 5.5 13t12.5 5q8 0 13 -5t5 -13v-265q0 -7 -5 -12.5t-13 -5.5
q-7 0 -12.5 5.5zM624 222l-145 134q-5 4 -5 12q0 7 5 12l143 131q7 7 14 7q6 0 11.5 -4.5t5.5 -12.5q0 -7 -5 -12l-132 -121l132 -122q5 -5 5 -12q0 -6 -4.5 -11.5t-11.5 -5.5q-8 0 -13 5zM275 350q-7 0 -12.5 5.5t-5.5 12.5q0 8 5.5 13t12.5 5h72q8 0 13 -5t5 -13
q0 -7 -5 -12.5t-13 -5.5h-72z" />
    <glyph glyph-name="hyphen_greater.liga" unicode="&#x2d;&#x3e;" horiz-adv-x="1114" 
d="M505 517l40 77l533 -297l-533 -297l-40 77l316 177h-823v86h823z" />
    <glyph glyph-name="less_hyphen.liga" unicode="&#x3c;&#x2d;" horiz-adv-x="1114" 
d="M293 340h823v-86h-823l316 -177l-39 -77l-534 297l534 297l39 -77z" />
    <glyph glyph-name=".notdef" horiz-adv-x="507" 
d="M457 0h-407v472h407v-472zM90 432v-391h326v391h-326z" />
    <glyph glyph-name=".null" 
 />
    <glyph glyph-name="nonmarkingreturn" horiz-adv-x="333" 
 />
    <glyph glyph-name="space" unicode=" " horiz-adv-x="251" 
 />
    <glyph glyph-name="exclam" unicode="!" horiz-adv-x="243" 
d="M166 210h-89l-12 487h114zM182 0h-121v128h121v-128z" />
    <glyph glyph-name="quotedbl" unicode="&#x22;" horiz-adv-x="383" 
d="M154 410h-97v287h97v-287zM326 410h-98v287h98v-287z" />
    <glyph glyph-name="numbersign" unicode="#" horiz-adv-x="639" 
d="M180 0h-90l44 205h-116v82h133l28 134h-120v86h138l44 190h92l-44 -194h127l42 194h92l-45 -194h116v-82h-133l-30 -134h122v-82h-139l-44 -205h-91l45 205h-128zM269 421l-26 -134h127l26 134h-127z" />
    <glyph glyph-name="dollar" unicode="$" horiz-adv-x="573" 
d="M481 58q-54 -57 -144 -68v-107h-87v107q-90 11 -148 66t-72 141l117 29q11 -64 50.5 -98t100.5 -34q51 0 84.5 26.5t33.5 70.5q0 40 -32.5 65t-109.5 54q-102 39 -150 88t-48 125q0 73 47 123.5t126 62.5v99h86v-99q55 -8 97.5 -39.5t69.5 -84.5l-95 -58q-45 78 -117 78
q-40 0 -66.5 -22.5t-26.5 -57.5q0 -36 31.5 -60.5t108.5 -53.5q100 -38 149 -86t49 -127q0 -83 -54 -140z" />
    <glyph glyph-name="percent" unicode="%" horiz-adv-x="719" 
d="M88 431.5q-40 45.5 -40 114.5q0 70 39.5 115.5t101.5 45.5q40 0 72.5 -21t51 -58.5t18.5 -82.5q0 -44 -18 -80.5t-49.5 -57.5t-71.5 -21q-64 0 -104 45.5zM192 0h-82l418 697h82zM235.5 487q17.5 23 17.5 58q0 38 -17.5 60.5t-46.5 22.5q-30 0 -46.5 -22t-16.5 -60
q0 -37 17.5 -59.5t48.5 -22.5q26 0 43.5 23zM428 36q-40 46 -40 116q0 69 39 114.5t101 45.5q41 0 73.5 -21t51 -58t18.5 -82t-18 -81.5t-50 -58t-72 -21.5q-63 0 -103 46zM575.5 91.5q17.5 22.5 17.5 59.5t-17.5 59.5t-47.5 22.5q-28 0 -44.5 -22.5t-16.5 -58.5
q0 -38 17 -60.5t47 -22.5q27 0 44.5 22.5z" />
    <glyph glyph-name="ampersand" unicode="&#x26;" horiz-adv-x="701" 
d="M658 36l-82 -73l-87 100q-86 -74 -212 -74q-102 0 -166.5 46t-64.5 130q0 71 43.5 119.5t119.5 92.5q-84 84 -84 162q0 50 27.5 87.5t72 58t93.5 20.5t91 -21.5t67 -59.5t25 -86q0 -56 -34 -98.5t-93 -81.5l115 -130q32 61 49 143l103 -17q-30 -126 -81 -207zM298 427
q46 28 71 55t25 59q0 31 -20 52t-55 21t-59 -20t-24 -52q0 -42 62 -115zM421 141l-139 160q-61 -37 -92 -68t-31 -70q0 -38 30 -56.5t80 -18.5q90 0 152 53z" />
    <glyph glyph-name="quotesingle" unicode="'" horiz-adv-x="212" 
d="M155 410h-98v287h98v-287z" />
    <glyph glyph-name="parenleft" unicode="(" horiz-adv-x="252" 
d="M147 -62q-54 61 -87 166.5t-33 241.5q0 138 32 242t88 167h104q-67 -84 -99.5 -184.5t-32.5 -224.5q0 -246 132 -408h-104z" />
    <glyph glyph-name="parenright" unicode=")" horiz-adv-x="253" 
d="M1 -62q132 162 132 408q0 124 -32.5 224.5t-99.5 184.5h105q55 -62 87 -166.5t32 -242.5q0 -136 -32.5 -242t-86.5 -166h-105z" />
    <glyph glyph-name="asterisk" unicode="*" horiz-adv-x="372" 
d="M186 501l-67 -116l-56 42l89 98l-129 27l21 69l121 -55l-14 131h70l-14 -131l121 55l21 -69l-129 -27l89 -98l-56 -42z" />
    <glyph glyph-name="plus" unicode="+" horiz-adv-x="569" 
d="M328 41h-87v211h-211v86h211v211h87v-211h211v-86h-211v-211z" />
    <glyph glyph-name="comma" unicode="," horiz-adv-x="259" 
d="M112 -149h-76l73 303h130z" />
    <glyph glyph-name="hyphen" unicode="-" horiz-adv-x="376" 
d="M332 254h-287v86h287v-86z" />
    <glyph glyph-name="period" unicode="." horiz-adv-x="251" 
d="M185 0h-119v128h119v-128z" />
    <glyph glyph-name="slash" unicode="/" horiz-adv-x="424" 
d="M75 -211h-87l360 908h88z" />
    <glyph glyph-name="zero" unicode="0" horiz-adv-x="575" 
d="M98 95.5q-49 104.5 -49 256.5q0 148 48.5 252t190.5 104q140 0 189.5 -103.5t49.5 -253.5q0 -152 -49.5 -256t-188.5 -104q-142 0 -191 104.5zM382.5 167.5q26.5 65.5 26.5 180.5q0 117 -26.5 182.5t-94.5 65.5q-70 0 -95 -65.5t-25 -182.5q0 -114 25.5 -180t95.5 -66
q67 0 93.5 65.5z" />
    <glyph glyph-name="one" unicode="1" horiz-adv-x="575" 
d="M282 697h116v-697h-116v492h-179v96h111q34 0 51 15t17 51v43z" />
    <glyph glyph-name="two" unicode="2" horiz-adv-x="575" 
d="M531 108v-108h-477v96q92 62 158 114t121.5 124t55.5 147q0 50 -27 80.5t-79 30.5q-60 0 -89 -42t-32 -105l-113 9q0 65 28 122t81.5 92.5t127.5 35.5q64 0 113.5 -27t77 -77t27.5 -116q0 -105 -67 -193.5t-197 -182.5h291z" />
    <glyph glyph-name="three" unicode="3" horiz-adv-x="575" 
d="M153.5 17q-58.5 26 -93 77.5t-34.5 124.5l115 7q0 -58 40.5 -91t105.5 -33q59 0 98.5 29t39.5 86q0 45 -25.5 67.5t-61.5 28.5t-86 5v93q68 0 102 25t34 70q0 43 -29.5 66t-77.5 23q-49 0 -77.5 -27.5t-29.5 -73.5l-114 7q0 63 30.5 109.5t82 71t113.5 24.5
q60 0 109.5 -23t79 -65.5t29.5 -99.5q0 -52 -26.5 -87t-70.5 -52q63 -21 98 -63t35 -104q0 -70 -35 -120t-93.5 -75.5t-128.5 -25.5q-71 0 -129.5 26z" />
    <glyph glyph-name="four" unicode="4" horiz-adv-x="575" 
d="M453 697v-425h111v-107h-111v-165h-116v165h-313v104l312 428h117zM337 542l-192 -270h192v270z" />
    <glyph glyph-name="five" unicode="5" horiz-adv-x="575" 
d="M422 446q54 -32 84 -86.5t30 -117.5q0 -66 -32.5 -124t-90.5 -93t-130 -35q-64 0 -118 27.5t-89 75.5t-44 107l113 20q7 -49 42 -84t94 -35q64 0 98.5 42t34.5 99q0 55 -33 91.5t-96 36.5q-42 0 -73 -18t-50 -49l-109 28l67 366h385v-107h-290l-27 -144q50 32 112 32
q68 0 122 -32z" />
    <glyph glyph-name="six" unicode="6" horiz-adv-x="575" 
d="M435 435q54 -31 85 -84.5t31 -118.5q0 -69 -34 -124.5t-91.5 -86.5t-126.5 -31t-127 31.5t-92 86.5t-34 123q0 69 38 130l208 336h133l-153 -237q21 6 43 6q66 0 120 -31zM395 137.5q39 36.5 39 94.5t-39 95t-96 37t-96 -36.5t-39 -95.5q0 -58 39 -94.5t96 -36.5t96 36.5
z" />
    <glyph glyph-name="seven" unicode="7" horiz-adv-x="575" 
d="M38 590v107h502v-85l-311 -612h-128l302 590h-365z" />
    <glyph glyph-name="eight" unicode="8" horiz-adv-x="575" 
d="M161 14.5q-58 24.5 -93.5 73.5t-35.5 118q0 58 26.5 102.5t77.5 70.5q-33 21 -51 54.5t-18 77.5q0 59 31 103.5t82 68.5t109 24q60 0 110.5 -24.5t80 -69.5t29.5 -104q0 -87 -69 -130q51 -26 77 -71t26 -102q0 -69 -35 -118t-93 -73.5t-127 -24.5t-127 24.5zM365 436.5
q29 24.5 29 64.5q0 43 -28.5 69t-76.5 26q-47 0 -76.5 -25t-29.5 -68q0 -42 29 -66.5t77 -24.5q47 0 76 24.5zM389 130.5q39 30.5 39 86.5q0 54 -38.5 85t-101.5 31t-101.5 -31t-38.5 -85q0 -56 39.5 -86.5t100.5 -30.5q62 0 101 30.5z" />
    <glyph glyph-name="nine" unicode="9" horiz-adv-x="575" 
d="M414.5 676q58.5 -31 92.5 -86.5t34 -123.5t-39 -130l-208 -336h-133l154 237q-21 -6 -43 -6q-66 0 -120 31t-85 84.5t-31 118.5q0 69 34 124.5t91.5 86.5t125.5 31q69 0 127.5 -31zM384 370q39 36 39 95q0 58 -39 94.5t-97 36.5q-57 0 -95.5 -36.5t-38.5 -94.5
t38.5 -94.5t95.5 -36.5q58 0 97 36z" />
    <glyph glyph-name="colon" unicode=":" horiz-adv-x="257" 
d="M189 341h-121v130h121v-130zM189 0h-121v128h121v-128z" />
    <glyph glyph-name="semicolon" unicode=";" horiz-adv-x="267" 
d="M213 341h-121v130h121v-130zM101 -149h-78l75 279h129z" />
    <glyph glyph-name="less" unicode="&#x3c;" horiz-adv-x="635" 
d="M605 68l-42 -75l-533 304l533 304l42 -76l-400 -228z" />
    <glyph glyph-name="equal" unicode="=" horiz-adv-x="468" 
d="M438 364h-408v86h408v-86zM438 145h-408v86h408v-86z" />
    <glyph glyph-name="greater" unicode="&#x3e;" horiz-adv-x="636" 
d="M605 297l-533 -304l-42 75l401 229l-401 228l42 76z" />
    <glyph glyph-name="question" unicode="?" horiz-adv-x="470" 
d="M184 250q0 44 13.5 74.5t32.5 50t50 43.5q35 27 52.5 48.5t17.5 55.5q0 43 -29.5 65.5t-83.5 22.5q-59 0 -90.5 -30.5t-30.5 -88.5h-102q0 101 61.5 158.5t163.5 57.5q93 0 152 -47t59 -141q0 -44 -13.5 -74.5t-32.5 -49.5t-50 -42q-38 -29 -55.5 -51.5t-17.5 -59.5v-34
h-97v42zM294 0h-120v128h120v-128z" />
    <glyph glyph-name="at" unicode="@" horiz-adv-x="1003" 
d="M273.5 -123q-100.5 50 -159.5 146t-59 230q0 130 57 233.5t159.5 162t235.5 58.5t234 -58.5t155.5 -157.5t54.5 -218q0 -82 -27 -147.5t-78.5 -103t-123.5 -37.5q-40 0 -67 17t-38 49q-15 28 -18 63q-26 -45 -65 -68.5t-89 -23.5q-82 0 -126 54t-44 138q0 72 31 144
t87.5 118.5t128.5 46.5q49 0 80 -22.5t37 -64.5l13 63l94 -1q-7 -41 -18 -94t-16 -78q-17 -75 -25 -120t-8 -71q0 -65 56 -65q67 0 97 57t30 138q0 102 -43.5 182t-123.5 125t-187 45q-108 0 -190.5 -46.5t-127.5 -129.5t-45 -188q0 -108 47.5 -184.5t127 -115.5t174.5 -39
q38 0 68 6.5t58 20.5l32 -86q-73 -28 -155 -28q-123 0 -223.5 50zM536 143.5q35 29.5 54.5 76.5t19.5 97q0 51 -23 82t-69 31t-81 -30.5t-54 -77t-19 -94.5q0 -51 23 -82.5t69 -31.5q45 0 80 29.5z" />
    <glyph glyph-name="A" unicode="A" horiz-adv-x="665" 
d="M655 0h-131l-52 142h-279l-52 -142h-131l277 697h91zM333 520l-100 -270h199z" />
    <glyph glyph-name="B" unicode="B" horiz-adv-x="609" 
d="M69 0v697h240q103 0 162 -46.5t59 -128.5q0 -49 -20.5 -87t-58.5 -59q57 -20 86 -64t29 -109q0 -95 -60 -149t-166 -54h-271zM317 414q43 0 67.5 23.5t24.5 65.5q0 40 -26 62t-74 22h-120v-173h128zM330 111q116 0 116 97q0 47 -27.5 72.5t-78.5 25.5h-151v-195h141z" />
    <glyph glyph-name="C" unicode="C" horiz-adv-x="708" 
d="M199.5 30.5q-75.5 45.5 -117 128t-41.5 190.5t41.5 190t117 127.5t173.5 45.5q109 0 189 -54.5t115 -151.5l-114 -41q-23 63 -72 97.5t-118 34.5q-97 0 -154 -66.5t-57 -181.5t57 -182t154 -67q69 0 118 34.5t72 97.5l114 -41q-35 -97 -115 -151.5t-189 -54.5
q-98 0 -173.5 45.5z" />
    <glyph glyph-name="D" unicode="D" horiz-adv-x="675" 
d="M69 0v697h201q173 0 268 -92.5t95 -261.5q0 -166 -94 -254.5t-270 -88.5h-200zM257 111q128 0 191 53.5t63 183.5q0 127 -62 183t-181 56h-79v-476h68z" />
    <glyph glyph-name="E" unicode="E" horiz-adv-x="578" 
d="M532 0h-463v697h463v-107h-343v-179h318v-108h-318v-195h343v-108z" />
    <glyph glyph-name="F" unicode="F" horiz-adv-x="558" 
d="M189 0h-120v697h464v-107h-344v-179h299v-108h-299v-303z" />
    <glyph glyph-name="G" unicode="G" horiz-adv-x="733" 
d="M398 268v108h279v-376h-106l-11 76q-31 -45 -81.5 -68t-113.5 -23q-94 0 -168 45.5t-115 128t-41 190.5t41.5 190t117 127.5t173.5 45.5q109 0 189 -54.5t115 -151.5l-114 -41q-23 63 -72 97.5t-118 34.5q-97 0 -154 -66.5t-57 -181.5t57 -182t154 -67q72 0 127.5 38.5
t67.5 129.5h-170z" />
    <glyph glyph-name="H" unicode="H" horiz-adv-x="689" 
d="M189 0h-120v697h120v-283h310v283h121v-697h-121v303h-310v-303z" />
    <glyph glyph-name="I" unicode="I" horiz-adv-x="259" 
d="M189 0h-120v697h120v-697z" />
    <glyph glyph-name="J" unicode="J" horiz-adv-x="554" 
d="M92 46.5q-63 61.5 -70 169.5l119 13q4 -68 32.5 -100t83.5 -32q60 0 86.5 38.5t26.5 114.5v340h-264v107h385v-454q0 -120 -63 -189t-171 -69q-102 0 -165 61.5z" />
    <glyph glyph-name="K" unicode="K" horiz-adv-x="656" 
d="M644 0h-143l-213 338l-99 -101v-237h-120v697h120v-307l291 307h162l-267 -270z" />
    <glyph glyph-name="L" unicode="L" horiz-adv-x="500" 
d="M489 0h-420v697h120v-589h300v-108z" />
    <glyph glyph-name="M" unicode="M" horiz-adv-x="851" 
d="M424 212l174 485h184v-697h-121v530l-178 -469h-116l-178 469v-530h-120v697h176z" />
    <glyph glyph-name="N" unicode="N" horiz-adv-x="685" 
d="M496 206v491h120v-697h-126l-301 493v-493h-120v697h125z" />
    <glyph glyph-name="O" unicode="O" horiz-adv-x="746" 
d="M199.5 30.5q-75.5 45.5 -117 127.5t-41.5 190t41.5 190.5t117 128t173.5 45.5q99 0 174 -45.5t116.5 -128t41.5 -190.5t-42 -190t-117 -127.5t-173 -45.5t-173.5 45.5zM484.5 130.5q47.5 30.5 73.5 86.5t26 131q0 115 -57 182t-154 67t-154 -66.5t-57 -182.5
q0 -115 57 -181.5t154 -66.5q64 0 111.5 30.5z" />
    <glyph glyph-name="P" unicode="P" horiz-adv-x="559" 
d="M69 0v697h225q117 0 177 -50.5t60 -150.5t-60.5 -153t-176.5 -53h-105v-290h-120zM282 398q64 0 96.5 23t32.5 74q0 50 -32 72.5t-97 22.5h-93v-192h93z" />
    <glyph glyph-name="Q" unicode="Q" horiz-adv-x="771" 
d="M741 17l-72 -70l-101 98q-82 -60 -195 -60q-98 0 -173 45.5t-117 127.5t-42 190t41.5 190.5t117 128t173.5 45.5q99 0 174 -45.5t116.5 -128t41.5 -190.5q0 -137 -66 -231zM482 128l-95 92l70 74l94 -92q33 63 33 146q0 115 -57 182t-154 67t-154 -66.5t-57 -182.5
q0 -115 57 -181.5t154 -66.5q61 0 109 28z" />
    <glyph glyph-name="R" unicode="R" horiz-adv-x="610" 
d="M588 0h-140l-172 292h-37h-49v-292h-120v697h225q121 0 179 -52.5t58 -147.5q0 -73 -33 -120.5t-95 -68.5zM190 398h93q60 0 94.5 22t34.5 75t-34.5 74t-94.5 21h-93v-192z" />
    <glyph glyph-name="S" unicode="S" horiz-adv-x="573" 
d="M115.5 44q-70.5 57 -85.5 153l117 29q11 -64 50.5 -98t100.5 -34q51 0 84.5 26.5t33.5 70.5q0 40 -32.5 65t-109.5 54q-102 39 -150 88t-48 125q0 55 27 98t76.5 67t113.5 24q70 0 123.5 -32t85.5 -95l-95 -58q-45 78 -117 78q-40 0 -66.5 -22.5t-26.5 -57.5
q0 -36 31.5 -60.5t108.5 -53.5q100 -38 149 -86t49 -127q0 -61 -30 -109t-85 -75t-126 -27q-108 0 -178.5 57z" />
    <glyph glyph-name="T" unicode="T" horiz-adv-x="585" 
d="M353 0h-122v590h-220v107h561v-107h-219v-590z" />
    <glyph glyph-name="U" unicode="U" horiz-adv-x="655" 
d="M129.5 52q-66.5 67 -66.5 200v445h120v-431q0 -88 32 -129t112 -41t113 41t33 128v432h120v-440q0 -135 -67.5 -203.5t-198.5 -68.5t-197.5 67z" />
    <glyph glyph-name="V" unicode="V" horiz-adv-x="667" 
d="M334 196l190 501h133l-278 -697h-90l-279 697h132z" />
    <glyph glyph-name="W" unicode="W" horiz-adv-x="973" 
d="M685 184l148 513h125l-208 -697h-117l-146 481l-147 -481h-117l-208 697h126l148 -513l138 473h119z" />
    <glyph glyph-name="X" unicode="X" horiz-adv-x="663" 
d="M159 0h-144l233 348l-232 349h144l172 -265l171 265h144l-233 -349l235 -348h-144l-174 261z" />
    <glyph glyph-name="Y" unicode="Y" horiz-adv-x="616" 
d="M369 0h-120v272l-245 425h137l165 -305l169 305h137l-243 -425v-272z" />
    <glyph glyph-name="Z" unicode="Z" horiz-adv-x="593" 
d="M556 597l-378 -489h391v-108h-542v99l378 491h-355v107h506v-100z" />
    <glyph glyph-name="bracketleft" unicode="[" horiz-adv-x="279" 
d="M269 -80h-211v855h211v-78h-117v-698h117v-79z" />
    <glyph glyph-name="backslash" unicode="\" horiz-adv-x="424" 
d="M32 697l361 -908h-87l-362 908h88z" />
    <glyph glyph-name="bracketright" unicode="]" horiz-adv-x="279" 
d="M221 -80h-211v79h117v698h-117v78h211v-855z" />
    <glyph glyph-name="asciicircum" unicode="^" horiz-adv-x="631" 
d="M163 209h-123l275 528l276 -528h-122l-154 311z" />
    <glyph glyph-name="underscore" unicode="_" horiz-adv-x="505" 
d="M461 -88h-417v88h417v-88z" />
    <glyph glyph-name="grave" unicode="`" horiz-adv-x="252" 
d="M236 555h-86l-141 142h123z" />
    <glyph glyph-name="a" unicode="a" horiz-adv-x="544" 
d="M430.5 452q56.5 -51 56.5 -141v-311h-106l-6 51q-51 -61 -143 -61q-86 0 -138 45t-52 118q0 77 58 115q49 34 132 34h140v9q0 43 -27.5 67t-78.5 24q-37 0 -68.5 -14t-63.5 -49l-84 70q43 48 100.5 71t123.5 23q100 0 156.5 -51zM334.5 117.5q37.5 34.5 37.5 86.5v8h-123
q-45 0 -67 -15q-25 -16 -25 -46q0 -31 23 -49.5t62 -18.5q55 0 92.5 34.5z" />
    <glyph glyph-name="b" unicode="b" horiz-adv-x="580" 
d="M435 472q47 -31 74.5 -89t27.5 -136q0 -74 -25 -132t-72 -91.5t-110 -33.5q-44 0 -84.5 18t-66.5 53v-61h-115v697h115v-267q24 33 65 53t86 20q58 0 105 -31zM386.5 138q34.5 41 34.5 109t-34.5 109t-92.5 41q-57 0 -91.5 -41t-34.5 -109t34.5 -109t91.5 -41
q58 0 92.5 41z" />
    <glyph glyph-name="c" unicode="c" horiz-adv-x="522" 
d="M149.5 25.5q-53.5 35.5 -81 94t-27.5 127.5q0 67 27 125.5t80.5 94.5t129.5 36q74 0 129 -36.5t82 -107.5l-101 -40q-32 83 -110 83q-60 0 -90.5 -45.5t-30.5 -109.5q0 -66 30.5 -111t90.5 -45q80 0 109 83l101 -40q-26 -70 -80.5 -107t-129.5 -37t-128.5 35.5z" />
    <glyph glyph-name="d" unicode="d" horiz-adv-x="579" 
d="M401 697h115v-697h-115v62q-25 -35 -66 -53.5t-85 -18.5q-63 0 -110 33.5t-72 91.5t-25 132q0 78 27.5 136t74.5 89t105 31q46 0 87 -20t64 -53v267zM376.5 138q34.5 41 34.5 109t-34.5 109t-91.5 41t-92 -41t-35 -109t35 -109t92 -41t91.5 41z" />
    <glyph glyph-name="e" unicode="e" horiz-adv-x="542" 
d="M498 208h-340q3 -52 35 -82.5t90 -30.5q36 0 65.5 12.5t55.5 41.5l80 -71q-40 -44 -89.5 -66t-111.5 -22q-81 0 -135 34.5t-80 92t-26 127.5q0 68 25.5 127t78 95.5t129.5 36.5q73 0 124 -33t76.5 -89.5t25.5 -126.5q0 -19 -3 -46zM390 298q1 46 -31 77t-86 31
q-52 0 -81.5 -31.5t-35.5 -76.5h234z" />
    <glyph glyph-name="f" unicode="f" horiz-adv-x="368" 
d="M116 0v403h-95v90h96v55q0 159 150 159q48 0 95 -21l-37 -88q-24 12 -45 12q-48 0 -48 -63v-54h117v-90h-117v-403h-116z" />
    <glyph glyph-name="g" unicode="g" horiz-adv-x="526" 
d="M386.5 51q46.5 -12 75.5 -39t29 -78q0 -72 -58.5 -110t-167.5 -38q-107 0 -169 39t-62 108q0 16 3 31l72 46q-62 33 -62 101q0 59 45 98q-39 47 -39 111q0 54 27 95.5t72.5 64.5t100.5 23q64 0 114 -31l81 66l60 -74l-75 -62q21 -37 21 -86q0 -79 -54.5 -127t-143.5 -48
q-49 0 -88 15q-15 -13 -15 -32q0 -24 23 -33.5t80 -16.5q84 -11 130.5 -23zM191.5 382.5q-23.5 -23.5 -23.5 -62.5q0 -38 22.5 -63t63.5 -25q40 0 62.5 25t22.5 63q0 39 -23 62.5t-62 23.5t-62.5 -23.5zM349 -116.5q27 10.5 27 35.5q0 19 -14 29t-41.5 15.5t-84.5 12.5
l-41 6l-45 -43q-1 -2 -1 -10q0 -28 30.5 -42t85.5 -14q57 0 84 10.5z" />
    <glyph glyph-name="h" unicode="h" horiz-adv-x="561" 
d="M455 454.5q47 -48.5 47 -134.5v-320h-116v277q0 64 -23.5 94.5t-72.5 30.5q-56 0 -83.5 -40.5t-27.5 -123.5v-238h-116v697h116v-257q47 63 143 63q86 0 133 -48.5z" />
    <glyph glyph-name="i" unicode="i" horiz-adv-x="245" 
d="M180 0h-115v493h115v-493zM182 572h-119v125h119v-125z" />
    <glyph glyph-name="j" unicode="j" horiz-adv-x="246" 
d="M-22 -199v100q28 -7 44 -7q22 0 32.5 10.5t10.5 39.5v549h116v-580q0 -63 -31.5 -95t-85.5 -32q-38 0 -86 15zM183 572h-119v125h119v-125z" />
    <glyph glyph-name="k" unicode="k" horiz-adv-x="552" 
d="M513 493l-179 -184l201 -309h-138l-147 231l-71 -79v-152h-116v697h116v-401l179 197h155z" />
    <glyph glyph-name="l" unicode="l" horiz-adv-x="282" 
d="M92 21.5q-31 31.5 -31 94.5v581h115v-558q0 -42 38 -42q13 0 37 7v-99q-40 -15 -76 -15q-52 0 -83 31.5z" />
    <glyph glyph-name="m" unicode="m" horiz-adv-x="840" 
d="M735.5 447.5q46.5 -55.5 46.5 -138.5v-309h-116v281q0 121 -89 121q-48 0 -72.5 -37.5t-24.5 -111.5v-253h-115v284q0 59 -22 88.5t-63 29.5q-50 0 -75.5 -37.5t-25.5 -111.5v-253h-116v493h111v-55q24 34 58.5 49.5t73.5 15.5q93 0 136 -60q55 60 152 60
q95 0 141.5 -55.5z" />
    <glyph glyph-name="n" unicode="n" horiz-adv-x="561" 
d="M455 455.5q47 -47.5 47 -135.5v-320h-116v277q0 64 -23.5 94.5t-72.5 30.5q-56 0 -83.5 -40t-27.5 -124v-238h-116v493h116v-53q48 63 143 63q86 0 133 -47.5z" />
    <glyph glyph-name="o" unicode="o" horiz-adv-x="573" 
d="M160 23q-56 33 -88 92t-32 132q0 74 31.5 132t87.5 91t127 33t127 -33t87.5 -91t31.5 -132q0 -73 -32 -131.5t-88 -92t-126 -33.5t-126 33zM382 133.5q35 41.5 35 113.5t-35 113t-96 41t-95.5 -40.5t-34.5 -113.5q0 -72 34.5 -113.5t95.5 -41.5t96 41.5z" />
    <glyph glyph-name="p" unicode="p" horiz-adv-x="580" 
d="M440 469.5q47 -33.5 72 -91.5t25 -132q0 -77 -27.5 -135.5t-74.5 -89.5t-105 -31q-45 0 -86 20t-65 53v-267h-115v697h115v-61q26 35 66.5 53t84.5 18q63 0 110 -33.5zM386.5 137.5q34.5 40.5 34.5 108.5t-34.5 109.5t-92.5 41.5q-57 0 -91.5 -41.5t-34.5 -109.5
q0 -67 34.5 -108t91.5 -41q58 0 92.5 40.5z" />
    <glyph glyph-name="q" unicode="q" horiz-adv-x="580" 
d="M401 493h115v-697h-115v267q-23 -33 -64 -53t-86 -20q-58 0 -105.5 31t-75 89.5t-27.5 135.5q0 73 25.5 131.5t72.5 92t110 33.5q44 0 84.5 -18t65.5 -52v60zM377.5 138q34.5 41 34.5 108q0 68 -34.5 109.5t-91.5 41.5q-58 0 -92.5 -41.5t-34.5 -109.5t34.5 -108.5
t92.5 -40.5q57 0 91.5 41z" />
    <glyph glyph-name="r" unicode="r" horiz-adv-x="421" 
d="M359 496q26 -7 47 -20l-56 -101q-12 7 -28.5 11.5t-33.5 4.5q-35 0 -62.5 -20.5t-38.5 -61.5q-8 -29 -8 -93v-216h-116v493h117v-62q21 34 54 53t73 19q26 0 52 -7z" />
    <glyph glyph-name="s" unicode="s" horiz-adv-x="480" 
d="M126.5 16.5q-53.5 26.5 -93.5 77.5l79 68q25 -36 61 -56t78 -20q37 0 56.5 14.5t19.5 40.5t-23 39.5t-79 28.5q-53 15 -87 29.5t-59 43.5t-25 77q0 40 23.5 73t65.5 52t95 19q60 0 108.5 -22.5t80.5 -65.5l-80 -63q-47 58 -114 58q-31 0 -51 -12t-20 -32q0 -19 21 -29.5
t74 -24.5q55 -13 92.5 -28t64.5 -46.5t27 -84.5q0 -73 -54.5 -118t-143.5 -45q-63 0 -116.5 26.5z" />
    <glyph glyph-name="t" unicode="t" horiz-adv-x="378" 
d="M342 403h-123v-252q0 -29 12 -48t49 -19q25 0 62 10v-89q-45 -15 -89 -15q-67 0 -108 36t-41 114v263h-81v90h81v118l115 64v-182h123v-90z" />
    <glyph glyph-name="u" unicode="u" horiz-adv-x="560" 
d="M380 493h116v-493h-116v54q-48 -64 -143 -64q-86 0 -133 48t-47 135v320h116v-277q0 -64 23.5 -94.5t71.5 -30.5q56 0 84 40t28 124v238z" />
    <glyph glyph-name="v" unicode="v" horiz-adv-x="531" 
d="M313 0h-95l-202 493h127l122 -343l124 343h125z" />
    <glyph glyph-name="w" unicode="w" horiz-adv-x="753" 
d="M276 0h-105l-151 493h123l87 -316l96 316h99l96 -314l87 314h124l-152 -493h-104l-100 329z" />
    <glyph glyph-name="x" unicode="x" horiz-adv-x="536" 
d="M162 0h-142l170 248l-170 245h142l105 -166l105 166h142l-171 -245l172 -248h-142l-106 169z" />
    <glyph glyph-name="y" unicode="y" horiz-adv-x="545" 
d="M249 -204h-125l87 217l-194 480h127l129 -348l128 348h126z" />
    <glyph glyph-name="z" unicode="z" horiz-adv-x="469" 
d="M46 493h385v-83l-247 -313h246v-97h-396v78l256 318h-244v97z" />
    <glyph glyph-name="braceleft" unicode="{" horiz-adv-x="264" 
d="M178 -77q-54 0 -81.5 37t-27.5 103v149q0 29 -9.5 45t-20.5 22t-35 15v77q22 8 34 14.5t21.5 22.5t9.5 45v151q0 65 28.5 101t81.5 36h75v-74h-36q-28 0 -39.5 -17.5t-11.5 -48.5v-150q0 -48 -17 -74t-52 -43v-5q33 -15 51 -41t18 -74v-150q0 -65 50 -65h37v-76h-76z" />
    <glyph glyph-name="bar" unicode="|" horiz-adv-x="245" 
d="M166 -254h-87v1000h87v-1000z" />
    <glyph glyph-name="braceright" unicode="}" horiz-adv-x="264" 
d="M10 -77v76h37q50 0 50 65v150q0 47 18 73t52 42v5q-34 16 -52 42.5t-18 74.5v150q0 66 -50 66h-37v74h76q53 0 81.5 -36t28.5 -101v-151q0 -28 9 -44.5t21.5 -23.5t33.5 -14v-77q-31 -11 -47.5 -27t-16.5 -55v-149q0 -65 -28 -102.5t-82 -37.5h-76z" />
    <glyph glyph-name="asciitilde" unicode="~" horiz-adv-x="584" 
d="M311 183.5q-24 17.5 -47 50.5q-16 23 -29 34t-32 11q-21 0 -33 -23t-12 -62h-88q0 73 36.5 118.5t96.5 45.5q46 0 71 -18.5t48 -52.5q16 -23 28 -33.5t29 -10.5q21 0 34.5 27.5t13.5 69.5h87q0 -78 -37 -126t-98 -48q-44 0 -68 17.5z" />
    <glyph glyph-name="uni00A0" unicode="&#xa0;" horiz-adv-x="251" 
 />
    <glyph glyph-name="exclamdown" unicode="&#xa1;" horiz-adv-x="243" 
d="M61 493h121v-128h-121v128zM77 283h88l13 -487h-114z" />
    <glyph glyph-name="cent" unicode="&#xa2;" horiz-adv-x="522" 
d="M387 174l101 -40q-23 -62 -68.5 -98t-107.5 -44v-105h-86v108q-88 17 -136.5 88t-48.5 164q0 58 21 111t62.5 90.5t101.5 49.5v103h86v-100q62 -8 107 -43.5t70 -98.5l-101 -40q-32 83 -110 83q-60 0 -90.5 -45.5t-30.5 -109.5q0 -66 30.5 -111t90.5 -45q80 0 109 83z
" />
    <glyph glyph-name="sterling" unicode="&#xa3;" horiz-adv-x="602" 
d="M260.5 149q-20.5 -35 -59.5 -52h341v-97h-479v99q50 20 86.5 57.5t36.5 78.5q0 19 -15 66h-106v97h86q-10 37 -15 61t-5 49q0 57 25 103.5t72 73.5t110 27q79 0 133.5 -41t70.5 -111l-90 -34q-8 43 -39.5 66t-72.5 23q-51 0 -81.5 -30t-30.5 -79q0 -26 7 -56.5t16 -51.5
h197v-97h-181q14 -40 14 -67q0 -50 -20.5 -85z" />
    <glyph glyph-name="currency" unicode="&#xa4;" horiz-adv-x="642" 
d="M137 66l-61 64l52 51q-40 58 -40 130q0 74 40 130l-51 51l62 65l52 -55q59 43 132 43q70 0 128 -41l52 52l63 -62l-53 -52q41 -57 41 -131q0 -72 -41 -131l53 -50l-62 -64l-53 53q-58 -41 -130 -41q-71 0 -132 41zM320 165q61 0 104 43q21 22 32 48.5t11 55.5
q0 28 -11 54.5t-33 47.5t-48.5 32t-54.5 11t-55 -11.5t-48 -32.5t-31.5 -48t-10.5 -56q0 -28 10.5 -54.5t30.5 -46.5q43 -43 104 -43z" />
    <glyph glyph-name="yen" unicode="&#xa5;" horiz-adv-x="735" 
d="M431 0h-126v104h-157v94h157v68h-157v94h102l-207 337h146l178 -309l178 309h147l-207 -337h101v-94h-155v-68h155v-94h-155v-104z" />
    <glyph glyph-name="brokenbar" unicode="&#xa6;" horiz-adv-x="245" 
d="M166 330h-87v416h87v-416zM166 -254h-87v409h87v-409z" />
    <glyph glyph-name="section" unicode="&#xa7;" horiz-adv-x="598" 
d="M171 -182.5q-55 30.5 -89 91.5l100 61q19 -36 49 -55.5t66 -19.5q39 0 65 21.5t26 55.5q0 29 -19 49t-45 32t-76 31q-62 24 -102 46t-68.5 62t-28.5 101q0 86 59 143q-18 36 -18 80q0 59 29 102.5t78.5 66t108.5 22.5q69 0 123 -30.5t87 -90.5l-100 -62q-18 36 -48.5 56
t-65.5 20q-40 0 -65.5 -22t-25.5 -56q0 -27 18 -46.5t45.5 -33t75.5 -31.5q62 -24 102 -46t68.5 -62t28.5 -100q0 -88 -58 -144q17 -34 17 -81q0 -59 -29 -102t-78 -66t-108 -23q-67 0 -122 30.5zM429 192q0 31 -19 52.5t-45.5 35t-76.5 33.5q-8 3 -39 14.5t-61 30.5
q-18 -22 -18 -54q0 -31 18.5 -52.5t46 -36t76.5 -34.5q4 -1 8.5 -3t10.5 -4q5 -2 30.5 -11.5t49.5 -25.5q19 23 19 55z" />
    <glyph glyph-name="dieresis" unicode="&#xa8;" horiz-adv-x="431" 
d="M178 572h-118v125h118v-125zM372 572h-118v125h118v-125z" />
    <glyph glyph-name="copyright" unicode="&#xa9;" horiz-adv-x="860" 
d="M241.5 32.5q-85.5 45.5 -135.5 128t-50 187.5t50 187.5t135.5 128.5t188.5 46t188.5 -46t135.5 -128.5t50 -187.5t-50 -187.5t-135.5 -128t-188.5 -45.5t-188.5 45.5zM582.5 96q69.5 36 109.5 101.5t40 150.5t-40 151t-109 102t-153 36t-153 -36t-109 -102t-40 -151
t40 -150.5t109.5 -101.5t152.5 -36t152.5 36zM334 164.5q-44 29.5 -66.5 78t-22.5 104.5t22 105t66 79t107 30q62 0 107.5 -30.5t68.5 -89.5l-90 -35q-9 30 -32 49.5t-54 19.5q-49 0 -74.5 -37.5t-25.5 -90.5q0 -52 25 -88t75 -36q31 0 54 18.5t31 48.5l86 -33
q-20 -57 -64.5 -89.5t-105.5 -32.5q-63 0 -107 29.5z" />
    <glyph glyph-name="ordfeminine" unicode="&#xaa;" horiz-adv-x="420" 
d="M84 379q-35 30 -35 79q0 52 38 78.5t101 26.5h97q0 15 -3 25q-11 58 -75 58q-33 0 -55 -14t-41 -39l-52 35q30 42 64.5 60.5t80.5 18.5q68 0 106.5 -38t38.5 -102v-210h-60l-1 46q-46 -54 -115 -54q-54 0 -89 30zM273 456q6 14 12 48h-93q-36 0 -54 -12t-18 -35
q0 -21 17.5 -34t50.5 -13q57 0 85 46z" />
    <glyph glyph-name="guillemotleft" unicode="&#xab;" horiz-adv-x="541" 
d="M248 170v-123l-248 205l248 205v-123l-112 -82zM499 170v-123l-248 205l248 205v-123l-111 -82z" />
    <glyph glyph-name="logicalnot" unicode="&#xac;" horiz-adv-x="513" 
d="M483 99h-86v155h-367v86h453v-241z" />
    <glyph glyph-name="uni00AD" unicode="&#xad;" horiz-adv-x="446" 
d="M401 254h-356v86h356v-86z" />
    <glyph glyph-name="registered" unicode="&#xae;" horiz-adv-x="860" 
d="M241.5 32.5q-85.5 45.5 -135.5 128t-50 187.5t50 187.5t135.5 128.5t188.5 46t188.5 -46t135.5 -128.5t50 -187.5t-50 -187.5t-135.5 -128t-188.5 -45.5t-188.5 45.5zM582.5 96q69.5 36 109.5 101.5t40 150.5t-40 151t-109 102t-153 36t-153 -36t-109 -102t-40 -151
t40 -150.5t109.5 -101.5t152.5 -36t152.5 36zM306 141v415h132q65 0 105 -34t40 -89q0 -36 -21 -65t-57 -42l113 -185h-87l-102 177h-21h-25v-177h-77zM445 380q29 2 45.5 15.5t16.5 36.5q0 26 -18 40.5t-50 14.5h-56v-107h62z" />
    <glyph glyph-name="macron" unicode="&#xaf;" horiz-adv-x="402" 
d="M339 569h-275v68h275v-68z" />
    <glyph glyph-name="degree" unicode="&#xb0;" horiz-adv-x="419" 
d="M137.5 438.5q-33.5 19.5 -53 52.5t-19.5 72t19.5 72t53 52.5t71.5 19.5q39 0 72.5 -19.5t53 -52.5t19.5 -72t-19.5 -72t-53 -52.5t-72.5 -19.5q-38 0 -71.5 19.5zM256.5 516q19.5 19 19.5 47t-19 46.5t-48 18.5q-28 0 -46.5 -18.5t-18.5 -46.5t19 -47t46 -19
q28 0 47.5 19z" />
    <glyph glyph-name="plusminus" unicode="&#xb1;" horiz-adv-x="655" 
d="M370 93h-86v213h-227v87h227v211h86v-211h226v-87h-226v-213zM596 -87h-539v86h539v-86z" />
    <glyph glyph-name="uni00B2" unicode="&#xb2;" horiz-adv-x="399" 
d="M355 545v-57h-308v51q94 57 159.5 116t65.5 127q0 31 -17 50t-50 19q-40 0 -59 -27.5t-21 -68.5l-61 4q0 62 38 105t103 43q58 0 93.5 -33.5t35.5 -92.5q0 -68 -56 -132t-131 -104h208z" />
    <glyph glyph-name="uni00B3" unicode="&#xb3;" horiz-adv-x="362" 
d="M69 516q-43 35 -43 98l59 4q0 -37 26 -58.5t66 -21.5q39 0 65 19.5t26 55.5q0 41 -31.5 55.5t-78.5 14.5v41q87 0 87 58q0 33 -19 49t-49 16q-32 0 -52 -17.5t-21 -47.5l-58 4q0 55 37 87t92 32q54 0 92 -30.5t38 -79.5q0 -59 -60 -85q39 -10 60.5 -37.5t21.5 -65.5
q0 -59 -43.5 -92.5t-106.5 -33.5q-65 0 -108 35z" />
    <glyph glyph-name="acute" unicode="&#xb4;" horiz-adv-x="260" 
d="M99 555h-85l111 142h125z" />
    <glyph glyph-name="uni00B5" unicode="&#xb5;" horiz-adv-x="560" 
d="M57 -163v656h116v-284q0 -55 21.5 -86.5t76.5 -31.5q64 0 86.5 51.5t22.5 150.5v200h116v-493h-116v64q-24 -37 -61 -55.5t-83 -18.5q-43 0 -63 28v-181h-116z" />
    <glyph glyph-name="paragraph" unicode="&#xb6;" horiz-adv-x="606" 
d="M269 307q-59 0 -110.5 23.5t-82.5 68t-31 103.5t31 103.5t82.5 68t110.5 23.5h65v-818h-65v428zM509 -121h-66v818h66v-818z" />
    <glyph glyph-name="periodcentered" unicode="&#xb7;" horiz-adv-x="240" 
d="M175 285h-109v128h109v-128z" />
    <glyph glyph-name="cedilla" unicode="&#xb8;" horiz-adv-x="268" 
d="M65 -240q-27 18 -40 46l65 27q4 -11 13.5 -18t21.5 -7q19 0 30 11t11 29q0 24 -22.5 40t-60.5 16h-34l59 95h69l-39 -50q5 -1 13 -2t16 -4q33 -10 50 -33.5t17 -56.5q0 -48 -31.5 -79.5t-80.5 -31.5q-30 0 -57 18z" />
    <glyph glyph-name="uni00B9" unicode="&#xb9;" horiz-adv-x="441" 
d="M205 902h59v-414h-62v301h-99v48h60q42 0 42 37v28z" />
    <glyph glyph-name="ordmasculine" unicode="&#xba;" horiz-adv-x="440" 
d="M129.5 376q-39.5 24 -61.5 64.5t-22 88.5t22 89t62 65t90 24t90 -24t62.5 -65t22.5 -89q0 -49 -22.5 -89.5t-62.5 -64t-90 -23.5q-51 0 -90.5 24zM294 447.5q25 31.5 25 81.5q0 51 -25 82.5t-74 31.5t-74 -31.5t-25 -82.5q0 -50 25 -81.5t74 -31.5t74 31.5z" />
    <glyph glyph-name="guillemotright" unicode="&#xbb;" horiz-adv-x="542" 
d="M278 252l-248 -205v123l111 82l-111 82v123zM529 252l-248 -205v123l112 82l-112 82v123z" />
    <glyph glyph-name="onequarter" unicode="&#xbc;" horiz-adv-x="795" 
d="M119 0l418 697h67l-418 -697h-67zM138 280v301h-98v48h60q41 0 41 37v28h59v-414h-62zM688 414v-258h66v-57h-66v-99h-62v99h-196v36l205 279h53zM626 319l-116 -163h116v163z" />
    <glyph glyph-name="onehalf" unicode="&#xbd;" horiz-adv-x="805" 
d="M119 0l418 697h67l-418 -697h-67zM138 280v301h-98v48h60q41 0 41 37v28h59v-414h-62zM757 57v-57h-309v51q94 57 159.5 116t65.5 127q0 31 -17 50t-50 19q-40 0 -59 -27.5t-20 -68.5l-61 4q0 62 37.5 105t102.5 43q58 0 94 -33.5t36 -92.5q0 -68 -56.5 -131.5
t-131.5 -104.5h209z" />
    <glyph glyph-name="threequarters" unicode="&#xbe;" horiz-adv-x="923" 
d="M303.5 308.5q-43.5 -33.5 -107.5 -33.5q-65 0 -107.5 35t-42.5 98l59 4q0 -37 25.5 -58.5t66.5 -21.5q39 0 64.5 19.5t25.5 55.5q0 41 -31.5 55.5t-78.5 14.5v41q46 0 67 14.5t21 43.5q0 33 -19.5 49t-48.5 16q-32 0 -52 -17.5t-21 -47.5l-59 4q0 55 37.5 87t92.5 32
q54 0 92 -30.5t38 -79.5q0 -59 -60 -85q39 -10 60.5 -37.5t21.5 -65.5q0 -59 -43.5 -92.5zM248 0l417 697h67l-417 -697h-67zM817 414v-258h66v-57h-66v-99h-62v99h-197v36l205 279h54zM755 320l-116 -164h116v164z" />
    <glyph glyph-name="questiondown" unicode="&#xbf;" horiz-adv-x="481" 
d="M196 493h121v-128h-121v128zM307 243q0 -44 -13.5 -74.5t-32.5 -50t-50 -43.5q-35 -27 -52.5 -48.5t-17.5 -55.5q0 -43 29 -65.5t83 -22.5q60 0 91 30.5t31 88.5h102q0 -101 -62 -158.5t-164 -57.5q-93 0 -152 47t-59 141q0 44 13.5 74.5t32.5 49.5t50 42
q38 29 55.5 51.5t17.5 59.5v34h98v-42z" />
    <glyph glyph-name="Agrave" unicode="&#xc0;" horiz-adv-x="665" 
d="M655 0h-131l-52 142h-279l-52 -142h-131l277 697h91zM333 520l-100 -270h199zM376 759h-86l-141 142h123z" />
    <glyph glyph-name="Aacute" unicode="&#xc1;" horiz-adv-x="665" 
d="M655 0h-131l-52 142h-279l-52 -142h-131l277 697h91zM333 520l-100 -270h199zM375 759h-85l111 142h125z" />
    <glyph glyph-name="Acircumflex" unicode="&#xc2;" horiz-adv-x="665" 
d="M655 0h-131l-52 142h-279l-52 -142h-131l277 697h91zM333 520l-100 -270h199zM267 746h-89l155 172l155 -172h-89l-66 74z" />
    <glyph glyph-name="Atilde" unicode="&#xc3;" horiz-adv-x="665" 
d="M655 0h-131l-52 142h-279l-52 -142h-131l277 697h91zM333 520l-100 -270h199zM347 773.5q-19 11.5 -39 32.5q-14 14 -22 20t-19 6q-16 1 -24.5 -16.5t-8.5 -50.5h-67q0 66 28 102.5t77 36.5q26 0 44 -11.5t39 -32.5q16 -15 24 -21t19 -6q13 0 22 18t9 50h70
q0 -67 -27.5 -103t-75.5 -36q-30 0 -49 11.5z" />
    <glyph glyph-name="Adieresis" unicode="&#xc4;" horiz-adv-x="665" 
d="M655 0h-131l-52 142h-279l-52 -142h-131l277 697h91zM333 520l-100 -270h199zM296 776h-119v125h119v-125zM490 776h-119v125h119v-125z" />
    <glyph glyph-name="Aring" unicode="&#xc5;" horiz-adv-x="665" 
d="M524 0l-52 142h-279l-52 -142h-131l274 689q-29 14 -46 41.5t-17 59.5q0 47 33 79.5t80 32.5q46 0 79 -32.5t33 -79.5q0 -33 -18 -60.5t-46 -41.5l273 -688h-131zM297.5 826q-13.5 -14 -13.5 -35q0 -22 14 -36.5t36 -14.5t35.5 14.5t13.5 36.5t-13 35.5t-36 13.5
t-36.5 -14zM333 520l-100 -270h199z" />
    <glyph glyph-name="AE" unicode="&#xc6;" horiz-adv-x="915" 
d="M868 697v-107h-351v-187h308v-108h-308v-187h351v-108h-472v142h-209l-52 -142h-131l276 697h588zM353 591l-125 -338h168v338h-43z" />
    <glyph glyph-name="Ccedilla" unicode="&#xc7;" horiz-adv-x="708" 
d="M491 134.5q49 34.5 72 97.5l114 -41q-36 -96 -114.5 -150.5t-185.5 -55.5l-28 -36q31 -4 56 -19q40 -25 40 -76q0 -49 -31.5 -80.5t-83.5 -31.5q-19 0 -41.5 8t-41.5 25l37 56q21 -23 49 -23q21 0 33 10.5t12 31.5q0 35 -42 47q-15 5 -35 6t-41 1l53 86q-82 13 -143.5 61
t-95 124.5t-33.5 173.5q0 108 41.5 190t117 127.5t173.5 45.5q109 0 189 -54.5t115 -151.5l-114 -41q-23 63 -72 97.5t-118 34.5q-97 0 -154 -66.5t-57 -181.5t57 -182t154 -67q69 0 118 34.5z" />
    <glyph glyph-name="Egrave" unicode="&#xc8;" horiz-adv-x="578" 
d="M532 0h-463v697h463v-107h-343v-179h318v-108h-318v-195h343v-108zM344 759h-86l-141 142h123z" />
    <glyph glyph-name="Eacute" unicode="&#xc9;" horiz-adv-x="578" 
d="M532 0h-463v697h463v-107h-343v-179h318v-108h-318v-195h343v-108zM343 759h-85l111 142h125z" />
    <glyph glyph-name="Ecircumflex" unicode="&#xca;" horiz-adv-x="578" 
d="M532 0h-463v697h463v-107h-343v-179h318v-108h-318v-195h343v-108zM235 746h-89l155 172l155 -172h-89l-66 74z" />
    <glyph glyph-name="Edieresis" unicode="&#xcb;" horiz-adv-x="578" 
d="M532 0h-463v697h463v-107h-343v-179h318v-108h-318v-195h343v-108zM263 776h-119v125h119v-125zM457 776h-119v125h119v-125z" />
    <glyph glyph-name="Igrave" unicode="&#xcc;" horiz-adv-x="259" 
d="M189 0h-120v697h120v-697zM172 759h-86l-141 142h123z" />
    <glyph glyph-name="Iacute" unicode="&#xcd;" horiz-adv-x="259" 
d="M189 0h-120v697h120v-697zM172 759h-85l111 142h125z" />
    <glyph glyph-name="Icircumflex" unicode="&#xce;" horiz-adv-x="259" 
d="M189 0h-120v697h120v-697zM63 746h-89l155 172l155 -172h-89l-66 74z" />
    <glyph glyph-name="Idieresis" unicode="&#xcf;" horiz-adv-x="259" 
d="M189 0h-120v697h120v-697zM92 776h-119v125h119v-125zM286 776h-119v125h119v-125z" />
    <glyph glyph-name="Eth" unicode="&#xd0;" horiz-adv-x="675" 
d="M270 697q173 0 268 -92.5t95 -261.5q0 -166 -94 -254.5t-270 -88.5h-200v310h-79v78h79v309h201zM257 111q128 0 191 53.5t63 183.5q0 127 -62 183t-181 56h-79v-199h120v-78h-120v-199h68z" />
    <glyph glyph-name="Ntilde" unicode="&#xd1;" horiz-adv-x="685" 
d="M496 206v491h120v-697h-126l-301 493v-493h-120v697h125zM355 773.5q-19 11.5 -39 32.5q-14 14 -22 20t-19 6q-16 1 -24.5 -16.5t-8.5 -50.5h-67q0 66 28 102.5t77 36.5q26 0 44 -11.5t39 -32.5q16 -15 24 -21t19 -6q13 0 22 18t9 50h70q0 -67 -27.5 -103t-75.5 -36
q-30 0 -49 11.5z" />
    <glyph glyph-name="Ograve" unicode="&#xd2;" horiz-adv-x="746" 
d="M199.5 30.5q-75.5 45.5 -117 127.5t-41.5 190t41.5 190.5t117 128t173.5 45.5q99 0 174 -45.5t116.5 -128t41.5 -190.5t-42 -190t-117 -127.5t-173 -45.5t-173.5 45.5zM484.5 130.5q47.5 30.5 73.5 86.5t26 131q0 115 -57 182t-154 67t-154 -66.5t-57 -182.5
q0 -115 57 -181.5t154 -66.5q64 0 111.5 30.5zM416 759h-86l-141 142h123z" />
    <glyph glyph-name="Oacute" unicode="&#xd3;" horiz-adv-x="746" 
d="M199.5 30.5q-75.5 45.5 -117 127.5t-41.5 190t41.5 190.5t117 128t173.5 45.5q99 0 174 -45.5t116.5 -128t41.5 -190.5t-42 -190t-117 -127.5t-173 -45.5t-173.5 45.5zM484.5 130.5q47.5 30.5 73.5 86.5t26 131q0 115 -57 182t-154 67t-154 -66.5t-57 -182.5
q0 -115 57 -181.5t154 -66.5q64 0 111.5 30.5zM415 759h-85l111 142h125z" />
    <glyph glyph-name="Ocircumflex" unicode="&#xd4;" horiz-adv-x="746" 
d="M199.5 30.5q-75.5 45.5 -117 127.5t-41.5 190t41.5 190.5t117 128t173.5 45.5q99 0 174 -45.5t116.5 -128t41.5 -190.5t-42 -190t-117 -127.5t-173 -45.5t-173.5 45.5zM484.5 130.5q47.5 30.5 73.5 86.5t26 131q0 115 -57 182t-154 67t-154 -66.5t-57 -182.5
q0 -115 57 -181.5t154 -66.5q64 0 111.5 30.5zM307 746h-89l155 172l155 -172h-89l-66 74z" />
    <glyph glyph-name="Otilde" unicode="&#xd5;" horiz-adv-x="746" 
d="M199.5 30.5q-75.5 45.5 -117 127.5t-41.5 190t41.5 190.5t117 128t173.5 45.5q99 0 174 -45.5t116.5 -128t41.5 -190.5t-42 -190t-117 -127.5t-173 -45.5t-173.5 45.5zM484.5 130.5q47.5 30.5 73.5 86.5t26 131q0 115 -57 182t-154 67t-154 -66.5t-57 -182.5
q0 -115 57 -181.5t154 -66.5q64 0 111.5 30.5zM387 773.5q-19 11.5 -39 32.5q-14 14 -22 20t-19 6q-16 1 -24.5 -16.5t-8.5 -50.5h-67q0 66 28 102.5t77 36.5q26 0 44 -11.5t39 -32.5q16 -15 24 -21t19 -6q13 0 22 18t9 50h70q0 -67 -27.5 -103t-75.5 -36q-30 0 -49 11.5z
" />
    <glyph glyph-name="Odieresis" unicode="&#xd6;" horiz-adv-x="746" 
d="M199.5 30.5q-75.5 45.5 -117 127.5t-41.5 190t41.5 190.5t117 128t173.5 45.5q99 0 174 -45.5t116.5 -128t41.5 -190.5t-42 -190t-117 -127.5t-173 -45.5t-173.5 45.5zM484.5 130.5q47.5 30.5 73.5 86.5t26 131q0 115 -57 182t-154 67t-154 -66.5t-57 -182.5
q0 -115 57 -181.5t154 -66.5q64 0 111.5 30.5zM335 776h-119v125h119v-125zM529 776h-119v125h119v-125z" />
    <glyph glyph-name="multiply" unicode="&#xd7;" horiz-adv-x="489" 
d="M244 229l-147 -146l-67 66l147 148l-147 147l67 68l147 -148l147 148l68 -68l-147 -147l147 -148l-68 -66z" />
    <glyph glyph-name="Oslash" unicode="&#xd8;" horiz-adv-x="746" 
d="M612 614q45 -49 69 -116.5t24 -149.5q0 -108 -42 -190t-117 -127.5t-173 -45.5q-107 0 -189 55l-30 -40h-80l61 82q-46 49 -70 116.5t-24 149.5q0 108 41.5 190.5t117 128t173.5 45.5q110 0 191 -56l31 41h79zM208 180l285 381q-52 36 -120 36q-97 0 -154 -66.5
t-57 -182.5q0 -101 46 -168zM484.5 130.5q47.5 30.5 73.5 86.5t26 131q0 103 -46 167l-284 -381q51 -34 119 -34q64 0 111.5 30.5z" />
    <glyph glyph-name="Ugrave" unicode="&#xd9;" horiz-adv-x="655" 
d="M129.5 52q-66.5 67 -66.5 200v445h120v-431q0 -88 32 -129t112 -41t113 41t33 128v432h120v-440q0 -135 -67.5 -203.5t-198.5 -68.5t-197.5 67zM371 759h-86l-141 142h123z" />
    <glyph glyph-name="Uacute" unicode="&#xda;" horiz-adv-x="655" 
d="M129.5 52q-66.5 67 -66.5 200v445h120v-431q0 -88 32 -129t112 -41t113 41t33 128v432h120v-440q0 -135 -67.5 -203.5t-198.5 -68.5t-197.5 67zM370 759h-85l111 142h125z" />
    <glyph glyph-name="Ucircumflex" unicode="&#xdb;" horiz-adv-x="655" 
d="M129.5 52q-66.5 67 -66.5 200v445h120v-431q0 -88 32 -129t112 -41t113 41t33 128v432h120v-440q0 -135 -67.5 -203.5t-198.5 -68.5t-197.5 67zM262 746h-89l155 172l155 -172h-89l-66 74z" />
    <glyph glyph-name="Udieresis" unicode="&#xdc;" horiz-adv-x="655" 
d="M129.5 52q-66.5 67 -66.5 200v445h120v-431q0 -88 32 -129t112 -41t113 41t33 128v432h120v-440q0 -135 -67.5 -203.5t-198.5 -68.5t-197.5 67zM291 776h-119v125h119v-125zM485 776h-119v125h119v-125z" />
    <glyph glyph-name="Yacute" unicode="&#xdd;" horiz-adv-x="616" 
d="M369 0h-120v272l-245 425h137l165 -305l169 305h137l-243 -425v-272zM351 759h-85l111 142h125z" />
    <glyph glyph-name="Thorn" unicode="&#xde;" horiz-adv-x="557" 
d="M86 0v697h109v-97h128q101 0 157.5 -51.5t56.5 -144.5q0 -98 -63.5 -152.5t-177.5 -54.5h-101v-197h-109zM296 297q131 0 131 103q0 106 -131 106h-101v-209h101z" />
    <glyph glyph-name="germandbls" unicode="&#xdf;" horiz-adv-x="648" 
d="M292.5 29.5q-56.5 39.5 -75.5 98.5l93 41q12 -35 38.5 -58.5t73.5 -23.5q38 0 58.5 16t20.5 40q0 26 -23.5 39.5t-73.5 27.5q-48 14 -79 28t-53 42t-22 74q0 43 18.5 70t43 40.5t64.5 28.5q35 12 52 23t17 30q0 25 -32.5 39t-75.5 14q-70 0 -103.5 -24.5t-42 -57.5
t-8.5 -80v-437h-120v437q0 121 57.5 195.5t207.5 74.5q105 0 168 -41t63 -117q0 -42 -19 -69.5t-45.5 -43t-65.5 -31.5q-34 -14 -50 -24.5t-16 -26.5t19 -25t60 -19q52 -13 86.5 -27t60 -45t25.5 -84q0 -54 -27 -91t-70.5 -55t-92.5 -18q-75 0 -131.5 39.5z" />
    <glyph glyph-name="agrave" unicode="&#xe0;" horiz-adv-x="544" 
d="M430.5 452q56.5 -51 56.5 -141v-311h-106l-6 51q-51 -61 -143 -61q-86 0 -138 45t-52 118q0 77 58 115q49 34 132 34h140v9q0 43 -27.5 67t-78.5 24q-37 0 -68.5 -14t-63.5 -49l-84 70q43 48 100.5 71t123.5 23q100 0 156.5 -51zM334.5 117.5q37.5 34.5 37.5 86.5v8h-123
q-45 0 -67 -15q-25 -16 -25 -46q0 -31 23 -49.5t62 -18.5q55 0 92.5 34.5zM317 555h-86l-141 142h123z" />
    <glyph glyph-name="aacute" unicode="&#xe1;" horiz-adv-x="544" 
d="M430.5 452q56.5 -51 56.5 -141v-311h-106l-6 51q-51 -61 -143 -61q-86 0 -138 45t-52 118q0 77 58 115q49 34 132 34h140v9q0 43 -27.5 67t-78.5 24q-37 0 -68.5 -14t-63.5 -49l-84 70q43 48 100.5 71t123.5 23q100 0 156.5 -51zM334.5 117.5q37.5 34.5 37.5 86.5v8h-123
q-45 0 -67 -15q-25 -16 -25 -46q0 -31 23 -49.5t62 -18.5q55 0 92.5 34.5zM316 555h-85l111 142h125z" />
    <glyph glyph-name="acircumflex" unicode="&#xe2;" horiz-adv-x="544" 
d="M430.5 452q56.5 -51 56.5 -141v-311h-106l-6 51q-51 -61 -143 -61q-86 0 -138 45t-52 118q0 77 58 115q49 34 132 34h140v9q0 43 -27.5 67t-78.5 24q-37 0 -68.5 -14t-63.5 -49l-84 70q43 48 100.5 71t123.5 23q100 0 156.5 -51zM334.5 117.5q37.5 34.5 37.5 86.5v8h-123
q-45 0 -67 -15q-25 -16 -25 -46q0 -31 23 -49.5t62 -18.5q55 0 92.5 34.5zM208 542h-89l155 172l155 -172h-89l-66 74z" />
    <glyph glyph-name="atilde" unicode="&#xe3;" horiz-adv-x="544" 
d="M430.5 452q56.5 -51 56.5 -141v-311h-106l-6 51q-51 -61 -143 -61q-86 0 -138 45t-52 118q0 77 58 115q49 34 132 34h140v9q0 43 -27.5 67t-78.5 24q-37 0 -68.5 -14t-63.5 -49l-84 70q43 48 100.5 71t123.5 23q100 0 156.5 -51zM334.5 117.5q37.5 34.5 37.5 86.5v8h-123
q-45 0 -67 -15q-25 -16 -25 -46q0 -31 23 -49.5t62 -18.5q55 0 92.5 34.5zM288 569.5q-19 11.5 -39 32.5q-14 14 -22 20t-19 6q-16 1 -24.5 -16.5t-8.5 -50.5h-67q0 66 28 102.5t77 36.5q26 0 44 -11.5t39 -32.5q16 -15 24 -21t19 -6q13 0 22 18t9 50h70q0 -67 -27.5 -103
t-75.5 -36q-30 0 -49 11.5z" />
    <glyph glyph-name="adieresis" unicode="&#xe4;" horiz-adv-x="544" 
d="M430.5 452q56.5 -51 56.5 -141v-311h-106l-6 51q-51 -61 -143 -61q-86 0 -138 45t-52 118q0 77 58 115q49 34 132 34h140v9q0 43 -27.5 67t-78.5 24q-37 0 -68.5 -14t-63.5 -49l-84 70q43 48 100.5 71t123.5 23q100 0 156.5 -51zM334.5 117.5q37.5 34.5 37.5 86.5v8h-123
q-45 0 -67 -15q-25 -16 -25 -46q0 -31 23 -49.5t62 -18.5q55 0 92.5 34.5zM237 572h-119v125h119v-125zM431 572h-119v125h119v-125z" />
    <glyph glyph-name="aring" unicode="&#xe5;" horiz-adv-x="544" 
d="M430.5 452q56.5 -51 56.5 -141v-311h-106l-6 51q-51 -61 -143 -61q-86 0 -138 45t-52 118q0 77 58 115q49 34 132 34h140v9q0 43 -27.5 67t-78.5 24q-37 0 -68.5 -14t-63.5 -49l-84 70q43 48 100.5 71t123.5 23q100 0 156.5 -51zM334.5 117.5q37.5 34.5 37.5 86.5v8h-123
q-45 0 -67 -15q-25 -16 -25 -46q0 -31 23 -49.5t62 -18.5q55 0 92.5 34.5zM195 561.5q-33 33.5 -33 79.5q0 47 33 79.5t80 32.5q46 0 79 -32.5t33 -79.5t-33 -80t-79 -33q-47 0 -80 33.5zM310.5 605.5q13.5 14.5 13.5 36.5t-13 35.5t-36 13.5t-36.5 -14t-13.5 -35
q0 -22 14 -36.5t36 -14.5t35.5 14.5z" />
    <glyph glyph-name="ae" unicode="&#xe6;" horiz-adv-x="822" 
d="M71.5 34q-48.5 44 -48.5 115q0 65 39 97t86.5 39.5t100.5 7.5h106v18q0 43 -27 67t-77 24q-80 0 -131 -63l-84 70q48 49 103 71.5t124 22.5q59 0 101.5 -18.5t63.5 -52.5q58 66 148 66q112 0 164.5 -64t52.5 -171q0 -28 -3 -55h-328q10 -111 113 -111q39 0 68.5 12.5
t53.5 39.5l81 -71q-45 -51 -92.5 -69.5t-113.5 -18.5q-123 0 -176 102h-12q-36 -56 -79 -79t-98 -23q-87 0 -135.5 44zM687 293q0 29 -13 43q-10 28 -34 47t-64 19q-56 0 -85 -32t-30 -77h226zM315 121q36 32 40 86l7 2h-106q-61 0 -88 -17t-27 -45q0 -26 21 -42t59 -16
q58 0 94 32z" />
    <glyph glyph-name="ccedilla" unicode="&#xe7;" horiz-adv-x="522" 
d="M387 174l101 -40q-25 -68 -77.5 -105t-124.5 -39l-31 -41q31 -4 56 -19q40 -25 40 -76q0 -49 -31.5 -80.5t-83.5 -31.5q-19 0 -41.5 8t-41.5 25l37 56q21 -23 49 -23q21 0 33 10.5t12 31.5q0 35 -42 47q-15 5 -35 6t-41 1l56 92q-86 18 -133.5 88.5t-47.5 162.5
q0 67 27 125.5t80.5 94.5t129.5 36q74 0 129 -36.5t82 -107.5l-101 -40q-32 83 -110 83q-60 0 -90.5 -45.5t-30.5 -109.5q0 -66 30.5 -111t90.5 -45q80 0 109 83z" />
    <glyph glyph-name="egrave" unicode="&#xe8;" horiz-adv-x="542" 
d="M498 208h-340q3 -52 35 -82.5t90 -30.5q36 0 65.5 12.5t55.5 41.5l80 -71q-40 -44 -89.5 -66t-111.5 -22q-81 0 -135 34.5t-80 92t-26 127.5q0 68 25.5 127t78 95.5t129.5 36.5q73 0 124 -33t76.5 -89.5t25.5 -126.5q0 -19 -3 -46zM390 298q1 46 -31 77t-86 31
q-52 0 -81.5 -31.5t-35.5 -76.5h234zM318 555h-86l-141 142h123z" />
    <glyph glyph-name="eacute" unicode="&#xe9;" horiz-adv-x="542" 
d="M498 208h-340q3 -52 35 -82.5t90 -30.5q36 0 65.5 12.5t55.5 41.5l80 -71q-40 -44 -89.5 -66t-111.5 -22q-81 0 -135 34.5t-80 92t-26 127.5q0 68 25.5 127t78 95.5t129.5 36.5q73 0 124 -33t76.5 -89.5t25.5 -126.5q0 -19 -3 -46zM390 298q1 46 -31 77t-86 31
q-52 0 -81.5 -31.5t-35.5 -76.5h234zM317 555h-85l111 142h125z" />
    <glyph glyph-name="ecircumflex" unicode="&#xea;" horiz-adv-x="542" 
d="M498 208h-340q3 -52 35 -82.5t90 -30.5q36 0 65.5 12.5t55.5 41.5l80 -71q-40 -44 -89.5 -66t-111.5 -22q-81 0 -135 34.5t-80 92t-26 127.5q0 68 25.5 127t78 95.5t129.5 36.5q73 0 124 -33t76.5 -89.5t25.5 -126.5q0 -19 -3 -46zM390 298q1 46 -31 77t-86 31
q-52 0 -81.5 -31.5t-35.5 -76.5h234zM209 542h-89l155 172l155 -172h-89l-66 74z" />
    <glyph glyph-name="edieresis" unicode="&#xeb;" horiz-adv-x="542" 
d="M498 208h-340q3 -52 35 -82.5t90 -30.5q36 0 65.5 12.5t55.5 41.5l80 -71q-40 -44 -89.5 -66t-111.5 -22q-81 0 -135 34.5t-80 92t-26 127.5q0 68 25.5 127t78 95.5t129.5 36.5q73 0 124 -33t76.5 -89.5t25.5 -126.5q0 -19 -3 -46zM390 298q1 46 -31 77t-86 31
q-52 0 -81.5 -31.5t-35.5 -76.5h234zM238 572h-119v125h119v-125zM432 572h-119v125h119v-125z" />
    <glyph glyph-name="igrave" unicode="&#xec;" horiz-adv-x="245" 
d="M180 0h-115v493h115v-493zM166 555h-86l-141 142h123z" />
    <glyph glyph-name="iacute" unicode="&#xed;" horiz-adv-x="245" 
d="M180 0h-115v493h115v-493zM165 555h-85l111 142h125z" />
    <glyph glyph-name="icircumflex" unicode="&#xee;" horiz-adv-x="245" 
d="M180 0h-115v493h115v-493zM57 542h-89l155 172l155 -172h-89l-66 74z" />
    <glyph glyph-name="idieresis" unicode="&#xef;" horiz-adv-x="245" 
d="M180 0h-115v493h115v-493zM85 572h-119v125h119v-125zM279 572h-119v125h119v-125z" />
    <glyph glyph-name="eth" unicode="&#xf0;" horiz-adv-x="577" 
d="M560 623l-73 -19q56 -83 56 -233q0 -115 -34.5 -201t-100 -133t-156.5 -47q-70 0 -122 29t-79.5 80.5t-27.5 116.5q0 80 36.5 143.5t98.5 98.5t134 35q53 0 94 -27.5t59 -73.5q6 119 -54 187l-179 -47l-12 47l144 38q-60 33 -149 36l9 77q167 -12 247 -86l98 26zM397 360
q-32 38 -93 38q-57 0 -96 -26t-58 -67.5t-19 -86.5q0 -61 36 -94.5t91 -33.5q51 0 90 26t60 67.5t21 86.5q0 52 -32 90z" />
    <glyph glyph-name="ntilde" unicode="&#xf1;" horiz-adv-x="561" 
d="M455 455.5q47 -47.5 47 -135.5v-320h-116v277q0 64 -23.5 94.5t-72.5 30.5q-56 0 -83.5 -40t-27.5 -124v-238h-116v493h116v-53q48 63 143 63q86 0 133 -47.5zM287 569.5q-19 11.5 -39 32.5q-14 14 -22 20t-19 6q-16 1 -24.5 -16.5t-8.5 -50.5h-67q0 66 28 102.5t77 36.5
q26 0 44 -11.5t39 -32.5q16 -15 24 -21t19 -6q13 0 22 18t9 50h70q0 -67 -27.5 -103t-75.5 -36q-30 0 -49 11.5z" />
    <glyph glyph-name="ograve" unicode="&#xf2;" horiz-adv-x="573" 
d="M160 23q-56 33 -88 92t-32 132q0 74 31.5 132t87.5 91t127 33t127 -33t87.5 -91t31.5 -132q0 -73 -32 -131.5t-88 -92t-126 -33.5t-126 33zM382 133.5q35 41.5 35 113.5t-35 113t-96 41t-95.5 -40.5t-34.5 -113.5q0 -72 34.5 -113.5t95.5 -41.5t96 41.5zM329 555h-86
l-141 142h123z" />
    <glyph glyph-name="oacute" unicode="&#xf3;" horiz-adv-x="573" 
d="M160 23q-56 33 -88 92t-32 132q0 74 31.5 132t87.5 91t127 33t127 -33t87.5 -91t31.5 -132q0 -73 -32 -131.5t-88 -92t-126 -33.5t-126 33zM382 133.5q35 41.5 35 113.5t-35 113t-96 41t-95.5 -40.5t-34.5 -113.5q0 -72 34.5 -113.5t95.5 -41.5t96 41.5zM328 555h-85
l111 142h125z" />
    <glyph glyph-name="ocircumflex" unicode="&#xf4;" horiz-adv-x="573" 
d="M160 23q-56 33 -88 92t-32 132q0 74 31.5 132t87.5 91t127 33t127 -33t87.5 -91t31.5 -132q0 -73 -32 -131.5t-88 -92t-126 -33.5t-126 33zM382 133.5q35 41.5 35 113.5t-35 113t-96 41t-95.5 -40.5t-34.5 -113.5q0 -72 34.5 -113.5t95.5 -41.5t96 41.5zM220 542h-89
l155 172l155 -172h-89l-66 74z" />
    <glyph glyph-name="otilde" unicode="&#xf5;" horiz-adv-x="573" 
d="M160 23q-56 33 -88 92t-32 132q0 74 31.5 132t87.5 91t127 33t127 -33t87.5 -91t31.5 -132q0 -73 -32 -131.5t-88 -92t-126 -33.5t-126 33zM382 133.5q35 41.5 35 113.5t-35 113t-96 41t-95.5 -40.5t-34.5 -113.5q0 -72 34.5 -113.5t95.5 -41.5t96 41.5zM300 569.5
q-19 11.5 -39 32.5q-14 14 -22 20t-19 6q-16 1 -24.5 -16.5t-8.5 -50.5h-67q0 66 28 102.5t77 36.5q26 0 44 -11.5t39 -32.5q16 -15 24 -21t19 -6q13 0 22 18t9 50h70q0 -67 -27.5 -103t-75.5 -36q-30 0 -49 11.5z" />
    <glyph glyph-name="odieresis" unicode="&#xf6;" horiz-adv-x="573" 
d="M160 23q-56 33 -88 92t-32 132q0 74 31.5 132t87.5 91t127 33t127 -33t87.5 -91t31.5 -132q0 -73 -32 -131.5t-88 -92t-126 -33.5t-126 33zM382 133.5q35 41.5 35 113.5t-35 113t-96 41t-95.5 -40.5t-34.5 -113.5q0 -72 34.5 -113.5t95.5 -41.5t96 41.5zM249 572h-119
v125h119v-125zM443 572h-119v125h119v-125z" />
    <glyph glyph-name="divide" unicode="&#xf7;" horiz-adv-x="501" 
d="M313 409h-125v128h125v-128zM471 254h-441v86h441v-86zM313 56h-125v129h125v-129z" />
    <glyph glyph-name="oslash" unicode="&#xf8;" horiz-adv-x="573" 
d="M440 451q43 -34 67.5 -87t24.5 -117q0 -73 -32 -131.5t-88 -92t-126 -33.5q-60 0 -112 25l-35 -58h-57l51 84q-44 35 -68.5 88.5t-24.5 117.5q0 74 31.5 132t87.5 91t127 33q60 0 112 -25l36 59h58zM190 135l154 254q-25 12 -58 12q-61 0 -95.5 -40.5t-34.5 -113.5
q0 -72 34 -112zM382 133.5q35 41.5 35 113.5q0 71 -34 111l-154 -254q24 -12 57 -12q61 0 96 41.5z" />
    <glyph glyph-name="ugrave" unicode="&#xf9;" horiz-adv-x="560" 
d="M380 493h116v-493h-116v54q-48 -64 -143 -64q-86 0 -133 48t-47 135v320h116v-277q0 -64 23.5 -94.5t71.5 -30.5q56 0 84 40t28 124v238zM319 555h-86l-141 142h123z" />
    <glyph glyph-name="uacute" unicode="&#xfa;" horiz-adv-x="560" 
d="M380 493h116v-493h-116v54q-48 -64 -143 -64q-86 0 -133 48t-47 135v320h116v-277q0 -64 23.5 -94.5t71.5 -30.5q56 0 84 40t28 124v238zM318 555h-85l111 142h125z" />
    <glyph glyph-name="ucircumflex" unicode="&#xfb;" horiz-adv-x="560" 
d="M380 493h116v-493h-116v54q-48 -64 -143 -64q-86 0 -133 48t-47 135v320h116v-277q0 -64 23.5 -94.5t71.5 -30.5q56 0 84 40t28 124v238zM210 542h-89l155 172l155 -172h-89l-66 74z" />
    <glyph glyph-name="udieresis" unicode="&#xfc;" horiz-adv-x="560" 
d="M380 493h116v-493h-116v54q-48 -64 -143 -64q-86 0 -133 48t-47 135v320h116v-277q0 -64 23.5 -94.5t71.5 -30.5q56 0 84 40t28 124v238zM238 572h-119v125h119v-125zM432 572h-119v125h119v-125z" />
    <glyph glyph-name="yacute" unicode="&#xfd;" horiz-adv-x="545" 
d="M249 -204h-125l87 217l-194 480h127l129 -348l128 348h126zM315 555h-85l111 142h125z" />
    <glyph glyph-name="thorn" unicode="&#xfe;" horiz-adv-x="567" 
d="M444.5 469.5q45.5 -33.5 69 -92.5t23.5 -132q0 -79 -26.5 -136.5t-72.5 -88t-103 -30.5q-45 0 -85.5 19.5t-64.5 53.5v-267h-116v901h116v-265q25 35 65.5 53t84.5 18q64 0 109.5 -33.5zM392 131.5q30 40.5 30 115.5q0 154 -117 154q-65 0 -98 -42.5t-33 -111.5
t33 -112.5t96 -43.5q59 0 89 40.5z" />
    <glyph glyph-name="ydieresis" unicode="&#xff;" horiz-adv-x="545" 
d="M249 -204h-125l87 217l-194 480h127l129 -348l128 348h126zM235 572h-119v125h119v-125zM429 572h-119v125h119v-125z" />
    <glyph glyph-name="Amacron" unicode="&#x100;" horiz-adv-x="665" 
d="M655 0h-131l-52 142h-279l-52 -142h-131l277 697h91zM333 520l-100 -270h199zM471 773h-275v68h275v-68z" />
    <glyph glyph-name="amacron" unicode="&#x101;" horiz-adv-x="544" 
d="M430.5 452q56.5 -51 56.5 -141v-311h-106l-6 51q-51 -61 -143 -61q-86 0 -138 45t-52 118q0 77 58 115q49 34 132 34h140v9q0 43 -27.5 67t-78.5 24q-37 0 -68.5 -14t-63.5 -49l-84 70q43 48 100.5 71t123.5 23q100 0 156.5 -51zM334.5 117.5q37.5 34.5 37.5 86.5v8h-123
q-45 0 -67 -15q-25 -16 -25 -46q0 -31 23 -49.5t62 -18.5q55 0 92.5 34.5zM412 569h-275v68h275v-68z" />
    <glyph glyph-name="Abreve" unicode="&#x102;" horiz-adv-x="665" 
d="M655 0h-131l-52 142h-279l-52 -142h-131l277 697h91zM333 520l-100 -270h199zM178 901h82q0 -32 20.5 -48.5t53.5 -16.5t53 17t20 48h82q0 -132 -155 -132q-156 0 -156 132z" />
    <glyph glyph-name="abreve" unicode="&#x103;" horiz-adv-x="544" 
d="M430.5 452q56.5 -51 56.5 -141v-311h-106l-6 51q-51 -61 -143 -61q-86 0 -138 45t-52 118q0 77 58 115q49 34 132 34h140v9q0 43 -27.5 67t-78.5 24q-37 0 -68.5 -14t-63.5 -49l-84 70q43 48 100.5 71t123.5 23q100 0 156.5 -51zM334.5 117.5q37.5 34.5 37.5 86.5v8h-123
q-45 0 -67 -15q-25 -16 -25 -46q0 -31 23 -49.5t62 -18.5q55 0 92.5 34.5zM119 697h82q0 -32 20.5 -48.5t53.5 -16.5t53 17t20 48h82q0 -132 -155 -132q-156 0 -156 132z" />
    <glyph glyph-name="Aogonek" unicode="&#x104;" horiz-adv-x="665" 
d="M700 -163q-20 -27 -46 -42.5t-61 -15.5q-48 0 -79.5 27.5t-31.5 71.5q0 42 24 73t56 49h-38l-52 142h-279l-52 -142h-131l277 697h91l277 -697q-35 -16 -69 -45.5t-34 -64.5q0 -40 38 -40q30 0 50 28zM333 520l-100 -270h199z" />
    <glyph glyph-name="aogonek" unicode="&#x105;" horiz-adv-x="544" 
d="M532 -163q-20 -27 -46 -42.5t-61 -15.5q-48 0 -79.5 27.5t-31.5 71.5q0 42 24 73t56 49h-13l-6 51q-51 -61 -143 -61q-86 0 -138 45t-52 118q0 77 58 115q49 34 132 34h140v9q0 43 -27.5 67t-78.5 24q-37 0 -68.5 -14t-63.5 -49l-84 70q43 48 100.5 71t123.5 23
q100 0 156.5 -51t56.5 -141v-311q-35 -16 -69 -45.5t-34 -64.5q0 -40 38 -40q30 0 50 28zM334.5 117.5q37.5 34.5 37.5 86.5v8h-123q-45 0 -67 -15q-25 -16 -25 -46q0 -31 23 -49.5t62 -18.5q55 0 92.5 34.5z" />
    <glyph glyph-name="Cacute" unicode="&#x106;" horiz-adv-x="708" 
d="M199.5 30.5q-75.5 45.5 -117 128t-41.5 190.5t41.5 190t117 127.5t173.5 45.5q109 0 189 -54.5t115 -151.5l-114 -41q-23 63 -72 97.5t-118 34.5q-97 0 -154 -66.5t-57 -181.5t57 -182t154 -67q69 0 118 34.5t72 97.5l114 -41q-35 -97 -115 -151.5t-189 -54.5
q-98 0 -173.5 45.5zM396 759h-85l111 142h125z" />
    <glyph glyph-name="cacute" unicode="&#x107;" horiz-adv-x="522" 
d="M149.5 25.5q-53.5 35.5 -81 94t-27.5 127.5q0 67 27 125.5t80.5 94.5t129.5 36q74 0 129 -36.5t82 -107.5l-101 -40q-32 83 -110 83q-60 0 -90.5 -45.5t-30.5 -109.5q0 -66 30.5 -111t90.5 -45q80 0 109 83l101 -40q-26 -70 -80.5 -107t-129.5 -37t-128.5 35.5zM302 555
h-85l111 142h125z" />
    <glyph glyph-name="Ccircumflex" unicode="&#x108;" horiz-adv-x="708" 
d="M199.5 30.5q-75.5 45.5 -117 128t-41.5 190.5t41.5 190t117 127.5t173.5 45.5q109 0 189 -54.5t115 -151.5l-114 -41q-23 63 -72 97.5t-118 34.5q-97 0 -154 -66.5t-57 -181.5t57 -182t154 -67q69 0 118 34.5t72 97.5l114 -41q-35 -97 -115 -151.5t-189 -54.5
q-98 0 -173.5 45.5zM288 746h-89l155 172l155 -172h-89l-66 74z" />
    <glyph glyph-name="ccircumflex" unicode="&#x109;" horiz-adv-x="522" 
d="M149.5 25.5q-53.5 35.5 -81 94t-27.5 127.5q0 67 27 125.5t80.5 94.5t129.5 36q74 0 129 -36.5t82 -107.5l-101 -40q-32 83 -110 83q-60 0 -90.5 -45.5t-30.5 -109.5q0 -66 30.5 -111t90.5 -45q80 0 109 83l101 -40q-26 -70 -80.5 -107t-129.5 -37t-128.5 35.5zM194 542
h-89l155 172l155 -172h-89l-66 74z" />
    <glyph glyph-name="Cdotaccent" unicode="&#x10a;" horiz-adv-x="708" 
d="M199.5 30.5q-75.5 45.5 -117 128t-41.5 190.5t41.5 190t117 127.5t173.5 45.5q109 0 189 -54.5t115 -151.5l-114 -41q-23 63 -72 97.5t-118 34.5q-97 0 -154 -66.5t-57 -181.5t57 -182t154 -67q69 0 118 34.5t72 97.5l114 -41q-35 -97 -115 -151.5t-189 -54.5
q-98 0 -173.5 45.5zM413 776h-119v125h119v-125z" />
    <glyph glyph-name="cdotaccent" unicode="&#x10b;" horiz-adv-x="522" 
d="M149.5 25.5q-53.5 35.5 -81 94t-27.5 127.5q0 67 27 125.5t80.5 94.5t129.5 36q74 0 129 -36.5t82 -107.5l-101 -40q-32 83 -110 83q-60 0 -90.5 -45.5t-30.5 -109.5q0 -66 30.5 -111t90.5 -45q80 0 109 83l101 -40q-26 -70 -80.5 -107t-129.5 -37t-128.5 35.5zM319 572
h-119v125h119v-125z" />
    <glyph glyph-name="Ccaron" unicode="&#x10c;" horiz-adv-x="708" 
d="M199.5 30.5q-75.5 45.5 -117 128t-41.5 190.5t41.5 190t117 127.5t173.5 45.5q109 0 189 -54.5t115 -151.5l-114 -41q-23 63 -72 97.5t-118 34.5q-97 0 -154 -66.5t-57 -181.5t57 -182t154 -67q69 0 118 34.5t72 97.5l114 -41q-35 -97 -115 -151.5t-189 -54.5
q-98 0 -173.5 45.5zM509 901l-155 -163l-156 163h91l65 -69l65 69h90z" />
    <glyph glyph-name="ccaron" unicode="&#x10d;" horiz-adv-x="522" 
d="M149.5 25.5q-53.5 35.5 -81 94t-27.5 127.5q0 67 27 125.5t80.5 94.5t129.5 36q74 0 129 -36.5t82 -107.5l-101 -40q-32 83 -110 83q-60 0 -90.5 -45.5t-30.5 -109.5q0 -66 30.5 -111t90.5 -45q80 0 109 83l101 -40q-26 -70 -80.5 -107t-129.5 -37t-128.5 35.5zM415 697
l-155 -163l-156 163h91l65 -69l65 69h90z" />
    <glyph glyph-name="Dcaron" unicode="&#x10e;" horiz-adv-x="675" 
d="M69 0v697h201q173 0 268 -92.5t95 -261.5q0 -166 -94 -254.5t-270 -88.5h-200zM257 111q128 0 191 53.5t63 183.5q0 127 -62 183t-181 56h-79v-476h68zM482 901l-155 -163l-156 163h91l65 -69l65 69h90z" />
    <glyph glyph-name="dcaron" unicode="&#x10f;" horiz-adv-x="579" 
d="M401 697h115v-697h-115v62q-25 -35 -66 -53.5t-85 -18.5q-63 0 -110 33.5t-72 91.5t-25 132q0 78 27.5 136t74.5 89t105 31q46 0 87 -20t64 -53v267zM376.5 138q34.5 41 34.5 109t-34.5 109t-91.5 41t-92 -41t-35 -109t35 -109t92 -41t91.5 41zM609 474h-68l56 223h122z
" />
    <glyph glyph-name="Dcroat" unicode="&#x110;" horiz-adv-x="675" 
d="M270 697q173 0 268 -92.5t95 -261.5q0 -166 -94 -254.5t-270 -88.5h-200v310h-79v78h79v309h201zM257 111q128 0 191 53.5t63 183.5q0 127 -62 183t-181 56h-79v-199h120v-78h-120v-199h68z" />
    <glyph glyph-name="dcroat" unicode="&#x111;" horiz-adv-x="579" 
d="M594 633v-78h-78v-555h-115v62q-25 -35 -66 -53.5t-85 -18.5q-63 0 -110 33.5t-72 91.5t-25 132q0 78 27.5 136t74.5 89t105 31q46 0 87 -20t64 -53v125h-125v78h125v64h115v-64h78zM376.5 138q34.5 41 34.5 109t-34.5 109t-91.5 41t-92 -41t-35 -109t35 -109t92 -41
t91.5 41z" />
    <glyph glyph-name="Emacron" unicode="&#x112;" horiz-adv-x="578" 
d="M532 0h-463v697h463v-107h-343v-179h318v-108h-318v-195h343v-108zM438 773h-275v68h275v-68z" />
    <glyph glyph-name="emacron" unicode="&#x113;" horiz-adv-x="542" 
d="M498 208h-340q3 -52 35 -82.5t90 -30.5q36 0 65.5 12.5t55.5 41.5l80 -71q-40 -44 -89.5 -66t-111.5 -22q-81 0 -135 34.5t-80 92t-26 127.5q0 68 25.5 127t78 95.5t129.5 36.5q73 0 124 -33t76.5 -89.5t25.5 -126.5q0 -19 -3 -46zM390 298q1 46 -31 77t-86 31
q-52 0 -81.5 -31.5t-35.5 -76.5h234zM413 569h-275v68h275v-68z" />
    <glyph glyph-name="Ebreve" unicode="&#x114;" horiz-adv-x="578" 
d="M532 0h-463v697h463v-107h-343v-179h318v-108h-318v-195h343v-108zM145 901h82q0 -32 20.5 -48.5t53.5 -16.5t53 17t20 48h82q0 -132 -155 -132q-156 0 -156 132z" />
    <glyph glyph-name="ebreve" unicode="&#x115;" horiz-adv-x="542" 
d="M498 208h-340q3 -52 35 -82.5t90 -30.5q36 0 65.5 12.5t55.5 41.5l80 -71q-40 -44 -89.5 -66t-111.5 -22q-81 0 -135 34.5t-80 92t-26 127.5q0 68 25.5 127t78 95.5t129.5 36.5q73 0 124 -33t76.5 -89.5t25.5 -126.5q0 -19 -3 -46zM390 298q1 46 -31 77t-86 31
q-52 0 -81.5 -31.5t-35.5 -76.5h234zM120 697h82q0 -32 20.5 -48.5t53.5 -16.5t53 17t20 48h82q0 -132 -155 -132q-156 0 -156 132z" />
    <glyph glyph-name="Edotaccent" unicode="&#x116;" horiz-adv-x="578" 
d="M532 0h-463v697h463v-107h-343v-179h318v-108h-318v-195h343v-108zM360 776h-119v125h119v-125z" />
    <glyph glyph-name="edotaccent" unicode="&#x117;" horiz-adv-x="542" 
d="M498 208h-340q3 -52 35 -82.5t90 -30.5q36 0 65.5 12.5t55.5 41.5l80 -71q-40 -44 -89.5 -66t-111.5 -22q-81 0 -135 34.5t-80 92t-26 127.5q0 68 25.5 127t78 95.5t129.5 36.5q73 0 124 -33t76.5 -89.5t25.5 -126.5q0 -19 -3 -46zM390 298q1 46 -31 77t-86 31
q-52 0 -81.5 -31.5t-35.5 -76.5h234zM335 572h-119v125h119v-125z" />
    <glyph glyph-name="Eogonek" unicode="&#x118;" horiz-adv-x="578" 
d="M577 -163q-20 -27 -46 -42.5t-61 -15.5q-48 0 -79.5 27.5t-31.5 71.5q0 42 24 73t56 49h-370v697h463v-107h-343v-179h318v-108h-318v-195h343v-108q-35 -16 -69 -45.5t-34 -64.5q0 -40 38 -40q30 0 50 28z" />
    <glyph glyph-name="eogonek" unicode="&#x119;" horiz-adv-x="542" 
d="M498 208h-340q3 -52 35 -82.5t90 -30.5q36 0 65.5 12.5t55.5 41.5l80 -71q-48 -53 -107 -73q-35 -18 -63 -45.5t-28 -58.5q0 -40 38 -40q30 0 50 28l60 -41q-20 -27 -46 -42.5t-61 -15.5q-48 0 -79.5 27.5t-31.5 71.5q0 58 51 101q-112 6 -168.5 77.5t-56.5 176.5
q0 68 25.5 127t78 95.5t129.5 36.5q73 0 124 -33t76.5 -89.5t25.5 -126.5q0 -19 -3 -46zM390 298q1 46 -31 77t-86 31q-52 0 -81.5 -31.5t-35.5 -76.5h234z" />
    <glyph glyph-name="Ecaron" unicode="&#x11a;" horiz-adv-x="578" 
d="M532 0h-463v697h463v-107h-343v-179h318v-108h-318v-195h343v-108zM456 901l-155 -163l-156 163h91l65 -69l65 69h90z" />
    <glyph glyph-name="ecaron" unicode="&#x11b;" horiz-adv-x="542" 
d="M498 208h-340q3 -52 35 -82.5t90 -30.5q36 0 65.5 12.5t55.5 41.5l80 -71q-40 -44 -89.5 -66t-111.5 -22q-81 0 -135 34.5t-80 92t-26 127.5q0 68 25.5 127t78 95.5t129.5 36.5q73 0 124 -33t76.5 -89.5t25.5 -126.5q0 -19 -3 -46zM390 298q1 46 -31 77t-86 31
q-52 0 -81.5 -31.5t-35.5 -76.5h234zM431 697l-155 -163l-156 163h91l65 -69l65 69h90z" />
    <glyph glyph-name="Gcircumflex" unicode="&#x11c;" horiz-adv-x="733" 
d="M398 268v108h279v-376h-106l-11 76q-31 -45 -81.5 -68t-113.5 -23q-94 0 -168 45.5t-115 128t-41 190.5t41.5 190t117 127.5t173.5 45.5q109 0 189 -54.5t115 -151.5l-114 -41q-23 63 -72 97.5t-118 34.5q-97 0 -154 -66.5t-57 -181.5t57 -182t154 -67q72 0 127.5 38.5
t67.5 129.5h-170zM307 746h-89l155 172l155 -172h-89l-66 74z" />
    <glyph glyph-name="gcircumflex" unicode="&#x11d;" horiz-adv-x="526" 
d="M386.5 51q46.5 -12 75.5 -39t29 -78q0 -72 -58.5 -110t-167.5 -38q-107 0 -169 39t-62 108q0 16 3 31l72 46q-62 33 -62 101q0 59 45 98q-39 47 -39 111q0 54 27 95.5t72.5 64.5t100.5 23q64 0 114 -31l81 66l60 -74l-75 -62q21 -37 21 -86q0 -79 -54.5 -127t-143.5 -48
q-49 0 -88 15q-15 -13 -15 -32q0 -24 23 -33.5t80 -16.5q84 -11 130.5 -23zM191.5 382.5q-23.5 -23.5 -23.5 -62.5q0 -38 22.5 -63t63.5 -25q40 0 62.5 25t22.5 63q0 39 -23 62.5t-62 23.5t-62.5 -23.5zM349 -116.5q27 10.5 27 35.5q0 19 -14 29t-41.5 15.5t-84.5 12.5
l-41 6l-45 -43q-1 -2 -1 -10q0 -28 30.5 -42t85.5 -14q57 0 84 10.5zM192 542h-89l155 172l155 -172h-89l-66 74z" />
    <glyph glyph-name="Gbreve" unicode="&#x11e;" horiz-adv-x="733" 
d="M398 268v108h279v-376h-106l-11 76q-31 -45 -81.5 -68t-113.5 -23q-94 0 -168 45.5t-115 128t-41 190.5t41.5 190t117 127.5t173.5 45.5q109 0 189 -54.5t115 -151.5l-114 -41q-23 63 -72 97.5t-118 34.5q-97 0 -154 -66.5t-57 -181.5t57 -182t154 -67q72 0 127.5 38.5
t67.5 129.5h-170zM217 901h82q0 -32 20.5 -48.5t53.5 -16.5t53 17t20 48h82q0 -132 -155 -132q-156 0 -156 132z" />
    <glyph glyph-name="gbreve" unicode="&#x11f;" horiz-adv-x="526" 
d="M386.5 51q46.5 -12 75.5 -39t29 -78q0 -72 -58.5 -110t-167.5 -38q-107 0 -169 39t-62 108q0 16 3 31l72 46q-62 33 -62 101q0 59 45 98q-39 47 -39 111q0 54 27 95.5t72.5 64.5t100.5 23q64 0 114 -31l81 66l60 -74l-75 -62q21 -37 21 -86q0 -79 -54.5 -127t-143.5 -48
q-49 0 -88 15q-15 -13 -15 -32q0 -24 23 -33.5t80 -16.5q84 -11 130.5 -23zM191.5 382.5q-23.5 -23.5 -23.5 -62.5q0 -38 22.5 -63t63.5 -25q40 0 62.5 25t22.5 63q0 39 -23 62.5t-62 23.5t-62.5 -23.5zM349 -116.5q27 10.5 27 35.5q0 19 -14 29t-41.5 15.5t-84.5 12.5
l-41 6l-45 -43q-1 -2 -1 -10q0 -28 30.5 -42t85.5 -14q57 0 84 10.5zM102 697h82q0 -32 20.5 -48.5t53.5 -16.5t53 17t20 48h82q0 -132 -155 -132q-156 0 -156 132z" />
    <glyph glyph-name="Gdotaccent" unicode="&#x120;" horiz-adv-x="733" 
d="M398 268v108h279v-376h-106l-11 76q-31 -45 -81.5 -68t-113.5 -23q-94 0 -168 45.5t-115 128t-41 190.5t41.5 190t117 127.5t173.5 45.5q109 0 189 -54.5t115 -151.5l-114 -41q-23 63 -72 97.5t-118 34.5q-97 0 -154 -66.5t-57 -181.5t57 -182t154 -67q72 0 127.5 38.5
t67.5 129.5h-170zM432 776h-119v125h119v-125z" />
    <glyph glyph-name="gdotaccent" unicode="&#x121;" horiz-adv-x="526" 
d="M386.5 51q46.5 -12 75.5 -39t29 -78q0 -72 -58.5 -110t-167.5 -38q-107 0 -169 39t-62 108q0 16 3 31l72 46q-62 33 -62 101q0 59 45 98q-39 47 -39 111q0 54 27 95.5t72.5 64.5t100.5 23q64 0 114 -31l81 66l60 -74l-75 -62q21 -37 21 -86q0 -79 -54.5 -127t-143.5 -48
q-49 0 -88 15q-15 -13 -15 -32q0 -24 23 -33.5t80 -16.5q84 -11 130.5 -23zM191.5 382.5q-23.5 -23.5 -23.5 -62.5q0 -38 22.5 -63t63.5 -25q40 0 62.5 25t22.5 63q0 39 -23 62.5t-62 23.5t-62.5 -23.5zM349 -116.5q27 10.5 27 35.5q0 19 -14 29t-41.5 15.5t-84.5 12.5
l-41 6l-45 -43q-1 -2 -1 -10q0 -28 30.5 -42t85.5 -14q57 0 84 10.5zM317 572h-119v125h119v-125z" />
    <glyph glyph-name="uni0122" unicode="&#x122;" horiz-adv-x="733" 
d="M398 268v108h279v-376h-106l-11 76q-31 -45 -81.5 -68t-113.5 -23q-94 0 -168 45.5t-115 128t-41 190.5t41.5 190t117 127.5t173.5 45.5q109 0 189 -54.5t115 -151.5l-114 -41q-23 63 -72 97.5t-118 34.5q-97 0 -154 -66.5t-57 -181.5t57 -182t154 -67q72 0 127.5 38.5
t67.5 129.5h-170zM311 -226h-68l69 173h121z" />
    <glyph glyph-name="uni0123" unicode="&#x123;" horiz-adv-x="526" 
d="M386.5 51q46.5 -12 75.5 -39t29 -78q0 -72 -58.5 -110t-167.5 -38q-107 0 -169 39t-62 108q0 16 3 31l72 46q-62 33 -62 101q0 59 45 98q-39 47 -39 111q0 54 27 95.5t72.5 64.5t100.5 23q64 0 114 -31l81 66l60 -74l-75 -62q21 -37 21 -86q0 -79 -54.5 -127t-143.5 -48
q-49 0 -88 15q-15 -13 -15 -32q0 -24 23 -33.5t80 -16.5q84 -11 130.5 -23zM191.5 382.5q-23.5 -23.5 -23.5 -62.5q0 -38 22.5 -63t63.5 -25q40 0 62.5 25t22.5 63q0 39 -23 62.5t-62 23.5t-62.5 -23.5zM349 -116.5q27 10.5 27 35.5q0 19 -14 29t-41.5 15.5t-84.5 12.5
l-41 6l-45 -43q-1 -2 -1 -10q0 -28 30.5 -42t85.5 -14q57 0 84 10.5zM284 552h-120l121 155h68z" />
    <glyph glyph-name="Hcircumflex" unicode="&#x124;" horiz-adv-x="689" 
d="M189 0h-120v697h120v-283h310v283h121v-697h-121v303h-310v-303zM279 746h-89l155 172l155 -172h-89l-66 74z" />
    <glyph glyph-name="hcircumflex" unicode="&#x125;" horiz-adv-x="561" 
d="M455 454.5q47 -48.5 47 -134.5v-320h-116v277q0 64 -23.5 94.5t-72.5 30.5q-56 0 -83.5 -40.5t-27.5 -123.5v-238h-116v697h116v-257q47 63 143 63q86 0 133 -48.5zM56 746h-89l155 172l155 -172h-89l-66 74z" />
    <glyph glyph-name="Hbar" unicode="&#x126;" horiz-adv-x="689" 
d="M620 586h53v-69h-53v-517h-121v303h-310v-303h-120v517h-51v69h51v111h120v-111h310v111h121v-111zM189 414h310v103h-310v-103z" />
    <glyph glyph-name="hbar" unicode="&#x127;" horiz-adv-x="561" 
d="M455 454.5q47 -48.5 47 -134.5v-320h-116v277q0 64 -23.5 94.5t-72.5 30.5q-56 0 -83.5 -40.5t-27.5 -123.5v-238h-116v555h-43v78h43v64h116v-64h159v-78h-159v-115q47 63 143 63q86 0 133 -48.5z" />
    <glyph glyph-name="Itilde" unicode="&#x128;" horiz-adv-x="259" 
d="M189 0h-120v697h120v-697zM143 773.5q-19 11.5 -39 32.5q-14 14 -22 20t-19 6q-16 1 -24.5 -16.5t-8.5 -50.5h-67q0 66 28 102.5t77 36.5q26 0 44 -11.5t39 -32.5q16 -15 24 -21t19 -6q13 0 22 18t9 50h70q0 -67 -27.5 -103t-75.5 -36q-30 0 -49 11.5z" />
    <glyph glyph-name="itilde" unicode="&#x129;" horiz-adv-x="245" 
d="M180 0h-115v493h115v-493zM136 569.5q-19 11.5 -39 32.5q-14 14 -22 20t-19 6q-16 1 -24.5 -16.5t-8.5 -50.5h-67q0 66 28 102.5t77 36.5q26 0 44 -11.5t39 -32.5q16 -15 24 -21t19 -6q13 0 22 18t9 50h70q0 -67 -27.5 -103t-75.5 -36q-30 0 -49 11.5z" />
    <glyph glyph-name="Imacron" unicode="&#x12a;" horiz-adv-x="259" 
d="M189 0h-120v697h120v-697zM267 773h-275v68h275v-68z" />
    <glyph glyph-name="imacron" unicode="&#x12b;" horiz-adv-x="245" 
d="M180 0h-115v493h115v-493zM260 569h-275v68h275v-68z" />
    <glyph glyph-name="Ibreve" unicode="&#x12c;" horiz-adv-x="259" 
d="M189 0h-120v697h120v-697zM-26 901h82q0 -32 20.5 -48.5t53.5 -16.5t53 17t20 48h82q0 -132 -155 -132q-156 0 -156 132z" />
    <glyph glyph-name="ibreve" unicode="&#x12d;" horiz-adv-x="245" 
d="M180 0h-115v493h115v-493zM-33 697h82q0 -32 20.5 -48.5t53.5 -16.5t53 17t20 48h82q0 -132 -155 -132q-156 0 -156 132z" />
    <glyph glyph-name="Iogonek" unicode="&#x12e;" horiz-adv-x="259" 
d="M234 -163q-20 -27 -46 -42.5t-61 -15.5q-48 0 -79.5 27.5t-31.5 71.5q0 42 24 73t56 49h-27v697h120v-697q-35 -16 -69 -45.5t-34 -64.5q0 -40 38 -40q30 0 50 28z" />
    <glyph glyph-name="iogonek" unicode="&#x12f;" horiz-adv-x="245" 
d="M63 697h119v-125h-119v125zM225 -163q-20 -27 -46 -42.5t-61 -15.5q-48 0 -79.5 27.5t-31.5 71.5q0 42 24 73t56 49h-22v493h115v-493q-35 -16 -69 -45.5t-34 -64.5q0 -40 38 -40q30 0 50 28z" />
    <glyph glyph-name="Idotaccent" unicode="&#x130;" horiz-adv-x="259" 
d="M189 0h-120v697h120v-697zM189 776h-119v125h119v-125z" />
    <glyph glyph-name="dotlessi" unicode="&#x131;" horiz-adv-x="245" 
d="M180 0h-115v493h115v-493z" />
    <glyph glyph-name="IJ" unicode="&#x132;" horiz-adv-x="813" 
d="M189 0h-120v697h120v-697zM351 46.5q-63 61.5 -70 169.5l119 13q4 -68 32.5 -100t83.5 -32q60 0 86.5 38.5t26.5 114.5v340h-264v107h385v-454q0 -120 -63 -189t-171 -69q-102 0 -165 61.5z" />
    <glyph glyph-name="ij" unicode="&#x133;" horiz-adv-x="491" 
d="M180 0h-115v493h115v-493zM182 572h-119v125h119v-125zM223 -199v100q28 -7 44 -7q22 0 32.5 10.5t10.5 39.5v549h116v-580q0 -63 -31.5 -95t-85.5 -32q-38 0 -86 15zM428 572h-119v125h119v-125z" />
    <glyph glyph-name="Jcircumflex" unicode="&#x134;" horiz-adv-x="554" 
d="M92 46.5q-63 61.5 -70 169.5l119 13q4 -68 32.5 -100t83.5 -32q60 0 86.5 38.5t26.5 114.5v340h-264v107h385v-454q0 -120 -63 -189t-171 -69q-102 0 -165 61.5zM233 746h-89l155 172l155 -172h-89l-66 74z" />
    <glyph glyph-name="jcircumflex" unicode="&#x135;" horiz-adv-x="246" 
d="M-22 -199v100q28 -7 44 -7q22 0 32.5 10.5t10.5 39.5v549h116v-580q0 -63 -31.5 -95t-85.5 -32q-38 0 -86 15zM57 542h-89l155 172l155 -172h-89l-66 74z" />
    <glyph glyph-name="uni0136" unicode="&#x136;" horiz-adv-x="656" 
d="M644 0h-143l-213 338l-99 -101v-237h-120v697h120v-307l291 307h162l-267 -270zM267 -226h-68l69 173h121z" />
    <glyph glyph-name="uni0137" unicode="&#x137;" horiz-adv-x="552" 
d="M513 493l-179 -184l201 -309h-138l-147 231l-71 -79v-152h-116v697h116v-401l179 197h155zM220 -226h-68l69 173h121z" />
    <glyph glyph-name="kgreenlandic" unicode="&#x138;" horiz-adv-x="552" 
d="M513 493l-179 -184l201 -309h-138l-147 231l-71 -79v-152h-116v493h116v-197l179 197h155z" />
    <glyph glyph-name="Lacute" unicode="&#x139;" horiz-adv-x="500" 
d="M489 0h-420v697h120v-589h300v-108zM172 759h-85l111 142h125z" />
    <glyph glyph-name="lacute" unicode="&#x13a;" horiz-adv-x="282" 
d="M92 21.5q-31 31.5 -31 94.5v581h115v-558q0 -42 38 -42q13 0 37 7v-99q-40 -15 -76 -15q-52 0 -83 31.5zM161 759h-85l111 142h125z" />
    <glyph glyph-name="uni013B" unicode="&#x13b;" horiz-adv-x="500" 
d="M489 0h-420v697h120v-589h300v-108zM218 -226h-68l69 173h121z" />
    <glyph glyph-name="uni013C" unicode="&#x13c;" horiz-adv-x="282" 
d="M92 21.5q-31 31.5 -31 94.5v581h115v-558q0 -42 38 -42q13 0 37 7v-99q-40 -15 -76 -15q-52 0 -83 31.5zM77 -226h-68l69 173h121z" />
    <glyph glyph-name="Lcaron" unicode="&#x13d;" horiz-adv-x="500" 
d="M489 0h-420v697h120v-589h300v-108zM399 474h-68l56 223h122z" />
    <glyph glyph-name="lcaron" unicode="&#x13e;" horiz-adv-x="282" 
d="M92 21.5q-31 31.5 -31 94.5v581h115v-558q0 -42 38 -42q13 0 37 7v-99q-40 -15 -76 -15q-52 0 -83 31.5zM276 474h-68l56 223h122z" />
    <glyph glyph-name="Ldot" unicode="&#x13f;" horiz-adv-x="514" 
d="M489 0h-420v697h120v-589h300v-108zM480 284h-109v128h109v-128z" />
    <glyph glyph-name="ldot" unicode="&#x140;" horiz-adv-x="367" 
d="M92 21.5q-31 31.5 -31 94.5v581h115v-558q0 -42 38 -42q13 0 37 7v-99q-40 -15 -76 -15q-52 0 -83 31.5zM329 285h-109v128h109v-128z" />
    <glyph glyph-name="Lslash" unicode="&#x141;" horiz-adv-x="500" 
d="M189 302v-194h300v-108h-420v207l-57 -45v119l57 45v371h120v-276l117 92v-118z" />
    <glyph glyph-name="lslash" unicode="&#x142;" horiz-adv-x="282" 
d="M251 104v-99q-40 -15 -76 -15q-52 0 -83 31.5t-31 94.5v150l-50 -40v120l50 40v311h115v-220l65 51v-117l-65 -52v-220q0 -42 38 -42q13 0 37 7z" />
    <glyph glyph-name="Nacute" unicode="&#x143;" horiz-adv-x="685" 
d="M496 206v491h120v-697h-126l-301 493v-493h-120v697h125zM383 759h-85l111 142h125z" />
    <glyph glyph-name="nacute" unicode="&#x144;" horiz-adv-x="561" 
d="M455 455.5q47 -47.5 47 -135.5v-320h-116v277q0 64 -23.5 94.5t-72.5 30.5q-56 0 -83.5 -40t-27.5 -124v-238h-116v493h116v-53q48 63 143 63q86 0 133 -47.5zM315 555h-85l111 142h125z" />
    <glyph glyph-name="uni0145" unicode="&#x145;" horiz-adv-x="685" 
d="M496 206v491h120v-697h-126l-301 493v-493h-120v697h125zM280 -226h-68l69 173h121z" />
    <glyph glyph-name="uni0146" unicode="&#x146;" horiz-adv-x="561" 
d="M455 455.5q47 -47.5 47 -135.5v-320h-116v277q0 64 -23.5 94.5t-72.5 30.5q-56 0 -83.5 -40t-27.5 -124v-238h-116v493h116v-53q48 63 143 63q86 0 133 -47.5zM213 -226h-68l69 173h121z" />
    <glyph glyph-name="Ncaron" unicode="&#x147;" horiz-adv-x="685" 
d="M496 206v491h120v-697h-126l-301 493v-493h-120v697h125zM497 901l-155 -163l-156 163h91l65 -69l65 69h90z" />
    <glyph glyph-name="ncaron" unicode="&#x148;" horiz-adv-x="561" 
d="M455 455.5q47 -47.5 47 -135.5v-320h-116v277q0 64 -23.5 94.5t-72.5 30.5q-56 0 -83.5 -40t-27.5 -124v-238h-116v493h116v-53q48 63 143 63q86 0 133 -47.5zM429 697l-155 -163l-156 163h91l65 -69l65 69h90z" />
    <glyph glyph-name="napostrophe" unicode="&#x149;" horiz-adv-x="657" 
d="M42 418h-76l69 279h134zM553 455.5q47 -47.5 47 -135.5v-320h-116v277q0 64 -23.5 94.5t-72.5 30.5q-56 0 -83.5 -40t-27.5 -124v-238h-116v493h116v-53q48 63 143 63q86 0 133 -47.5z" />
    <glyph glyph-name="Eng" unicode="&#x14a;" horiz-adv-x="685" 
d="M496 697h120v-698q0 -78 -41 -129t-128 -51q-39 0 -71 6l1 77q16 -4 38 -4q42 0 64 18.5t22 45.5q0 21 -11 38l-301 486v-486h-120v697h125l302 -484v484z" />
    <glyph glyph-name="eng" unicode="&#x14b;" horiz-adv-x="564" 
d="M459.5 457q47.5 -46 47.5 -129v-415q0 -63 -30.5 -95t-82.5 -32q-36 0 -78 15v93q25 -7 39 -7q18 0 27 9t9 33v367q0 106 -98 106q-53 0 -77 -29.5t-28 -64.5t-4 -95v-213h-116v493h116v-57q47 67 146 67q82 0 129.5 -46z" />
    <glyph glyph-name="Omacron" unicode="&#x14c;" horiz-adv-x="746" 
d="M199.5 30.5q-75.5 45.5 -117 127.5t-41.5 190t41.5 190.5t117 128t173.5 45.5q99 0 174 -45.5t116.5 -128t41.5 -190.5t-42 -190t-117 -127.5t-173 -45.5t-173.5 45.5zM484.5 130.5q47.5 30.5 73.5 86.5t26 131q0 115 -57 182t-154 67t-154 -66.5t-57 -182.5
q0 -115 57 -181.5t154 -66.5q64 0 111.5 30.5zM511 773h-275v68h275v-68z" />
    <glyph glyph-name="omacron" unicode="&#x14d;" horiz-adv-x="573" 
d="M160 23q-56 33 -88 92t-32 132q0 74 31.5 132t87.5 91t127 33t127 -33t87.5 -91t31.5 -132q0 -73 -32 -131.5t-88 -92t-126 -33.5t-126 33zM382 133.5q35 41.5 35 113.5t-35 113t-96 41t-95.5 -40.5t-34.5 -113.5q0 -72 34.5 -113.5t95.5 -41.5t96 41.5zM424 569h-275v68
h275v-68z" />
    <glyph glyph-name="Obreve" unicode="&#x14e;" horiz-adv-x="746" 
d="M199.5 30.5q-75.5 45.5 -117 127.5t-41.5 190t41.5 190.5t117 128t173.5 45.5q99 0 174 -45.5t116.5 -128t41.5 -190.5t-42 -190t-117 -127.5t-173 -45.5t-173.5 45.5zM484.5 130.5q47.5 30.5 73.5 86.5t26 131q0 115 -57 182t-154 67t-154 -66.5t-57 -182.5
q0 -115 57 -181.5t154 -66.5q64 0 111.5 30.5zM217 901h82q0 -32 20.5 -48.5t53.5 -16.5t53 17t20 48h82q0 -132 -155 -132q-156 0 -156 132z" />
    <glyph glyph-name="obreve" unicode="&#x14f;" horiz-adv-x="573" 
d="M160 23q-56 33 -88 92t-32 132q0 74 31.5 132t87.5 91t127 33t127 -33t87.5 -91t31.5 -132q0 -73 -32 -131.5t-88 -92t-126 -33.5t-126 33zM382 133.5q35 41.5 35 113.5t-35 113t-96 41t-95.5 -40.5t-34.5 -113.5q0 -72 34.5 -113.5t95.5 -41.5t96 41.5zM131 697h82
q0 -32 20.5 -48.5t53.5 -16.5t53 17t20 48h82q0 -132 -155 -132q-156 0 -156 132z" />
    <glyph glyph-name="Ohungarumlaut" unicode="&#x150;" horiz-adv-x="746" 
d="M199.5 30.5q-75.5 45.5 -117 127.5t-41.5 190t41.5 190.5t117 128t173.5 45.5q99 0 174 -45.5t116.5 -128t41.5 -190.5t-42 -190t-117 -127.5t-173 -45.5t-173.5 45.5zM484.5 130.5q47.5 30.5 73.5 86.5t26 131q0 115 -57 182t-154 67t-154 -66.5t-57 -182.5
q0 -115 57 -181.5t154 -66.5q64 0 111.5 30.5zM320 739h-85l111 162h104zM510 739h-85l111 162h123z" />
    <glyph glyph-name="ohungarumlaut" unicode="&#x151;" horiz-adv-x="573" 
d="M160 23q-56 33 -88 92t-32 132q0 74 31.5 132t87.5 91t127 33t127 -33t87.5 -91t31.5 -132q0 -73 -32 -131.5t-88 -92t-126 -33.5t-126 33zM382 133.5q35 41.5 35 113.5t-35 113t-96 41t-95.5 -40.5t-34.5 -113.5q0 -72 34.5 -113.5t95.5 -41.5t96 41.5zM234 535h-85
l111 162h104zM424 535h-85l111 162h123z" />
    <glyph glyph-name="OE" unicode="&#x152;" horiz-adv-x="1096" 
d="M1050 590h-343v-179h318v-108h-318v-195h343v-108h-463v60q-87 -75 -214 -75q-98 0 -173.5 45.5t-117 127.5t-41.5 190t41.5 190.5t117 128t173.5 45.5q126 0 214 -74v59h463v-107zM484.5 130.5q47.5 30.5 73.5 86.5t26 131q0 115 -57 182t-154 67t-154 -66.5t-57 -182.5
q0 -115 57 -181.5t154 -66.5q64 0 111.5 30.5z" />
    <glyph glyph-name="oe" unicode="&#x153;" horiz-adv-x="917" 
d="M873 208h-340q3 -52 35 -82.5t90 -30.5q36 0 65.5 12.5t55.5 41.5l80 -71q-40 -44 -89.5 -66t-111.5 -22q-63 0 -110.5 21.5t-77.5 60.5q-32 -39 -79.5 -60.5t-104.5 -21.5q-74 0 -130 34.5t-86 93.5t-30 129q0 71 30 129t86 92.5t130 34.5q58 0 105.5 -21.5t80.5 -60.5
q64 82 178 82q73 0 124 -33t76.5 -89.5t25.5 -126.5q0 -19 -3 -46zM765 294q2 47 -30 79.5t-87 32.5q-53 0 -82.5 -33t-34.5 -79h234zM384 135.5q33 44.5 33 111.5t-33 111t-98 44t-97.5 -43.5t-32.5 -111.5q0 -67 32 -111.5t98 -44.5q65 0 98 44.5z" />
    <glyph glyph-name="Racute" unicode="&#x154;" horiz-adv-x="610" 
d="M588 0h-140l-172 292h-37h-49v-292h-120v697h225q121 0 179 -52.5t58 -147.5q0 -73 -33 -120.5t-95 -68.5zM190 398h93q60 0 94.5 22t34.5 75t-34.5 74t-94.5 21h-93v-192zM333 759h-85l111 142h125z" />
    <glyph glyph-name="racute" unicode="&#x155;" horiz-adv-x="421" 
d="M359 496q26 -7 47 -20l-56 -101q-12 7 -28.5 11.5t-33.5 4.5q-35 0 -62.5 -20.5t-38.5 -61.5q-8 -29 -8 -93v-216h-116v493h117v-62q21 34 54 53t73 19q26 0 52 -7zM236 555h-85l111 142h125z" />
    <glyph glyph-name="uni0156" unicode="&#x156;" horiz-adv-x="610" 
d="M588 0h-140l-172 292h-37h-49v-292h-120v697h225q121 0 179 -52.5t58 -147.5q0 -73 -33 -120.5t-95 -68.5zM190 398h93q60 0 94.5 22t34.5 75t-34.5 74t-94.5 21h-93v-192zM230 -226h-68l69 173h121z" />
    <glyph glyph-name="uni0157" unicode="&#x157;" horiz-adv-x="421" 
d="M359 496q26 -7 47 -20l-56 -101q-12 7 -28.5 11.5t-33.5 4.5q-35 0 -62.5 -20.5t-38.5 -61.5q-8 -29 -8 -93v-216h-116v493h117v-62q21 34 54 53t73 19q26 0 52 -7zM133 -226h-68l69 173h121z" />
    <glyph glyph-name="Rcaron" unicode="&#x158;" horiz-adv-x="610" 
d="M588 0h-140l-172 292h-37h-49v-292h-120v697h225q121 0 179 -52.5t58 -147.5q0 -73 -33 -120.5t-95 -68.5zM190 398h93q60 0 94.5 22t34.5 75t-34.5 74t-94.5 21h-93v-192zM447 901l-155 -163l-156 163h91l65 -69l65 69h90z" />
    <glyph glyph-name="rcaron" unicode="&#x159;" horiz-adv-x="421" 
d="M359 496q26 -7 47 -20l-56 -101q-12 7 -28.5 11.5t-33.5 4.5q-35 0 -62.5 -20.5t-38.5 -61.5q-8 -29 -8 -93v-216h-116v493h117v-62q21 34 54 53t73 19q26 0 52 -7zM350 697l-155 -163l-156 163h91l65 -69l65 69h90z" />
    <glyph glyph-name="Sacute" unicode="&#x15a;" horiz-adv-x="573" 
d="M115.5 44q-70.5 57 -85.5 153l117 29q11 -64 50.5 -98t100.5 -34q51 0 84.5 26.5t33.5 70.5q0 40 -32.5 65t-109.5 54q-102 39 -150 88t-48 125q0 55 27 98t76.5 67t113.5 24q70 0 123.5 -32t85.5 -95l-95 -58q-45 78 -117 78q-40 0 -66.5 -22.5t-26.5 -57.5
q0 -36 31.5 -60.5t108.5 -53.5q100 -38 149 -86t49 -127q0 -61 -30 -109t-85 -75t-126 -27q-108 0 -178.5 57zM328 759h-85l111 142h125z" />
    <glyph glyph-name="sacute" unicode="&#x15b;" horiz-adv-x="480" 
d="M126.5 16.5q-53.5 26.5 -93.5 77.5l79 68q25 -36 61 -56t78 -20q37 0 56.5 14.5t19.5 40.5t-23 39.5t-79 28.5q-53 15 -87 29.5t-59 43.5t-25 77q0 40 23.5 73t65.5 52t95 19q60 0 108.5 -22.5t80.5 -65.5l-80 -63q-47 58 -114 58q-31 0 -51 -12t-20 -32q0 -19 21 -29.5
t74 -24.5q55 -13 92.5 -28t64.5 -46.5t27 -84.5q0 -73 -54.5 -118t-143.5 -45q-63 0 -116.5 26.5zM286 555h-85l111 142h125z" />
    <glyph glyph-name="Scircumflex" unicode="&#x15c;" horiz-adv-x="573" 
d="M115.5 44q-70.5 57 -85.5 153l117 29q11 -64 50.5 -98t100.5 -34q51 0 84.5 26.5t33.5 70.5q0 40 -32.5 65t-109.5 54q-102 39 -150 88t-48 125q0 55 27 98t76.5 67t113.5 24q70 0 123.5 -32t85.5 -95l-95 -58q-45 78 -117 78q-40 0 -66.5 -22.5t-26.5 -57.5
q0 -36 31.5 -60.5t108.5 -53.5q100 -38 149 -86t49 -127q0 -61 -30 -109t-85 -75t-126 -27q-108 0 -178.5 57zM220 746h-89l155 172l155 -172h-89l-66 74z" />
    <glyph glyph-name="scircumflex" unicode="&#x15d;" horiz-adv-x="480" 
d="M126.5 16.5q-53.5 26.5 -93.5 77.5l79 68q25 -36 61 -56t78 -20q37 0 56.5 14.5t19.5 40.5t-23 39.5t-79 28.5q-53 15 -87 29.5t-59 43.5t-25 77q0 40 23.5 73t65.5 52t95 19q60 0 108.5 -22.5t80.5 -65.5l-80 -63q-47 58 -114 58q-31 0 -51 -12t-20 -32q0 -19 21 -29.5
t74 -24.5q55 -13 92.5 -28t64.5 -46.5t27 -84.5q0 -73 -54.5 -118t-143.5 -45q-63 0 -116.5 26.5zM178 542h-89l155 172l155 -172h-89l-66 74z" />
    <glyph glyph-name="Scedilla" unicode="&#x15e;" horiz-adv-x="573" 
d="M507 92.5q-28 -46.5 -79 -74.5t-118 -31l-29 -38q31 -4 56 -19q40 -25 40 -76q0 -49 -31.5 -80.5t-83.5 -31.5q-19 0 -41.5 8t-41.5 25l37 56q21 -23 49 -23q21 0 33 10.5t12 31.5q0 35 -42 47q-15 5 -35 6t-41 1l53 86q-88 13 -144.5 68t-70.5 139l117 29
q11 -64 50.5 -98t100.5 -34q51 0 84.5 26.5t33.5 70.5q0 40 -32.5 65t-109.5 54q-102 39 -150 88t-48 125q0 55 27 98t76.5 67t113.5 24q70 0 123.5 -32t85.5 -95l-95 -58q-45 78 -117 78q-40 0 -66.5 -22.5t-26.5 -57.5q0 -36 31.5 -60.5t108.5 -53.5q100 -38 149 -86
t49 -127q0 -59 -28 -105.5z" />
    <glyph glyph-name="scedilla" unicode="&#x15f;" horiz-adv-x="480" 
d="M394.5 42.5q-46.5 -43.5 -123.5 -51.5l-32 -42q31 -4 56 -19q40 -25 40 -76q0 -49 -31.5 -80.5t-83.5 -31.5q-19 0 -41.5 8t-41.5 25l37 56q21 -23 49 -23q21 0 33 11t12 31q0 35 -42 47q-15 5 -35 6t-41 1l55 89q-103 14 -172 101l79 68q25 -36 61 -56t78 -20
q37 0 56.5 14.5t19.5 40.5t-23 39.5t-79 28.5q-53 15 -87 29.5t-59 43.5t-25 77q0 40 23.5 73t65.5 52t95 19q60 0 108.5 -22.5t80.5 -65.5l-80 -63q-47 58 -114 58q-31 0 -51 -12t-20 -32q0 -19 21 -29.5t74 -24.5q55 -13 92.5 -28t64.5 -46.5t27 -84.5q0 -67 -46.5 -110.5
z" />
    <glyph glyph-name="Scaron" unicode="&#x160;" horiz-adv-x="573" 
d="M115.5 44q-70.5 57 -85.5 153l117 29q11 -64 50.5 -98t100.5 -34q51 0 84.5 26.5t33.5 70.5q0 40 -32.5 65t-109.5 54q-102 39 -150 88t-48 125q0 55 27 98t76.5 67t113.5 24q70 0 123.5 -32t85.5 -95l-95 -58q-45 78 -117 78q-40 0 -66.5 -22.5t-26.5 -57.5
q0 -36 31.5 -60.5t108.5 -53.5q100 -38 149 -86t49 -127q0 -61 -30 -109t-85 -75t-126 -27q-108 0 -178.5 57zM442 901l-155 -163l-156 163h91l65 -69l65 69h90z" />
    <glyph glyph-name="scaron" unicode="&#x161;" horiz-adv-x="480" 
d="M126.5 16.5q-53.5 26.5 -93.5 77.5l79 68q25 -36 61 -56t78 -20q37 0 56.5 14.5t19.5 40.5t-23 39.5t-79 28.5q-53 15 -87 29.5t-59 43.5t-25 77q0 40 23.5 73t65.5 52t95 19q60 0 108.5 -22.5t80.5 -65.5l-80 -63q-47 58 -114 58q-31 0 -51 -12t-20 -32q0 -19 21 -29.5
t74 -24.5q55 -13 92.5 -28t64.5 -46.5t27 -84.5q0 -73 -54.5 -118t-143.5 -45q-63 0 -116.5 26.5zM400 697l-155 -163l-156 163h91l65 -69l65 69h90z" />
    <glyph glyph-name="uni0162" unicode="&#x162;" horiz-adv-x="585" 
d="M353 0h-122v590h-220v107h561v-107h-219v-590zM226.5 -250q-22.5 8 -41.5 25l37 56q21 -23 49 -23q21 0 33 10.5t12 31.5q0 35 -42 47q-15 5 -35 6t-41 1l59 96h69l-39 -51q31 -4 56 -19q40 -25 40 -76q0 -49 -31.5 -80.5t-83.5 -31.5q-19 0 -41.5 8z" />
    <glyph glyph-name="uni0163" unicode="&#x163;" horiz-adv-x="378" 
d="M342 403h-123v-252q0 -29 12 -48t49 -19q25 0 62 10v-89q-45 -15 -88 -15l-31 -41q31 -4 56 -19q40 -25 40 -76q0 -49 -31.5 -80.5t-83.5 -31.5q-19 0 -41.5 8t-41.5 25l37 56q21 -23 49 -23q21 0 33 10.5t12 31.5q0 35 -42 47q-15 5 -35 6t-41 1l58 95q-88 29 -88 141
v263h-81v90h81v118l115 64v-182h123v-90z" />
    <glyph glyph-name="Tcaron" unicode="&#x164;" horiz-adv-x="585" 
d="M353 0h-122v590h-220v107h561v-107h-219v-590zM447 901l-155 -163l-156 163h91l65 -69l65 69h90z" />
    <glyph glyph-name="tcaron" unicode="&#x165;" horiz-adv-x="378" 
d="M342 403h-123v-252q0 -29 12 -48t49 -19q25 0 62 10v-89q-45 -15 -89 -15q-67 0 -108 36t-41 114v263h-81v90h81v118l115 64v-182h123v-90zM334 562h-68l56 223h122z" />
    <glyph glyph-name="Tbar" unicode="&#x166;" horiz-adv-x="585" 
d="M572 697v-107h-219v-202h98v-78h-98v-310h-122v310h-98v78h98v202h-220v107h561z" />
    <glyph glyph-name="tbar" unicode="&#x167;" horiz-adv-x="378" 
d="M342 403h-123v-116h123v-78h-123v-58q0 -29 12 -48t49 -19q25 0 62 10v-89q-45 -15 -89 -15q-67 0 -108 36t-41 114v69h-80v78h80v116h-81v90h81v118l115 64v-182h123v-90z" />
    <glyph glyph-name="Utilde" unicode="&#x168;" horiz-adv-x="655" 
d="M129.5 52q-66.5 67 -66.5 200v445h120v-431q0 -88 32 -129t112 -41t113 41t33 128v432h120v-440q0 -135 -67.5 -203.5t-198.5 -68.5t-197.5 67zM342 773.5q-19 11.5 -39 32.5q-14 14 -22 20t-19 6q-16 1 -24.5 -16.5t-8.5 -50.5h-67q0 66 28 102.5t77 36.5q26 0 44 -11.5
t39 -32.5q16 -15 24 -21t19 -6q13 0 22 18t9 50h70q0 -67 -27.5 -103t-75.5 -36q-30 0 -49 11.5z" />
    <glyph glyph-name="utilde" unicode="&#x169;" horiz-adv-x="560" 
d="M380 493h116v-493h-116v54q-48 -64 -143 -64q-86 0 -133 48t-47 135v320h116v-277q0 -64 23.5 -94.5t71.5 -30.5q56 0 84 40t28 124v238zM290 569.5q-19 11.5 -39 32.5q-14 14 -22 20t-19 6q-16 1 -24.5 -16.5t-8.5 -50.5h-67q0 66 28 102.5t77 36.5q26 0 44 -11.5
t39 -32.5q16 -15 24 -21t19 -6q13 0 22 18t9 50h70q0 -67 -27.5 -103t-75.5 -36q-30 0 -49 11.5z" />
    <glyph glyph-name="Umacron" unicode="&#x16a;" horiz-adv-x="655" 
d="M129.5 52q-66.5 67 -66.5 200v445h120v-431q0 -88 32 -129t112 -41t113 41t33 128v432h120v-440q0 -135 -67.5 -203.5t-198.5 -68.5t-197.5 67zM466 773h-275v68h275v-68z" />
    <glyph glyph-name="umacron" unicode="&#x16b;" horiz-adv-x="560" 
d="M380 493h116v-493h-116v54q-48 -64 -143 -64q-86 0 -133 48t-47 135v320h116v-277q0 -64 23.5 -94.5t71.5 -30.5q56 0 84 40t28 124v238zM414 569h-275v68h275v-68z" />
    <glyph glyph-name="Ubreve" unicode="&#x16c;" horiz-adv-x="655" 
d="M129.5 52q-66.5 67 -66.5 200v445h120v-431q0 -88 32 -129t112 -41t113 41t33 128v432h120v-440q0 -135 -67.5 -203.5t-198.5 -68.5t-197.5 67zM173 901h82q0 -32 20.5 -48.5t53.5 -16.5t53 17t20 48h82q0 -132 -155 -132q-156 0 -156 132z" />
    <glyph glyph-name="ubreve" unicode="&#x16d;" horiz-adv-x="560" 
d="M380 493h116v-493h-116v54q-48 -64 -143 -64q-86 0 -133 48t-47 135v320h116v-277q0 -64 23.5 -94.5t71.5 -30.5q56 0 84 40t28 124v238zM120 697h82q0 -32 20.5 -48.5t53.5 -16.5t53 17t20 48h82q0 -132 -155 -132q-156 0 -156 132z" />
    <glyph glyph-name="Uring" unicode="&#x16e;" horiz-adv-x="655" 
d="M129.5 52q-66.5 67 -66.5 200v445h120v-431q0 -88 32 -129t112 -41t113 41t33 128v432h120v-440q0 -135 -67.5 -203.5t-198.5 -68.5t-197.5 67zM249 710.5q-33 33.5 -33 79.5q0 47 33 79.5t80 32.5q46 0 79 -32.5t33 -79.5t-33 -80t-79 -33q-47 0 -80 33.5zM364.5 754.5
q13.5 14.5 13.5 36.5t-13 35.5t-36 13.5t-36.5 -14t-13.5 -35q0 -22 14 -36.5t36 -14.5t35.5 14.5z" />
    <glyph glyph-name="uring" unicode="&#x16f;" horiz-adv-x="560" 
d="M380 493h116v-493h-116v54q-48 -64 -143 -64q-86 0 -133 48t-47 135v320h116v-277q0 -64 23.5 -94.5t71.5 -30.5q56 0 84 40t28 124v238zM196 561.5q-33 33.5 -33 79.5q0 47 33 79.5t80 32.5q46 0 79 -32.5t33 -79.5t-33 -80t-79 -33q-47 0 -80 33.5zM311.5 605.5
q13.5 14.5 13.5 36.5t-13 35.5t-36 13.5t-36.5 -14t-13.5 -35q0 -22 14 -36.5t36 -14.5t35.5 14.5z" />
    <glyph glyph-name="Uhungarumlaut" unicode="&#x170;" horiz-adv-x="655" 
d="M129.5 52q-66.5 67 -66.5 200v445h120v-431q0 -88 32 -129t112 -41t113 41t33 128v432h120v-440q0 -135 -67.5 -203.5t-198.5 -68.5t-197.5 67zM276 739h-85l111 162h104zM466 739h-85l111 162h123z" />
    <glyph glyph-name="uhungarumlaut" unicode="&#x171;" horiz-adv-x="560" 
d="M380 493h116v-493h-116v54q-48 -64 -143 -64q-86 0 -133 48t-47 135v320h116v-277q0 -64 23.5 -94.5t71.5 -30.5q56 0 84 40t28 124v238zM223 535h-85l111 162h104zM413 535h-85l111 162h123z" />
    <glyph glyph-name="Uogonek" unicode="&#x172;" horiz-adv-x="655" 
d="M473 697h120v-440q0 -117 -50 -183.5t-149 -83.5q-33 -19 -58.5 -45t-25.5 -55q0 -40 38 -40q30 0 50 28l60 -41q-20 -27 -46 -42.5t-61 -15.5q-48 0 -79.5 27.5t-31.5 71.5q0 34 17 61.5t42 46.5q-117 7 -176.5 73.5t-59.5 192.5v445h120v-431q0 -88 32 -129t112 -41
t113 41t33 128v432z" />
    <glyph glyph-name="uogonek" unicode="&#x173;" horiz-adv-x="560" 
d="M541 -163q-20 -27 -46 -42.5t-61 -15.5q-48 0 -79.5 27.5t-31.5 71.5q0 42 24 73t56 49h-23v54q-48 -64 -143 -64q-86 0 -133 48t-47 135v320h116v-277q0 -64 23.5 -94.5t71.5 -30.5q56 0 84 40t28 124v238h116v-493q-35 -16 -69 -45.5t-34 -64.5q0 -40 38 -40
q30 0 50 28z" />
    <glyph glyph-name="Wcircumflex" unicode="&#x174;" horiz-adv-x="973" 
d="M685 184l148 513h125l-208 -697h-117l-146 481l-147 -481h-117l-208 697h126l148 -513l138 473h119zM421 746h-89l155 172l155 -172h-89l-66 74z" />
    <glyph glyph-name="wcircumflex" unicode="&#x175;" horiz-adv-x="753" 
d="M276 0h-105l-151 493h123l87 -316l96 316h99l96 -314l87 314h124l-152 -493h-104l-100 329zM310 542h-89l155 172l155 -172h-89l-66 74z" />
    <glyph glyph-name="Ycircumflex" unicode="&#x176;" horiz-adv-x="616" 
d="M369 0h-120v272l-245 425h137l165 -305l169 305h137l-243 -425v-272zM243 746h-89l155 172l155 -172h-89l-66 74z" />
    <glyph glyph-name="ycircumflex" unicode="&#x177;" horiz-adv-x="545" 
d="M249 -204h-125l87 217l-194 480h127l129 -348l128 348h126zM207 542h-89l155 172l155 -172h-89l-66 74z" />
    <glyph glyph-name="Ydieresis" unicode="&#x178;" horiz-adv-x="616" 
d="M369 0h-120v272l-245 425h137l165 -305l169 305h137l-243 -425v-272zM271 776h-119v125h119v-125zM465 776h-119v125h119v-125z" />
    <glyph glyph-name="Zacute" unicode="&#x179;" horiz-adv-x="593" 
d="M556 597l-378 -489h391v-108h-542v99l378 491h-355v107h506v-100zM343 759h-85l111 142h125z" />
    <glyph glyph-name="zacute" unicode="&#x17a;" horiz-adv-x="469" 
d="M46 493h385v-83l-247 -313h246v-97h-396v78l256 318h-244v97zM277 555h-85l111 142h125z" />
    <glyph glyph-name="Zdotaccent" unicode="&#x17b;" horiz-adv-x="593" 
d="M556 597l-378 -489h391v-108h-542v99l378 491h-355v107h506v-100zM360 776h-119v125h119v-125z" />
    <glyph glyph-name="zdotaccent" unicode="&#x17c;" horiz-adv-x="469" 
d="M46 493h385v-83l-247 -313h246v-97h-396v78l256 318h-244v97zM295 572h-119v125h119v-125z" />
    <glyph glyph-name="Zcaron" unicode="&#x17d;" horiz-adv-x="593" 
d="M556 597l-378 -489h391v-108h-542v99l378 491h-355v107h506v-100zM456 901l-155 -163l-156 163h91l65 -69l65 69h90z" />
    <glyph glyph-name="zcaron" unicode="&#x17e;" horiz-adv-x="469" 
d="M46 493h385v-83l-247 -313h246v-97h-396v78l256 318h-244v97zM391 697l-155 -163l-156 163h91l65 -69l65 69h90z" />
    <glyph glyph-name="uni018F" unicode="&#x18f;" horiz-adv-x="756" 
d="M556.5 668.5q76.5 -44.5 117.5 -126.5t41 -193q0 -110 -41.5 -192.5t-117.5 -127t-178 -44.5t-178 44.5t-117.5 127.5t-41.5 194h554q0 119 -56.5 183t-160.5 64q-73 0 -123 -33t-73 -98l-111 43q38 98 116.5 150.5t190.5 52.5q102 0 178.5 -44.5zM511.5 141
q53.5 41 73.5 118h-413q20 -77 73 -118t133 -41t133.5 41z" />
    <glyph glyph-name="florin" unicode="&#x192;" horiz-adv-x="488" 
d="M50 -128q49 0 76.5 13t39.5 43t12 84v395h-87v86h87v62q0 71 37 115t102 44q80 0 129 -52l-63 -74q-26 28 -58 28q-21 0 -35 -15t-14 -46v-62h114v-86h-114v-405q0 -112 -57.5 -165t-168.5 -53v88z" />
    <glyph glyph-name="uni019D" unicode="&#x19d;" horiz-adv-x="701" 
d="M512 697h120v-697h-125l-301 485v-512q0 -67 -48.5 -110.5t-149.5 -43.5v79q40 0 59 21t19 49v32v697h124l302 -484v484z" />
    <glyph glyph-name="Ohorn" unicode="&#x1a0;" horiz-adv-x="746" 
d="M686 697h80v-40q0 -54 -21.5 -94.5t-66.5 -57.5q27 -69 27 -157q0 -108 -42 -190t-117 -127.5t-173 -45.5t-173.5 45.5t-117 127.5t-41.5 190t41.5 190.5t117 128t173.5 45.5q87 0 156.5 -36t113.5 -101q23 8 33 30t10 59v33zM484.5 130.5q47.5 30.5 73.5 86.5t26 131
q0 115 -57 182t-154 67t-154 -66.5t-57 -182.5q0 -115 57 -181.5t154 -66.5q64 0 111.5 30.5z" />
    <glyph glyph-name="ohorn" unicode="&#x1a1;" horiz-adv-x="573" 
d="M540 546h80v-40q0 -60 -26 -102t-80 -56q18 -45 18 -101q0 -73 -32 -131.5t-88 -92t-126 -33.5t-126 33t-88 92t-32 132q0 74 31.5 132t87.5 91t127 33q57 0 105.5 -22t81.5 -62q36 2 51.5 25.5t15.5 68.5v33zM382 133.5q35 41.5 35 113.5t-35 113t-96 41t-95.5 -40.5
t-34.5 -113.5q0 -72 34.5 -113.5t95.5 -41.5t96 41.5z" />
    <glyph glyph-name="Uhorn" unicode="&#x1af;" horiz-adv-x="655" 
d="M659 697h80v-40q0 -71 -36 -115.5t-110 -47.5v-237q0 -135 -67.5 -203.5t-198.5 -68.5t-197.5 67t-66.5 200v445h120v-431q0 -88 32 -129t112 -41t113 41t33 128v432h120v-127q36 2 51 25.5t15 68.5v33z" />
    <glyph glyph-name="uhorn" unicode="&#x1b0;" horiz-adv-x="560" 
d="M494 620h80v-40q0 -51 -19 -90t-59 -58v-432h-116v54q-48 -64 -143 -64q-86 0 -133 48t-47 135v320h116v-277q0 -64 23.5 -94.5t71.5 -30.5q56 0 84 40t28 124v238h40q40 0 57 23t17 71v33z" />
    <glyph glyph-name="uni01CD" unicode="&#x1cd;" horiz-adv-x="665" 
d="M655 0h-131l-52 142h-279l-52 -142h-131l277 697h91zM333 520l-100 -270h199zM489 901l-155 -163l-156 163h91l65 -69l65 69h90z" />
    <glyph glyph-name="uni01CE" unicode="&#x1ce;" horiz-adv-x="544" 
d="M430.5 452q56.5 -51 56.5 -141v-311h-106l-6 51q-51 -61 -143 -61q-86 0 -138 45t-52 118q0 77 58 115q49 34 132 34h140v9q0 43 -27.5 67t-78.5 24q-37 0 -68.5 -14t-63.5 -49l-84 70q43 48 100.5 71t123.5 23q100 0 156.5 -51zM334.5 117.5q37.5 34.5 37.5 86.5v8h-123
q-45 0 -67 -15q-25 -16 -25 -46q0 -31 23 -49.5t62 -18.5q55 0 92.5 34.5zM430 697l-155 -163l-156 163h91l65 -69l65 69h90z" />
    <glyph glyph-name="uni01CF" unicode="&#x1cf;" horiz-adv-x="259" 
d="M189 0h-120v697h120v-697zM285 901l-155 -163l-156 163h91l65 -69l65 69h90z" />
    <glyph glyph-name="uni01D0" unicode="&#x1d0;" horiz-adv-x="245" 
d="M180 0h-115v493h115v-493zM278 697l-155 -163l-156 163h91l65 -69l65 69h90z" />
    <glyph glyph-name="uni01D1" unicode="&#x1d1;" horiz-adv-x="746" 
d="M199.5 30.5q-75.5 45.5 -117 127.5t-41.5 190t41.5 190.5t117 128t173.5 45.5q99 0 174 -45.5t116.5 -128t41.5 -190.5t-42 -190t-117 -127.5t-173 -45.5t-173.5 45.5zM484.5 130.5q47.5 30.5 73.5 86.5t26 131q0 115 -57 182t-154 67t-154 -66.5t-57 -182.5
q0 -115 57 -181.5t154 -66.5q64 0 111.5 30.5zM528 901l-155 -163l-156 163h91l65 -69l65 69h90z" />
    <glyph glyph-name="uni01D2" unicode="&#x1d2;" horiz-adv-x="573" 
d="M160 23q-56 33 -88 92t-32 132q0 74 31.5 132t87.5 91t127 33t127 -33t87.5 -91t31.5 -132q0 -73 -32 -131.5t-88 -92t-126 -33.5t-126 33zM382 133.5q35 41.5 35 113.5t-35 113t-96 41t-95.5 -40.5t-34.5 -113.5q0 -72 34.5 -113.5t95.5 -41.5t96 41.5zM442 697
l-155 -163l-156 163h91l65 -69l65 69h90z" />
    <glyph glyph-name="uni01D3" unicode="&#x1d3;" horiz-adv-x="655" 
d="M129.5 52q-66.5 67 -66.5 200v445h120v-431q0 -88 32 -129t112 -41t113 41t33 128v432h120v-440q0 -135 -67.5 -203.5t-198.5 -68.5t-197.5 67zM484 901l-155 -163l-156 163h91l65 -69l65 69h90z" />
    <glyph glyph-name="uni01D4" unicode="&#x1d4;" horiz-adv-x="560" 
d="M380 493h116v-493h-116v54q-48 -64 -143 -64q-86 0 -133 48t-47 135v320h116v-277q0 -64 23.5 -94.5t71.5 -30.5q56 0 84 40t28 124v238zM431 697l-155 -163l-156 163h91l65 -69l65 69h90z" />
    <glyph glyph-name="uni01D5" unicode="&#x1d5;" horiz-adv-x="655" 
d="M129.5 52q-66.5 67 -66.5 200v445h120v-431q0 -88 32 -129t112 -41t113 41t33 128v432h120v-440q0 -135 -67.5 -203.5t-198.5 -68.5t-197.5 67zM291 776h-119v125h119v-125zM485 776h-119v125h119v-125zM466 977h-275v68h275v-68z" />
    <glyph glyph-name="uni01D6" unicode="&#x1d6;" horiz-adv-x="560" 
d="M380 493h116v-493h-116v54q-48 -64 -143 -64q-86 0 -133 48t-47 135v320h116v-277q0 -64 23.5 -94.5t71.5 -30.5q56 0 84 40t28 124v238zM238 572h-119v125h119v-125zM432 572h-119v125h119v-125zM414 773h-275v68h275v-68z" />
    <glyph glyph-name="uni01D7" unicode="&#x1d7;" horiz-adv-x="655" 
d="M129.5 52q-66.5 67 -66.5 200v445h120v-431q0 -88 32 -129t112 -41t113 41t33 128v432h120v-440q0 -135 -67.5 -203.5t-198.5 -68.5t-197.5 67zM291 776h-119v125h119v-125zM485 776h-119v125h119v-125zM370 963h-85l111 142h125z" />
    <glyph glyph-name="uni01D8" unicode="&#x1d8;" horiz-adv-x="560" 
d="M380 493h116v-493h-116v54q-48 -64 -143 -64q-86 0 -133 48t-47 135v320h116v-277q0 -64 23.5 -94.5t71.5 -30.5q56 0 84 40t28 124v238zM238 572h-119v125h119v-125zM432 572h-119v125h119v-125zM318 759h-85l111 142h125z" />
    <glyph glyph-name="uni01D9" unicode="&#x1d9;" horiz-adv-x="655" 
d="M129.5 52q-66.5 67 -66.5 200v445h120v-431q0 -88 32 -129t112 -41t113 41t33 128v432h120v-440q0 -135 -67.5 -203.5t-198.5 -68.5t-197.5 67zM291 776h-119v125h119v-125zM485 776h-119v125h119v-125zM484 1105l-155 -163l-156 163h91l65 -69l65 69h90z" />
    <glyph glyph-name="uni01DA" unicode="&#x1da;" horiz-adv-x="560" 
d="M380 493h116v-493h-116v54q-48 -64 -143 -64q-86 0 -133 48t-47 135v320h116v-277q0 -64 23.5 -94.5t71.5 -30.5q56 0 84 40t28 124v238zM238 572h-119v125h119v-125zM432 572h-119v125h119v-125zM431 901l-155 -163l-156 163h91l65 -69l65 69h90z" />
    <glyph glyph-name="uni01DB" unicode="&#x1db;" horiz-adv-x="655" 
d="M129.5 52q-66.5 67 -66.5 200v445h120v-431q0 -88 32 -129t112 -41t113 41t33 128v432h120v-440q0 -135 -67.5 -203.5t-198.5 -68.5t-197.5 67zM291 776h-119v125h119v-125zM485 776h-119v125h119v-125zM371 963h-86l-141 142h123z" />
    <glyph glyph-name="uni01DC" unicode="&#x1dc;" horiz-adv-x="560" 
d="M380 493h116v-493h-116v54q-48 -64 -143 -64q-86 0 -133 48t-47 135v320h116v-277q0 -64 23.5 -94.5t71.5 -30.5q56 0 84 40t28 124v238zM238 572h-119v125h119v-125zM432 572h-119v125h119v-125zM319 759h-86l-141 142h123z" />
    <glyph glyph-name="Gcaron" unicode="&#x1e6;" horiz-adv-x="733" 
d="M398 268v108h279v-376h-106l-11 76q-31 -45 -81.5 -68t-113.5 -23q-94 0 -168 45.5t-115 128t-41 190.5t41.5 190t117 127.5t173.5 45.5q109 0 189 -54.5t115 -151.5l-114 -41q-23 63 -72 97.5t-118 34.5q-97 0 -154 -66.5t-57 -181.5t57 -182t154 -67q72 0 127.5 38.5
t67.5 129.5h-170zM528 901l-155 -163l-156 163h91l65 -69l65 69h90z" />
    <glyph glyph-name="gcaron" unicode="&#x1e7;" horiz-adv-x="526" 
d="M386.5 51q46.5 -12 75.5 -39t29 -78q0 -72 -58.5 -110t-167.5 -38q-107 0 -169 39t-62 108q0 16 3 31l72 46q-62 33 -62 101q0 59 45 98q-39 47 -39 111q0 54 27 95.5t72.5 64.5t100.5 23q64 0 114 -31l81 66l60 -74l-75 -62q21 -37 21 -86q0 -79 -54.5 -127t-143.5 -48
q-49 0 -88 15q-15 -13 -15 -32q0 -24 23 -33.5t80 -16.5q84 -11 130.5 -23zM191.5 382.5q-23.5 -23.5 -23.5 -62.5q0 -38 22.5 -63t63.5 -25q40 0 62.5 25t22.5 63q0 39 -23 62.5t-62 23.5t-62.5 -23.5zM349 -116.5q27 10.5 27 35.5q0 19 -14 29t-41.5 15.5t-84.5 12.5
l-41 6l-45 -43q-1 -2 -1 -10q0 -28 30.5 -42t85.5 -14q57 0 84 10.5zM413 697l-155 -163l-156 163h91l65 -69l65 69h90z" />
    <glyph glyph-name="uni01EA" unicode="&#x1ea;" horiz-adv-x="746" 
d="M350 -110q0 -40 38 -40q30 0 50 28l60 -41q-20 -27 -46 -42.5t-61 -15.5q-48 0 -79.5 27.5t-31.5 71.5q0 62 60 108q-89 8 -157 55t-105 126t-37 181q0 108 41.5 190.5t117 128t173.5 45.5q99 0 174 -45.5t116.5 -128t41.5 -190.5q0 -96 -33.5 -172.5t-95 -124.5
t-143.5 -61q-83 -49 -83 -100zM219 166.5q57 -66.5 154 -66.5q64 0 111.5 30.5t73.5 86.5t26 131q0 115 -57 182t-154 67t-154 -66.5t-57 -182.5q0 -115 57 -181.5z" />
    <glyph glyph-name="uni01EB" unicode="&#x1eb;" horiz-adv-x="573" 
d="M484.5 89.5q-47.5 -66.5 -126.5 -89.5q-35 -16 -69 -45.5t-34 -64.5q0 -40 38 -40q30 0 50 28l60 -41q-20 -27 -46 -42.5t-61 -15.5q-48 0 -79.5 27.5t-31.5 71.5q0 37 20 66t48 48q-62 8 -110.5 42.5t-75.5 89.5t-27 123q0 74 31.5 132t87.5 91t127 33t127 -33t87.5 -91
t31.5 -132q0 -91 -47.5 -157.5zM382 133.5q35 41.5 35 113.5t-35 113t-96 41t-95.5 -40.5t-34.5 -113.5q0 -72 34.5 -113.5t95.5 -41.5t96 41.5z" />
    <glyph glyph-name="Aringacute" unicode="&#x1fa;" horiz-adv-x="665" 
d="M524 0l-52 142h-279l-52 -142h-131l274 689q-29 14 -46 41.5t-17 59.5q0 47 33 79.5t80 32.5q26 0 52 -13l70 90h125l-147 -138q12 -22 12 -51q0 -33 -18 -60.5t-46 -41.5l273 -688h-131zM297.5 826q-13.5 -14 -13.5 -35q0 -22 14 -36.5t36 -14.5t35.5 14.5t13.5 36.5
q0 17 -8 29t-22 17h-8l1 2q-3 1 -12 1q-23 0 -36.5 -14zM333 520l-100 -270h199z" />
    <glyph glyph-name="aringacute" unicode="&#x1fb;" horiz-adv-x="544" 
d="M195 561.5q-33 33.5 -33 79.5q0 47 33 79.5t80 32.5q23 0 46 -10l73 94h125l-148 -139q16 -27 16 -57q0 -47 -33 -80t-79 -33q-47 0 -80 33.5zM238.5 677q-13.5 -14 -13.5 -35q0 -22 14 -36.5t36 -14.5t35.5 14.5t13.5 36.5t-13 35.5t-36 13.5t-36.5 -14zM430.5 452
q56.5 -51 56.5 -141v-311h-106l-6 51q-51 -61 -143 -61q-86 0 -138 45t-52 118q0 77 58 115q49 34 132 34h140v9q0 43 -27.5 67t-78.5 24q-37 0 -68.5 -14t-63.5 -49l-84 70q43 48 100.5 71t123.5 23q100 0 156.5 -51zM334.5 117.5q37.5 34.5 37.5 86.5v8h-123
q-45 0 -67 -15q-25 -16 -25 -46q0 -31 23 -49.5t62 -18.5q55 0 92.5 34.5z" />
    <glyph glyph-name="AEacute" unicode="&#x1fc;" horiz-adv-x="915" 
d="M868 697v-107h-351v-187h308v-108h-308v-187h351v-108h-472v142h-209l-52 -142h-131l276 697h588zM353 591l-125 -338h168v338h-43zM500 759h-85l111 142h125z" />
    <glyph glyph-name="aeacute" unicode="&#x1fd;" horiz-adv-x="822" 
d="M71.5 34q-48.5 44 -48.5 115q0 65 39 97t86.5 39.5t100.5 7.5h106v18q0 43 -27 67t-77 24q-80 0 -131 -63l-84 70q48 49 103 71.5t124 22.5q59 0 101.5 -18.5t63.5 -52.5q58 66 148 66q112 0 164.5 -64t52.5 -171q0 -28 -3 -55h-328q10 -111 113 -111q39 0 68.5 12.5
t53.5 39.5l81 -71q-45 -51 -92.5 -69.5t-113.5 -18.5q-123 0 -176 102h-12q-36 -56 -79 -79t-98 -23q-87 0 -135.5 44zM687 293q0 29 -13 43q-10 28 -34 47t-64 19q-56 0 -85 -32t-30 -77h226zM315 121q36 32 40 86l7 2h-106q-61 0 -88 -17t-27 -45q0 -26 21 -42t59 -16
q58 0 94 32zM453 555h-85l111 142h125z" />
    <glyph glyph-name="Oslashacute" unicode="&#x1fe;" horiz-adv-x="746" 
d="M612 614q45 -49 69 -116.5t24 -149.5q0 -108 -42 -190t-117 -127.5t-173 -45.5q-107 0 -189 55l-30 -40h-80l61 82q-46 49 -70 116.5t-24 149.5q0 108 41.5 190.5t117 128t173.5 45.5q110 0 191 -56l31 41h79zM208 180l285 381q-52 36 -120 36q-97 0 -154 -66.5
t-57 -182.5q0 -101 46 -168zM484.5 130.5q47.5 30.5 73.5 86.5t26 131q0 103 -46 167l-284 -381q51 -34 119 -34q64 0 111.5 30.5zM415 759h-85l111 142h125z" />
    <glyph glyph-name="oslashacute" unicode="&#x1ff;" horiz-adv-x="573" 
d="M440 451q43 -34 67.5 -87t24.5 -117q0 -73 -32 -131.5t-88 -92t-126 -33.5q-60 0 -112 25l-35 -58h-57l51 84q-44 35 -68.5 88.5t-24.5 117.5q0 74 31.5 132t87.5 91t127 33q60 0 112 -25l36 59h58zM190 135l154 254q-25 12 -58 12q-61 0 -95.5 -40.5t-34.5 -113.5
q0 -72 34 -112zM382 133.5q35 41.5 35 113.5q0 71 -34 111l-154 -254q24 -12 57 -12q61 0 96 41.5zM328 555h-85l111 142h125z" />
    <glyph glyph-name="uni0218" unicode="&#x218;" horiz-adv-x="573" 
d="M115.5 44q-70.5 57 -85.5 153l117 29q11 -64 50.5 -98t100.5 -34q51 0 84.5 26.5t33.5 70.5q0 40 -32.5 65t-109.5 54q-102 39 -150 88t-48 125q0 55 27 98t76.5 67t113.5 24q70 0 123.5 -32t85.5 -95l-95 -58q-45 78 -117 78q-40 0 -66.5 -22.5t-26.5 -57.5
q0 -36 31.5 -60.5t108.5 -53.5q100 -38 149 -86t49 -127q0 -61 -30 -109t-85 -75t-126 -27q-108 0 -178.5 57zM225 -226h-68l69 173h121z" />
    <glyph glyph-name="uni0219" unicode="&#x219;" horiz-adv-x="480" 
d="M126.5 16.5q-53.5 26.5 -93.5 77.5l79 68q25 -36 61 -56t78 -20q37 0 56.5 14.5t19.5 40.5t-23 39.5t-79 28.5q-53 15 -87 29.5t-59 43.5t-25 77q0 40 23.5 73t65.5 52t95 19q60 0 108.5 -22.5t80.5 -65.5l-80 -63q-47 58 -114 58q-31 0 -51 -12t-20 -32q0 -19 21 -29.5
t74 -24.5q55 -13 92.5 -28t64.5 -46.5t27 -84.5q0 -73 -54.5 -118t-143.5 -45q-63 0 -116.5 26.5zM183 -226h-68l69 173h121z" />
    <glyph glyph-name="uni021A" unicode="&#x21a;" horiz-adv-x="585" 
d="M353 0h-122v590h-220v107h561v-107h-219v-590zM230 -226h-68l69 173h121z" />
    <glyph glyph-name="uni021B" unicode="&#x21b;" horiz-adv-x="378" 
d="M342 403h-123v-252q0 -29 12 -48t49 -19q25 0 62 10v-89q-45 -15 -89 -15q-67 0 -108 36t-41 114v263h-81v90h81v118l115 64v-182h123v-90zM167 -226h-68l69 173h121z" />
    <glyph glyph-name="uni0232" unicode="&#x232;" horiz-adv-x="616" 
d="M369 0h-120v272l-245 425h137l165 -305l169 305h137l-243 -425v-272zM446 773h-275v68h275v-68z" />
    <glyph glyph-name="uni0233" unicode="&#x233;" horiz-adv-x="545" 
d="M249 -204h-125l87 217l-194 480h127l129 -348l128 348h126zM411 569h-275v68h275v-68z" />
    <glyph glyph-name="uni0237" unicode="&#x237;" horiz-adv-x="246" 
d="M-22 -199v100q28 -7 44 -7q22 0 32.5 10.5t10.5 39.5v549h116v-580q0 -63 -31.5 -95t-85.5 -32q-38 0 -86 15z" />
    <glyph glyph-name="uni0259" unicode="&#x259;" horiz-adv-x="542" 
d="M394 468.5q54 -34.5 80 -92t26 -127.5q0 -68 -25 -127t-77.5 -95.5t-129.5 -36.5q-74 0 -125 33.5t-76 89.5t-25 126q0 19 3 46h340q-4 52 -36 82.5t-90 30.5q-73 0 -121 -54l-80 71q41 44 90 66t112 22q80 0 134 -34.5zM351 118.5q29 31.5 35 76.5h-234q-1 -46 31 -77
t86 -31q53 0 82 31.5z" />
    <glyph glyph-name="uni0272" unicode="&#x272;" horiz-adv-x="565" 
d="M459.5 457q47.5 -46 47.5 -129v-328h-116v296q0 106 -98 106q-53 0 -77 -29.5t-28 -64.5t-4 -95v-300q0 -63 -30.5 -95t-82.5 -32q-36 0 -78 15v93q25 -7 39 -7q18 0 27 9t9 33v564h116v-57q47 67 146 67q82 0 129.5 -46z" />
    <glyph glyph-name="circumflex" unicode="&#x2c6;" horiz-adv-x="318" 
d="M93 542h-89l155 172l155 -172h-89l-66 74z" />
    <glyph glyph-name="caron" unicode="&#x2c7;" horiz-adv-x="319" 
d="M315 697l-155 -163l-156 163h91l65 -69l65 69h90z" />
    <glyph glyph-name="breve" unicode="&#x2d8;" horiz-adv-x="392" 
d="M40 697h82q0 -32 20.5 -48.5t53.5 -16.5t53 17t20 48h82q0 -132 -155 -132q-156 0 -156 132z" />
    <glyph glyph-name="dotaccent" unicode="&#x2d9;" horiz-adv-x="249" 
d="M184 572h-118v125h118v-125z" />
    <glyph glyph-name="ring" unicode="&#x2da;" horiz-adv-x="301" 
d="M71 561.5q-33 33.5 -33 79.5q0 47 33 79.5t80 32.5q46 0 79 -32.5t33 -79.5t-33 -80t-79 -33q-47 0 -80 33.5zM186.5 605.5q13.5 14.5 13.5 36.5t-13 35.5t-36 13.5t-36.5 -14t-13.5 -35q0 -22 14 -36.5t36 -14.5t35.5 14.5z" />
    <glyph glyph-name="ogonek" unicode="&#x2db;" horiz-adv-x="273" 
d="M69 -195q-31 28 -31 73q0 36 18 63t38 42t27 17h91q-13 -4 -37.5 -18t-46 -37t-21.5 -52q0 -44 39 -44q16 0 28.5 7.5t23.5 21.5l59 -41q-44 -60 -108 -60q-49 0 -80 28z" />
    <glyph glyph-name="tilde" unicode="&#x2dc;" horiz-adv-x="421" 
d="M224 569.5q-19 11.5 -39 32.5q-14 14 -22 20t-19 6q-16 1 -24.5 -16.5t-8.5 -50.5h-67q0 66 28 102.5t77 36.5q26 0 44 -11.5t39 -32.5q16 -15 24 -21t19 -6q13 0 22 18t9 50h70q0 -67 -27.5 -103t-75.5 -36q-30 0 -49 11.5z" />
    <glyph glyph-name="hungarumlaut" unicode="&#x2dd;" horiz-adv-x="444" 
d="M99 535h-85l111 162h104zM289 535h-85l111 162h123z" />
    <glyph glyph-name="uni02F5" unicode="&#x2f5;" horiz-adv-x="548" 
d="M285 331h-85l-151 162h124zM496 331h-85l-150 162h124z" />
    <glyph glyph-name="uni02F6" unicode="&#x2f6;" horiz-adv-x="548" 
d="M137 331h-85l111 162h123zM349 331h-85l111 162h124z" />
    <glyph glyph-name="gravecomb" unicode="&#x300;" 
d="M-16 555h-86l-141 142h123z" />
    <glyph glyph-name="acutecomb" unicode="&#x301;" 
d="M-161 555h-85l111 142h125z" />
    <glyph glyph-name="uni0302" unicode="&#x302;" 
d="M-225 542h-89l155 172l155 -172h-89l-66 74z" />
    <glyph glyph-name="tildecomb" unicode="&#x303;" 
d="M-197 569.5q-19 11.5 -39 32.5q-14 14 -22 20t-19 6q-16 1 -24.5 -16.5t-8.5 -50.5h-67q0 66 28 102.5t77 36.5q26 0 44 -11.5t39 -32.5q16 -15 24 -21t19 -6q13 0 22 18t9 50h70q0 -67 -27.5 -103t-75.5 -36q-30 0 -49 11.5z" />
    <glyph glyph-name="uni0304" unicode="&#x304;" 
d="M-63 569h-275v68h275v-68z" />
    <glyph glyph-name="uni0306" unicode="&#x306;" 
d="M-352 697h82q0 -32 20.5 -48.5t53.5 -16.5t53 17t20 48h82q0 -132 -155 -132q-156 0 -156 132z" />
    <glyph glyph-name="uni0307" unicode="&#x307;" 
d="M-46 572h-119v125h119v-125z" />
    <glyph glyph-name="uni0308" unicode="&#x308;" 
d="M-240 572h-119v125h119v-125zM-46 572h-119v125h119v-125z" />
    <glyph glyph-name="hookabovecomb" unicode="&#x309;" 
d="M-184 564q6 1 25.5 4.5t29.5 12.5t10 25q0 23 -22 31.5t-59 8.5h-16v72h16q74 0 118.5 -27.5t44.5 -76.5q0 -36 -20 -55.5t-47 -28t-67 -14.5z" />
    <glyph glyph-name="uni030A" unicode="&#x30a;" 
d="M-230 561.5q-33 33.5 -33 79.5q0 47 33 79.5t80 32.5q46 0 79 -32.5t33 -79.5t-33 -80t-79 -33q-47 0 -80 33.5zM-114.5 605.5q13.5 14.5 13.5 36.5t-13 35.5t-36 13.5t-36.5 -14t-13.5 -35q0 -22 14 -36.5t36 -14.5t35.5 14.5z" />
    <glyph glyph-name="uni030B" unicode="&#x30b;" 
d="M-345 535h-85l111 162h104zM-155 535h-85l111 162h123z" />
    <glyph glyph-name="uni030C" unicode="&#x30c;" 
d="M-4 697l-155 -163l-156 163h91l65 -69l65 69h90z" />
    <glyph glyph-name="uni030F" unicode="&#x30f;" 
d="M-205 535h-85l-149 162h123zM-15 535h-85l-130 162h105z" />
    <glyph glyph-name="uni0312" unicode="&#x312;" 
d="M-104 552h-120l121 155h68z" />
    <glyph glyph-name="uni031B" unicode="&#x31b;" 
d="M-198 570q40 0 57 23t17 71v33h80v-40q0 -73 -38 -118t-116 -45v76z" />
    <glyph glyph-name="dotbelowcomb" unicode="&#x323;" 
d="M-46 -173h-119v110h119v-110z" />
    <glyph glyph-name="uni0326" unicode="&#x326;" 
d="M-133 -226h-68l69 173h121z" />
    <glyph glyph-name="uni0327" unicode="&#x327;" 
d="M-191.5 -250q-22.5 8 -41.5 25l37 56q21 -23 49 -23q21 0 33 10.5t12 31.5q0 35 -42 47q-15 5 -35 6t-41 1l59 96h69l-39 -51q31 -4 56 -19q40 -25 40 -76q0 -49 -31.5 -80.5t-83.5 -31.5q-19 0 -41.5 8z" />
    <glyph glyph-name="uni0328" unicode="&#x328;" 
d="M-203.5 -193.5q-31.5 27.5 -31.5 71.5q0 43 24.5 73.5t57.5 49.5l91 -1q-35 -16 -69 -45.5t-34 -64.5q0 -40 38 -40q30 0 50 28l60 -41q-20 -27 -46 -42.5t-61 -15.5q-48 0 -79.5 27.5z" />
    <glyph glyph-name="uni0335" unicode="&#x335;" 
d="M-65 252h-318v78h318v-78z" />
    <glyph glyph-name="uni0336" unicode="&#x336;" 
d="M-63 246h-655v69h655v-69z" />
    <glyph glyph-name="uni0337" unicode="&#x337;" 
d="M-21 386l-230 -185v120l230 182v-117z" />
    <glyph glyph-name="uni0338" unicode="&#x338;" 
d="M-351 0h-57l352 580h58z" />
    <glyph glyph-name="uni0374" unicode="&#x374;" horiz-adv-x="320" 
d="M136 418h-76l69 279h134z" />
    <glyph glyph-name="uni0375" unicode="&#x375;" horiz-adv-x="320" 
d="M165 0h-134l126 280h77z" />
    <glyph glyph-name="uni037E" unicode="&#x37e;" horiz-adv-x="260" 
d="M225 341h-121v130h121v-130zM113 -149h-78l75 279h129z" />
    <glyph glyph-name="tonos" unicode="&#x384;" horiz-adv-x="232" 
d="M118 555h-85l66 142h109z" />
    <glyph glyph-name="dieresistonos" unicode="&#x385;" horiz-adv-x="445" 
d="M311 792l-73 -209l-58 13l42 215zM125 572h-88v125h88v-125zM406 572h-88v125h88v-125z" />
    <glyph glyph-name="anoteleia" unicode="&#x387;" horiz-adv-x="379" 
d="M312 124h-245v246h245v-246z" />
    <glyph glyph-name="uni0394" unicode="&#x394;" horiz-adv-x="652" 
d="M649 0h-645l277 697h91zM327 520l-150 -409h299z" />
    <glyph glyph-name="uni03A9" unicode="&#x3a9;" horiz-adv-x="772" 
d="M686.5 228.5q-37.5 -69.5 -104.5 -114.5h128v-114h-277v98q80 40 122 108.5t42 158.5q0 107 -56 169.5t-155 62.5t-155 -63.5t-56 -169.5q0 -92 42.5 -161t121.5 -105v-98h-276v114h127q-67 44 -103.5 114t-36.5 156q0 93 43 167.5t120 117.5t173 43t173 -43t121 -118
t44 -167q0 -86 -37.5 -155.5z" />
    <glyph glyph-name="uni03BC" unicode="&#x3bc;" horiz-adv-x="560" 
d="M57 -163v656h116v-284q0 -55 21.5 -86.5t76.5 -31.5q64 0 86.5 51.5t22.5 150.5v200h116v-493h-116v64q-24 -37 -61 -55.5t-83 -18.5q-43 0 -63 28v-181h-116z" />
    <glyph glyph-name="pi" unicode="&#x3c0;" horiz-adv-x="575" 
d="M377 22.5q-33 32.5 -33 96.5v277h-143v-396h-115v396h-63v97h503v-97h-67v-239q0 -32 11 -46t33 -14q17 0 38 12l19 -94q-23 -14 -42.5 -19.5t-43.5 -5.5q-64 0 -97 32.5z" />
    <glyph glyph-name="Wgrave" unicode="&#x1e80;" horiz-adv-x="973" 
d="M685 184l148 513h125l-208 -697h-117l-146 481l-147 -481h-117l-208 697h126l148 -513l138 473h119zM530 759h-86l-141 142h123z" />
    <glyph glyph-name="wgrave" unicode="&#x1e81;" horiz-adv-x="753" 
d="M276 0h-105l-151 493h123l87 -316l96 316h99l96 -314l87 314h124l-152 -493h-104l-100 329zM419 555h-86l-141 142h123z" />
    <glyph glyph-name="Wacute" unicode="&#x1e82;" horiz-adv-x="973" 
d="M685 184l148 513h125l-208 -697h-117l-146 481l-147 -481h-117l-208 697h126l148 -513l138 473h119zM529 759h-85l111 142h125z" />
    <glyph glyph-name="wacute" unicode="&#x1e83;" horiz-adv-x="753" 
d="M276 0h-105l-151 493h123l87 -316l96 316h99l96 -314l87 314h124l-152 -493h-104l-100 329zM418 555h-85l111 142h125z" />
    <glyph glyph-name="Wdieresis" unicode="&#x1e84;" horiz-adv-x="973" 
d="M685 184l148 513h125l-208 -697h-117l-146 481l-147 -481h-117l-208 697h126l148 -513l138 473h119zM449 776h-119v125h119v-125zM643 776h-119v125h119v-125z" />
    <glyph glyph-name="wdieresis" unicode="&#x1e85;" horiz-adv-x="753" 
d="M276 0h-105l-151 493h123l87 -316l96 316h99l96 -314l87 314h124l-152 -493h-104l-100 329zM339 572h-119v125h119v-125zM533 572h-119v125h119v-125z" />
    <glyph glyph-name="uni1E9E" unicode="&#x1e9e;" horiz-adv-x="791" 
d="M666.5 353.5q41.5 -26.5 64 -63.5t22.5 -90q0 -61 -31.5 -109.5t-86.5 -76t-123 -27.5t-124.5 26t-93 73.5t-46.5 110.5l119 30q7 -65 46.5 -99t100.5 -34q52 0 85.5 26.5t33.5 68.5q0 29 -15.5 49.5t-44 36t-81.5 38.5q-73 30 -114.5 58.5t-62.5 68.5t-21 100
q0 29 15 50h-120v-590h-120v697h650v-107h-290q-15 -23 -15 -50q0 -32 14.5 -52.5t43 -37t83.5 -39.5q70 -31 111.5 -57.5z" />
    <glyph glyph-name="uni1EA0" unicode="&#x1ea0;" horiz-adv-x="665" 
d="M655 0h-131l-52 142h-279l-52 -142h-131l277 697h91zM333 520l-100 -270h199zM393 -173h-119v110h119v-110z" />
    <glyph glyph-name="uni1EA1" unicode="&#x1ea1;" horiz-adv-x="544" 
d="M430.5 452q56.5 -51 56.5 -141v-311h-106l-6 51q-51 -61 -143 -61q-86 0 -138 45t-52 118q0 77 58 115q49 34 132 34h140v9q0 43 -27.5 67t-78.5 24q-37 0 -68.5 -14t-63.5 -49l-84 70q43 48 100.5 71t123.5 23q100 0 156.5 -51zM334.5 117.5q37.5 34.5 37.5 86.5v8h-123
q-45 0 -67 -15q-25 -16 -25 -46q0 -31 23 -49.5t62 -18.5q55 0 92.5 34.5zM334 -173h-119v110h119v-110z" />
    <glyph glyph-name="uni1EA2" unicode="&#x1ea2;" horiz-adv-x="665" 
d="M655 0h-131l-52 142h-279l-52 -142h-131l277 697h91zM333 520l-100 -270h199zM299 768q6 1 25.5 4.5t29.5 12.5t10 25q0 23 -22 31.5t-59 8.5h-16v72h16q74 0 118.5 -27.5t44.5 -76.5q0 -36 -20 -55.5t-47 -28t-67 -14.5z" />
    <glyph glyph-name="uni1EA3" unicode="&#x1ea3;" horiz-adv-x="544" 
d="M430.5 452q56.5 -51 56.5 -141v-311h-106l-6 51q-51 -61 -143 -61q-86 0 -138 45t-52 118q0 77 58 115q49 34 132 34h140v9q0 43 -27.5 67t-78.5 24q-37 0 -68.5 -14t-63.5 -49l-84 70q43 48 100.5 71t123.5 23q100 0 156.5 -51zM334.5 117.5q37.5 34.5 37.5 86.5v8h-123
q-45 0 -67 -15q-25 -16 -25 -46q0 -31 23 -49.5t62 -18.5q55 0 92.5 34.5zM240 564q6 1 25.5 4.5t29.5 12.5t10 25q0 23 -22 31.5t-59 8.5h-16v72h16q74 0 118.5 -27.5t44.5 -76.5q0 -36 -20 -55.5t-47 -28t-67 -14.5z" />
    <glyph glyph-name="uni1EA4" unicode="&#x1ea4;" horiz-adv-x="665" 
d="M655 0h-131l-52 142h-279l-52 -142h-131l277 697h91zM333 520l-100 -270h199zM267 746h-89l155 172l155 -172h-89l-66 74zM375 947h-85l111 142h125z" />
    <glyph glyph-name="uni1EA5" unicode="&#x1ea5;" horiz-adv-x="544" 
d="M430.5 452q56.5 -51 56.5 -141v-311h-106l-6 51q-51 -61 -143 -61q-86 0 -138 45t-52 118q0 77 58 115q49 34 132 34h140v9q0 43 -27.5 67t-78.5 24q-37 0 -68.5 -14t-63.5 -49l-84 70q43 48 100.5 71t123.5 23q100 0 156.5 -51zM334.5 117.5q37.5 34.5 37.5 86.5v8h-123
q-45 0 -67 -15q-25 -16 -25 -46q0 -31 23 -49.5t62 -18.5q55 0 92.5 34.5zM208 542h-89l155 172l155 -172h-89l-66 74zM316 743h-85l111 142h125z" />
    <glyph glyph-name="uni1EA6" unicode="&#x1ea6;" horiz-adv-x="665" 
d="M655 0h-131l-52 142h-279l-52 -142h-131l277 697h91zM333 520l-100 -270h199zM267 746h-89l155 172l155 -172h-89l-66 74zM376 947h-86l-141 142h123z" />
    <glyph glyph-name="uni1EA7" unicode="&#x1ea7;" horiz-adv-x="544" 
d="M430.5 452q56.5 -51 56.5 -141v-311h-106l-6 51q-51 -61 -143 -61q-86 0 -138 45t-52 118q0 77 58 115q49 34 132 34h140v9q0 43 -27.5 67t-78.5 24q-37 0 -68.5 -14t-63.5 -49l-84 70q43 48 100.5 71t123.5 23q100 0 156.5 -51zM334.5 117.5q37.5 34.5 37.5 86.5v8h-123
q-45 0 -67 -15q-25 -16 -25 -46q0 -31 23 -49.5t62 -18.5q55 0 92.5 34.5zM208 542h-89l155 172l155 -172h-89l-66 74zM317 743h-86l-141 142h123z" />
    <glyph glyph-name="uni1EA8" unicode="&#x1ea8;" horiz-adv-x="665" 
d="M267 746h-89l148 164l-14 -2l-13 48q6 1 25.5 4.5t29.5 12.5t10 25q0 23 -22 31.5t-59 8.5h-16v72h16q74 0 118.5 -27.5t44.5 -76.5q0 -44 -29.5 -64t-78.5 -30l150 -166h-89l-66 74zM655 0h-131l-52 142h-279l-52 -142h-131l277 697h91zM333 520l-100 -270h199z" />
    <glyph glyph-name="uni1EA9" unicode="&#x1ea9;" horiz-adv-x="544" 
d="M208 542h-89l148 164l-14 -2l-13 48q6 1 25.5 4.5t29.5 12.5t10 25q0 23 -22 31.5t-59 8.5h-16v72h16q74 0 118.5 -27.5t44.5 -76.5q0 -44 -29.5 -64t-78.5 -30l150 -166h-89l-66 74zM430.5 452q56.5 -51 56.5 -141v-311h-106l-6 51q-51 -61 -143 -61q-86 0 -138 45
t-52 118q0 77 58 115q49 34 132 34h140v9q0 43 -27.5 67t-78.5 24q-37 0 -68.5 -14t-63.5 -49l-84 70q43 48 100.5 71t123.5 23q100 0 156.5 -51zM334.5 117.5q37.5 34.5 37.5 86.5v8h-123q-45 0 -67 -15q-25 -16 -25 -46q0 -31 23 -49.5t62 -18.5q55 0 92.5 34.5z" />
    <glyph glyph-name="uni1EAA" unicode="&#x1eaa;" horiz-adv-x="665" 
d="M655 0h-131l-52 142h-279l-52 -142h-131l277 697h91zM333 520l-100 -270h199zM267 746h-89l155 172l155 -172h-89l-66 74zM347 961.5q-19 11.5 -39 32.5q-14 14 -22 20t-19 6q-16 1 -24.5 -16.5t-8.5 -50.5h-67q0 66 28 102.5t77 36.5q26 0 44 -11.5t39 -32.5
q16 -15 24 -21t19 -6q13 0 22 18t9 50h70q0 -67 -27.5 -103t-75.5 -36q-30 0 -49 11.5z" />
    <glyph glyph-name="uni1EAB" unicode="&#x1eab;" horiz-adv-x="544" 
d="M430.5 452q56.5 -51 56.5 -141v-311h-106l-6 51q-51 -61 -143 -61q-86 0 -138 45t-52 118q0 77 58 115q49 34 132 34h140v9q0 43 -27.5 67t-78.5 24q-37 0 -68.5 -14t-63.5 -49l-84 70q43 48 100.5 71t123.5 23q100 0 156.5 -51zM334.5 117.5q37.5 34.5 37.5 86.5v8h-123
q-45 0 -67 -15q-25 -16 -25 -46q0 -31 23 -49.5t62 -18.5q55 0 92.5 34.5zM208 542h-89l155 172l155 -172h-89l-66 74zM288 757.5q-19 11.5 -39 32.5q-14 14 -22 20t-19 6q-16 1 -24.5 -16.5t-8.5 -50.5h-67q0 66 28 102.5t77 36.5q26 0 44 -11.5t39 -32.5q16 -15 24 -21
t19 -6q13 0 22 18t9 50h70q0 -67 -27.5 -103t-75.5 -36q-30 0 -49 11.5z" />
    <glyph glyph-name="uni1EAC" unicode="&#x1eac;" horiz-adv-x="665" 
d="M655 0h-131l-52 142h-279l-52 -142h-131l277 697h91zM333 520l-100 -270h199zM393 -173h-119v110h119v-110zM267 746h-89l155 172l155 -172h-89l-66 74z" />
    <glyph glyph-name="uni1EAD" unicode="&#x1ead;" horiz-adv-x="544" 
d="M430.5 452q56.5 -51 56.5 -141v-311h-106l-6 51q-51 -61 -143 -61q-86 0 -138 45t-52 118q0 77 58 115q49 34 132 34h140v9q0 43 -27.5 67t-78.5 24q-37 0 -68.5 -14t-63.5 -49l-84 70q43 48 100.5 71t123.5 23q100 0 156.5 -51zM334.5 117.5q37.5 34.5 37.5 86.5v8h-123
q-45 0 -67 -15q-25 -16 -25 -46q0 -31 23 -49.5t62 -18.5q55 0 92.5 34.5zM334 -173h-119v110h119v-110zM208 542h-89l155 172l155 -172h-89l-66 74z" />
    <glyph glyph-name="uni1EAE" unicode="&#x1eae;" horiz-adv-x="665" 
d="M655 0h-131l-52 142h-279l-52 -142h-131l277 697h91zM333 520l-100 -270h199zM178 901h82q0 -32 20.5 -48.5t53.5 -16.5t53 17t20 48h82q0 -132 -155 -132q-156 0 -156 132zM375 963h-85l111 142h125z" />
    <glyph glyph-name="uni1EAF" unicode="&#x1eaf;" horiz-adv-x="544" 
d="M430.5 452q56.5 -51 56.5 -141v-311h-106l-6 51q-51 -61 -143 -61q-86 0 -138 45t-52 118q0 77 58 115q49 34 132 34h140v9q0 43 -27.5 67t-78.5 24q-37 0 -68.5 -14t-63.5 -49l-84 70q43 48 100.5 71t123.5 23q100 0 156.5 -51zM334.5 117.5q37.5 34.5 37.5 86.5v8h-123
q-45 0 -67 -15q-25 -16 -25 -46q0 -31 23 -49.5t62 -18.5q55 0 92.5 34.5zM119 697h82q0 -32 20.5 -48.5t53.5 -16.5t53 17t20 48h82q0 -132 -155 -132q-156 0 -156 132zM316 759h-85l111 142h125z" />
    <glyph glyph-name="uni1EB0" unicode="&#x1eb0;" horiz-adv-x="665" 
d="M655 0h-131l-52 142h-279l-52 -142h-131l277 697h91zM333 520l-100 -270h199zM178 901h82q0 -32 20.5 -48.5t53.5 -16.5t53 17t20 48h82q0 -132 -155 -132q-156 0 -156 132zM376 963h-86l-141 142h123z" />
    <glyph glyph-name="uni1EB1" unicode="&#x1eb1;" horiz-adv-x="544" 
d="M430.5 452q56.5 -51 56.5 -141v-311h-106l-6 51q-51 -61 -143 -61q-86 0 -138 45t-52 118q0 77 58 115q49 34 132 34h140v9q0 43 -27.5 67t-78.5 24q-37 0 -68.5 -14t-63.5 -49l-84 70q43 48 100.5 71t123.5 23q100 0 156.5 -51zM334.5 117.5q37.5 34.5 37.5 86.5v8h-123
q-45 0 -67 -15q-25 -16 -25 -46q0 -31 23 -49.5t62 -18.5q55 0 92.5 34.5zM119 697h82q0 -32 20.5 -48.5t53.5 -16.5t53 17t20 48h82q0 -132 -155 -132q-156 0 -156 132zM317 759h-86l-141 142h123z" />
    <glyph glyph-name="uni1EB2" unicode="&#x1eb2;" horiz-adv-x="665" 
d="M655 0h-131l-52 142h-279l-52 -142h-131l277 697h91zM333 520l-100 -270h199zM178 901h82q0 -32 20.5 -48.5t53.5 -16.5t53 17t20 48h82q0 -132 -155 -132q-156 0 -156 132zM299 972q6 1 25.5 4.5t29.5 12.5t10 25q0 23 -22 31.5t-59 8.5h-16v72h16q74 0 118.5 -27.5
t44.5 -76.5q0 -36 -20 -55.5t-47 -28t-67 -14.5z" />
    <glyph glyph-name="uni1EB3" unicode="&#x1eb3;" horiz-adv-x="544" 
d="M430.5 452q56.5 -51 56.5 -141v-311h-106l-6 51q-51 -61 -143 -61q-86 0 -138 45t-52 118q0 77 58 115q49 34 132 34h140v9q0 43 -27.5 67t-78.5 24q-37 0 -68.5 -14t-63.5 -49l-84 70q43 48 100.5 71t123.5 23q100 0 156.5 -51zM334.5 117.5q37.5 34.5 37.5 86.5v8h-123
q-45 0 -67 -15q-25 -16 -25 -46q0 -31 23 -49.5t62 -18.5q55 0 92.5 34.5zM119 697h82q0 -32 20.5 -48.5t53.5 -16.5t53 17t20 48h82q0 -132 -155 -132q-156 0 -156 132zM240 768q6 1 25.5 4.5t29.5 12.5t10 25q0 23 -22 31.5t-59 8.5h-16v72h16q74 0 118.5 -27.5
t44.5 -76.5q0 -36 -20 -55.5t-47 -28t-67 -14.5z" />
    <glyph glyph-name="uni1EB4" unicode="&#x1eb4;" horiz-adv-x="665" 
d="M655 0h-131l-52 142h-279l-52 -142h-131l277 697h91zM333 520l-100 -270h199zM178 901h82q0 -32 20.5 -48.5t53.5 -16.5t53 17t20 48h82q0 -132 -155 -132q-156 0 -156 132zM347 977.5q-19 11.5 -39 32.5q-14 14 -22 20t-19 6q-16 1 -24.5 -16.5t-8.5 -50.5h-67
q0 66 28 102.5t77 36.5q26 0 44 -11.5t39 -32.5q16 -15 24 -21t19 -6q13 0 22 18t9 50h70q0 -67 -27.5 -103t-75.5 -36q-30 0 -49 11.5z" />
    <glyph glyph-name="uni1EB5" unicode="&#x1eb5;" horiz-adv-x="544" 
d="M430.5 452q56.5 -51 56.5 -141v-311h-106l-6 51q-51 -61 -143 -61q-86 0 -138 45t-52 118q0 77 58 115q49 34 132 34h140v9q0 43 -27.5 67t-78.5 24q-37 0 -68.5 -14t-63.5 -49l-84 70q43 48 100.5 71t123.5 23q100 0 156.5 -51zM334.5 117.5q37.5 34.5 37.5 86.5v8h-123
q-45 0 -67 -15q-25 -16 -25 -46q0 -31 23 -49.5t62 -18.5q55 0 92.5 34.5zM119 697h82q0 -32 20.5 -48.5t53.5 -16.5t53 17t20 48h82q0 -132 -155 -132q-156 0 -156 132zM288 773.5q-19 11.5 -39 32.5q-14 14 -22 20t-19 6q-16 1 -24.5 -16.5t-8.5 -50.5h-67q0 66 28 102.5
t77 36.5q26 0 44 -11.5t39 -32.5q16 -15 24 -21t19 -6q13 0 22 18t9 50h70q0 -67 -27.5 -103t-75.5 -36q-30 0 -49 11.5z" />
    <glyph glyph-name="uni1EB6" unicode="&#x1eb6;" horiz-adv-x="665" 
d="M655 0h-131l-52 142h-279l-52 -142h-131l277 697h91zM333 520l-100 -270h199zM393 -173h-119v110h119v-110zM178 901h82q0 -32 20.5 -48.5t53.5 -16.5t53 17t20 48h82q0 -132 -155 -132q-156 0 -156 132z" />
    <glyph glyph-name="uni1EB7" unicode="&#x1eb7;" horiz-adv-x="544" 
d="M430.5 452q56.5 -51 56.5 -141v-311h-106l-6 51q-51 -61 -143 -61q-86 0 -138 45t-52 118q0 77 58 115q49 34 132 34h140v9q0 43 -27.5 67t-78.5 24q-37 0 -68.5 -14t-63.5 -49l-84 70q43 48 100.5 71t123.5 23q100 0 156.5 -51zM334.5 117.5q37.5 34.5 37.5 86.5v8h-123
q-45 0 -67 -15q-25 -16 -25 -46q0 -31 23 -49.5t62 -18.5q55 0 92.5 34.5zM334 -173h-119v110h119v-110zM119 697h82q0 -32 20.5 -48.5t53.5 -16.5t53 17t20 48h82q0 -132 -155 -132q-156 0 -156 132z" />
    <glyph glyph-name="uni1EB8" unicode="&#x1eb8;" horiz-adv-x="578" 
d="M532 0h-463v697h463v-107h-343v-179h318v-108h-318v-195h343v-108zM360 -173h-119v110h119v-110z" />
    <glyph glyph-name="uni1EB9" unicode="&#x1eb9;" horiz-adv-x="542" 
d="M498 208h-340q3 -52 35 -82.5t90 -30.5q36 0 65.5 12.5t55.5 41.5l80 -71q-40 -44 -89.5 -66t-111.5 -22q-81 0 -135 34.5t-80 92t-26 127.5q0 68 25.5 127t78 95.5t129.5 36.5q73 0 124 -33t76.5 -89.5t25.5 -126.5q0 -19 -3 -46zM390 298q1 46 -31 77t-86 31
q-52 0 -81.5 -31.5t-35.5 -76.5h234zM342 -173h-119v110h119v-110z" />
    <glyph glyph-name="uni1EBA" unicode="&#x1eba;" horiz-adv-x="578" 
d="M532 0h-463v697h463v-107h-343v-179h318v-108h-318v-195h343v-108zM266 768q6 1 25.5 4.5t29.5 12.5t10 25q0 23 -22 31.5t-59 8.5h-16v72h16q74 0 118.5 -27.5t44.5 -76.5q0 -36 -20 -55.5t-47 -28t-67 -14.5z" />
    <glyph glyph-name="uni1EBB" unicode="&#x1ebb;" horiz-adv-x="542" 
d="M498 208h-340q3 -52 35 -82.5t90 -30.5q36 0 65.5 12.5t55.5 41.5l80 -71q-40 -44 -89.5 -66t-111.5 -22q-81 0 -135 34.5t-80 92t-26 127.5q0 68 25.5 127t78 95.5t129.5 36.5q73 0 124 -33t76.5 -89.5t25.5 -126.5q0 -19 -3 -46zM390 298q1 46 -31 77t-86 31
q-52 0 -81.5 -31.5t-35.5 -76.5h234zM241 564q6 1 25.5 4.5t29.5 12.5t10 25q0 23 -22 31.5t-59 8.5h-16v72h16q74 0 118.5 -27.5t44.5 -76.5q0 -36 -20 -55.5t-47 -28t-67 -14.5z" />
    <glyph glyph-name="uni1EBC" unicode="&#x1ebc;" horiz-adv-x="578" 
d="M532 0h-463v697h463v-107h-343v-179h318v-108h-318v-195h343v-108zM314 773.5q-19 11.5 -39 32.5q-14 14 -22 20t-19 6q-16 1 -24.5 -16.5t-8.5 -50.5h-67q0 66 28 102.5t77 36.5q26 0 44 -11.5t39 -32.5q16 -15 24 -21t19 -6q13 0 22 18t9 50h70q0 -67 -27.5 -103
t-75.5 -36q-30 0 -49 11.5z" />
    <glyph glyph-name="uni1EBD" unicode="&#x1ebd;" horiz-adv-x="542" 
d="M498 208h-340q3 -52 35 -82.5t90 -30.5q36 0 65.5 12.5t55.5 41.5l80 -71q-40 -44 -89.5 -66t-111.5 -22q-81 0 -135 34.5t-80 92t-26 127.5q0 68 25.5 127t78 95.5t129.5 36.5q73 0 124 -33t76.5 -89.5t25.5 -126.5q0 -19 -3 -46zM390 298q1 46 -31 77t-86 31
q-52 0 -81.5 -31.5t-35.5 -76.5h234zM289 569.5q-19 11.5 -39 32.5q-14 14 -22 20t-19 6q-16 1 -24.5 -16.5t-8.5 -50.5h-67q0 66 28 102.5t77 36.5q26 0 44 -11.5t39 -32.5q16 -15 24 -21t19 -6q13 0 22 18t9 50h70q0 -67 -27.5 -103t-75.5 -36q-30 0 -49 11.5z" />
    <glyph glyph-name="uni1EBE" unicode="&#x1ebe;" horiz-adv-x="578" 
d="M532 0h-463v697h463v-107h-343v-179h318v-108h-318v-195h343v-108zM235 746h-89l155 172l155 -172h-89l-66 74zM343 947h-85l111 142h125z" />
    <glyph glyph-name="uni1EBF" unicode="&#x1ebf;" horiz-adv-x="542" 
d="M498 208h-340q3 -52 35 -82.5t90 -30.5q36 0 65.5 12.5t55.5 41.5l80 -71q-40 -44 -89.5 -66t-111.5 -22q-81 0 -135 34.5t-80 92t-26 127.5q0 68 25.5 127t78 95.5t129.5 36.5q73 0 124 -33t76.5 -89.5t25.5 -126.5q0 -19 -3 -46zM390 298q1 46 -31 77t-86 31
q-52 0 -81.5 -31.5t-35.5 -76.5h234zM209 542h-89l155 172l155 -172h-89l-66 74zM317 743h-85l111 142h125z" />
    <glyph glyph-name="uni1EC0" unicode="&#x1ec0;" horiz-adv-x="578" 
d="M532 0h-463v697h463v-107h-343v-179h318v-108h-318v-195h343v-108zM235 746h-89l155 172l155 -172h-89l-66 74zM344 947h-86l-141 142h123z" />
    <glyph glyph-name="uni1EC1" unicode="&#x1ec1;" horiz-adv-x="542" 
d="M498 208h-340q3 -52 35 -82.5t90 -30.5q36 0 65.5 12.5t55.5 41.5l80 -71q-40 -44 -89.5 -66t-111.5 -22q-81 0 -135 34.5t-80 92t-26 127.5q0 68 25.5 127t78 95.5t129.5 36.5q73 0 124 -33t76.5 -89.5t25.5 -126.5q0 -19 -3 -46zM390 298q1 46 -31 77t-86 31
q-52 0 -81.5 -31.5t-35.5 -76.5h234zM209 542h-89l155 172l155 -172h-89l-66 74zM318 743h-86l-141 142h123z" />
    <glyph glyph-name="uni1EC2" unicode="&#x1ec2;" horiz-adv-x="578" 
d="M235 746h-89l148 164q-5 0 -15 -2l-13 48q6 1 25.5 4.5t29.5 12.5t10 25q0 23 -22 31.5t-59 8.5h-16v72h16q74 0 118.5 -27.5t44.5 -76.5q0 -44 -29.5 -64.5t-77.5 -28.5l150 -167h-89l-66 74zM532 697v-107h-343v-179h318v-108h-318v-195h343v-108h-463v697h463z" />
    <glyph glyph-name="uni1EC3" unicode="&#x1ec3;" horiz-adv-x="542" 
d="M209 542h-89l148 164l-14 -2l-13 48q6 1 25.5 4.5t29.5 12.5t10 25q0 23 -22 31.5t-59 8.5h-16v72h16q74 0 118.5 -27.5t44.5 -76.5q0 -44 -29.5 -64t-78.5 -30l150 -166h-89l-66 74zM498 208h-340q3 -52 35 -82.5t90 -30.5q36 0 65.5 12.5t55.5 41.5l80 -71
q-40 -44 -89.5 -66t-111.5 -22q-81 0 -135 34.5t-80 92t-26 127.5q0 68 25.5 127t78 95.5t129.5 36.5q73 0 124 -33t76.5 -89.5t25.5 -126.5q0 -19 -3 -46zM390 298q1 46 -31 77t-86 31q-52 0 -81.5 -31.5t-35.5 -76.5h234z" />
    <glyph glyph-name="uni1EC4" unicode="&#x1ec4;" horiz-adv-x="578" 
d="M532 0h-463v697h463v-107h-343v-179h318v-108h-318v-195h343v-108zM235 746h-89l155 172l155 -172h-89l-66 74zM314 961.5q-19 11.5 -39 32.5q-14 14 -22 20t-19 6q-16 1 -24.5 -16.5t-8.5 -50.5h-67q0 66 28 102.5t77 36.5q26 0 44 -11.5t39 -32.5q16 -15 24 -21t19 -6
q13 0 22 18t9 50h70q0 -67 -27.5 -103t-75.5 -36q-30 0 -49 11.5z" />
    <glyph glyph-name="uni1EC5" unicode="&#x1ec5;" horiz-adv-x="542" 
d="M498 208h-340q3 -52 35 -82.5t90 -30.5q36 0 65.5 12.5t55.5 41.5l80 -71q-40 -44 -89.5 -66t-111.5 -22q-81 0 -135 34.5t-80 92t-26 127.5q0 68 25.5 127t78 95.5t129.5 36.5q73 0 124 -33t76.5 -89.5t25.5 -126.5q0 -19 -3 -46zM390 298q1 46 -31 77t-86 31
q-52 0 -81.5 -31.5t-35.5 -76.5h234zM209 542h-89l155 172l155 -172h-89l-66 74zM289 757.5q-19 11.5 -39 32.5q-14 14 -22 20t-19 6q-16 1 -24.5 -16.5t-8.5 -50.5h-67q0 66 28 102.5t77 36.5q26 0 44 -11.5t39 -32.5q16 -15 24 -21t19 -6q13 0 22 18t9 50h70
q0 -67 -27.5 -103t-75.5 -36q-30 0 -49 11.5z" />
    <glyph glyph-name="uni1EC6" unicode="&#x1ec6;" horiz-adv-x="578" 
d="M532 0h-463v697h463v-107h-343v-179h318v-108h-318v-195h343v-108zM360 -173h-119v110h119v-110zM235 746h-89l155 172l155 -172h-89l-66 74z" />
    <glyph glyph-name="uni1EC7" unicode="&#x1ec7;" horiz-adv-x="542" 
d="M498 208h-340q3 -52 35 -82.5t90 -30.5q36 0 65.5 12.5t55.5 41.5l80 -71q-40 -44 -89.5 -66t-111.5 -22q-81 0 -135 34.5t-80 92t-26 127.5q0 68 25.5 127t78 95.5t129.5 36.5q73 0 124 -33t76.5 -89.5t25.5 -126.5q0 -19 -3 -46zM390 298q1 46 -31 77t-86 31
q-52 0 -81.5 -31.5t-35.5 -76.5h234zM342 -173h-119v110h119v-110zM209 542h-89l155 172l155 -172h-89l-66 74z" />
    <glyph glyph-name="uni1EC8" unicode="&#x1ec8;" horiz-adv-x="259" 
d="M189 0h-120v697h120v-697zM95 768q6 1 25.5 4.5t29.5 12.5t10 25q0 23 -22 31.5t-59 8.5h-16v72h16q74 0 118.5 -27.5t44.5 -76.5q0 -36 -20 -55.5t-47 -28t-67 -14.5z" />
    <glyph glyph-name="uni1EC9" unicode="&#x1ec9;" horiz-adv-x="245" 
d="M180 0h-115v493h115v-493zM89 564q6 1 25.5 4.5t29.5 12.5t10 25q0 23 -22 31.5t-59 8.5h-16v72h16q74 0 118.5 -27.5t44.5 -76.5q0 -36 -20 -55.5t-47 -28t-67 -14.5z" />
    <glyph glyph-name="uni1ECA" unicode="&#x1eca;" horiz-adv-x="259" 
d="M189 0h-120v697h120v-697zM189 -173h-119v110h119v-110z" />
    <glyph glyph-name="uni1ECB" unicode="&#x1ecb;" horiz-adv-x="245" 
d="M180 0h-115v493h115v-493zM182 572h-119v125h119v-125zM182 -173h-119v110h119v-110z" />
    <glyph glyph-name="uni1ECC" unicode="&#x1ecc;" horiz-adv-x="746" 
d="M199.5 30.5q-75.5 45.5 -117 127.5t-41.5 190t41.5 190.5t117 128t173.5 45.5q99 0 174 -45.5t116.5 -128t41.5 -190.5t-42 -190t-117 -127.5t-173 -45.5t-173.5 45.5zM484.5 130.5q47.5 30.5 73.5 86.5t26 131q0 115 -57 182t-154 67t-154 -66.5t-57 -182.5
q0 -115 57 -181.5t154 -66.5q64 0 111.5 30.5zM433 -173h-119v110h119v-110z" />
    <glyph glyph-name="uni1ECD" unicode="&#x1ecd;" horiz-adv-x="573" 
d="M160 23q-56 33 -88 92t-32 132q0 74 31.5 132t87.5 91t127 33t127 -33t87.5 -91t31.5 -132q0 -73 -32 -131.5t-88 -92t-126 -33.5t-126 33zM382 133.5q35 41.5 35 113.5t-35 113t-96 41t-95.5 -40.5t-34.5 -113.5q0 -72 34.5 -113.5t95.5 -41.5t96 41.5zM346 -173h-119
v110h119v-110z" />
    <glyph glyph-name="uni1ECE" unicode="&#x1ece;" horiz-adv-x="746" 
d="M199.5 30.5q-75.5 45.5 -117 127.5t-41.5 190t41.5 190.5t117 128t173.5 45.5q99 0 174 -45.5t116.5 -128t41.5 -190.5t-42 -190t-117 -127.5t-173 -45.5t-173.5 45.5zM484.5 130.5q47.5 30.5 73.5 86.5t26 131q0 115 -57 182t-154 67t-154 -66.5t-57 -182.5
q0 -115 57 -181.5t154 -66.5q64 0 111.5 30.5zM339 768q6 1 25.5 4.5t29.5 12.5t10 25q0 23 -22 31.5t-59 8.5h-16v72h16q74 0 118.5 -27.5t44.5 -76.5q0 -36 -20 -55.5t-47 -28t-67 -14.5z" />
    <glyph glyph-name="uni1ECF" unicode="&#x1ecf;" horiz-adv-x="573" 
d="M160 23q-56 33 -88 92t-32 132q0 74 31.5 132t87.5 91t127 33t127 -33t87.5 -91t31.5 -132q0 -73 -32 -131.5t-88 -92t-126 -33.5t-126 33zM382 133.5q35 41.5 35 113.5t-35 113t-96 41t-95.5 -40.5t-34.5 -113.5q0 -72 34.5 -113.5t95.5 -41.5t96 41.5zM252 564
q6 1 25.5 4.5t29.5 12.5t10 25q0 23 -22 31.5t-59 8.5h-16v72h16q74 0 118.5 -27.5t44.5 -76.5q0 -36 -20 -55.5t-47 -28t-67 -14.5z" />
    <glyph glyph-name="uni1ED0" unicode="&#x1ed0;" horiz-adv-x="746" 
d="M199.5 30.5q-75.5 45.5 -117 127.5t-41.5 190t41.5 190.5t117 128t173.5 45.5q99 0 174 -45.5t116.5 -128t41.5 -190.5t-42 -190t-117 -127.5t-173 -45.5t-173.5 45.5zM484.5 130.5q47.5 30.5 73.5 86.5t26 131q0 115 -57 182t-154 67t-154 -66.5t-57 -182.5
q0 -115 57 -181.5t154 -66.5q64 0 111.5 30.5zM307 746h-89l155 172l155 -172h-89l-66 74zM415 947h-85l111 142h125z" />
    <glyph glyph-name="uni1ED1" unicode="&#x1ed1;" horiz-adv-x="573" 
d="M160 23q-56 33 -88 92t-32 132q0 74 31.5 132t87.5 91t127 33t127 -33t87.5 -91t31.5 -132q0 -73 -32 -131.5t-88 -92t-126 -33.5t-126 33zM382 133.5q35 41.5 35 113.5t-35 113t-96 41t-95.5 -40.5t-34.5 -113.5q0 -72 34.5 -113.5t95.5 -41.5t96 41.5zM220 542h-89
l155 172l155 -172h-89l-66 74zM328 743h-85l111 142h125z" />
    <glyph glyph-name="uni1ED2" unicode="&#x1ed2;" horiz-adv-x="746" 
d="M199.5 30.5q-75.5 45.5 -117 127.5t-41.5 190t41.5 190.5t117 128t173.5 45.5q99 0 174 -45.5t116.5 -128t41.5 -190.5t-42 -190t-117 -127.5t-173 -45.5t-173.5 45.5zM484.5 130.5q47.5 30.5 73.5 86.5t26 131q0 115 -57 182t-154 67t-154 -66.5t-57 -182.5
q0 -115 57 -181.5t154 -66.5q64 0 111.5 30.5zM307 746h-89l155 172l155 -172h-89l-66 74zM416 947h-86l-141 142h123z" />
    <glyph glyph-name="uni1ED3" unicode="&#x1ed3;" horiz-adv-x="573" 
d="M160 23q-56 33 -88 92t-32 132q0 74 31.5 132t87.5 91t127 33t127 -33t87.5 -91t31.5 -132q0 -73 -32 -131.5t-88 -92t-126 -33.5t-126 33zM382 133.5q35 41.5 35 113.5t-35 113t-96 41t-95.5 -40.5t-34.5 -113.5q0 -72 34.5 -113.5t95.5 -41.5t96 41.5zM220 542h-89
l155 172l155 -172h-89l-66 74zM329 743h-86l-141 142h123z" />
    <glyph glyph-name="uni1ED4" unicode="&#x1ed4;" horiz-adv-x="746" 
d="M307 746h-89l148 164l-14 -2l-13 48q6 1 25.5 4.5t29.5 12.5t10 25q0 23 -22 31.5t-59 8.5h-16v72h16q74 0 118.5 -27.5t44.5 -76.5q0 -44 -29.5 -64t-78.5 -30l150 -166h-89l-66 74zM547 666.5q75 -45.5 116.5 -128t41.5 -190.5t-42 -190t-117 -127.5t-173 -45.5
t-173.5 45.5t-117 127.5t-41.5 190t41.5 190.5t117 128t173.5 45.5q99 0 174 -45.5zM484.5 130.5q47.5 30.5 73.5 86.5t26 131q0 115 -57 182t-154 67t-154 -66.5t-57 -182.5q0 -115 57 -181.5t154 -66.5q64 0 111.5 30.5z" />
    <glyph glyph-name="uni1ED5" unicode="&#x1ed5;" horiz-adv-x="573" 
d="M220 542h-89l148 164l-14 -2l-13 48q6 1 25.5 4.5t29.5 12.5t10 25q0 23 -22 31.5t-59 8.5h-16v72h16q74 0 118.5 -27.5t44.5 -76.5q0 -44 -29.5 -64t-78.5 -30l150 -166h-89l-66 74zM413 470q56 -33 87.5 -91t31.5 -132q0 -73 -32 -131.5t-88 -92t-126 -33.5t-126 33
t-88 92t-32 132q0 74 31.5 132t87.5 91t127 33t127 -33zM382 133.5q35 41.5 35 113.5t-35 113t-96 41t-95.5 -40.5t-34.5 -113.5q0 -72 34.5 -113.5t95.5 -41.5t96 41.5z" />
    <glyph glyph-name="uni1ED6" unicode="&#x1ed6;" horiz-adv-x="746" 
d="M199.5 30.5q-75.5 45.5 -117 127.5t-41.5 190t41.5 190.5t117 128t173.5 45.5q99 0 174 -45.5t116.5 -128t41.5 -190.5t-42 -190t-117 -127.5t-173 -45.5t-173.5 45.5zM484.5 130.5q47.5 30.5 73.5 86.5t26 131q0 115 -57 182t-154 67t-154 -66.5t-57 -182.5
q0 -115 57 -181.5t154 -66.5q64 0 111.5 30.5zM307 746h-89l155 172l155 -172h-89l-66 74zM387 961.5q-19 11.5 -39 32.5q-14 14 -22 20t-19 6q-16 1 -24.5 -16.5t-8.5 -50.5h-67q0 66 28 102.5t77 36.5q26 0 44 -11.5t39 -32.5q16 -15 24 -21t19 -6q13 0 22 18t9 50h70
q0 -67 -27.5 -103t-75.5 -36q-30 0 -49 11.5z" />
    <glyph glyph-name="uni1ED7" unicode="&#x1ed7;" horiz-adv-x="573" 
d="M160 23q-56 33 -88 92t-32 132q0 74 31.5 132t87.5 91t127 33t127 -33t87.5 -91t31.5 -132q0 -73 -32 -131.5t-88 -92t-126 -33.5t-126 33zM382 133.5q35 41.5 35 113.5t-35 113t-96 41t-95.5 -40.5t-34.5 -113.5q0 -72 34.5 -113.5t95.5 -41.5t96 41.5zM220 542h-89
l155 172l155 -172h-89l-66 74zM300 757.5q-19 11.5 -39 32.5q-14 14 -22 20t-19 6q-16 1 -24.5 -16.5t-8.5 -50.5h-67q0 66 28 102.5t77 36.5q26 0 44 -11.5t39 -32.5q16 -15 24 -21t19 -6q13 0 22 18t9 50h70q0 -67 -27.5 -103t-75.5 -36q-30 0 -49 11.5z" />
    <glyph glyph-name="uni1ED8" unicode="&#x1ed8;" horiz-adv-x="746" 
d="M199.5 30.5q-75.5 45.5 -117 127.5t-41.5 190t41.5 190.5t117 128t173.5 45.5q99 0 174 -45.5t116.5 -128t41.5 -190.5t-42 -190t-117 -127.5t-173 -45.5t-173.5 45.5zM484.5 130.5q47.5 30.5 73.5 86.5t26 131q0 115 -57 182t-154 67t-154 -66.5t-57 -182.5
q0 -115 57 -181.5t154 -66.5q64 0 111.5 30.5zM433 -173h-119v110h119v-110zM307 746h-89l155 172l155 -172h-89l-66 74z" />
    <glyph glyph-name="uni1ED9" unicode="&#x1ed9;" horiz-adv-x="573" 
d="M160 23q-56 33 -88 92t-32 132q0 74 31.5 132t87.5 91t127 33t127 -33t87.5 -91t31.5 -132q0 -73 -32 -131.5t-88 -92t-126 -33.5t-126 33zM382 133.5q35 41.5 35 113.5t-35 113t-96 41t-95.5 -40.5t-34.5 -113.5q0 -72 34.5 -113.5t95.5 -41.5t96 41.5zM346 -173h-119
v110h119v-110zM220 542h-89l155 172l155 -172h-89l-66 74z" />
    <glyph glyph-name="uni1EDA" unicode="&#x1eda;" horiz-adv-x="746" 
d="M686 697h80v-40q0 -54 -21.5 -94.5t-66.5 -57.5q27 -69 27 -157q0 -108 -42 -190t-117 -127.5t-173 -45.5t-173.5 45.5t-117 127.5t-41.5 190t41.5 190.5t117 128t173.5 45.5q87 0 156.5 -36t113.5 -101q23 8 33 30t10 59v33zM484.5 130.5q47.5 30.5 73.5 86.5t26 131
q0 115 -57 182t-154 67t-154 -66.5t-57 -182.5q0 -115 57 -181.5t154 -66.5q64 0 111.5 30.5zM415 759h-85l111 142h125z" />
    <glyph glyph-name="uni1EDB" unicode="&#x1edb;" horiz-adv-x="573" 
d="M540 546h80v-40q0 -60 -26 -102t-80 -56q18 -45 18 -101q0 -73 -32 -131.5t-88 -92t-126 -33.5t-126 33t-88 92t-32 132q0 74 31.5 132t87.5 91t127 33q57 0 105.5 -22t81.5 -62q36 2 51.5 25.5t15.5 68.5v33zM382 133.5q35 41.5 35 113.5t-35 113t-96 41t-95.5 -40.5
t-34.5 -113.5q0 -72 34.5 -113.5t95.5 -41.5t96 41.5zM328 555h-85l111 142h125z" />
    <glyph glyph-name="uni1EDC" unicode="&#x1edc;" horiz-adv-x="746" 
d="M686 697h80v-40q0 -54 -21.5 -94.5t-66.5 -57.5q27 -69 27 -157q0 -108 -42 -190t-117 -127.5t-173 -45.5t-173.5 45.5t-117 127.5t-41.5 190t41.5 190.5t117 128t173.5 45.5q87 0 156.5 -36t113.5 -101q23 8 33 30t10 59v33zM484.5 130.5q47.5 30.5 73.5 86.5t26 131
q0 115 -57 182t-154 67t-154 -66.5t-57 -182.5q0 -115 57 -181.5t154 -66.5q64 0 111.5 30.5zM416 759h-86l-141 142h123z" />
    <glyph glyph-name="uni1EDD" unicode="&#x1edd;" horiz-adv-x="573" 
d="M540 546h80v-40q0 -60 -26 -102t-80 -56q18 -45 18 -101q0 -73 -32 -131.5t-88 -92t-126 -33.5t-126 33t-88 92t-32 132q0 74 31.5 132t87.5 91t127 33q57 0 105.5 -22t81.5 -62q36 2 51.5 25.5t15.5 68.5v33zM382 133.5q35 41.5 35 113.5t-35 113t-96 41t-95.5 -40.5
t-34.5 -113.5q0 -72 34.5 -113.5t95.5 -41.5t96 41.5zM329 555h-86l-141 142h123z" />
    <glyph glyph-name="uni1EDE" unicode="&#x1ede;" horiz-adv-x="746" 
d="M686 697h80v-40q0 -54 -21.5 -94.5t-66.5 -57.5q27 -69 27 -157q0 -108 -42 -190t-117 -127.5t-173 -45.5t-173.5 45.5t-117 127.5t-41.5 190t41.5 190.5t117 128t173.5 45.5q87 0 156.5 -36t113.5 -101q23 8 33 30t10 59v33zM484.5 130.5q47.5 30.5 73.5 86.5t26 131
q0 115 -57 182t-154 67t-154 -66.5t-57 -182.5q0 -115 57 -181.5t154 -66.5q64 0 111.5 30.5zM339 768q6 1 25.5 4.5t29.5 12.5t10 25q0 23 -22 31.5t-59 8.5h-16v72h16q74 0 118.5 -27.5t44.5 -76.5q0 -36 -20 -55.5t-47 -28t-67 -14.5z" />
    <glyph glyph-name="uni1EDF" unicode="&#x1edf;" horiz-adv-x="573" 
d="M540 546h80v-40q0 -60 -26 -102t-80 -56q18 -45 18 -101q0 -73 -32 -131.5t-88 -92t-126 -33.5t-126 33t-88 92t-32 132q0 74 31.5 132t87.5 91t127 33q57 0 105.5 -22t81.5 -62q36 2 51.5 25.5t15.5 68.5v33zM382 133.5q35 41.5 35 113.5t-35 113t-96 41t-95.5 -40.5
t-34.5 -113.5q0 -72 34.5 -113.5t95.5 -41.5t96 41.5zM252 564q6 1 25.5 4.5t29.5 12.5t10 25q0 23 -22 31.5t-59 8.5h-16v72h16q74 0 118.5 -27.5t44.5 -76.5q0 -36 -20 -55.5t-47 -28t-67 -14.5z" />
    <glyph glyph-name="uni1EE0" unicode="&#x1ee0;" horiz-adv-x="746" 
d="M686 697h80v-40q0 -54 -21.5 -94.5t-66.5 -57.5q27 -69 27 -157q0 -108 -42 -190t-117 -127.5t-173 -45.5t-173.5 45.5t-117 127.5t-41.5 190t41.5 190.5t117 128t173.5 45.5q87 0 156.5 -36t113.5 -101q23 8 33 30t10 59v33zM484.5 130.5q47.5 30.5 73.5 86.5t26 131
q0 115 -57 182t-154 67t-154 -66.5t-57 -182.5q0 -115 57 -181.5t154 -66.5q64 0 111.5 30.5zM387 773.5q-19 11.5 -39 32.5q-14 14 -22 20t-19 6q-16 1 -24.5 -16.5t-8.5 -50.5h-67q0 66 28 102.5t77 36.5q26 0 44 -11.5t39 -32.5q16 -15 24 -21t19 -6q13 0 22 18t9 50h70
q0 -67 -27.5 -103t-75.5 -36q-30 0 -49 11.5z" />
    <glyph glyph-name="uni1EE1" unicode="&#x1ee1;" horiz-adv-x="573" 
d="M540 546h80v-40q0 -60 -26 -102t-80 -56q18 -45 18 -101q0 -73 -32 -131.5t-88 -92t-126 -33.5t-126 33t-88 92t-32 132q0 74 31.5 132t87.5 91t127 33q57 0 105.5 -22t81.5 -62q36 2 51.5 25.5t15.5 68.5v33zM382 133.5q35 41.5 35 113.5t-35 113t-96 41t-95.5 -40.5
t-34.5 -113.5q0 -72 34.5 -113.5t95.5 -41.5t96 41.5zM300 569.5q-19 11.5 -39 32.5q-14 14 -22 20t-19 6q-16 1 -24.5 -16.5t-8.5 -50.5h-67q0 66 28 102.5t77 36.5q26 0 44 -11.5t39 -32.5q16 -15 24 -21t19 -6q13 0 22 18t9 50h70q0 -67 -27.5 -103t-75.5 -36
q-30 0 -49 11.5z" />
    <glyph glyph-name="uni1EE2" unicode="&#x1ee2;" horiz-adv-x="746" 
d="M686 697h80v-40q0 -54 -21.5 -94.5t-66.5 -57.5q27 -69 27 -157q0 -108 -42 -190t-117 -127.5t-173 -45.5t-173.5 45.5t-117 127.5t-41.5 190t41.5 190.5t117 128t173.5 45.5q87 0 156.5 -36t113.5 -101q23 8 33 30t10 59v33zM484.5 130.5q47.5 30.5 73.5 86.5t26 131
q0 115 -57 182t-154 67t-154 -66.5t-57 -182.5q0 -115 57 -181.5t154 -66.5q64 0 111.5 30.5zM433 -173h-119v110h119v-110z" />
    <glyph glyph-name="uni1EE3" unicode="&#x1ee3;" horiz-adv-x="573" 
d="M540 546h80v-40q0 -60 -26 -102t-80 -56q18 -45 18 -101q0 -73 -32 -131.5t-88 -92t-126 -33.5t-126 33t-88 92t-32 132q0 74 31.5 132t87.5 91t127 33q57 0 105.5 -22t81.5 -62q36 2 51.5 25.5t15.5 68.5v33zM382 133.5q35 41.5 35 113.5t-35 113t-96 41t-95.5 -40.5
t-34.5 -113.5q0 -72 34.5 -113.5t95.5 -41.5t96 41.5zM346 -173h-119v110h119v-110z" />
    <glyph glyph-name="uni1EE4" unicode="&#x1ee4;" horiz-adv-x="655" 
d="M129.5 52q-66.5 67 -66.5 200v445h120v-431q0 -88 32 -129t112 -41t113 41t33 128v432h120v-440q0 -135 -67.5 -203.5t-198.5 -68.5t-197.5 67zM388 -173h-119v110h119v-110z" />
    <glyph glyph-name="uni1EE5" unicode="&#x1ee5;" horiz-adv-x="560" 
d="M380 493h116v-493h-116v54q-48 -64 -143 -64q-86 0 -133 48t-47 135v320h116v-277q0 -64 23.5 -94.5t71.5 -30.5q56 0 84 40t28 124v238zM341 -173h-119v110h119v-110z" />
    <glyph glyph-name="uni1EE6" unicode="&#x1ee6;" horiz-adv-x="655" 
d="M129.5 52q-66.5 67 -66.5 200v445h120v-431q0 -88 32 -129t112 -41t113 41t33 128v432h120v-440q0 -135 -67.5 -203.5t-198.5 -68.5t-197.5 67zM294 768q6 1 25.5 4.5t29.5 12.5t10 25q0 23 -22 31.5t-59 8.5h-16v72h16q74 0 118.5 -27.5t44.5 -76.5q0 -36 -20 -55.5
t-47 -28t-67 -14.5z" />
    <glyph glyph-name="uni1EE7" unicode="&#x1ee7;" horiz-adv-x="560" 
d="M380 493h116v-493h-116v54q-48 -64 -143 -64q-86 0 -133 48t-47 135v320h116v-277q0 -64 23.5 -94.5t71.5 -30.5q56 0 84 40t28 124v238zM242 564q6 1 25.5 4.5t29.5 12.5t10 25q0 23 -22 31.5t-59 8.5h-16v72h16q74 0 118.5 -27.5t44.5 -76.5q0 -36 -20 -55.5t-47 -28
t-67 -14.5z" />
    <glyph glyph-name="uni1EE8" unicode="&#x1ee8;" horiz-adv-x="655" 
d="M659 697h80v-40q0 -71 -36 -115.5t-110 -47.5v-237q0 -135 -67.5 -203.5t-198.5 -68.5t-197.5 67t-66.5 200v445h120v-431q0 -88 32 -129t112 -41t113 41t33 128v432h120v-127q36 2 51 25.5t15 68.5v33zM370 759h-85l111 142h125z" />
    <glyph glyph-name="uni1EE9" unicode="&#x1ee9;" horiz-adv-x="560" 
d="M494 620h80v-40q0 -51 -19 -90t-59 -58v-432h-116v54q-48 -64 -143 -64q-86 0 -133 48t-47 135v320h116v-277q0 -64 23.5 -94.5t71.5 -30.5q56 0 84 40t28 124v238h40q40 0 57 23t17 71v33zM318 555h-85l111 142h125z" />
    <glyph glyph-name="uni1EEA" unicode="&#x1eea;" horiz-adv-x="655" 
d="M659 697h80v-40q0 -71 -36 -115.5t-110 -47.5v-237q0 -135 -67.5 -203.5t-198.5 -68.5t-197.5 67t-66.5 200v445h120v-431q0 -88 32 -129t112 -41t113 41t33 128v432h120v-127q36 2 51 25.5t15 68.5v33zM371 759h-86l-141 142h123z" />
    <glyph glyph-name="uni1EEB" unicode="&#x1eeb;" horiz-adv-x="560" 
d="M494 620h80v-40q0 -51 -19 -90t-59 -58v-432h-116v54q-48 -64 -143 -64q-86 0 -133 48t-47 135v320h116v-277q0 -64 23.5 -94.5t71.5 -30.5q56 0 84 40t28 124v238h40q40 0 57 23t17 71v33zM319 555h-86l-141 142h123z" />
    <glyph glyph-name="uni1EEC" unicode="&#x1eec;" horiz-adv-x="655" 
d="M659 697h80v-40q0 -71 -36 -115.5t-110 -47.5v-237q0 -135 -67.5 -203.5t-198.5 -68.5t-197.5 67t-66.5 200v445h120v-431q0 -88 32 -129t112 -41t113 41t33 128v432h120v-127q36 2 51 25.5t15 68.5v33zM294 768q6 1 25.5 4.5t29.5 12.5t10 25q0 23 -22 31.5t-59 8.5h-16
v72h16q74 0 118.5 -27.5t44.5 -76.5q0 -36 -20 -55.5t-47 -28t-67 -14.5z" />
    <glyph glyph-name="uni1EED" unicode="&#x1eed;" horiz-adv-x="560" 
d="M494 620h80v-40q0 -51 -19 -90t-59 -58v-432h-116v54q-48 -64 -143 -64q-86 0 -133 48t-47 135v320h116v-277q0 -64 23.5 -94.5t71.5 -30.5q56 0 84 40t28 124v238h40q40 0 57 23t17 71v33zM242 564q6 1 25.5 4.5t29.5 12.5t10 25q0 23 -22 31.5t-59 8.5h-16v72h16
q74 0 118.5 -27.5t44.5 -76.5q0 -36 -20 -55.5t-47 -28t-67 -14.5z" />
    <glyph glyph-name="uni1EEE" unicode="&#x1eee;" horiz-adv-x="655" 
d="M659 697h80v-40q0 -71 -36 -115.5t-110 -47.5v-237q0 -135 -67.5 -203.5t-198.5 -68.5t-197.5 67t-66.5 200v445h120v-431q0 -88 32 -129t112 -41t113 41t33 128v432h120v-127q36 2 51 25.5t15 68.5v33zM342 773.5q-19 11.5 -39 32.5q-14 14 -22 20t-19 6
q-16 1 -24.5 -16.5t-8.5 -50.5h-67q0 66 28 102.5t77 36.5q26 0 44 -11.5t39 -32.5q16 -15 24 -21t19 -6q13 0 22 18t9 50h70q0 -67 -27.5 -103t-75.5 -36q-30 0 -49 11.5z" />
    <glyph glyph-name="uni1EEF" unicode="&#x1eef;" horiz-adv-x="560" 
d="M494 620h80v-40q0 -51 -19 -90t-59 -58v-432h-116v54q-48 -64 -143 -64q-86 0 -133 48t-47 135v320h116v-277q0 -64 23.5 -94.5t71.5 -30.5q56 0 84 40t28 124v238h40q40 0 57 23t17 71v33zM290 569.5q-19 11.5 -39 32.5q-14 14 -22 20t-19 6q-16 1 -24.5 -16.5
t-8.5 -50.5h-67q0 66 28 102.5t77 36.5q26 0 44 -11.5t39 -32.5q16 -15 24 -21t19 -6q13 0 22 18t9 50h70q0 -67 -27.5 -103t-75.5 -36q-30 0 -49 11.5z" />
    <glyph glyph-name="uni1EF0" unicode="&#x1ef0;" horiz-adv-x="655" 
d="M659 697h80v-40q0 -71 -36 -115.5t-110 -47.5v-237q0 -135 -67.5 -203.5t-198.5 -68.5t-197.5 67t-66.5 200v445h120v-431q0 -88 32 -129t112 -41t113 41t33 128v432h120v-127q36 2 51 25.5t15 68.5v33zM388 -173h-119v110h119v-110z" />
    <glyph glyph-name="uni1EF1" unicode="&#x1ef1;" horiz-adv-x="560" 
d="M494 620h80v-40q0 -51 -19 -90t-59 -58v-432h-116v54q-48 -64 -143 -64q-86 0 -133 48t-47 135v320h116v-277q0 -64 23.5 -94.5t71.5 -30.5q56 0 84 40t28 124v238h40q40 0 57 23t17 71v33zM341 -173h-119v110h119v-110z" />
    <glyph glyph-name="Ygrave" unicode="&#x1ef2;" horiz-adv-x="616" 
d="M369 0h-120v272l-245 425h137l165 -305l169 305h137l-243 -425v-272zM352 759h-86l-141 142h123z" />
    <glyph glyph-name="ygrave" unicode="&#x1ef3;" horiz-adv-x="545" 
d="M249 -204h-125l87 217l-194 480h127l129 -348l128 348h126zM316 555h-86l-141 142h123z" />
    <glyph glyph-name="uni1EF4" unicode="&#x1ef4;" horiz-adv-x="616" 
d="M369 0h-120v272l-245 425h137l165 -305l169 305h137l-243 -425v-272zM368 -173h-119v110h119v-110z" />
    <glyph glyph-name="uni1EF5" unicode="&#x1ef5;" horiz-adv-x="545" 
d="M249 -204h-125l87 217l-194 480h127l129 -348l128 348h126zM489 -204h-119v110h119v-110z" />
    <glyph glyph-name="uni1EF6" unicode="&#x1ef6;" horiz-adv-x="616" 
d="M369 0h-120v272l-245 425h137l165 -305l169 305h137l-243 -425v-272zM274 768q6 1 25.5 4.5t29.5 12.5t10 25q0 23 -22 31.5t-59 8.5h-16v72h16q74 0 118.5 -27.5t44.5 -76.5q0 -36 -20 -55.5t-47 -28t-67 -14.5z" />
    <glyph glyph-name="uni1EF7" unicode="&#x1ef7;" horiz-adv-x="545" 
d="M249 -204h-125l87 217l-194 480h127l129 -348l128 348h126zM239 564q6 1 25.5 4.5t29.5 12.5t10 25q0 23 -22 31.5t-59 8.5h-16v72h16q74 0 118.5 -27.5t44.5 -76.5q0 -36 -20 -55.5t-47 -28t-67 -14.5z" />
    <glyph glyph-name="uni1EF8" unicode="&#x1ef8;" horiz-adv-x="616" 
d="M369 0h-120v272l-245 425h137l165 -305l169 305h137l-243 -425v-272zM322 773.5q-19 11.5 -39 32.5q-14 14 -22 20t-19 6q-16 1 -24.5 -16.5t-8.5 -50.5h-67q0 66 28 102.5t77 36.5q26 0 44 -11.5t39 -32.5q16 -15 24 -21t19 -6q13 0 22 18t9 50h70q0 -67 -27.5 -103
t-75.5 -36q-30 0 -49 11.5z" />
    <glyph glyph-name="uni1EF9" unicode="&#x1ef9;" horiz-adv-x="545" 
d="M249 -204h-125l87 217l-194 480h127l129 -348l128 348h126zM287 569.5q-19 11.5 -39 32.5q-14 14 -22 20t-19 6q-16 1 -24.5 -16.5t-8.5 -50.5h-67q0 66 28 102.5t77 36.5q26 0 44 -11.5t39 -32.5q16 -15 24 -21t19 -6q13 0 22 18t9 50h70q0 -67 -27.5 -103t-75.5 -36
q-30 0 -49 11.5z" />
    <glyph glyph-name="endash" unicode="&#x2013;" horiz-adv-x="372" 
d="M374 254h-376v86h376v-86z" />
    <glyph glyph-name="emdash" unicode="&#x2014;" horiz-adv-x="1006" 
d="M1008 254h-1010v86h1010v-86z" />
    <glyph glyph-name="uni2015" unicode="&#x2015;" horiz-adv-x="709" 
d="M664 254h-619v86h619v-86z" />
    <glyph glyph-name="quoteleft" unicode="&#x2018;" horiz-adv-x="242" 
d="M145 417h-134l126 280h77z" />
    <glyph glyph-name="quoteright" unicode="&#x2019;" horiz-adv-x="242" 
d="M104 418h-76l69 279h134z" />
    <glyph glyph-name="quotesinglbase" unicode="&#x201a;" horiz-adv-x="242" 
d="M104 -149h-76l69 279h134z" />
    <glyph glyph-name="quotedblleft" unicode="&#x201c;" horiz-adv-x="432" 
d="M145 417h-134l126 280h77zM334 417h-134l126 280h77z" />
    <glyph glyph-name="quotedblright" unicode="&#x201d;" horiz-adv-x="431" 
d="M104 418h-76l69 279h134zM295 418h-77l69 279h133z" />
    <glyph glyph-name="quotedblbase" unicode="&#x201e;" horiz-adv-x="440" 
d="M104 -149h-76l69 279h134zM304 -149h-77l69 279h134z" />
    <glyph glyph-name="dagger" unicode="&#x2020;" horiz-adv-x="373" 
d="M229 -101h-86v513h-120v86h120v199h86v-199h121v-86h-121v-513z" />
    <glyph glyph-name="daggerdbl" unicode="&#x2021;" horiz-adv-x="396" 
d="M242 -101h-87v200h-120v86h120v227h-120v86h120v199h87v-199h119v-86h-119v-227h119v-86h-119v-200z" />
    <glyph glyph-name="bullet" unicode="&#x2022;" horiz-adv-x="379" 
d="M312 124h-245v246h245v-246z" />
    <glyph glyph-name="uni2023" unicode="&#x2023;" horiz-adv-x="402" 
d="M390 262l-323 -189v377z" />
    <glyph glyph-name="twodotenleader" unicode="&#x2025;" horiz-adv-x="453" 
d="M184 0h-118v128h118v-128zM388 0h-118v128h118v-128z" />
    <glyph glyph-name="ellipsis" unicode="&#x2026;" horiz-adv-x="704" 
d="M185 0h-119v128h119v-128zM412 0h-120v128h120v-128zM638 0h-119v128h119v-128z" />
    <glyph glyph-name="perthousand" unicode="&#x2030;" horiz-adv-x="1038" 
d="M88 431.5q-40 45.5 -40 114.5q0 70 39.5 115.5t101.5 45.5q40 0 72.5 -21t51 -58.5t18.5 -82.5q0 -44 -18 -80.5t-49.5 -57.5t-71.5 -21q-64 0 -104 45.5zM192 0h-82l418 697h82zM235.5 487q17.5 23 17.5 58q0 38 -17.5 60.5t-46.5 22.5q-30 0 -46.5 -22t-16.5 -60
q0 -37 17.5 -59.5t48.5 -22.5q26 0 43.5 23zM428 36q-40 46 -40 116q0 69 39 114.5t101 45.5q41 0 73.5 -21t51 -58t18.5 -82t-18 -81.5t-50 -58t-72 -21.5q-63 0 -103 46zM748.5 36q-39.5 46 -39.5 116q0 69 38.5 114.5t100.5 45.5q40 0 73 -21t51.5 -58t18.5 -82
t-18.5 -82t-50.5 -58t-71 -21q-63 0 -102.5 46zM575.5 91.5q17.5 22.5 17.5 59.5t-17.5 59.5t-47.5 22.5q-28 0 -44.5 -22.5t-16.5 -58.5q0 -38 17 -60.5t47 -22.5q27 0 44.5 22.5zM896.5 91.5q17.5 22.5 17.5 59.5t-18 59.5t-48 22.5q-28 0 -45 -22t-17 -59
q0 -38 17.5 -60.5t47.5 -22.5q28 0 45.5 22.5z" />
    <glyph glyph-name="uni2031" unicode="&#x2031;" horiz-adv-x="1359" 
d="M88 431.5q-40 45.5 -40 114.5q0 70 39.5 115.5t101.5 45.5q40 0 72.5 -21t51 -58.5t18.5 -82.5q0 -44 -18 -80.5t-49.5 -57.5t-71.5 -21q-64 0 -104 45.5zM192 0h-82l418 697h82zM235.5 487q17.5 23 17.5 58q0 38 -17.5 60.5t-46.5 22.5q-30 0 -46.5 -22t-16.5 -60
q0 -37 17.5 -59.5t48.5 -22.5q26 0 43.5 23zM428 36q-40 46 -40 116q0 69 39 114.5t101 45.5q41 0 73.5 -21t51 -58t18.5 -82t-18 -81.5t-50 -58t-72 -21.5q-63 0 -103 46zM748.5 36q-39.5 46 -39.5 116q0 69 38.5 114.5t100.5 45.5q40 0 73 -21t51.5 -58t18.5 -82
t-18.5 -82t-50.5 -58t-71 -21q-63 0 -102.5 46zM1068.5 36q-39.5 46 -39.5 116q0 69 39 114.5t101 45.5q40 0 73 -21t51.5 -58t18.5 -82q0 -44 -18.5 -81t-50.5 -58.5t-71 -21.5q-64 0 -103.5 46zM575.5 91.5q17.5 22.5 17.5 59.5t-17.5 59.5t-47.5 22.5q-28 0 -44.5 -22.5
t-16.5 -58.5q0 -38 17 -60.5t47 -22.5q27 0 44.5 22.5zM896.5 91.5q17.5 22.5 17.5 59.5t-18 59.5t-48 22.5q-28 0 -45 -22t-17 -59q0 -38 17.5 -60.5t47.5 -22.5q28 0 45.5 22.5zM1216 92q17 23 17 59q0 37 -17.5 59.5t-46.5 22.5t-45.5 -22t-16.5 -59q0 -38 17.5 -60.5
t47.5 -22.5q27 0 44 23z" />
    <glyph glyph-name="guilsinglleft" unicode="&#x2039;" horiz-adv-x="290" 
d="M248 170v-123l-248 205l248 205v-123l-111 -82z" />
    <glyph glyph-name="guilsinglright" unicode="&#x203a;" horiz-adv-x="291" 
d="M290 252l-248 -205v123l111 82l-111 82v123z" />
    <glyph glyph-name="fraction" unicode="&#x2044;" horiz-adv-x="160" 
d="M-88 0h-82l418 697h82z" />
    <glyph glyph-name="Euro" unicode="&#x20ac;" horiz-adv-x="704" 
d="M589 155l62 -100q-79 -65 -208 -65q-126 0 -210 67.5t-112 181.5h-62l1 78h49q-1 11 -1 32q0 15 2 41h-49v77h62q30 111 113.5 175.5t207.5 64.5q127 0 207 -63l-63 -100q-57 49 -144 49q-71 0 -121 -33.5t-75 -92.5h275l-1 -77h-294q-2 -26 -2 -40q0 -22 1 -33h295
l-2 -78h-275q23 -63 74 -98.5t124 -35.5q88 0 146 50z" />
    <glyph glyph-name="uni20B1" unicode="&#x20b1;" horiz-adv-x="664" 
d="M618 515v-40h-45q-6 -84 -68 -134.5t-168 -50.5h-105v-290h-120v475h-59v40h59v182h225q116 0 173 -48t63 -134h45zM232 584v-69h219q-5 35 -32.5 52t-81.5 17h-105zM337 403q55 0 82.5 17t32.5 55h-220v-72h105z" />
    <glyph glyph-name="uni20B3" unicode="&#x20b3;" horiz-adv-x="806" 
d="M641 212h99v-77h-68l53 -135h-131l-49 135h-283l-50 -135h-132l54 135h-69l2 77h98l29 73h-128v78h159l133 334h91l132 -334h158v-78h-127zM461 363l-57 157l-58 -157h115zM317 285l-27 -73h227l-27 73h-173z" />
    <glyph glyph-name="uni20B4" unicode="&#x20b4;" horiz-adv-x="714" 
d="M651 475v-77h-588v77h367q19 21 19 47q0 34 -26.5 56t-65.5 22q-33 0 -61 -16.5t-47 -47.5l-99 61q34 55 91.5 82.5t121.5 27.5q56 0 101.5 -22t71 -59.5t25.5 -82.5q0 -31 -16 -68h106zM63 259v75h588v-75h-379q-39 -36 -39 -76q0 -36 30.5 -59.5t84.5 -23.5t92 25
t51 76l117 -36q-25 -82 -96.5 -127.5t-160.5 -45.5q-69 0 -122.5 24t-83 65.5t-29.5 91.5q0 43 24 86h-77z" />
    <glyph glyph-name="uni20B8" unicode="&#x20b8;" horiz-adv-x="691" 
d="M626 599h-561v98h561v-98zM406 0h-120v427h-221v98h561v-98h-220v-427z" />
    <glyph glyph-name="uni20BD" unicode="&#x20bd;" horiz-adv-x="669" 
d="M152 0v129h-88v97h88v74h-88v103h88v294h220q114 0 177.5 -54.5t63.5 -150.5q0 -95 -63.5 -143.5t-177.5 -48.5h-100v-74h164v-97h-164v-129h-120zM372 403q52 0 87 20t35 71q0 50 -35 70t-87 20h-100v-181h100z" />
    <glyph glyph-name="uni2116" unicode="&#x2116;" horiz-adv-x="1147" 
d="M194 697l302 -491v491h120v-697h-126l-301 493v-493h-120v697h125zM794 192.5q-47 28.5 -72.5 77t-25.5 106.5q0 57 25.5 105t72.5 76.5t108 28.5t108 -28.5t73 -76.5t26 -105q0 -58 -26 -106.5t-73.5 -77t-107.5 -28.5q-61 0 -108 28.5zM821.5 467q-26.5 -36 -26.5 -91
q0 -56 26.5 -93t80.5 -37t81 37t27 93q0 55 -27 91t-81 36t-80.5 -36zM1101 0h-405v88h405v-88z" />
    <glyph glyph-name="trademark" unicode="&#x2122;" horiz-adv-x="738" 
d="M176 379h-59v264h-92v54h241v-54h-90v-264zM394 379h-59v318h96l71 -215l70 215h94v-318h-59v256l-87 -238h-37l-89 240v-258z" />
    <glyph glyph-name="uni2126" unicode="&#x2126;" horiz-adv-x="805" 
d="M702.5 228.5q-37.5 -69.5 -104.5 -114.5h128v-114h-277v98q80 40 122 108.5t42 158.5q0 107 -56 169.5t-155 62.5t-155 -63.5t-56 -169.5q0 -92 42.5 -161t121.5 -105v-98h-276v114h127q-67 44 -103.5 114t-36.5 156q0 93 43 167.5t120 117.5t173 43t173 -43t121 -118
t44 -167q0 -86 -37.5 -155.5z" />
    <glyph glyph-name="arrowleft" unicode="&#x2190;" horiz-adv-x="1114" 
d="M293 340h823v-86h-823l316 -177l-39 -77l-534 297l534 297l39 -77z" />
    <glyph glyph-name="arrowright" unicode="&#x2192;" horiz-adv-x="1114" 
d="M505 517l40 77l533 -297l-533 -297l-40 77l316 177h-823v86h823z" />
    <glyph glyph-name="partialdiff" unicode="&#x2202;" horiz-adv-x="635" 
d="M158 23q-51 29 -78.5 80.5t-27.5 117.5q0 80 37 143t98.5 98t133.5 35q56 0 95 -27.5t59 -70.5q-4 47 -12 74q-24 147 -139 147q-40 0 -74.5 -18.5t-52.5 -61.5l-85 28q26 65 82.5 101t132.5 36q118 0 182 -86.5t64 -245.5q0 -110 -35 -196t-101.5 -134.5t-158.5 -48.5
q-69 0 -120 29zM377.5 119.5q38.5 25.5 59 66t22.5 84.5q0 55 -32.5 93.5t-93.5 38.5q-56 0 -95 -26t-58 -67.5t-19 -87.5q0 -60 35.5 -93.5t91.5 -33.5q51 0 89.5 25.5z" />
    <glyph glyph-name="uni2206" unicode="&#x2206;" horiz-adv-x="667" 
d="M628 0h-589l280 697h29zM334 497l-152 -400h305z" />
    <glyph glyph-name="product" unicode="&#x220f;" horiz-adv-x="635" 
d="M202 0h-98v600h-41v97h509v-97h-41v-600h-98v600h-231v-600z" />
    <glyph glyph-name="summation" unicode="&#x2211;" horiz-adv-x="647" 
d="M50 697h538v-110h-340l238 -239l-239 -238h341v-110h-538v56l279 292l-279 294v55z" />
    <glyph glyph-name="minus" unicode="&#x2212;" horiz-adv-x="465" 
d="M435 252h-405v86h405v-86z" />
    <glyph glyph-name="radical" unicode="&#x221a;" horiz-adv-x="623" 
d="M586 697l-329 -811l-137 382h-78v97h148l73 -230l219 562h104z" />
    <glyph glyph-name="infinity" unicode="&#x221e;" horiz-adv-x="923" 
d="M117 227q-52 52 -52 136t52 136t143 52q52 0 106 -28.5t96 -81.5q41 53 95 81.5t106 28.5q60 0 104.5 -24t68 -66.5t23.5 -97.5t-23.5 -97.5t-68 -66.5t-104.5 -24q-54 0 -107.5 28.5t-93.5 80.5q-42 -52 -95.5 -80.5t-106.5 -28.5q-91 0 -143 52zM344.5 293.5
q37.5 24.5 64.5 69.5q-28 45 -65.5 69.5t-69.5 24.5q-49 0 -77.5 -25t-28.5 -69q0 -45 28.5 -69.5t77.5 -24.5q33 0 70.5 24.5zM727 293.5q29 24.5 29 69.5q0 44 -29.5 69t-78.5 25q-32 0 -69.5 -24.5t-65.5 -69.5q28 -46 65 -70t70 -24q50 0 79 24.5z" />
    <glyph glyph-name="integral" unicode="&#x222b;" horiz-adv-x="485" 
d="M40 -128q82 0 117.5 29t35.5 106v554q0 43 19.5 78t53.5 55t74 20q29 0 57.5 -10.5t52.5 -31.5l-62 -74q-23 18 -48 18q-22 0 -36 -14.5t-14 -44.5v-553q0 -111 -67 -170.5t-183 -59.5v98z" />
    <glyph glyph-name="approxequal" unicode="&#x2248;" horiz-adv-x="583" 
d="M310 365q-24 18 -47 51q-16 24 -28.5 35t-32.5 11q-21 0 -33 -23.5t-12 -63.5h-88q0 74 36.5 118.5t96.5 44.5q47 0 72 -18.5t48 -51.5q15 -22 27 -32.5t29 -10.5q21 0 34.5 27.5t13.5 69.5h87q0 -78 -37 -126.5t-98 -48.5q-44 0 -68 18zM310 123.5q-24 17.5 -47 50.5
q-16 23 -29 34t-32 11q-22 0 -33.5 -23t-11.5 -63h-88q0 74 36.5 119t96.5 45q47 0 72 -18.5t48 -51.5q15 -22 27 -32.5t29 -10.5q21 0 34.5 27.5t13.5 69.5h87q0 -78 -37 -126.5t-98 -48.5q-44 0 -68 17.5z" />
    <glyph glyph-name="notequal" unicode="&#x2260;" horiz-adv-x="558" 
d="M528 450v-86h-156l-94 -133h250v-86h-310l-102 -145h-82l102 145h-106v86h166l94 133h-260v86h320l92 131h82l-92 -131h96z" />
    <glyph glyph-name="lessequal" unicode="&#x2264;" horiz-adv-x="682" 
d="M218 384l401 -228l-42 -76l-533 304l533 304l42 -76zM67 -87v86h555v-86h-555z" />
    <glyph glyph-name="greaterequal" unicode="&#x2265;" horiz-adv-x="683" 
d="M638 384l-533 -304l-42 76l401 228l-401 228l42 76zM616 -87h-556v86h556v-86z" />
    <glyph glyph-name="lozenge" unicode="&#x25ca;" horiz-adv-x="613" 
d="M384 0h-155l-188 348l188 349h155l188 -349zM155 348l146 -287h12l144 287l-144 288h-12z" />
    <glyph glyph-name="uniF8FF" unicode="&#xf8ff;" horiz-adv-x="839" 
d="M229.5 41q-86.5 51 -137.5 138t-51 189t51 189t137.5 138t189.5 51t189.5 -51t137.5 -138t51 -189t-51 -189t-137.5 -138t-189.5 -51t-189.5 51zM590.5 72q78.5 46 124.5 124.5t46 171.5t-46 171.5t-124.5 124.5t-171.5 46t-171.5 -46t-124.5 -124.5t-46 -171.5
t46 -171.5t124.5 -124.5t171.5 -46t171.5 46zM190.5 222.5q-5.5 5.5 -5.5 12.5v265q0 8 5.5 13t12.5 5q8 0 13 -5t5 -13v-265q0 -7 -5 -12.5t-13 -5.5q-7 0 -12.5 5.5zM406.5 222.5q-5.5 5.5 -5.5 12.5v265q0 8 5.5 13t12.5 5q8 0 13 -5t5 -13v-265q0 -7 -5 -12.5t-13 -5.5
q-7 0 -12.5 5.5zM624 222l-145 134q-5 4 -5 12q0 7 5 12l143 131q7 7 14 7q6 0 11.5 -4.5t5.5 -12.5q0 -7 -5 -12l-132 -121l132 -122q5 -5 5 -12q0 -6 -4.5 -11.5t-11.5 -5.5q-8 0 -13 5zM275 350q-7 0 -12.5 5.5t-5.5 12.5q0 8 5.5 13t12.5 5h72q8 0 13 -5t5 -13
q0 -7 -5 -12.5t-13 -5.5h-72z" />
    <glyph glyph-name="uni004A0301" horiz-adv-x="554" 
d="M92 46.5q-63 61.5 -70 169.5l119 13q4 -68 32.5 -100t83.5 -32q60 0 86.5 38.5t26.5 114.5v340h-264v107h385v-454q0 -120 -63 -189t-171 -69q-102 0 -165 61.5zM341 759h-85l111 142h125z" />
    <glyph glyph-name="uni1EB6.ss03" horiz-adv-x="665" 
d="M655 0h-131l-52 142h-279l-52 -142h-131l277 697h91zM333 520l-100 -270h199zM285 -175.5q-20 20.5 -20 49.5t20 49t49 20t49 -20t20 -49t-20 -49.5t-49 -20.5t-49 20.5zM178 901h82q0 -32 20.5 -48.5t53.5 -16.5t53 17t20 48h82q0 -132 -155 -132q-156 0 -156 132z" />
    <glyph glyph-name="uni1EAC.ss03" horiz-adv-x="665" 
d="M655 0h-131l-52 142h-279l-52 -142h-131l277 697h91zM333 520l-100 -270h199zM285 -175.5q-20 20.5 -20 49.5t20 49t49 20t49 -20t20 -49t-20 -49.5t-49 -20.5t-49 20.5zM267 746h-89l155 172l155 -172h-89l-66 74z" />
    <glyph glyph-name="Adieresis.ss03" horiz-adv-x="665" 
d="M655 0h-131l-52 142h-279l-52 -142h-131l277 697h91zM333 520l-100 -270h199zM183 792.5q-20 20.5 -20 49.5t20 49t49 20t49 -20t20 -49t-20 -49.5t-49 -20.5t-49 20.5zM387 792.5q-20 20.5 -20 49.5t19.5 49t48.5 20t49 -20t20 -49t-20 -49.5t-49 -20.5q-28 0 -48 20.5z
" />
    <glyph glyph-name="uni1EA0.ss03" horiz-adv-x="665" 
d="M655 0h-131l-52 142h-279l-52 -142h-131l277 697h91zM333 520l-100 -270h199zM285 -175.5q-20 20.5 -20 49.5t20 49t49 20t49 -20t20 -49t-20 -49.5t-49 -20.5t-49 20.5z" />
    <glyph glyph-name="Cdotaccent.ss03" horiz-adv-x="708" 
d="M199.5 30.5q-75.5 45.5 -117 128t-41.5 190.5t41.5 190t117 127.5t173.5 45.5q109 0 189 -54.5t115 -151.5l-114 -41q-23 63 -72 97.5t-118 34.5q-97 0 -154 -66.5t-57 -181.5t57 -182t154 -67q69 0 118 34.5t72 97.5l114 -41q-35 -97 -115 -151.5t-189 -54.5
q-98 0 -173.5 45.5zM305 792.5q-20 20.5 -20 49.5t20 49t49 20t49 -20t20 -49t-20 -49.5t-49 -20.5t-49 20.5z" />
    <glyph glyph-name="uni1EC6.ss03" horiz-adv-x="578" 
d="M532 0h-463v697h463v-107h-343v-179h318v-108h-318v-195h343v-108zM252 -175.5q-20 20.5 -20 49.5t20 49t49 20t49 -20t20 -49t-20 -49.5t-49 -20.5t-49 20.5zM235 746h-89l155 172l155 -172h-89l-66 74z" />
    <glyph glyph-name="Edieresis.ss03" horiz-adv-x="578" 
d="M532 0h-463v697h463v-107h-343v-179h318v-108h-318v-195h343v-108zM150 792.5q-20 20.5 -20 49.5t20 49t49 20t49 -20t20 -49t-20 -49.5t-49 -20.5t-49 20.5zM354 792.5q-20 20.5 -20 49.5t19.5 49t48.5 20t49 -20t20 -49t-20 -49.5t-49 -20.5q-28 0 -48 20.5z" />
    <glyph glyph-name="Edotaccent.ss03" horiz-adv-x="578" 
d="M532 0h-463v697h463v-107h-343v-179h318v-108h-318v-195h343v-108zM252 792.5q-20 20.5 -20 49.5t20 49t49 20t49 -20t20 -49t-20 -49.5t-49 -20.5t-49 20.5z" />
    <glyph glyph-name="uni1EB8.ss03" horiz-adv-x="578" 
d="M532 0h-463v697h463v-107h-343v-179h318v-108h-318v-195h343v-108zM252 -175.5q-20 20.5 -20 49.5t20 49t49 20t49 -20t20 -49t-20 -49.5t-49 -20.5t-49 20.5z" />
    <glyph glyph-name="Gdotaccent.ss03" horiz-adv-x="733" 
d="M398 268v108h279v-376h-106l-11 76q-31 -45 -81.5 -68t-113.5 -23q-94 0 -168 45.5t-115 128t-41 190.5t41.5 190t117 127.5t173.5 45.5q109 0 189 -54.5t115 -151.5l-114 -41q-23 63 -72 97.5t-118 34.5q-97 0 -154 -66.5t-57 -181.5t57 -182t154 -67q72 0 127.5 38.5
t67.5 129.5h-170zM324 792.5q-20 20.5 -20 49.5t20 49t49 20t49 -20t20 -49t-20 -49.5t-49 -20.5t-49 20.5z" />
    <glyph glyph-name="Idieresis.ss03" horiz-adv-x="259" 
d="M189 0h-120v697h120v-697zM-21 792.5q-20 20.5 -20 49.5t20 49t49 20t49 -20t20 -49t-20 -49.5t-49 -20.5t-49 20.5zM183 792.5q-20 20.5 -20 49.5t19.5 49t48.5 20t49 -20t20 -49t-20 -49.5t-49 -20.5q-28 0 -48 20.5z" />
    <glyph glyph-name="uni1ECA.ss03" horiz-adv-x="259" 
d="M189 0h-120v697h120v-697zM81 -175.5q-20 20.5 -20 49.5t20 49t49 20t49 -20t20 -49t-20 -49.5t-49 -20.5t-49 20.5z" />
    <glyph glyph-name="Ldot.ss03" horiz-adv-x="536" 
d="M489 0h-420v697h120v-589h300v-108zM330 300.5q-20 20.5 -20 49.5t20 49t49 20t49 -20t20 -49t-20 -49.5t-49 -20.5t-49 20.5z" />
    <glyph glyph-name="uni1ED8.ss03" horiz-adv-x="746" 
d="M199.5 30.5q-75.5 45.5 -117 127.5t-41.5 190t41.5 190.5t117 128t173.5 45.5q99 0 174 -45.5t116.5 -128t41.5 -190.5t-42 -190t-117 -127.5t-173 -45.5t-173.5 45.5zM484.5 130.5q47.5 30.5 73.5 86.5t26 131q0 115 -57 182t-154 67t-154 -66.5t-57 -182.5
q0 -115 57 -181.5t154 -66.5q64 0 111.5 30.5zM325 -175.5q-20 20.5 -20 49.5t20 49t49 20t49 -20t20 -49t-20 -49.5t-49 -20.5t-49 20.5zM307 746h-89l155 172l155 -172h-89l-66 74z" />
    <glyph glyph-name="Odieresis.ss03" horiz-adv-x="746" 
d="M199.5 30.5q-75.5 45.5 -117 127.5t-41.5 190t41.5 190.5t117 128t173.5 45.5q99 0 174 -45.5t116.5 -128t41.5 -190.5t-42 -190t-117 -127.5t-173 -45.5t-173.5 45.5zM484.5 130.5q47.5 30.5 73.5 86.5t26 131q0 115 -57 182t-154 67t-154 -66.5t-57 -182.5
q0 -115 57 -181.5t154 -66.5q64 0 111.5 30.5zM222 792.5q-20 20.5 -20 49.5t20 49t49 20t49 -20t20 -49t-20 -49.5t-49 -20.5t-49 20.5zM426 792.5q-20 20.5 -20 49.5t19.5 49t48.5 20t49 -20t20 -49t-20 -49.5t-49 -20.5q-28 0 -48 20.5z" />
    <glyph glyph-name="uni1ECC.ss03" horiz-adv-x="746" 
d="M199.5 30.5q-75.5 45.5 -117 127.5t-41.5 190t41.5 190.5t117 128t173.5 45.5q99 0 174 -45.5t116.5 -128t41.5 -190.5t-42 -190t-117 -127.5t-173 -45.5t-173.5 45.5zM484.5 130.5q47.5 30.5 73.5 86.5t26 131q0 115 -57 182t-154 67t-154 -66.5t-57 -182.5
q0 -115 57 -181.5t154 -66.5q64 0 111.5 30.5zM325 -175.5q-20 20.5 -20 49.5t20 49t49 20t49 -20t20 -49t-20 -49.5t-49 -20.5t-49 20.5z" />
    <glyph glyph-name="uni1EE2.ss03" horiz-adv-x="746" 
d="M686 697h80v-40q0 -54 -21.5 -94.5t-66.5 -57.5q27 -69 27 -157q0 -108 -42 -190t-117 -127.5t-173 -45.5t-173.5 45.5t-117 127.5t-41.5 190t41.5 190.5t117 128t173.5 45.5q87 0 156.5 -36t113.5 -101q23 8 33 30t10 59v33zM484.5 130.5q47.5 30.5 73.5 86.5t26 131
q0 115 -57 182t-154 67t-154 -66.5t-57 -182.5q0 -115 57 -181.5t154 -66.5q64 0 111.5 30.5zM325 -175.5q-20 20.5 -20 49.5t20 49t49 20t49 -20t20 -49t-20 -49.5t-49 -20.5t-49 20.5z" />
    <glyph glyph-name="Udieresis.ss03" horiz-adv-x="655" 
d="M129.5 52q-66.5 67 -66.5 200v445h120v-431q0 -88 32 -129t112 -41t113 41t33 128v432h120v-440q0 -135 -67.5 -203.5t-198.5 -68.5t-197.5 67zM178 792.5q-20 20.5 -20 49.5t20 49t49 20t49 -20t20 -49t-20 -49.5t-49 -20.5t-49 20.5zM382 792.5q-20 20.5 -20 49.5
t19.5 49t48.5 20t49 -20t20 -49t-20 -49.5t-49 -20.5q-28 0 -48 20.5z" />
    <glyph glyph-name="uni01D7.ss03" horiz-adv-x="655" 
d="M129.5 52q-66.5 67 -66.5 200v445h120v-431q0 -88 32 -129t112 -41t113 41t33 128v432h120v-440q0 -135 -67.5 -203.5t-198.5 -68.5t-197.5 67zM178 792.5q-20 20.5 -20 49.5t20 49t49 20t49 -20t20 -49t-20 -49.5t-49 -20.5t-49 20.5zM382 792.5q-20 20.5 -20 49.5
t19.5 49t48.5 20t49 -20t20 -49t-20 -49.5t-49 -20.5q-28 0 -48 20.5zM370 973h-85l111 142h125z" />
    <glyph glyph-name="uni01D9.ss03" horiz-adv-x="655" 
d="M129.5 52q-66.5 67 -66.5 200v445h120v-431q0 -88 32 -129t112 -41t113 41t33 128v432h120v-440q0 -135 -67.5 -203.5t-198.5 -68.5t-197.5 67zM178 792.5q-20 20.5 -20 49.5t20 49t49 20t49 -20t20 -49t-20 -49.5t-49 -20.5t-49 20.5zM382 792.5q-20 20.5 -20 49.5
t19.5 49t48.5 20t49 -20t20 -49t-20 -49.5t-49 -20.5q-28 0 -48 20.5zM484 1115l-155 -163l-156 163h91l65 -69l65 69h90z" />
    <glyph glyph-name="uni01DB.ss03" horiz-adv-x="655" 
d="M129.5 52q-66.5 67 -66.5 200v445h120v-431q0 -88 32 -129t112 -41t113 41t33 128v432h120v-440q0 -135 -67.5 -203.5t-198.5 -68.5t-197.5 67zM178 792.5q-20 20.5 -20 49.5t20 49t49 20t49 -20t20 -49t-20 -49.5t-49 -20.5t-49 20.5zM382 792.5q-20 20.5 -20 49.5
t19.5 49t48.5 20t49 -20t20 -49t-20 -49.5t-49 -20.5q-28 0 -48 20.5zM371 973h-86l-141 142h123z" />
    <glyph glyph-name="uni01D5.ss03" horiz-adv-x="655" 
d="M129.5 52q-66.5 67 -66.5 200v445h120v-431q0 -88 32 -129t112 -41t113 41t33 128v432h120v-440q0 -135 -67.5 -203.5t-198.5 -68.5t-197.5 67zM178 792.5q-20 20.5 -20 49.5t20 49t49 20t49 -20t20 -49t-20 -49.5t-49 -20.5t-49 20.5zM382 792.5q-20 20.5 -20 49.5
t19.5 49t48.5 20t49 -20t20 -49t-20 -49.5t-49 -20.5q-28 0 -48 20.5zM466 987h-275v68h275v-68z" />
    <glyph glyph-name="uni1EE4.ss03" horiz-adv-x="655" 
d="M129.5 52q-66.5 67 -66.5 200v445h120v-431q0 -88 32 -129t112 -41t113 41t33 128v432h120v-440q0 -135 -67.5 -203.5t-198.5 -68.5t-197.5 67zM280 -175.5q-20 20.5 -20 49.5t20 49t49 20t49 -20t20 -49t-20 -49.5t-49 -20.5t-49 20.5z" />
    <glyph glyph-name="uni1EF0.ss03" horiz-adv-x="655" 
d="M659 697h80v-40q0 -71 -36 -115.5t-110 -47.5v-237q0 -135 -67.5 -203.5t-198.5 -68.5t-197.5 67t-66.5 200v445h120v-431q0 -88 32 -129t112 -41t113 41t33 128v432h120v-127q36 2 51 25.5t15 68.5v33zM280 -175.5q-20 20.5 -20 49.5t20 49t49 20t49 -20t20 -49
t-20 -49.5t-49 -20.5t-49 20.5z" />
    <glyph glyph-name="Wdieresis.ss03" horiz-adv-x="973" 
d="M685 184l148 513h125l-208 -697h-117l-146 481l-147 -481h-117l-208 697h126l148 -513l138 473h119zM336 792.5q-20 20.5 -20 49.5t20 49t49 20t49 -20t20 -49t-20 -49.5t-49 -20.5t-49 20.5zM540 792.5q-20 20.5 -20 49.5t19.5 49t48.5 20t49 -20t20 -49t-20 -49.5
t-49 -20.5q-28 0 -48 20.5z" />
    <glyph glyph-name="Ydieresis.ss03" horiz-adv-x="616" 
d="M369 0h-120v272l-245 425h137l165 -305l169 305h137l-243 -425v-272zM158 792.5q-20 20.5 -20 49.5t20 49t49 20t49 -20t20 -49t-20 -49.5t-49 -20.5t-49 20.5zM362 792.5q-20 20.5 -20 49.5t19.5 49t48.5 20t49 -20t20 -49t-20 -49.5t-49 -20.5q-28 0 -48 20.5z" />
    <glyph glyph-name="uni1EF4.ss03" horiz-adv-x="616" 
d="M369 0h-120v272l-245 425h137l165 -305l169 305h137l-243 -425v-272zM260 -175.5q-20 20.5 -20 49.5t20 49t49 20t49 -20t20 -49t-20 -49.5t-49 -20.5t-49 20.5z" />
    <glyph glyph-name="Zdotaccent.ss03" horiz-adv-x="593" 
d="M556 597l-378 -489h391v-108h-542v99l378 491h-355v107h506v-100zM252 792.5q-20 20.5 -20 49.5t20 49t49 20t49 -20t20 -49t-20 -49.5t-49 -20.5t-49 20.5z" />
    <glyph glyph-name="i.loclTRK" horiz-adv-x="245" 
d="M180 0h-115v493h115v-493zM182 572h-119v125h119v-125z" />
    <glyph glyph-name="uni006A0301" horiz-adv-x="246" 
d="M-22 -199v100q28 -7 44 -7q22 0 32.5 10.5t10.5 39.5v549h116v-580q0 -63 -31.5 -95t-85.5 -32q-38 0 -86 15zM166 555h-85l111 142h125z" />
    <glyph glyph-name="g.ss01" horiz-adv-x="580" 
d="M401 493h115v-479q0 -115 -64 -171.5t-175 -56.5q-146 0 -221 114l90 70q47 -84 130 -84q125 0 125 128v73q-47 -79 -149 -79q-62 0 -109.5 33t-73.5 89.5t-26 125.5q0 74 28 130t75.5 86.5t105.5 30.5q51 0 89 -21.5t60 -61.5v73zM376.5 154.5q34.5 38.5 34.5 99.5
q0 63 -35 103t-91 40q-57 0 -92 -40t-35 -103q0 -62 34 -100t92 -38t92.5 38.5z" />
    <glyph glyph-name="gbreve.ss01" horiz-adv-x="580" 
d="M401 493h115v-479q0 -115 -64 -171.5t-175 -56.5q-146 0 -221 114l90 70q47 -84 130 -84q125 0 125 128v73q-47 -79 -149 -79q-62 0 -109.5 33t-73.5 89.5t-26 125.5q0 74 28 130t75.5 86.5t105.5 30.5q51 0 89 -21.5t60 -61.5v73zM376.5 154.5q34.5 38.5 34.5 99.5
q0 63 -35 103t-91 40q-57 0 -92 -40t-35 -103q0 -62 34 -100t92 -38t92.5 38.5zM137 697h82q0 -32 20.5 -48.5t53.5 -16.5t53 17t20 48h82q0 -132 -155 -132q-156 0 -156 132z" />
    <glyph glyph-name="uni0123.ss01" horiz-adv-x="580" 
d="M401 493h115v-479q0 -115 -64 -171.5t-175 -56.5q-146 0 -221 114l90 70q47 -84 130 -84q125 0 125 128v73q-47 -79 -149 -79q-62 0 -109.5 33t-73.5 89.5t-26 125.5q0 74 28 130t75.5 86.5t105.5 30.5q51 0 89 -21.5t60 -61.5v73zM376.5 154.5q34.5 38.5 34.5 99.5
q0 63 -35 103t-91 40q-57 0 -92 -40t-35 -103q0 -62 34 -100t92 -38t92.5 38.5zM318 552h-120l121 155h68z" />
    <glyph glyph-name="gdotaccent.ss01" horiz-adv-x="580" 
d="M401 493h115v-479q0 -115 -64 -171.5t-175 -56.5q-146 0 -221 114l90 70q47 -84 130 -84q125 0 125 128v73q-47 -79 -149 -79q-62 0 -109.5 33t-73.5 89.5t-26 125.5q0 74 28 130t75.5 86.5t105.5 30.5q51 0 89 -21.5t60 -61.5v73zM376.5 154.5q34.5 38.5 34.5 99.5
q0 63 -35 103t-91 40q-57 0 -92 -40t-35 -103q0 -62 34 -100t92 -38t92.5 38.5zM352 572h-119v125h119v-125z" />
    <glyph glyph-name="g.ss02" horiz-adv-x="542" 
d="M349 84q159 0 159 -136q0 -79 -60.5 -120t-176.5 -41q-102 0 -169.5 35.5t-67.5 114.5q0 24 8 43l54 35q-51 36 -52 95q0 61 54 110q-30 44 -30 100q0 54 27 95.5t72.5 64.5t100.5 23q64 0 115 -31l81 66l60 -74l-75 -62q20 -38 20 -86q0 -79 -54.5 -127t-143.5 -48
q-56 0 -101 20q-18 -16 -18 -37q1 -40 94 -40h103zM206.5 382.5q-23.5 -23.5 -23.5 -62.5q0 -38 22.5 -63t63.5 -25q40 0 62.5 25t22.5 63q0 39 -23 62.5t-62 23.5t-62.5 -23.5zM366 -110q30 15 30 46q0 24 -14.5 37.5t-49.5 13.5h-145l-45 -39v-8q0 -33 31.5 -49t97.5 -16
q65 0 95 15z" />
    <glyph glyph-name="gbreve.ss02" horiz-adv-x="542" 
d="M349 84q159 0 159 -136q0 -79 -60.5 -120t-176.5 -41q-102 0 -169.5 35.5t-67.5 114.5q0 24 8 43l54 35q-51 36 -52 95q0 61 54 110q-30 44 -30 100q0 54 27 95.5t72.5 64.5t100.5 23q64 0 115 -31l81 66l60 -74l-75 -62q20 -38 20 -86q0 -79 -54.5 -127t-143.5 -48
q-56 0 -101 20q-18 -16 -18 -37q1 -40 94 -40h103zM206.5 382.5q-23.5 -23.5 -23.5 -62.5q0 -38 22.5 -63t63.5 -25q40 0 62.5 25t22.5 63q0 39 -23 62.5t-62 23.5t-62.5 -23.5zM366 -110q30 15 30 46q0 24 -14.5 37.5t-49.5 13.5h-145l-45 -39v-8q0 -33 31.5 -49t97.5 -16
q65 0 95 15zM119 697h82q0 -32 20.5 -48.5t53.5 -16.5t53 17t20 48h82q0 -132 -155 -132q-156 0 -156 132z" />
    <glyph glyph-name="uni0123.ss02" horiz-adv-x="542" 
d="M349 84q159 0 159 -136q0 -79 -60.5 -120t-176.5 -41q-102 0 -169.5 35.5t-67.5 114.5q0 24 8 43l54 35q-51 36 -52 95q0 61 54 110q-30 44 -30 100q0 54 27 95.5t72.5 64.5t100.5 23q64 0 115 -31l81 66l60 -74l-75 -62q20 -38 20 -86q0 -79 -54.5 -127t-143.5 -48
q-56 0 -101 20q-18 -16 -18 -37q1 -40 94 -40h103zM206.5 382.5q-23.5 -23.5 -23.5 -62.5q0 -38 22.5 -63t63.5 -25q40 0 62.5 25t22.5 63q0 39 -23 62.5t-62 23.5t-62.5 -23.5zM366 -110q30 15 30 46q0 24 -14.5 37.5t-49.5 13.5h-145l-45 -39v-8q0 -33 31.5 -49t97.5 -16
q65 0 95 15zM300 552h-120l121 155h68z" />
    <glyph glyph-name="gdotaccent.ss02" horiz-adv-x="542" 
d="M349 84q159 0 159 -136q0 -79 -60.5 -120t-176.5 -41q-102 0 -169.5 35.5t-67.5 114.5q0 24 8 43l54 35q-51 36 -52 95q0 61 54 110q-30 44 -30 100q0 54 27 95.5t72.5 64.5t100.5 23q64 0 115 -31l81 66l60 -74l-75 -62q20 -38 20 -86q0 -79 -54.5 -127t-143.5 -48
q-56 0 -101 20q-18 -16 -18 -37q1 -40 94 -40h103zM206.5 382.5q-23.5 -23.5 -23.5 -62.5q0 -38 22.5 -63t63.5 -25q40 0 62.5 25t22.5 63q0 39 -23 62.5t-62 23.5t-62.5 -23.5zM366 -110q30 15 30 46q0 24 -14.5 37.5t-49.5 13.5h-145l-45 -39v-8q0 -33 31.5 -49t97.5 -16
q65 0 95 15zM334 572h-119v125h119v-125z" />
    <glyph glyph-name="uni1EB7.ss03" horiz-adv-x="544" 
d="M430.5 452q56.5 -51 56.5 -141v-311h-106l-6 51q-51 -61 -143 -61q-86 0 -138 45t-52 118q0 77 58 115q49 34 132 34h140v9q0 43 -27.5 67t-78.5 24q-37 0 -68.5 -14t-63.5 -49l-84 70q43 48 100.5 71t123.5 23q100 0 156.5 -51zM334.5 117.5q37.5 34.5 37.5 86.5v8h-123
q-45 0 -67 -15q-25 -16 -25 -46q0 -31 23 -49.5t62 -18.5q55 0 92.5 34.5zM226 -175.5q-20 20.5 -20 49.5t20 49t49 20t49 -20t20 -49t-20 -49.5t-49 -20.5t-49 20.5zM119 697h82q0 -32 20.5 -48.5t53.5 -16.5t53 17t20 48h82q0 -132 -155 -132q-156 0 -156 132z" />
    <glyph glyph-name="uni1EAD.ss03" horiz-adv-x="544" 
d="M430.5 452q56.5 -51 56.5 -141v-311h-106l-6 51q-51 -61 -143 -61q-86 0 -138 45t-52 118q0 77 58 115q49 34 132 34h140v9q0 43 -27.5 67t-78.5 24q-37 0 -68.5 -14t-63.5 -49l-84 70q43 48 100.5 71t123.5 23q100 0 156.5 -51zM334.5 117.5q37.5 34.5 37.5 86.5v8h-123
q-45 0 -67 -15q-25 -16 -25 -46q0 -31 23 -49.5t62 -18.5q55 0 92.5 34.5zM226 -175.5q-20 20.5 -20 49.5t20 49t49 20t49 -20t20 -49t-20 -49.5t-49 -20.5t-49 20.5zM208 542h-89l155 172l155 -172h-89l-66 74z" />
    <glyph glyph-name="adieresis.ss03" horiz-adv-x="544" 
d="M430.5 452q56.5 -51 56.5 -141v-311h-106l-6 51q-51 -61 -143 -61q-86 0 -138 45t-52 118q0 77 58 115q49 34 132 34h140v9q0 43 -27.5 67t-78.5 24q-37 0 -68.5 -14t-63.5 -49l-84 70q43 48 100.5 71t123.5 23q100 0 156.5 -51zM334.5 117.5q37.5 34.5 37.5 86.5v8h-123
q-45 0 -67 -15q-25 -16 -25 -46q0 -31 23 -49.5t62 -18.5q55 0 92.5 34.5zM124 588.5q-20 20.5 -20 49.5t20 49t49 20t49 -20t20 -49t-20 -49.5t-49 -20.5t-49 20.5zM328 588.5q-20 20.5 -20 49.5t19.5 49t48.5 20t49 -20t20 -49t-20 -49.5t-49 -20.5q-28 0 -48 20.5z" />
    <glyph glyph-name="uni1EA1.ss03" horiz-adv-x="544" 
d="M430.5 452q56.5 -51 56.5 -141v-311h-106l-6 51q-51 -61 -143 -61q-86 0 -138 45t-52 118q0 77 58 115q49 34 132 34h140v9q0 43 -27.5 67t-78.5 24q-37 0 -68.5 -14t-63.5 -49l-84 70q43 48 100.5 71t123.5 23q100 0 156.5 -51zM334.5 117.5q37.5 34.5 37.5 86.5v8h-123
q-45 0 -67 -15q-25 -16 -25 -46q0 -31 23 -49.5t62 -18.5q55 0 92.5 34.5zM226 -175.5q-20 20.5 -20 49.5t20 49t49 20t49 -20t20 -49t-20 -49.5t-49 -20.5t-49 20.5z" />
    <glyph glyph-name="cdotaccent.ss03" horiz-adv-x="522" 
d="M149.5 25.5q-53.5 35.5 -81 94t-27.5 127.5q0 67 27 125.5t80.5 94.5t129.5 36q74 0 129 -36.5t82 -107.5l-101 -40q-32 83 -110 83q-60 0 -90.5 -45.5t-30.5 -109.5q0 -66 30.5 -111t90.5 -45q80 0 109 83l101 -40q-26 -70 -80.5 -107t-129.5 -37t-128.5 35.5z
M211 588.5q-20 20.5 -20 49.5t20 49t49 20t49 -20t20 -49t-20 -49.5t-49 -20.5t-49 20.5z" />
    <glyph glyph-name="uni1EC7.ss03" horiz-adv-x="542" 
d="M498 208h-340q3 -52 35 -82.5t90 -30.5q36 0 65.5 12.5t55.5 41.5l80 -71q-40 -44 -89.5 -66t-111.5 -22q-81 0 -135 34.5t-80 92t-26 127.5q0 68 25.5 127t78 95.5t129.5 36.5q73 0 124 -33t76.5 -89.5t25.5 -126.5q0 -19 -3 -46zM390 298q1 46 -31 77t-86 31
q-52 0 -81.5 -31.5t-35.5 -76.5h234zM234 -175.5q-20 20.5 -20 49.5t20 49t49 20t49 -20t20 -49t-20 -49.5t-49 -20.5t-49 20.5zM209 542h-89l155 172l155 -172h-89l-66 74z" />
    <glyph glyph-name="edieresis.ss03" horiz-adv-x="542" 
d="M498 208h-340q3 -52 35 -82.5t90 -30.5q36 0 65.5 12.5t55.5 41.5l80 -71q-40 -44 -89.5 -66t-111.5 -22q-81 0 -135 34.5t-80 92t-26 127.5q0 68 25.5 127t78 95.5t129.5 36.5q73 0 124 -33t76.5 -89.5t25.5 -126.5q0 -19 -3 -46zM390 298q1 46 -31 77t-86 31
q-52 0 -81.5 -31.5t-35.5 -76.5h234zM125 588.5q-20 20.5 -20 49.5t20 49t49 20t49 -20t20 -49t-20 -49.5t-49 -20.5t-49 20.5zM329 588.5q-20 20.5 -20 49.5t19.5 49t48.5 20t49 -20t20 -49t-20 -49.5t-49 -20.5q-28 0 -48 20.5z" />
    <glyph glyph-name="edotaccent.ss03" horiz-adv-x="542" 
d="M498 208h-340q3 -52 35 -82.5t90 -30.5q36 0 65.5 12.5t55.5 41.5l80 -71q-40 -44 -89.5 -66t-111.5 -22q-81 0 -135 34.5t-80 92t-26 127.5q0 68 25.5 127t78 95.5t129.5 36.5q73 0 124 -33t76.5 -89.5t25.5 -126.5q0 -19 -3 -46zM390 298q1 46 -31 77t-86 31
q-52 0 -81.5 -31.5t-35.5 -76.5h234zM227 588.5q-20 20.5 -20 49.5t20 49t49 20t49 -20t20 -49t-20 -49.5t-49 -20.5t-49 20.5z" />
    <glyph glyph-name="gdotaccent.ss03" horiz-adv-x="526" 
d="M386.5 51q46.5 -12 75.5 -39t29 -78q0 -72 -58.5 -110t-167.5 -38q-107 0 -169 39t-62 108q0 16 3 31l72 46q-62 33 -62 101q0 59 45 98q-39 47 -39 111q0 54 27 95.5t72.5 64.5t100.5 23q64 0 114 -31l81 66l60 -74l-75 -62q21 -37 21 -86q0 -79 -54.5 -127t-143.5 -48
q-49 0 -88 15q-15 -13 -15 -32q0 -24 23 -33.5t80 -16.5q84 -11 130.5 -23zM191.5 382.5q-23.5 -23.5 -23.5 -62.5q0 -38 22.5 -63t63.5 -25q40 0 62.5 25t22.5 63q0 39 -23 62.5t-62 23.5t-62.5 -23.5zM349 -116.5q27 10.5 27 35.5q0 19 -14 29t-41.5 15.5t-84.5 12.5
l-41 6l-45 -43q-1 -2 -1 -10q0 -28 30.5 -42t85.5 -14q57 0 84 10.5zM209 588.5q-20 20.5 -20 49.5t20 49t49 20t49 -20t20 -49t-20 -49.5t-49 -20.5t-49 20.5z" />
    <glyph glyph-name="i.ss03" horiz-adv-x="245" 
d="M180 0h-115v493h115v-493zM74 588.5q-20 20.5 -20 49.5t20 49t49 20t49 -20t20 -49t-20 -49.5t-49 -20.5t-49 20.5z" />
    <glyph glyph-name="idieresis.ss03" horiz-adv-x="245" 
d="M180 0h-115v493h115v-493zM-28 588.5q-20 20.5 -20 49.5t20 49t49 20t49 -20t20 -49t-20 -49.5t-49 -20.5t-49 20.5zM176 588.5q-20 20.5 -20 49.5t19.5 49t48.5 20t49 -20t20 -49t-20 -49.5t-49 -20.5q-28 0 -48 20.5z" />
    <glyph glyph-name="i.loclTRK.ss03" horiz-adv-x="245" 
d="M180 0h-115v493h115v-493zM74 588.5q-20 20.5 -20 49.5t20 49t49 20t49 -20t20 -49t-20 -49.5t-49 -20.5t-49 20.5z" />
    <glyph glyph-name="uni1ECB.ss03" horiz-adv-x="245" 
d="M180 0h-115v493h115v-493zM74 588.5q-20 20.5 -20 49.5t20 49t49 20t49 -20t20 -49t-20 -49.5t-49 -20.5t-49 20.5zM74 -175.5q-20 20.5 -20 49.5t20 49t49 20t49 -20t20 -49t-20 -49.5t-49 -20.5t-49 20.5z" />
    <glyph glyph-name="iogonek.ss03" horiz-adv-x="245" 
d="M74 588.5q-20 20.5 -20 49.5t20 49t49 20t49 -20t20 -49t-20 -49.5t-49 -20.5t-49 20.5zM225 -163q-20 -27 -46 -42.5t-61 -15.5q-48 0 -79.5 27.5t-31.5 71.5q0 42 24 73t56 49h-22v493h115v-493q-35 -16 -69 -45.5t-34 -64.5q0 -40 38 -40q30 0 50 28z" />
    <glyph glyph-name="j.ss03" horiz-adv-x="246" 
d="M-22 -199v100q28 -7 44 -7q22 0 32.5 10.5t10.5 39.5v549h116v-580q0 -63 -31.5 -95t-85.5 -32q-38 0 -86 15zM75 588.5q-20 20.5 -20 49.5t20 49t49 20t49 -20t20 -49t-20 -49.5t-49 -20.5t-49 20.5z" />
    <glyph glyph-name="ldot.ss03" horiz-adv-x="397" 
d="M92 21.5q-31 31.5 -31 94.5v581h115v-558q0 -42 38 -42q13 0 37 7v-99q-40 -15 -76 -15q-52 0 -83 31.5zM227 301.5q-20 20.5 -20 49.5t20 49t49 20t49 -20t20 -49t-20 -49.5t-49 -20.5t-49 20.5z" />
    <glyph glyph-name="uni1ED9.ss03" horiz-adv-x="573" 
d="M160 23q-56 33 -88 92t-32 132q0 74 31.5 132t87.5 91t127 33t127 -33t87.5 -91t31.5 -132q0 -73 -32 -131.5t-88 -92t-126 -33.5t-126 33zM382 133.5q35 41.5 35 113.5t-35 113t-96 41t-95.5 -40.5t-34.5 -113.5q0 -72 34.5 -113.5t95.5 -41.5t96 41.5zM238 -175.5
q-20 20.5 -20 49.5t20 49t49 20t49 -20t20 -49t-20 -49.5t-49 -20.5t-49 20.5zM220 542h-89l155 172l155 -172h-89l-66 74z" />
    <glyph glyph-name="odieresis.ss03" horiz-adv-x="573" 
d="M160 23q-56 33 -88 92t-32 132q0 74 31.5 132t87.5 91t127 33t127 -33t87.5 -91t31.5 -132q0 -73 -32 -131.5t-88 -92t-126 -33.5t-126 33zM382 133.5q35 41.5 35 113.5t-35 113t-96 41t-95.5 -40.5t-34.5 -113.5q0 -72 34.5 -113.5t95.5 -41.5t96 41.5zM136 588.5
q-20 20.5 -20 49.5t20 49t49 20t49 -20t20 -49t-20 -49.5t-49 -20.5t-49 20.5zM340 588.5q-20 20.5 -20 49.5t19.5 49t48.5 20t49 -20t20 -49t-20 -49.5t-49 -20.5q-28 0 -48 20.5z" />
    <glyph glyph-name="uni1EE3.ss03" horiz-adv-x="573" 
d="M540 546h80v-40q0 -60 -26 -102t-80 -56q18 -45 18 -101q0 -73 -32 -131.5t-88 -92t-126 -33.5t-126 33t-88 92t-32 132q0 74 31.5 132t87.5 91t127 33q57 0 105.5 -22t81.5 -62q36 2 51.5 25.5t15.5 68.5v33zM382 133.5q35 41.5 35 113.5t-35 113t-96 41t-95.5 -40.5
t-34.5 -113.5q0 -72 34.5 -113.5t95.5 -41.5t96 41.5zM238 -175.5q-20 20.5 -20 49.5t20 49t49 20t49 -20t20 -49t-20 -49.5t-49 -20.5t-49 20.5z" />
    <glyph glyph-name="gdotaccent.ss01.ss03" horiz-adv-x="580" 
d="M401 493h115v-479q0 -115 -64 -171.5t-175 -56.5q-146 0 -221 114l90 70q47 -84 130 -84q125 0 125 128v73q-47 -79 -149 -79q-62 0 -109.5 33t-73.5 89.5t-26 125.5q0 74 28 130t75.5 86.5t105.5 30.5q51 0 89 -21.5t60 -61.5v73zM376.5 154.5q34.5 38.5 34.5 99.5
q0 63 -35 103t-91 40q-57 0 -92 -40t-35 -103q0 -62 34 -100t92 -38t92.5 38.5zM243 588.5q-20 20.5 -20 49.5t20 49t49 20t49 -20t20 -49t-20 -49.5t-49 -20.5t-49 20.5z" />
    <glyph glyph-name="gdotaccent.ss02.ss03" horiz-adv-x="542" 
d="M349 84q159 0 159 -136q0 -79 -60.5 -120t-176.5 -41q-102 0 -169.5 35.5t-67.5 114.5q0 24 8 43l54 35q-51 36 -52 95q0 61 54 110q-30 44 -30 100q0 54 27 95.5t72.5 64.5t100.5 23q64 0 115 -31l81 66l60 -74l-75 -62q20 -38 20 -86q0 -79 -54.5 -127t-143.5 -48
q-56 0 -101 20q-18 -16 -18 -37q1 -40 94 -40h103zM206.5 382.5q-23.5 -23.5 -23.5 -62.5q0 -38 22.5 -63t63.5 -25q40 0 62.5 25t22.5 63q0 39 -23 62.5t-62 23.5t-62.5 -23.5zM366 -110q30 15 30 46q0 24 -14.5 37.5t-49.5 13.5h-145l-45 -39v-8q0 -33 31.5 -49t97.5 -16
q65 0 95 15zM226 588.5q-20 20.5 -20 49.5t20 49t49 20t49 -20t20 -49t-20 -49.5t-49 -20.5t-49 20.5z" />
    <glyph glyph-name="udieresis.ss03" horiz-adv-x="560" 
d="M380 493h116v-493h-116v54q-48 -64 -143 -64q-86 0 -133 48t-47 135v320h116v-277q0 -64 23.5 -94.5t71.5 -30.5q56 0 84 40t28 124v238zM125 588.5q-20 20.5 -20 49.5t20 49t49 20t49 -20t20 -49t-20 -49.5t-49 -20.5t-49 20.5zM329 588.5q-20 20.5 -20 49.5t19.5 49
t48.5 20t49 -20t20 -49t-20 -49.5t-49 -20.5q-28 0 -48 20.5z" />
    <glyph glyph-name="uni01D8.ss03" horiz-adv-x="560" 
d="M380 493h116v-493h-116v54q-48 -64 -143 -64q-86 0 -133 48t-47 135v320h116v-277q0 -64 23.5 -94.5t71.5 -30.5q56 0 84 40t28 124v238zM125 588.5q-20 20.5 -20 49.5t20 49t49 20t49 -20t20 -49t-20 -49.5t-49 -20.5t-49 20.5zM329 588.5q-20 20.5 -20 49.5t19.5 49
t48.5 20t49 -20t20 -49t-20 -49.5t-49 -20.5q-28 0 -48 20.5zM318 769h-85l111 142h125z" />
    <glyph glyph-name="uni01DA.ss03" horiz-adv-x="560" 
d="M380 493h116v-493h-116v54q-48 -64 -143 -64q-86 0 -133 48t-47 135v320h116v-277q0 -64 23.5 -94.5t71.5 -30.5q56 0 84 40t28 124v238zM125 588.5q-20 20.5 -20 49.5t20 49t49 20t49 -20t20 -49t-20 -49.5t-49 -20.5t-49 20.5zM329 588.5q-20 20.5 -20 49.5t19.5 49
t48.5 20t49 -20t20 -49t-20 -49.5t-49 -20.5q-28 0 -48 20.5zM431 911l-155 -163l-156 163h91l65 -69l65 69h90z" />
    <glyph glyph-name="uni01DC.ss03" horiz-adv-x="560" 
d="M380 493h116v-493h-116v54q-48 -64 -143 -64q-86 0 -133 48t-47 135v320h116v-277q0 -64 23.5 -94.5t71.5 -30.5q56 0 84 40t28 124v238zM125 588.5q-20 20.5 -20 49.5t20 49t49 20t49 -20t20 -49t-20 -49.5t-49 -20.5t-49 20.5zM329 588.5q-20 20.5 -20 49.5t19.5 49
t48.5 20t49 -20t20 -49t-20 -49.5t-49 -20.5q-28 0 -48 20.5zM319 769h-86l-141 142h123z" />
    <glyph glyph-name="uni01D6.ss03" horiz-adv-x="560" 
d="M380 493h116v-493h-116v54q-48 -64 -143 -64q-86 0 -133 48t-47 135v320h116v-277q0 -64 23.5 -94.5t71.5 -30.5q56 0 84 40t28 124v238zM125 588.5q-20 20.5 -20 49.5t20 49t49 20t49 -20t20 -49t-20 -49.5t-49 -20.5t-49 20.5zM329 588.5q-20 20.5 -20 49.5t19.5 49
t48.5 20t49 -20t20 -49t-20 -49.5t-49 -20.5q-28 0 -48 20.5zM414 783h-275v68h275v-68z" />
    <glyph glyph-name="uni1EE5.ss03" horiz-adv-x="560" 
d="M380 493h116v-493h-116v54q-48 -64 -143 -64q-86 0 -133 48t-47 135v320h116v-277q0 -64 23.5 -94.5t71.5 -30.5q56 0 84 40t28 124v238zM233 -175.5q-20 20.5 -20 49.5t20 49t49 20t49 -20t20 -49t-20 -49.5t-49 -20.5t-49 20.5z" />
    <glyph glyph-name="uni1EF1.ss03" horiz-adv-x="560" 
d="M494 620h80v-40q0 -51 -19 -90t-59 -58v-432h-116v54q-48 -64 -143 -64q-86 0 -133 48t-47 135v320h116v-277q0 -64 23.5 -94.5t71.5 -30.5q56 0 84 40t28 124v238h40q40 0 57 23t17 71v33zM233 -175.5q-20 20.5 -20 49.5t20 49t49 20t49 -20t20 -49t-20 -49.5t-49 -20.5
t-49 20.5z" />
    <glyph glyph-name="wdieresis.ss03" horiz-adv-x="753" 
d="M276 0h-105l-151 493h123l87 -316l96 316h99l96 -314l87 314h124l-152 -493h-104l-100 329zM226 588.5q-20 20.5 -20 49.5t20 49t49 20t49 -20t20 -49t-20 -49.5t-49 -20.5t-49 20.5zM430 588.5q-20 20.5 -20 49.5t19.5 49t48.5 20t49 -20t20 -49t-20 -49.5t-49 -20.5
q-28 0 -48 20.5z" />
    <glyph glyph-name="ydieresis.ss03" horiz-adv-x="545" 
d="M249 -204h-125l87 217l-194 480h127l129 -348l128 348h126zM122 588.5q-20 20.5 -20 49.5t20 49t49 20t49 -20t20 -49t-20 -49.5t-49 -20.5t-49 20.5zM326 588.5q-20 20.5 -20 49.5t19.5 49t48.5 20t49 -20t20 -49t-20 -49.5t-49 -20.5q-28 0 -48 20.5z" />
    <glyph glyph-name="uni1EF5.ss03" horiz-adv-x="545" 
d="M249 -204h-125l87 217l-194 480h127l129 -348l128 348h126zM381 -206.5q-20 20.5 -20 49.5t20 49t49 20t49 -20t20 -49t-20 -49.5t-49 -20.5t-49 20.5z" />
    <glyph glyph-name="zdotaccent.ss03" horiz-adv-x="469" 
d="M46 493h385v-83l-247 -313h246v-97h-396v78l256 318h-244v97zM187 588.5q-20 20.5 -20 49.5t20 49t49 20t49 -20t20 -49t-20 -49.5t-49 -20.5t-49 20.5z" />
    <glyph glyph-name="T_h" horiz-adv-x="1065" 
d="M960 454.5q47 -48.5 47 -134.5v-320h-116v277q0 64 -23.5 94.5t-72.5 30.5q-56 0 -83.5 -40.5t-27.5 -123.5v-238h-116v590h-215v-590h-122v590h-220v107h673v-257q47 63 143 63q86 0 133 -48.5z" />
    <glyph glyph-name="zero.lf" horiz-adv-x="598" 
d="M109 95.5q-49 104.5 -49 256.5q0 148 48.5 252t190.5 104q140 0 189.5 -103.5t49.5 -253.5q0 -152 -49.5 -256t-188.5 -104q-142 0 -191 104.5zM393.5 167.5q26.5 65.5 26.5 180.5q0 117 -26.5 182.5t-94.5 65.5q-70 0 -95 -65.5t-25 -182.5q0 -114 25.5 -180t95.5 -66
q67 0 93.5 65.5z" />
    <glyph glyph-name="one.lf" horiz-adv-x="405" 
d="M200 697h116v-697h-116v492h-179v96h111q34 0 51 15t17 51v43z" />
    <glyph glyph-name="two.lf" horiz-adv-x="586" 
d="M536 108v-108h-477v96q92 62 158 114t121.5 124t55.5 147q0 50 -27 80.5t-79 30.5q-60 0 -89 -42t-32 -105l-113 9q0 65 28 122t81.5 92.5t127.5 35.5q64 0 113.5 -27t77 -77t27.5 -116q0 -105 -67 -193.5t-197 -182.5h291z" />
    <glyph glyph-name="three.lf" horiz-adv-x="601" 
d="M167.5 17q-58.5 26 -93 77.5t-34.5 124.5l115 7q0 -58 40.5 -91t105.5 -33q59 0 98.5 29t39.5 86q0 45 -25.5 67.5t-61.5 28.5t-86 5v93q68 0 102 25t34 70q0 43 -29.5 66t-77.5 23q-49 0 -77.5 -27.5t-29.5 -73.5l-114 7q0 63 30.5 109.5t82 71t113.5 24.5
q60 0 109.5 -23t79 -65.5t29.5 -99.5q0 -52 -26.5 -87t-70.5 -52q63 -21 98 -63t35 -104q0 -70 -35 -120t-93.5 -75.5t-128.5 -25.5q-71 0 -129.5 26z" />
    <glyph glyph-name="four.lf" horiz-adv-x="628" 
d="M479 697v-425h111v-107h-111v-165h-116v165h-313v104l312 428h117zM363 542l-192 -270h192v270z" />
    <glyph glyph-name="five.lf" horiz-adv-x="597" 
d="M433 446q54 -32 84 -86.5t30 -117.5q0 -66 -32.5 -124t-90.5 -93t-130 -35q-64 0 -118 27.5t-89 75.5t-44 107l113 20q7 -49 42 -84t94 -35q64 0 98.5 42t34.5 99q0 55 -33 91.5t-96 36.5q-42 0 -73 -18t-50 -49l-109 28l67 366h385v-107h-290l-27 -144q50 32 112 32
q68 0 122 -32z" />
    <glyph glyph-name="six.lf" horiz-adv-x="591" 
d="M432 435q54 -31 85 -84.5t31 -118.5q0 -69 -34 -124.5t-91.5 -86.5t-126.5 -31t-127 31.5t-92 86.5t-34 123q0 69 38 130l208 336h133l-153 -237q21 6 43 6q66 0 120 -31zM392 137.5q39 36.5 39 94.5t-39 95t-96 37t-96 -36.5t-39 -95.5q0 -58 39 -94.5t96 -36.5t96 36.5
z" />
    <glyph glyph-name="seven.lf" horiz-adv-x="575" 
d="M37 590v107h502v-85l-311 -612h-128l302 590h-365z" />
    <glyph glyph-name="eight.lf" horiz-adv-x="608" 
d="M177 14.5q-58 24.5 -93.5 73.5t-35.5 118q0 58 26.5 102.5t77.5 70.5q-33 21 -51 54.5t-18 77.5q0 59 31 103.5t82 68.5t109 24q60 0 110.5 -24.5t80 -69.5t29.5 -104q0 -87 -69 -130q51 -26 77 -71t26 -102q0 -69 -35 -118t-93 -73.5t-127 -24.5t-127 24.5zM381 436.5
q29 24.5 29 64.5q0 43 -28.5 69t-76.5 26q-47 0 -76.5 -25t-29.5 -68q0 -42 29 -66.5t77 -24.5q47 0 76 24.5zM405 130.5q39 30.5 39 86.5q0 54 -38.5 85t-101.5 31t-101.5 -31t-38.5 -85q0 -56 39.5 -86.5t100.5 -30.5q62 0 101 30.5z" />
    <glyph glyph-name="nine.lf" horiz-adv-x="591" 
d="M422.5 676q58.5 -31 92.5 -86.5t34 -123.5t-39 -130l-208 -336h-133l154 237q-21 -6 -43 -6q-66 0 -120 31t-85 84.5t-31 118.5q0 69 34 124.5t91.5 86.5t125.5 31q69 0 127.5 -31zM392 370q39 36 39 95q0 58 -39 94.5t-97 36.5q-57 0 -95.5 -36.5t-38.5 -94.5
t38.5 -94.5t95.5 -36.5q58 0 97 36z" />
    <glyph glyph-name="period.ss03" horiz-adv-x="230" 
d="M66 10.5q-20 20.5 -20 49.5t20 49t49 20t49 -20t20 -49t-20 -49.5t-49 -20.5t-49 20.5z" />
    <glyph glyph-name="colon.ss03" horiz-adv-x="226" 
d="M64 348q-20 20 -20 49t20 49t49 20t49 -20t20 -49t-20 -49t-49 -20t-49 20zM64 10.5q-20 20.5 -20 49.5t20 49t49 20t49 -20t20 -49t-20 -49.5t-49 -20.5t-49 20.5z" />
    <glyph glyph-name="semicolon.ss03" horiz-adv-x="260" 
d="M105 348q-20 20 -20 49t20 49t49 20t49 -20t20 -49t-20 -49t-49 -20t-49 20zM98 -149h-77l74 279h130z" />
    <glyph glyph-name="ellipsis.ss03" horiz-adv-x="618" 
d="M66 10.5q-20 20.5 -20 49.5t20 48.5t49 19.5t48.5 -19.5t19.5 -48.5t-19.5 -49.5t-48.5 -20.5t-49 20.5zM261 10.5q-20 20.5 -20 49.5t19.5 48.5t48.5 19.5t48.5 -19.5t19.5 -48.5t-19.5 -49.5t-48.5 -20.5q-28 0 -48 20.5zM455 10.5q-20 20.5 -20 49.5t19.5 48.5
t48.5 19.5t49 -19.5t20 -48.5t-20 -49.5t-49 -20.5q-28 0 -48 20.5z" />
    <glyph glyph-name="exclam.ss03" horiz-adv-x="235" 
d="M161 210h-89l-12 487h114zM67.5 10.5q-19.5 20.5 -19.5 50.5q0 29 19.5 49t48.5 20q30 0 49.5 -20t19.5 -49q0 -30 -19.5 -50.5t-49.5 -20.5q-29 0 -48.5 20.5z" />
    <glyph glyph-name="exclamdown.ss03" horiz-adv-x="236" 
d="M70 384q-20 20 -20 49t20 49.5t49 20.5q28 0 48 -20.5t20 -49.5t-19.5 -49t-48.5 -20t-49 20zM175 -204h-114l13 487h89z" />
    <glyph glyph-name="question.ss03" horiz-adv-x="469" 
d="M184 250q0 44 13.5 74.5t32.5 50t50 43.5q35 27 52.5 48.5t17.5 55.5q0 43 -29.5 65.5t-83.5 22.5q-59 0 -90.5 -30.5t-30.5 -88.5h-102q0 101 61.5 158.5t163.5 57.5q93 0 152 -47t59 -141q0 -44 -13.5 -74.5t-32.5 -49.5t-50 -42q-38 -29 -55.5 -51.5t-17.5 -59.5v-34
h-97v42zM186 10.5q-20 20.5 -20 49.5t20 49t49 20t49 -20t20 -49t-20 -49.5t-49 -20.5t-49 20.5z" />
    <glyph glyph-name="questiondown.ss03" horiz-adv-x="469" 
d="M185 384q-20 20 -20 49t20 49.5t49 20.5t49 -20.5t20 -49.5t-20 -49t-49 -20t-49 20zM78 -167q-59 47 -59 141q0 44 13.5 74.5t32.5 49.5t50 42q38 29 55.5 51.5t17.5 59.5v34h98v-42q0 -44 -13.5 -74.5t-32.5 -50t-50 -43.5q-35 -27 -52.5 -48.5t-17.5 -55.5
q0 -43 29 -65.5t83 -22.5q60 0 91 30.5t30 88.5h103q-1 -101 -62.5 -158.5t-163.5 -57.5q-93 0 -152 47z" />
    <glyph glyph-name="periodcentered.ss03" horiz-adv-x="213" 
d="M44 301.5q-20 20.5 -20 49.5t20 49t49 20t49 -20t20 -49t-20 -49.5t-49 -20.5t-49 20.5z" />
    <glyph glyph-name="bullet.ss03" horiz-adv-x="312" 
d="M73 154.5q-34 34.5 -34 82.5t34.5 83t82.5 35t82.5 -34.5t34.5 -83.5q0 -48 -34.5 -82.5t-82.5 -34.5q-49 0 -83 34.5z" />
    <glyph glyph-name="twodotenleader.ss03" horiz-adv-x="426" 
d="M66 10.5q-20 20.5 -20 49.5t20 49t49 20q30 0 49.5 -20t19.5 -49q0 -30 -19.5 -50t-49.5 -20q-29 0 -49 20.5zM262 10.5q-20 20.5 -20 49.5t19.5 49t49.5 20q29 0 48.5 -20t19.5 -49t-20 -49.5t-48 -20.5q-29 0 -49 20.5z" />
    <glyph glyph-name="uni037E.ss03" horiz-adv-x="260" 
d="M105 348q-20 20 -20 49t20 49t49 20t49 -20t20 -49t-20 -49t-49 -20t-49 20zM98 -149h-77l74 279h130z" />
    <glyph glyph-name="divide.ss03" horiz-adv-x="501" 
d="M202 440q-20 20 -20 49t19.5 49t48.5 20t49 -20t20 -49t-20 -49t-49 -20q-28 0 -48 20zM471 252h-441v86h441v-86zM202 52.5q-20 20.5 -20 49.5t20 48.5t48 19.5q29 0 49 -19.5t20 -48.5q0 -30 -20 -50t-49 -20q-28 0 -48 20.5z" />
    <glyph glyph-name="uni030C.alt" 
d="M-126 474h-68l56 223h122z" />
    <glyph glyph-name="uni030A.case" 
d="M-230 561.5q-33 33.5 -33 79.5q0 47 33 79.5t80 32.5q46 0 79 -32.5t33 -79.5t-33 -80t-79 -33q-47 0 -80 33.5zM-114.5 605.5q13.5 14.5 13.5 36.5t-13 35.5t-36 13.5t-36.5 -14t-13.5 -35q0 -22 14 -36.5t36 -14.5t35.5 14.5z" />
    <glyph glyph-name="uni0337.case" 
d="M-14 365l-294 -233v119l294 232v-118z" />
    <glyph glyph-name="uni0338.case" 
d="M-499 0h-80l521 697h79z" />
    <glyph glyph-name="uni0308.ss03" 
d="M-367 588.5q-20 20.5 -20 49.5t20 49t49 20t49 -20t20 -49t-20 -49.5t-49 -20.5t-49 20.5zM-163 588.5q-20 20.5 -20 49.5t19.5 49t48.5 20t49 -20t20 -49t-20 -49.5t-49 -20.5q-28 0 -48 20.5z" />
    <glyph glyph-name="uni0307.ss03" 
d="M-163 588.5q-20 20.5 -20 49.5t20 49t49 20t49 -20t20 -49t-20 -49.5t-49 -20.5t-49 20.5z" />
    <glyph glyph-name="dotbelowcomb.ss03" 
d="M-163 -175.5q-20 20.5 -20 49.5t20 49t49 20t49 -20t20 -49t-20 -49.5t-49 -20.5t-49 20.5z" />
    <glyph glyph-name="dieresis.ss03" horiz-adv-x="432" 
d="M65 588.5q-20 20.5 -20 49.5t20 49t49 20t49 -20t20 -49t-20 -49.5t-49 -20.5t-49 20.5zM269 588.5q-20 20.5 -20 49.5t19.5 49t48.5 20t49 -20t20 -49t-20 -49.5t-49 -20.5q-28 0 -48 20.5z" />
    <glyph glyph-name="dotaccent.ss03" horiz-adv-x="228" 
d="M65 588.5q-20 20.5 -20 49.5t20 49t49 20t49 -20t20 -49t-20 -49.5t-49 -20.5t-49 20.5z" />
    <glyph glyph-name="tonos.case" horiz-adv-x="232" 
d="M118 555h-85l66 142h109z" />
    <glyph glyph-name="dieresistonos.ss03" horiz-adv-x="490" 
d="M338 792l-74 -209l-57 13l41 215zM38 579.5q-20 20.5 -20 49.5t20 49t49 20t48.5 -20t19.5 -49t-20 -49.5t-48 -20.5q-29 0 -49 20.5zM352 579.5q-20 20.5 -20 49.5t19.5 49t48.5 20t49 -20t20 -49t-20 -49.5t-49 -20.5q-28 0 -48 20.5z" />
    <glyph glyph-name="uni03060301" 
d="M-361 697h82q0 -32 20.5 -48.5t53.5 -16.5t53 17t20 48h82q0 -132 -155 -132q-156 0 -156 132zM-163 759h-85l111 142h125z" />
    <glyph glyph-name="uni03060300" 
d="M-318 697h82q0 -32 20.5 -48.5t53.5 -16.5t53 17t20 48h82q0 -132 -155 -132q-156 0 -156 132zM-120 759h-86l-141 142h123z" />
    <glyph glyph-name="uni03060309" 
d="M-333 697h82q0 -32 20.5 -48.5t53.5 -16.5t53 17t20 48h82q0 -132 -155 -132q-156 0 -156 132zM-212 768q6 1 25.5 4.5t29.5 12.5t10 25q0 23 -22 31.5t-59 8.5h-16v72h16q74 0 118.5 -27.5t44.5 -76.5q0 -36 -20 -55.5t-47 -28t-67 -14.5z" />
    <glyph glyph-name="uni03060303" 
d="M-361 697h82q0 -32 20.5 -48.5t53.5 -16.5t53 17t20 48h82q0 -132 -155 -132q-156 0 -156 132zM-191 773.5q-19 11.5 -39 32.5q-14 14 -22 20t-19 6q-16 1 -24.5 -16.5t-8.5 -50.5h-67q0 66 28 102.5t77 36.5q26 0 44 -11.5t39 -32.5q16 -15 24 -21t19 -6q13 0 22 18
t9 50h70q0 -67 -27.5 -103t-75.5 -36q-30 0 -49 11.5z" />
    <glyph glyph-name="uni03020301" 
d="M-270 542h-89l155 172l155 -172h-89l-66 74zM-162 743h-85l111 142h125z" />
    <glyph glyph-name="uni03020300" 
d="M-219 542h-89l155 172l155 -172h-89l-66 74zM-110 743h-86l-141 142h123z" />
    <glyph glyph-name="uni03020309" 
d="M-4 542h-89l-66 74l-66 -74h-90l149 164l-14 -2l-13 48q4 1 24 4t30.5 12.5t10.5 25.5q0 23 -22 31.5t-60 8.5h-15v72h15q74 0 119 -27.5t45 -76.5q0 -44 -29.5 -64t-78.5 -30z" />
    <glyph glyph-name="uni03020303" 
d="M-254 542h-89l155 172l155 -172h-89l-66 74zM-174 757.5q-19 11.5 -39 32.5q-14 14 -22 20t-19 6q-16 1 -24.5 -16.5t-8.5 -50.5h-67q0 66 28 102.5t77 36.5q26 0 44 -11.5t39 -32.5q16 -15 24 -21t19 -6q13 0 22 18t9 50h70q0 -67 -27.5 -103t-75.5 -36q-30 0 -49 11.5z
" />
    <glyph glyph-name="IJacute" horiz-adv-x="813" 
d="M189 0h-120v697h120v-697zM172 759h-85l111 142h125zM351 46.5q-63 61.5 -70 169.5l119 13q4 -68 32.5 -100t83.5 -32q60 0 86.5 38.5t26.5 114.5v340h-264v107h385v-454q0 -120 -63 -189t-171 -69q-102 0 -165 61.5zM600 759h-85l111 142h125z" />
    <glyph glyph-name="ijacute" horiz-adv-x="491" 
d="M180 0h-115v493h115v-493zM165 555h-85l111 142h125zM223 -199v100q28 -7 44 -7q22 0 32.5 10.5t10.5 39.5v549h116v-580q0 -63 -31.5 -95t-85.5 -32q-38 0 -86 15zM411 555h-85l111 142h125z" />
    </font>
</defs>
</svg>
