<?xml version="1.0" standalone="no"?>
<!DOCTYPE svg PUBLIC "-//W3C//DTD SVG 1.1//EN" "http://www.w3.org/Graphics/SVG/1.1/DTD/svg11.dtd" >
<svg xmlns="http://www.w3.org/2000/svg" xmlns:xlink="http://www.w3.org/1999/xlink" version="1.1">
<metadata>
Created by FontForge 20170731 at Tue Oct 13 14:56:58 2015
 By Aleksey,,,
Copyright (c) 2015 by Mattox Shuler. All rights reserved.
</metadata>
<defs>
<font id="Termina-Regular" horiz-adv-x="899" >
  <font-face 
    font-family="Termina"
    font-weight="400"
    font-stretch="normal"
    units-per-em="1000"
    panose-1="0 0 5 0 0 0 0 0 0 0"
    ascent="800"
    descent="-200"
    x-height="545"
    cap-height="700"
    bbox="-382 -299 1548 1086"
    underline-thickness="50"
    underline-position="-200"
    unicode-range="U+0020-FB02"
  />
<missing-glyph horiz-adv-x="505" 
d="M414 770v-1010h-320v1010h320zM336 702h-166v-33h65v-37h-66v-34h167v34h-66v37h66v33zM270 572h-101v-105h167v34h-66v71zM235 538v-37h-33v37h33zM336 440h-167v-34h66v-37h-66v-33h101v70h66v34zM336 379h-33v-67h-134v-34h167v101zM336 256h-101v-57h35v24h33v-48
h-101v81h-33v-114h167v114zM336 81h-167v-114h167v114zM303 48v-48h-101v48h101zM336 -56h-167v-34h70l-70 -47v-33h167v33h-103l71 47h32v34z" />
    <glyph glyph-name="fi" unicode="fi" horiz-adv-x="765" 
d="M319 697q-107 0 -107 -94v-58h250v-70h-250v-475h-82v475h-110v70h110v45q0 84 51.5 127t129.5 43q93 0 158 -50l-39 -52q-52 39 -111 39zM622 735q25 0 41.5 -15t16.5 -38q0 -22 -16.5 -37.5t-41.5 -15.5t-41.5 15.5t-16.5 37.5q0 23 16.5 38t41.5 15zM581 0v545h82
v-545h-82z" />
    <glyph glyph-name="fl" unicode="fl" horiz-adv-x="765" 
d="M319 697q-107 0 -107 -94v-58h250v-70h-250v-475h-82v475h-110v70h110v45q0 84 51.5 127t129.5 43q93 0 158 -50l-39 -52q-52 39 -111 39zM581 740h82v-740h-82v740z" />
    <glyph glyph-name=".notdef" horiz-adv-x="505" 
d="M414 770v-1010h-320v1010h320zM336 702h-166v-33h65v-37h-66v-34h167v34h-66v37h66v33zM270 572h-101v-105h167v34h-66v71zM235 538v-37h-33v37h33zM336 440h-167v-34h66v-37h-66v-33h101v70h66v34zM336 379h-33v-67h-134v-34h167v101zM336 256h-101v-57h35v24h33v-48
h-101v81h-33v-114h167v114zM336 81h-167v-114h167v114zM303 48v-48h-101v48h101zM336 -56h-167v-34h70l-70 -47v-33h167v33h-103l71 47h32v34z" />
    <glyph glyph-name=".null" horiz-adv-x="0" 
 />
    <glyph glyph-name="nonmarkingreturn" horiz-adv-x="333" 
 />
    <glyph glyph-name="space" unicode=" " horiz-adv-x="320" 
 />
    <glyph glyph-name="exclam" unicode="!" horiz-adv-x="314" 
d="M98 700h104l-17 -507h-70zM150 -10q-26 0 -43 15.5t-17 39.5t17 40t43 16t43 -16t17 -40t-17 -39.5t-43 -15.5z" />
    <glyph glyph-name="quotedbl" unicode="&#x22;" horiz-adv-x="440" 
d="M87 740h72v-283h-72v283zM280 740h72v-283h-72v283z" />
    <glyph glyph-name="numbersign" unicode="#" horiz-adv-x="948" 
d="M894 451h-172l-54 -189h191v-63h-209l-57 -199h-74l57 199h-293l-57 -199h-74l57 199h-155v63h173l54 189h-192v63h210l53 186h74l-53 -186h293l53 186h74l-53 -186h154v-63zM594 262l54 189h-293l-54 -189h293z" />
    <glyph glyph-name="dollar" unicode="$" horiz-adv-x="877" 
d="M823 213q0 -94 -89.5 -152t-245.5 -62v-103h-73v105q-216 14 -360 142l60 60q131 -113 300 -126v246q-49 5 -86.5 10.5t-78 14.5t-69.5 22.5t-53.5 32t-36.5 44t-12 57.5q0 91 97 142.5t239 54.5v93h73v-96q181 -16 302 -120l-62 -55q-91 85 -240 99v-226
q65 -6 112 -13.5t91.5 -21t71.5 -32.5t43.5 -48t16.5 -68zM165 507q0 -29 17.5 -48t55.5 -30t76.5 -16.5t100.5 -10.5v223q-64 -1 -117.5 -11.5t-93 -38t-39.5 -68.5zM488 75q118 3 183.5 36.5t65.5 95.5q0 55 -57 76t-192 33v-241z" />
    <glyph glyph-name="percent" unicode="%" horiz-adv-x="914" 
d="M219 396q-77 0 -126 45.5t-49 112.5t49 112.5t126 45.5t126 -45.5t49 -112.5t-49 -112.5t-126 -45.5zM689 700h78l-542 -700h-78zM219 454q49 0 80 27t31 73t-31 73t-80 27t-80 -27t-31 -73t31 -73t80 -27zM695 -12q-77 0 -126 45.5t-49 112.5t49 112.5t126 45.5
t126 -45.5t49 -112.5t-49 -112.5t-126 -45.5zM695 46q49 0 80 27t31 73t-31 73t-80 27t-80 -27t-31 -73t31 -73t80 -27z" />
    <glyph glyph-name="ampersand" unicode="&#x26;" horiz-adv-x="894" 
d="M888 0h-131l-75 55q-100 -75 -268 -75q-150 0 -250 67t-100 166q0 61 39 113t106 80q-60 57 -60 125q0 85 71.5 137t185.5 52q115 0 188 -52t108 -133l-74 -30q-60 139 -223 139q-80 0 -125 -29.5t-45 -79.5q0 -27 18 -53t39.5 -43.5t67.5 -51.5q15 -11 22 -16l292 -214
q50 65 51 171h82q-2 -131 -69 -218zM420 56q120 0 196 47l-319 235q-25 18 -31 23q-115 -45 -115 -143q0 -79 77.5 -120.5t191.5 -41.5z" />
    <glyph glyph-name="quotesingle" unicode="'" horiz-adv-x="247" 
d="M87 740h72v-283h-72v283z" />
    <glyph glyph-name="parenleft" unicode="(" horiz-adv-x="430" 
d="M135 290q0 -137 67.5 -233t184.5 -136l-27 -59q-136 40 -217.5 156t-81.5 272t81.5 272t217.5 156l27 -59q-117 -40 -184.5 -136t-67.5 -233z" />
    <glyph glyph-name="parenright" unicode=")" horiz-adv-x="430" 
d="M295 290q0 137 -67.5 233t-184.5 136l27 59q136 -40 217.5 -156t81.5 -272t-81.5 -272t-217.5 -156l-27 59q117 40 184.5 136t67.5 233z" />
    <glyph glyph-name="asterisk" unicode="*" horiz-adv-x="572" 
d="M366 299l-80 168l-80 -168l-60 35l104 152l-184 -14v71l184 -14l-104 151l60 35l80 -168l80 168l60 -35l-104 -151l184 14v-71l-184 14l104 -152z" />
    <glyph glyph-name="plus" unicode="+" horiz-adv-x="740" 
d="M652 333v-68h-245v-220h-72v220h-246v68h246v220h72v-220h245z" />
    <glyph glyph-name="comma" unicode="," horiz-adv-x="263" 
d="M133 101q27 0 44.5 -17.5t17.5 -46.5q0 -42 -22 -92t-60 -85l-27 23q53 61 60 111q-4 -4 -16 -4q-24 0 -40 16t-16 40q0 23 17 39t42 16z" />
    <glyph glyph-name="hyphen" unicode="-" horiz-adv-x="598" 
d="M512 263h-427v72h427v-72z" />
    <glyph glyph-name="period" unicode="." horiz-adv-x="256" 
d="M128 -10q-26 0 -43 15.5t-17 39.5t17 40t43 16t43 -16t17 -40t-17 -39.5t-43 -15.5z" />
    <glyph glyph-name="slash" unicode="/" horiz-adv-x="687" 
d="M126 -100h-94l530 880h94z" />
    <glyph glyph-name="zero" unicode="0" horiz-adv-x="940" 
d="M470 -21q-191 0 -298.5 99.5t-107.5 271.5t107.5 271.5t298.5 99.5t298.5 -99.5t107.5 -271.5t-107.5 -271.5t-298.5 -99.5zM470 57q150 0 235 75.5t85 217.5t-85 217.5t-235 75.5t-235 -75.5t-85 -217.5t85 -217.5t235 -75.5z" />
    <glyph glyph-name="one" unicode="1" horiz-adv-x="450" 
d="M250 0v595q-86 -71 -218 -92v76q121 18 238 121h64v-700h-84z" />
    <glyph glyph-name="two" unicode="2" horiz-adv-x="813" 
d="M69 542q44 78 136.5 128t208.5 50q130 0 227 -57t97 -154q0 -44 -19.5 -78.5t-61 -62.5t-87.5 -48.5t-116 -44.5q-267 -94 -298 -201h598v-74h-705v41q17 89 110.5 165.5t249.5 133.5q53 19 80.5 30t64 28.5t54.5 32t31 34.5t13 43q0 66 -71 102t-170 36
q-177 0 -278 -146z" />
    <glyph glyph-name="three" unicode="3" horiz-adv-x="834" 
d="M118 192q40 -65 123.5 -101.5t189.5 -36.5q107 0 179 37.5t72 107.5q0 129 -280 129h-91v74h91q109 0 182.5 31.5t73.5 90.5q0 39 -35.5 67.5t-87 41.5t-109.5 13q-202 0 -289 -125l-73 39q111 160 350 160q139 0 234.5 -52t95.5 -140q0 -66 -53 -109.5t-121 -50.5
q35 -4 68 -15t64 -31t50 -52.5t19 -74.5q0 -99 -97.5 -157t-245.5 -58q-132 0 -229 45.5t-155 126.5z" />
    <glyph glyph-name="four" unicode="4" horiz-adv-x="858" 
d="M821 245v-72h-153v-173h-84v173h-555v57l565 470h74v-455h153zM156 245h428v352z" />
    <glyph glyph-name="five" unicode="5" horiz-adv-x="832" 
d="M116 197q50 -68 133.5 -105t186.5 -37q118 0 190 40.5t72 117.5q0 78 -75.5 118t-206.5 40t-264 -58l-70 31l60 356h569v-75h-499l-41 -241q66 33 128.5 45t143.5 12q148 0 244.5 -58.5t96.5 -171.5q0 -100 -95 -166t-253 -66q-121 0 -221 47t-164 126z" />
    <glyph glyph-name="six" unicode="6" horiz-adv-x="881" 
d="M512 444q130 0 221.5 -58.5t91.5 -168.5q0 -106 -97 -172t-260 -66q-189 0 -296.5 100.5t-107.5 270.5t107.5 270.5t296.5 100.5q216 0 329 -125l-66 -49q-92 102 -259 102q-149 0 -235.5 -75t-86.5 -224q0 -26 3 -50q58 67 150 105.5t209 38.5zM468 51q124 0 197.5 43.5
t73.5 122.5t-68.5 117.5t-176.5 38.5q-93 0 -182.5 -38t-143.5 -104q30 -90 108 -135t192 -45z" />
    <glyph glyph-name="seven" unicode="7" horiz-adv-x="748" 
d="M214 0l407 624h-596v76h702v-62l-412 -638h-101z" />
    <glyph glyph-name="eight" unicode="8" horiz-adv-x="883" 
d="M614 369q48 -4 92.5 -22.5t79 -59.5t34.5 -95q0 -99 -104 -156t-274 -57q-171 0 -274.5 57t-103.5 156q0 54 34.5 95t79 59.5t92.5 22.5q-73 7 -126 47.5t-53 109.5q0 91 99 143t252 52t252 -52.5t99 -142.5q0 -69 -53 -109.5t-126 -47.5zM176 524q0 -63 75 -94t191 -31
t191 31t75 94t-75 94t-191 31t-191 -31t-75 -94zM441 51q134 0 212.5 35t78.5 105q0 66 -79.5 103t-211.5 37q-131 0 -210.5 -37t-79.5 -103t79.5 -103t210.5 -37z" />
    <glyph glyph-name="nine" unicode="9" horiz-adv-x="881" 
d="M413 721q189 0 296.5 -100.5t107.5 -270.5t-107.5 -270.5t-296.5 -100.5q-217 0 -329 125l66 49q92 -102 259 -102q149 0 235.5 75t86.5 224q0 26 -3 50q-58 -67 -150 -105.5t-209 -38.5q-130 0 -221.5 58.5t-91.5 168.5q0 106 97 172t260 66zM387 327q93 0 182.5 38
t143.5 104q-30 90 -108 135t-192 45q-124 0 -197.5 -43.5t-73.5 -122.5t68.5 -117.5t176.5 -38.5z" />
    <glyph glyph-name="colon" unicode=":" horiz-adv-x="256" 
d="M128 444q-26 0 -43 15.5t-17 39.5t17 40t43 16t43 -16t17 -40t-17 -39.5t-43 -15.5zM128 -10q-26 0 -43 15.5t-17 39.5t17 40t43 16t43 -16t17 -40t-17 -39.5t-43 -15.5z" />
    <glyph glyph-name="semicolon" unicode=";" horiz-adv-x="258" 
d="M128 444q-26 0 -43 15.5t-17 39.5t17 40t43 16t43 -16t17 -40t-17 -39.5t-43 -15.5zM128 101q27 0 44.5 -17.5t17.5 -46.5q0 -42 -22 -92t-60 -85l-27 23q53 61 60 111q-4 -4 -16 -4q-24 0 -40 16t-16 40q0 23 17 39t42 16z" />
    <glyph glyph-name="less" unicode="&#x3c;" horiz-adv-x="740" 
d="M616 553l-520 -220v-72l520 -220v76l-438 180l438 180v76z" />
    <glyph glyph-name="equal" unicode="=" horiz-adv-x="740" 
d="M652 382h-563v76h563v-76zM652 147h-563v76h563v-76z" />
    <glyph glyph-name="greater" unicode="&#x3e;" horiz-adv-x="740" 
d="M124 553v-76l438 -180l-438 -180v-76l520 220v72z" />
    <glyph glyph-name="question" unicode="?" horiz-adv-x="739" 
d="M326 201v185q278 17 278 134q0 42 -32.5 71.5t-81 42t-107.5 12.5q-187 0 -280 -135l-65 41q53 78 143 123t205 45q79 0 146.5 -22t112.5 -68.5t45 -109.5q0 -86 -79.5 -136t-210.5 -59v-124h-74zM365 -10q-26 0 -43 15.5t-17 39.5t17 40t43 16t43 -16t17 -40t-17 -39.5
t-43 -15.5z" />
    <glyph glyph-name="at" unicode="@" horiz-adv-x="1112" 
d="M553 685q216 0 353.5 -115t137.5 -298q0 -125 -40 -185t-107 -60q-53 0 -90.5 32t-45.5 81q-34 -56 -102 -90t-147 -34q-117 0 -194.5 70.5t-77.5 186.5t77.5 186t194.5 70q79 0 146 -34t100 -90l21 105h49v-319q0 -125 79 -125q41 0 67.5 51t26.5 155q0 116 -61.5 202
t-162 128.5t-224.5 42.5t-224.5 -42.5t-162 -128.5t-61.5 -202t61.5 -202t162 -128t224.5 -42q178 0 287 79l22 -34q-112 -85 -309 -85q-216 0 -353.5 115t-137.5 297q0 183 137.5 298t353.5 115zM530 79q76 0 135.5 34.5t90.5 101.5v114q-31 67 -90.5 101.5t-135.5 34.5
q-97 0 -157 -51t-60 -142t60 -142t157 -51z" />
    <glyph glyph-name="A" unicode="A" horiz-adv-x="896" 
d="M785 0l-102 188h-472l-102 -188h-93l385 700h94l385 -700h-95zM252 264h390l-195 359z" />
    <glyph glyph-name="B" unicode="B" horiz-adv-x="926" 
d="M675 360q190 -12 190 -168q0 -94 -69.5 -143t-193.5 -49h-486v700h466q110 0 176.5 -46t66.5 -132q0 -64 -38.5 -110t-111.5 -52zM199 624v-228h371q171 0 171 114t-171 114h-371zM587 76q191 0 191 122t-191 122h-388v-244h388z" />
    <glyph glyph-name="C" unicode="C" horiz-adv-x="887" 
d="M487 57q200 0 277 134l80 -40q-51 -81 -142.5 -126.5t-216.5 -45.5q-195 0 -308 100t-113 271t113.5 271t310.5 100q123 0 214 -46t142 -126l-80 -40q-79 134 -277 134q-156 0 -246.5 -75.5t-90.5 -217.5t90.5 -217.5t246.5 -75.5z" />
    <glyph glyph-name="D" unicode="D" horiz-adv-x="940" 
d="M456 700q192 0 306 -94.5t114 -255.5t-114 -255.5t-306 -94.5h-340v700h340zM450 78q154 0 247 70.5t93 201.5t-93 201.5t-247 70.5h-250v-544h250z" />
    <glyph glyph-name="E" unicode="E" horiz-adv-x="850" 
d="M200 78h593v-78h-677v700h667v-78h-583v-227h494v-78h-494v-239z" />
    <glyph glyph-name="F" unicode="F" horiz-adv-x="818" 
d="M782 622h-582v-245h494v-78h-494v-299h-84v700h666v-78z" />
    <glyph glyph-name="G" unicode="G" horiz-adv-x="948" 
d="M887 364v-194q-45 -85 -148 -138t-244 -53q-202 0 -316.5 99.5t-114.5 271.5t114 271.5t314 99.5q231 0 356 -146l-73 -51q-95 119 -283 119q-160 0 -251 -75t-91 -218t92 -218t256 -75q231 0 305 138v91h-318v78h402z" />
    <glyph glyph-name="H" unicode="H" horiz-adv-x="976" 
d="M776 700h84v-700h-84v315h-576v-315h-84v700h84v-305h576v305z" />
    <glyph glyph-name="I" unicode="I" horiz-adv-x="316" 
d="M200 0h-84v700h84v-700z" />
    <glyph glyph-name="J" unicode="J" horiz-adv-x="691" 
d="M88 144q30 -45 75 -66t118 -21q115 0 169.5 63t54.5 175v405h84v-410q0 -66 -18 -121t-54 -98t-96.5 -67.5t-139.5 -24.5q-184 0 -264 118z" />
    <glyph glyph-name="K" unicode="K" horiz-adv-x="881" 
d="M872 0h-107l-332 376l-233 -182v-194h-84v700h84v-410l530 410h120l-349 -275z" />
    <glyph glyph-name="L" unicode="L" horiz-adv-x="759" 
d="M200 78h536v-78h-620v700h84v-622z" />
    <glyph glyph-name="M" unicode="M" horiz-adv-x="1116" 
d="M910 700h90v-700h-84v582l-356 -431h-6l-356 431v-582h-82v700h92l351 -428z" />
    <glyph glyph-name="N" unicode="N" horiz-adv-x="976" 
d="M778 700h82v-700h-74l-588 593v-593h-82v700h91l571 -577v577z" />
    <glyph glyph-name="O" unicode="O" horiz-adv-x="980" 
d="M490 -21q-199 0 -312.5 99.5t-113.5 271.5t113.5 271.5t312.5 99.5t312.5 -99.5t113.5 -271.5t-113.5 -271.5t-312.5 -99.5zM490 57q157 0 248.5 77t91.5 216t-91.5 216t-248.5 77t-248.5 -77t-91.5 -216t91.5 -216t248.5 -77z" />
    <glyph glyph-name="P" unicode="P" horiz-adv-x="895" 
d="M584 700q122 0 195 -59t73 -163t-73 -163t-195 -59h-384v-256h-84v700h468zM578 334q88 0 138 36t50 108t-50 108t-138 36h-378v-288h378z" />
    <glyph glyph-name="Q" unicode="Q" horiz-adv-x="980" 
d="M916 350q0 -201 -153 -301l105 -113l-54 -50l-119 128q-88 -35 -205 -35q-199 0 -312.5 99.5t-113.5 271.5t113.5 271.5t312.5 99.5t312.5 -99.5t113.5 -271.5zM490 57q82 0 146 21l-113 122l54 50l129 -139q124 75 124 239q0 139 -91.5 216t-248.5 77t-248.5 -77
t-91.5 -216t91.5 -216t248.5 -77z" />
    <glyph glyph-name="R" unicode="R" horiz-adv-x="925" 
d="M876 0h-110l-232 268h-333v-268h-85v700h470q120 0 194 -57.5t74 -158.5q0 -90 -59 -145.5t-158 -67.5zM200 346h380q88 0 138 34.5t50 103.5t-50 103.5t-138 34.5h-380v-276z" />
    <glyph glyph-name="S" unicode="S" horiz-adv-x="864" 
d="M455 399q86 -7 147.5 -19t112 -33.5t76 -57.5t25.5 -86q0 -99 -96 -161.5t-263 -62.5q-245 0 -409 144l59 63q146 -129 355 -129q126 0 197 37.5t71 102.5q0 31 -18 52.5t-58.5 34.5t-89 20.5t-126.5 14.5t-137.5 18.5t-114.5 33t-84.5 57.5t-29.5 86q0 95 103 151
t250 56q109 0 201.5 -34t156.5 -91l-66 -56q-103 101 -288 103q-49 0 -95.5 -7t-86.5 -21t-64.5 -39.5t-24.5 -58.5q0 -31 21.5 -53t67 -34.5t91 -18.5t117.5 -12z" />
    <glyph glyph-name="T" unicode="T" horiz-adv-x="789" 
d="M767 700v-76h-331v-624h-84v624h-330v76h745z" />
    <glyph glyph-name="U" unicode="U" horiz-adv-x="943" 
d="M757 700h84v-370q0 -158 -96.5 -254.5t-272.5 -96.5t-273 96.5t-97 254.5v370h84v-365q0 -130 75 -204t211 -74q135 0 210 74t75 204v365z" />
    <glyph glyph-name="V" unicode="V" horiz-adv-x="866" 
d="M16 700h95l323 -609l323 609h93l-371 -700h-92z" />
    <glyph glyph-name="W" unicode="W" horiz-adv-x="1203" 
d="M1083 700h90l-257 -700h-89l-225 599l-226 -599h-89l-257 700h92l211 -598l227 598h85l226 -598z" />
    <glyph glyph-name="X" unicode="X" horiz-adv-x="805" 
d="M785 700l-327 -347l329 -353h-110l-276 294l-276 -294h-107l329 352l-327 348h110l274 -291l274 291h107z" />
    <glyph glyph-name="Y" unicode="Y" horiz-adv-x="823" 
d="M18 700h101l294 -379l292 379h100l-351 -455v-245h-84v245z" />
    <glyph glyph-name="Z" unicode="Z" horiz-adv-x="848" 
d="M778 700v-62l-596 -562h612v-76h-740v62l596 562h-578v76h706z" />
    <glyph glyph-name="bracketleft" unicode="[" horiz-adv-x="429" 
d="M386 634h-200v-688h200v-66h-270v820h270v-66z" />
    <glyph glyph-name="backslash" unicode="\" horiz-adv-x="724" 
d="M561 -100l-530 880h94l530 -880h-94z" />
    <glyph glyph-name="bracketright" unicode="]" horiz-adv-x="429" 
d="M43 634v66h270v-820h-270v66h200v688h-200z" />
    <glyph glyph-name="asciicircum" unicode="^" horiz-adv-x="740" 
d="M105 260h84l181 357l181 -357h84l-229 440h-72z" />
    <glyph glyph-name="underscore" unicode="_" horiz-adv-x="634" 
d="M630 -129h-626v66h626v-66z" />
    <glyph glyph-name="grave" unicode="`" horiz-adv-x="582" 
d="M137 930h134l165 -150h-78z" />
    <glyph glyph-name="a" unicode="a" horiz-adv-x="746" 
d="M359 565q139 0 217 -67.5t78 -195.5v-196q0 -62 26 -106h-87q-23 39 -23 87v2q-35 -48 -99 -78.5t-148 -30.5q-48 0 -94 10t-89 31.5t-69 60.5t-26 91q0 51 26 90.5t68.5 60.5t89 31.5t94.5 10.5q84 0 148.5 -30.5t98.5 -78.5v45q0 98 -56 145t-169 47q-115 0 -214 -63
l-38 60q49 33 121 53.5t145 20.5zM572 163v20q-33 59 -99 87t-143 28q-34 0 -66.5 -5.5t-65 -18.5t-52.5 -39t-20 -62t20 -62t52.5 -39t65 -18.5t66.5 -5.5q76 0 142.5 28t99.5 87z" />
    <glyph glyph-name="b" unicode="b" horiz-adv-x="798" 
d="M444 565q136 0 216 -80t80 -213t-80 -212.5t-216 -79.5q-88 0 -156.5 33.5t-106.5 91.5v-105h-82v740h82v-300q38 58 106.5 91.5t156.5 33.5zM423 53q112 0 173 57t61 162q0 106 -61 163t-173 57q-165 0 -242 -133v-173q77 -133 242 -133z" />
    <glyph glyph-name="c" unicode="c" horiz-adv-x="716" 
d="M675 117q-86 -138 -287 -138q-154 0 -242 79t-88 214t88 214.5t242 79.5q192 0 284 -131l-80 -40q-28 50 -83.5 74t-119.5 24q-112 0 -180 -56.5t-68 -164.5q0 -107 68 -163.5t180 -56.5q65 0 121.5 25t83.5 76z" />
    <glyph glyph-name="d" unicode="d" horiz-adv-x="798" 
d="M354 565q88 0 156.5 -33.5t106.5 -91.5v300h82v-740h-82v105q-38 -58 -106.5 -91.5t-156.5 -33.5q-136 0 -216 79.5t-80 212.5t80 213t216 80zM375 53q165 0 242 133v173q-77 133 -242 133q-112 0 -173 -57t-61 -163q0 -105 61 -162t173 -57z" />
    <glyph glyph-name="e" unicode="e" horiz-adv-x="755" 
d="M141 255q6 -101 73.5 -153.5t179.5 -52.5q79 0 133.5 20.5t102.5 65.5l54 -57q-109 -99 -294 -99q-157 0 -244.5 78.5t-87.5 214.5t87 215t240 79q147 0 232.5 -77t85.5 -216q0 -10 -2 -18h-560zM386 496q-97 0 -161.5 -44.5t-79.5 -128.5h475q-17 87 -79.5 130
t-154.5 43z" />
    <glyph glyph-name="f" unicode="f" horiz-adv-x="479" 
d="M212 603v-58h250v-70h-250v-475h-82v475h-110v70h110v45q0 84 51.5 127t129.5 43q93 0 158 -50l-39 -52q-52 39 -111 39q-107 0 -107 -94z" />
    <glyph glyph-name="g" unicode="g" horiz-adv-x="798" 
d="M699 545v-485q0 -94 -45 -159t-116 -93t-162 -28q-72 0 -145 20.5t-117 52.5l39 63q96 -63 215 -63q121 0 185 49.5t64 147.5v55q-38 -57 -109.5 -91t-153.5 -34q-136 0 -216 79.5t-80 212.5t80 213t216 80q88 0 156.5 -33.5t106.5 -91.5v105h82zM375 53q165 0 242 133
v173q-77 133 -242 133q-112 0 -173 -57t-61 -163q0 -105 61 -162t173 -57z" />
    <glyph glyph-name="h" unicode="h" horiz-adv-x="788" 
d="M441 565q123 0 186.5 -70.5t63.5 -186.5v-308h-82v302q0 190 -184 190q-170 0 -244 -150v-342h-82v740h82v-308q39 63 106.5 98t153.5 35z" />
    <glyph glyph-name="i" unicode="i" horiz-adv-x="286" 
d="M143 629q-25 0 -41.5 15.5t-16.5 37.5q0 23 16.5 38t41.5 15t41.5 -15t16.5 -38q0 -22 -16.5 -37.5t-41.5 -15.5zM184 545v-545h-82v545h82z" />
    <glyph glyph-name="j" unicode="j" horiz-adv-x="286" 
d="M143 629q-25 0 -41.5 15t-16.5 37t16.5 37t41.5 15t41.5 -15t16.5 -37t-16.5 -37t-41.5 -15zM102 545h82v-606q0 -74 -42 -116.5t-113 -42.5q-54 0 -96 20l25 67q22 -12 54 -12q43 0 66.5 26.5t23.5 72.5v591z" />
    <glyph glyph-name="k" unicode="k" horiz-adv-x="694" 
d="M586 0l-241 283l-164 -128v-155h-82v740h82v-502l380 307h108l-260 -215l277 -330h-100z" />
    <glyph glyph-name="l" unicode="l" horiz-adv-x="286" 
d="M184 0h-82v740h82v-740z" />
    <glyph glyph-name="m" unicode="m" horiz-adv-x="1233" 
d="M901 565q119 0 177 -70.5t58 -184.5v-310h-81v304q0 89 -43 138.5t-132 49.5q-154 0 -223 -151q1 -10 1 -31v-243l1 -67h-82v304q0 89 -43 138.5t-132 49.5q-152 0 -221 -148v-344h-82v545h82v-113q34 61 98 97t144 36q91 0 146.5 -42t75.5 -115q32 72 100.5 114.5
t155.5 42.5z" />
    <glyph glyph-name="n" unicode="n" horiz-adv-x="788" 
d="M181 0h-82v545h82v-113q39 63 106.5 98t153.5 35q123 0 186.5 -70.5t63.5 -186.5v-308h-82v302q0 190 -184 190q-170 0 -244 -150v-342z" />
    <glyph glyph-name="o" unicode="o" horiz-adv-x="778" 
d="M389 -21q-155 0 -243 78.5t-88 214.5t88 215t243 79t243 -79t88 -215t-88 -214.5t-243 -78.5zM389 52q111 0 179.5 56.5t68.5 163.5t-68.5 164t-179.5 57t-179.5 -57t-68.5 -164t68.5 -163.5t179.5 -56.5z" />
    <glyph glyph-name="p" unicode="p" horiz-adv-x="798" 
d="M444 -20q-88 0 -156.5 33.5t-106.5 91.5v-305h-82v745h82v-105q38 58 106.5 91.5t156.5 33.5q136 0 216 -79.5t80 -212.5t-80 -213t-216 -80zM423 492q-165 0 -242 -133v-173q77 -133 242 -133q112 0 173 57t61 163q0 105 -61 162t-173 57z" />
    <glyph glyph-name="q" unicode="q" horiz-adv-x="798" 
d="M354 -20q-136 0 -216 80t-80 213t80 212.5t216 79.5q88 0 156.5 -33.5t106.5 -91.5v105h82v-745h-82v305q-38 -58 -106.5 -91.5t-156.5 -33.5zM375 492q-112 0 -173 -57t-61 -162q0 -106 61 -163t173 -57q165 0 242 133v173q-77 133 -242 133z" />
    <glyph glyph-name="r" unicode="r" horiz-adv-x="470" 
d="M181 0h-82v545h82v-134q32 68 106.5 106.5t164.5 38.5v-74q-96 0 -168.5 -42t-102.5 -122v-318z" />
    <glyph glyph-name="s" unicode="s" horiz-adv-x="691" 
d="M363 316q284 -23 284 -160q0 -77 -75 -127t-210 -50q-185 0 -318 117l52 49q116 -98 268 -98q88 0 145 26.5t57 74.5t-52.5 68t-167.5 30q-60 5 -105.5 14t-88 25.5t-65 46t-22.5 69.5q0 78 78 121.5t203 43.5q78 0 151 -26.5t122 -66.5l-52 -55q-91 79 -225 80
q-47 1 -88.5 -6.5t-74.5 -29.5t-33 -56q0 -25 16 -41.5t49.5 -26t66.5 -14t85 -8.5z" />
    <glyph glyph-name="t" unicode="t" horiz-adv-x="483" 
d="M438 90l29 -59q-73 -51 -158 -51q-78 0 -128.5 41t-50.5 117v335h-110v72h110v127h82v-127h251v-72h-251v-323q0 -48 31.5 -72.5t79.5 -24.5q52 0 115 37z" />
    <glyph glyph-name="u" unicode="u" horiz-adv-x="788" 
d="M607 545h82v-545h-82v113q-39 -63 -106.5 -98t-153.5 -35q-123 0 -186.5 70.5t-63.5 186.5v308h82v-302q0 -190 184 -190q170 0 244 150v342z" />
    <glyph glyph-name="v" unicode="v" horiz-adv-x="706" 
d="M684 545l-286 -545h-90l-286 545h93l239 -463l239 463h91z" />
    <glyph glyph-name="w" unicode="w" horiz-adv-x="988" 
d="M873 545h83l-204 -545h-84l-173 456l-175 -456h-84l-204 545h85l166 -452l172 452h80l172 -452z" />
    <glyph glyph-name="x" unicode="x" horiz-adv-x="656" 
d="M630 545l-249 -270l251 -275h-103l-202 224l-202 -224h-101l252 274l-250 271h103l200 -222l200 222h101z" />
    <glyph glyph-name="y" unicode="y" horiz-adv-x="707" 
d="M595 545h90l-425 -745h-89l141 238l-290 507h92l242 -424z" />
    <glyph glyph-name="z" unicode="z" horiz-adv-x="667" 
d="M609 545v-60l-446 -414h458v-72h-577v60l446 414h-432v72h551z" />
    <glyph glyph-name="braceleft" unicode="{" horiz-adv-x="454" 
d="M261 478q0 -88 -42 -136.5t-112 -50.5q70 -4 112 -52.5t42 -135.5q0 -71 30.5 -114t89.5 -43h30v-66h-39q-87 0 -134.5 53.5t-47.5 152.5q0 54 -14 91.5t-40 55.5t-54 25.5t-64 7.5v49q36 0 64 7.5t54 25.5t40 55.5t14 91.5q0 99 47.5 152t134.5 53h39v-66h-30
q-59 0 -89.5 -43t-30.5 -113z" />
    <glyph glyph-name="bar" unicode="|" horiz-adv-x="294" 
d="M108 -120v820h78v-820h-78z" />
    <glyph glyph-name="braceright" unicode="}" horiz-adv-x="454" 
d="M193 478q0 70 -30.5 113t-89.5 43h-30v66h39q87 0 134.5 -53t47.5 -152q0 -54 14 -91.5t40 -55.5t54 -25.5t64 -7.5v-49q-36 0 -64 -7.5t-54 -25.5t-40 -55.5t-14 -91.5q0 -99 -47.5 -152.5t-134.5 -53.5h-39v66h30q59 0 89.5 43t30.5 114q0 87 42 135.5t112 52.5
q-70 2 -112 50.5t-42 136.5z" />
    <glyph glyph-name="asciitilde" unicode="~" horiz-adv-x="740" 
d="M610 361l49 -44q-21 -34 -62 -58.5t-99 -24.5q-48 0 -129.5 28.5t-125.5 28.5q-78 0 -110 -54l-49 44q22 34 62 58.5t97 24.5q49 0 130.5 -28.5t126.5 -28.5q76 0 110 54z" />
    <glyph glyph-name="exclamdown" unicode="&#xa1;" horiz-adv-x="314" 
d="M150 510q26 0 43 -15.5t17 -39.5t-17 -40t-43 -16t-43 16t-17 40t17 39.5t43 15.5zM98 -200l17 507h70l17 -507h-104z" />
    <glyph glyph-name="cent" unicode="&#xa2;" horiz-adv-x="726" 
d="M669 212q-34 -57 -98.5 -93t-152.5 -42v-77h-68v77q-135 9 -211 81t-76 192t76 192t211 81v77h68v-77q174 -12 250 -132l-67 -31q-55 85 -183 93v-406q124 7 183 95zM137 350q0 -94 55.5 -144t157.5 -58v404q-102 -8 -157.5 -58t-55.5 -144z" />
    <glyph glyph-name="sterling" unicode="&#xa3;" horiz-adv-x="740" 
d="M256 72h418v-72h-500h-118v72h118v248h-118v68h118v62q0 113 68.5 192t196.5 79q70 0 131 -28t97 -73l-49 -50q-73 79 -175 79q-93 0 -140 -55.5t-47 -150.5v-55h360v-68h-360v-248z" />
    <glyph glyph-name="currency" unicode="&#xa4;" horiz-adv-x="806" 
d="M703 356q0 -117 -74 -191l99 -99l-45 -42l-104 103q-74 -43 -176 -43q-101 0 -176 42l-104 -102l-45 42l99 99q-74 72 -74 191q0 108 62 179l-87 87l45 42l90 -87q77 51 190 51q115 0 190 -52l90 88l45 -42l-87 -87q62 -71 62 -179zM175 356q0 -100 61 -152t167 -52
t167 52t61 152t-61 152t-167 52t-167 -52t-61 -152z" />
    <glyph glyph-name="yen" unicode="&#xa5;" horiz-adv-x="844" 
d="M808 700l-297 -375h191v-49h-230l-7 -9v-70h237v-49h-237v-148h-84v148h-237v49h237v70l-7 9h-230v49h191l-298 375h101l286 -367l284 367h100z" />
    <glyph glyph-name="brokenbar" unicode="&#xa6;" horiz-adv-x="294" 
d="M108 373v327h78v-327h-78zM186 212v-332h-78v332h78z" />
    <glyph glyph-name="section" unicode="&#xa7;" horiz-adv-x="727" 
d="M556 161q104 -41 104 -125q0 -77 -75.5 -127t-210.5 -50q-186 0 -317 117l54 48q112 -97 265 -97q89 0 146 26.5t57 74.5t-52.5 68t-167.5 30q-60 5 -105.5 14t-88 25.5t-65 46t-22.5 69.5q0 51 32.5 89.5t89.5 59.5q-115 37 -115 126q0 78 78 121.5t203 43.5
q78 0 150.5 -26.5t121.5 -66.5l-49 -55q-97 79 -223 80q-39 0 -72.5 -4t-63.5 -14t-47 -29t-17 -45q0 -25 16 -41.5t49.5 -26t66.5 -14t85 -8.5q284 -23 284 -160q0 -103 -111 -150zM159 292q0 -25 16.5 -42.5t48.5 -28t67.5 -16t84.5 -9.5q41 -3 79 -9q59 13 95 43.5
t36 67.5q0 48 -54 70.5t-166 32.5l-36 3q-73 -6 -122 -35.5t-49 -76.5z" />
    <glyph glyph-name="dieresis" unicode="&#xa8;" horiz-adv-x="576" 
d="M158 793q-23 0 -38 14.5t-15 33.5q0 20 15 34.5t38 14.5q22 0 37 -14.5t15 -34.5q0 -19 -15 -33.5t-37 -14.5zM418 793q-23 0 -38 14.5t-15 33.5q0 20 15 34.5t38 14.5q22 0 37 -14.5t15 -34.5q0 -19 -15 -33.5t-37 -14.5z" />
    <glyph glyph-name="copyright" unicode="&#xa9;" horiz-adv-x="978" 
d="M489 -21q-197 0 -311 101t-114 270t114 270t311 101t311 -101t114 -270t-114 -270t-311 -101zM489 14q179 0 283 88.5t104 247.5t-104 247.5t-283 88.5t-283.5 -88.5t-104.5 -247.5t104.5 -247.5t283.5 -88.5zM751 224q-40 -59 -107 -94t-156 -35q-131 0 -209.5 69
t-78.5 187t78.5 187t209.5 69q89 0 155 -34.5t104 -92.5l-62 -30q-62 95 -193 95q-102 0 -162.5 -50t-60.5 -144t60.5 -144t162.5 -50q131 0 196 98z" />
    <glyph glyph-name="ordfeminine" unicode="&#xaa;" horiz-adv-x="571" 
d="M275 720q96 0 149.5 -46t53.5 -134v-136q0 -41 21 -72h-63q-18 23 -18 58v2q-18 -35 -63 -54.5t-104 -19.5q-75 0 -133.5 32t-58.5 98t58.5 98t133.5 32q59 0 104 -19.5t63 -54.5v36q0 130 -153 130q-84 0 -146 -40l-25 43q76 47 181 47zM418 440v17q-18 39 -62 58.5
t-98 19.5q-32 0 -60 -5.5t-53.5 -26.5t-25.5 -55q0 -26 14 -44.5t37 -26.5t44 -11.5t44 -3.5q54 0 98 19.5t62 58.5z" />
    <glyph glyph-name="guillemotleft" unicode="&#xab;" horiz-adv-x="635" 
d="M258 513l-211 -214l211 -214h92l-212 214l212 214h-92zM481 513l-211 -214l211 -214h92l-212 214l212 214h-92z" />
    <glyph glyph-name="logicalnot" unicode="&#xac;" horiz-adv-x="740" 
d="M86 332h570v-270h-77v199h-493v71z" />
    <glyph glyph-name="registered" unicode="&#xae;" horiz-adv-x="579" 
d="M289 710q99 0 162.5 -56.5t63.5 -149.5t-63.5 -149.5t-162.5 -56.5t-162 56.5t-63 149.5t63 149.5t162 56.5zM289 321q89 0 144.5 49.5t55.5 133.5t-55.5 133.5t-144.5 49.5q-90 0 -145 -49.5t-55 -133.5t55 -133.5t145 -49.5zM410 546q0 -27 -17.5 -44.5t-48.5 -22.5
l71 -79h-44l-69 78h-81v-78h-37v213h140q39 0 62.5 -18t23.5 -49zM220 506h94q57 0 57 39t-57 39h-94v-78z" />
    <glyph glyph-name="macron" unicode="&#xaf;" horiz-adv-x="568" 
d="M91 874h386v-69h-386v69z" />
    <glyph glyph-name="degree" unicode="&#xb0;" horiz-adv-x="431" 
d="M216 434q-69 0 -112 39t-43 100q0 60 43 99.5t112 39.5q68 0 111 -39t43 -100t-42.5 -100t-111.5 -39zM215 488q45 0 70 23t25 62t-25 62t-70 23q-44 0 -69 -23t-25 -62t25 -62t69 -23z" />
    <glyph glyph-name="plusminus" unicode="&#xb1;" horiz-adv-x="740" 
d="M406 415h246v-66h-246v-213h-72v213h-245v66h245v213h72v-213zM89 21v66h563v-66h-563z" />
    <glyph glyph-name="uni00B2" unicode="&#xb2;" horiz-adv-x="469" 
d="M44 791q70 99 198 99q72 0 125.5 -32.5t53.5 -88.5q0 -49 -39 -80.5t-115 -60.5q-75 -29 -115.5 -54t-49.5 -56h328v-50h-396v34q18 101 199 169q85 34 105 50q26 20 26 47q0 34 -37.5 53.5t-87.5 19.5q-95 0 -152 -76z" />
    <glyph glyph-name="uni00B3" unicode="&#xb3;" horiz-adv-x="484" 
d="M82 580q48 -75 159 -75q59 0 100 22t41 61q0 74 -148 74h-52v46h52q134 0 134 64q0 34 -38.5 51.5t-92.5 17.5q-98 0 -144 -66l-45 27q23 40 76.5 64t118.5 24q75 0 129 -29.5t54 -80.5q0 -39 -30.5 -65t-71.5 -29q47 -6 82.5 -32t35.5 -72q0 -57 -56 -91.5t-143 -34.5
q-70 0 -126.5 28t-83.5 74z" />
    <glyph glyph-name="acute" unicode="&#xb4;" horiz-adv-x="582" 
d="M445 930l-221 -150h-78l165 150h134z" />
    <glyph glyph-name="paragraph" unicode="&#xb6;" horiz-adv-x="911" 
d="M313 700h482v-700h-74v631h-150v-631h-74v260h-184q-124 0 -197 58t-73 162q0 103 73 161.5t197 58.5zM497 329v302h-183q-94 0 -146 -39t-52 -112t52 -112t146 -39h183z" />
    <glyph glyph-name="periodcentered" unicode="&#xb7;" horiz-adv-x="256" 
d="M128 230q-26 0 -43 15.5t-17 39.5t17 40t43 16t43 -16t17 -40t-17 -39.5t-43 -15.5z" />
    <glyph glyph-name="cedilla" unicode="&#xb8;" horiz-adv-x="580" 
d="M326 -52l-119 -158l-69 18l103 156z" />
    <glyph glyph-name="uni00B9" unicode="&#xb9;" horiz-adv-x="273" 
d="M145 467v338q-43 -37 -120 -49v50q71 10 134 70h43v-409h-57z" />
    <glyph glyph-name="ordmasculine" unicode="&#xba;" horiz-adv-x="578" 
d="M289 318q-106 0 -167 54t-61 147t61 147t167 54q107 0 167.5 -54t60.5 -147t-60.5 -147t-167.5 -54zM289 371q80 0 124.5 38t44.5 110t-44.5 110t-124.5 38q-79 0 -124 -38t-45 -110t45 -110t124 -38z" />
    <glyph glyph-name="guillemotright" unicode="&#xbb;" horiz-adv-x="635" 
d="M154 513h-92l212 -214l-212 -214h92l211 214zM377 513h-92l212 -214l-212 -214h92l211 214z" />
    <glyph glyph-name="onequarter" unicode="&#xbc;" horiz-adv-x="969" 
d="M145 291v338q-43 -37 -120 -49v50q71 10 134 70h43v-409h-57zM232 0h-65l437 700h65zM942 149v-48h-83v-101h-55v101h-308v36l313 272h50v-260h83zM575 149h229v192z" />
    <glyph glyph-name="onehalf" unicode="&#xbd;" horiz-adv-x="987" 
d="M145 291v338q-43 -37 -120 -49v50q71 10 134 70h43v-409h-57zM224 0h-65l437 700h65zM562 323q70 99 198 99q72 0 125.5 -32.5t53.5 -88.5q0 -49 -39 -80.5t-115 -60.5q-75 -29 -115.5 -54t-49.5 -56h328v-50h-396v34q18 101 199 169q85 34 105 50q26 20 26 47
q0 34 -37.5 53.5t-87.5 19.5q-95 0 -152 -76z" />
    <glyph glyph-name="threequarters" unicode="&#xbe;" horiz-adv-x="1156" 
d="M82 403q48 -75 159 -75q59 0 100 22t41 61q0 74 -148 74h-52v46h52q134 0 134 64q0 34 -38.5 51.5t-92.5 17.5q-98 0 -144 -66l-45 27q23 40 76.5 64t118.5 24q75 0 129 -29.5t54 -80.5q0 -39 -30.5 -65t-71.5 -29q47 -6 82.5 -32t35.5 -72q0 -57 -56 -91.5t-143 -34.5
q-70 0 -126.5 28t-83.5 74zM419 0h-65l437 700h65zM1129 149v-48h-83v-101h-55v101h-308v36l313 272h50v-260h83zM762 149h229v192z" />
    <glyph glyph-name="questiondown" unicode="&#xbf;" horiz-adv-x="739" 
d="M374 555q26 0 43 -15.5t17 -39.5t-17 -40t-43 -16t-43 16t-17 40t17 39.5t43 15.5zM413 344v-185q-278 -17 -278 -134q0 -42 32.5 -71.5t81 -42t107.5 -12.5q187 0 280 135l65 -41q-53 -78 -143 -123t-205 -45q-79 0 -146.5 22t-112.5 68.5t-45 109.5q0 86 79.5 136
t210.5 59v124h74z" />
    <glyph glyph-name="Agrave" unicode="&#xc0;" horiz-adv-x="896" 
d="M536 780h-78l-221 150h134zM785 0l-102 188h-472l-102 -188h-93l385 700h94l385 -700h-95zM252 264h390l-195 359z" />
    <glyph glyph-name="Aacute" unicode="&#xc1;" horiz-adv-x="896" 
d="M660 930l-221 -150h-78l165 150h134zM785 0l-102 188h-472l-102 -188h-93l385 700h94l385 -700h-95zM252 264h390l-195 359z" />
    <glyph glyph-name="Acircumflex" unicode="&#xc2;" horiz-adv-x="896" 
d="M447 883l-106 -103h-95l156 150h91l156 -150h-95zM785 0l-102 188h-472l-102 -188h-93l385 700h94l385 -700h-95zM252 264h390l-195 359z" />
    <glyph glyph-name="Atilde" unicode="&#xc3;" horiz-adv-x="896" 
d="M344 858q-59 0 -94 -52l-49 32q45 85 147 85q45 0 106 -28.5t98 -28.5q57 0 94 52l49 -32q-18 -35 -55 -60t-92 -25q-46 0 -107 28.5t-97 28.5zM785 0l-102 188h-472l-102 -188h-93l385 700h94l385 -700h-95zM252 264h390l-195 359z" />
    <glyph glyph-name="Adieresis" unicode="&#xc4;" horiz-adv-x="896" 
d="M318 793q-23 0 -38 14.5t-15 33.5q0 20 15 34.5t38 14.5q22 0 37 -14.5t15 -34.5q0 -19 -15 -33.5t-37 -14.5zM578 793q-23 0 -38 14.5t-15 33.5q0 20 15 34.5t38 14.5q22 0 37 -14.5t15 -34.5q0 -19 -15 -33.5t-37 -14.5zM785 0l-102 188h-472l-102 -188h-93l385 700h94
l385 -700h-95zM252 264h390l-195 359z" />
    <glyph glyph-name="Aring" unicode="&#xc5;" horiz-adv-x="896" 
d="M448 773q-56 0 -92.5 27.5t-36.5 79.5q0 51 37 79t92 28t92 -28t37 -79q0 -52 -36.5 -79.5t-92.5 -27.5zM449 941q-32 0 -51 -16t-19 -45t19 -45t51 -16t51 16t19 45t-19 45t-51 16zM785 0l-102 188h-472l-102 -188h-93l385 700h94l385 -700h-95zM252 264h390l-195 359z
" />
    <glyph glyph-name="AE" unicode="&#xc6;" horiz-adv-x="1386" 
d="M736 78h593v-78h-677v178h-400l-156 -178h-102l616 700h57h652v-78h-583v-227h494v-78h-494v-239zM319 254h333v380z" />
    <glyph glyph-name="Ccedilla" unicode="&#xc7;" horiz-adv-x="887" 
d="M487 57q200 0 277 134l80 -40q-51 -81 -142.5 -126.5t-216.5 -45.5q-195 0 -308 100t-113 271t113.5 271t310.5 100q123 0 214 -46t142 -126l-80 -40q-79 134 -277 134q-156 0 -246.5 -75.5t-90.5 -217.5t90.5 -217.5t246.5 -75.5zM513 -52l-119 -158l-69 18l103 156z
" />
    <glyph glyph-name="Egrave" unicode="&#xc8;" horiz-adv-x="850" 
d="M234 930h134l165 -150h-78zM200 78h593v-78h-677v700h667v-78h-583v-227h494v-78h-494v-239z" />
    <glyph glyph-name="Eacute" unicode="&#xc9;" horiz-adv-x="850" 
d="M657 930l-221 -150h-78l165 150h134zM200 78h593v-78h-677v700h667v-78h-583v-227h494v-78h-494v-239z" />
    <glyph glyph-name="Ecircumflex" unicode="&#xca;" horiz-adv-x="850" 
d="M243 780h95l106 103l107 -103h95l-156 150h-91zM200 78h593v-78h-677v700h667v-78h-583v-227h494v-78h-494v-239z" />
    <glyph glyph-name="Edieresis" unicode="&#xcb;" horiz-adv-x="850" 
d="M315 793q-23 0 -38 14.5t-15 33.5q0 20 15 34.5t38 14.5q22 0 37 -14.5t15 -34.5q0 -19 -15 -33.5t-37 -14.5zM575 793q-23 0 -38 14.5t-15 33.5q0 20 15 34.5t38 14.5q22 0 37 -14.5t15 -34.5q0 -19 -15 -33.5t-37 -14.5zM200 78h593v-78h-677v700h667v-78h-583v-227
h494v-78h-494v-239z" />
    <glyph glyph-name="Igrave" unicode="&#xcc;" horiz-adv-x="316" 
d="M-53 930h134l165 -150h-78zM200 0h-84v700h84v-700z" />
    <glyph glyph-name="Iacute" unicode="&#xcd;" horiz-adv-x="316" 
d="M370 930l-221 -150h-78l165 150h134zM200 0h-84v700h84v-700z" />
    <glyph glyph-name="Icircumflex" unicode="&#xce;" horiz-adv-x="316" 
d="M-44 780h95l106 103l107 -103h95l-156 150h-91zM200 0h-84v700h84v-700z" />
    <glyph glyph-name="Idieresis" unicode="&#xcf;" horiz-adv-x="316" 
d="M28 793q-23 0 -38 14.5t-15 33.5q0 20 15 34.5t38 14.5q22 0 37 -14.5t15 -34.5q0 -19 -15 -33.5t-37 -14.5zM288 793q-23 0 -38 14.5t-15 33.5q0 20 15 34.5t38 14.5q22 0 37 -14.5t15 -34.5q0 -19 -15 -33.5t-37 -14.5zM200 0h-84v700h84v-700z" />
    <glyph glyph-name="Eth" unicode="&#xd0;" horiz-adv-x="952" 
d="M468 700q192 0 306 -94.5t114 -255.5t-114 -255.5t-306 -94.5h-340v322h-105v70h105v308h340zM462 78q155 0 247.5 69.5t92.5 202.5t-92.5 202.5t-247.5 69.5h-250v-230h228v-70h-228v-244h250z" />
    <glyph glyph-name="Ntilde" unicode="&#xd1;" horiz-adv-x="976" 
d="M687 918l49 -32q-18 -35 -55 -60t-92 -25q-46 0 -107 28.5t-97 28.5q-59 0 -94 -52l-49 32q45 85 147 85q45 0 106 -28.5t98 -28.5q57 0 94 52zM778 700h82v-700h-74l-588 593v-593h-82v700h91l571 -577v577z" />
    <glyph glyph-name="Ograve" unicode="&#xd2;" horiz-adv-x="980" 
d="M279 930h134l165 -150h-78zM490 -21q-199 0 -312.5 99.5t-113.5 271.5t113.5 271.5t312.5 99.5t312.5 -99.5t113.5 -271.5t-113.5 -271.5t-312.5 -99.5zM490 57q157 0 248.5 77t91.5 216t-91.5 216t-248.5 77t-248.5 -77t-91.5 -216t91.5 -216t248.5 -77z" />
    <glyph glyph-name="Oacute" unicode="&#xd3;" horiz-adv-x="980" 
d="M702 930l-221 -150h-78l165 150h134zM490 -21q-199 0 -312.5 99.5t-113.5 271.5t113.5 271.5t312.5 99.5t312.5 -99.5t113.5 -271.5t-113.5 -271.5t-312.5 -99.5zM490 57q157 0 248.5 77t91.5 216t-91.5 216t-248.5 77t-248.5 -77t-91.5 -216t91.5 -216t248.5 -77z" />
    <glyph glyph-name="Ocircumflex" unicode="&#xd4;" horiz-adv-x="980" 
d="M288 780h95l106 103l107 -103h95l-156 150h-91zM490 -21q-199 0 -312.5 99.5t-113.5 271.5t113.5 271.5t312.5 99.5t312.5 -99.5t113.5 -271.5t-113.5 -271.5t-312.5 -99.5zM490 57q157 0 248.5 77t91.5 216t-91.5 216t-248.5 77t-248.5 -77t-91.5 -216t91.5 -216
t248.5 -77z" />
    <glyph glyph-name="Otilde" unicode="&#xd5;" horiz-adv-x="980" 
d="M688 918l49 -32q-18 -35 -55 -60t-92 -25q-46 0 -107 28.5t-97 28.5q-59 0 -94 -52l-49 32q45 85 147 85q45 0 106 -28.5t98 -28.5q57 0 94 52zM490 -21q-199 0 -312.5 99.5t-113.5 271.5t113.5 271.5t312.5 99.5t312.5 -99.5t113.5 -271.5t-113.5 -271.5t-312.5 -99.5z
M490 57q157 0 248.5 77t91.5 216t-91.5 216t-248.5 77t-248.5 -77t-91.5 -216t91.5 -216t248.5 -77z" />
    <glyph glyph-name="Odieresis" unicode="&#xd6;" horiz-adv-x="980" 
d="M360 793q-23 0 -38 14.5t-15 33.5q0 20 15 34.5t38 14.5q22 0 37 -14.5t15 -34.5q0 -19 -15 -33.5t-37 -14.5zM620 793q-23 0 -38 14.5t-15 33.5q0 20 15 34.5t38 14.5q22 0 37 -14.5t15 -34.5q0 -19 -15 -33.5t-37 -14.5zM490 -21q-199 0 -312.5 99.5t-113.5 271.5
t113.5 271.5t312.5 99.5t312.5 -99.5t113.5 -271.5t-113.5 -271.5t-312.5 -99.5zM490 57q157 0 248.5 77t91.5 216t-91.5 216t-248.5 77t-248.5 -77t-91.5 -216t91.5 -216t248.5 -77z" />
    <glyph glyph-name="multiply" unicode="&#xd7;" horiz-adv-x="743" 
d="M614 489l-190 -188l190 -189l-53 -54l-190 190l-190 -188l-51 52l189 188l-189 189l53 53l189 -189l189 189z" />
    <glyph glyph-name="Oslash" unicode="&#xd8;" horiz-adv-x="980" 
d="M764 651q152 -99 152 -301q0 -172 -113.5 -271.5t-312.5 -99.5q-118 0 -209 37l-82 -108h-91l108 142q-152 98 -152 300q0 172 113.5 271.5t312.5 99.5q117 0 208 -37l82 108h91zM150 350q0 -157 116 -234l382 502q-72 25 -158 25q-157 0 -248.5 -77t-91.5 -216zM490 57
q157 0 248.5 77t91.5 216q0 156 -117 235l-381 -502q70 -26 158 -26z" />
    <glyph glyph-name="Ugrave" unicode="&#xd9;" horiz-adv-x="943" 
d="M261 930h134l165 -150h-78zM757 700h84v-370q0 -158 -96.5 -254.5t-272.5 -96.5t-273 96.5t-97 254.5v370h84v-365q0 -130 75 -204t211 -74q135 0 210 74t75 204v365z" />
    <glyph glyph-name="Uacute" unicode="&#xda;" horiz-adv-x="943" 
d="M684 930l-221 -150h-78l165 150h134zM757 700h84v-370q0 -158 -96.5 -254.5t-272.5 -96.5t-273 96.5t-97 254.5v370h84v-365q0 -130 75 -204t211 -74q135 0 210 74t75 204v365z" />
    <glyph glyph-name="Ucircumflex" unicode="&#xdb;" horiz-adv-x="943" 
d="M270 780h95l106 103l107 -103h95l-156 150h-91zM757 700h84v-370q0 -158 -96.5 -254.5t-272.5 -96.5t-273 96.5t-97 254.5v370h84v-365q0 -130 75 -204t211 -74q135 0 210 74t75 204v365z" />
    <glyph glyph-name="Udieresis" unicode="&#xdc;" horiz-adv-x="943" 
d="M342 793q-23 0 -38 14.5t-15 33.5q0 20 15 34.5t38 14.5q22 0 37 -14.5t15 -34.5q0 -19 -15 -33.5t-37 -14.5zM602 793q-23 0 -38 14.5t-15 33.5q0 20 15 34.5t38 14.5q22 0 37 -14.5t15 -34.5q0 -19 -15 -33.5t-37 -14.5zM757 700h84v-370q0 -158 -96.5 -254.5
t-272.5 -96.5t-273 96.5t-97 254.5v370h84v-365q0 -130 75 -204t211 -74q135 0 210 74t75 204v365z" />
    <glyph glyph-name="Yacute" unicode="&#xdd;" horiz-adv-x="823" 
d="M625 930l-221 -150h-78l165 150h134zM18 700h101l294 -379l292 379h100l-351 -455v-245h-84v245z" />
    <glyph glyph-name="Thorn" unicode="&#xde;" horiz-adv-x="895" 
d="M585 579q121 0 194 -59.5t73 -162.5q0 -104 -73 -163t-194 -59h-385v-135h-84v700h84v-121h385zM579 209q88 0 137.5 37t49.5 111t-49.5 111t-137.5 37h-379v-296h379z" />
    <glyph glyph-name="germandbls" unicode="&#xdf;" horiz-adv-x="776" 
d="M311 81q60 -20 129 -20q94 0 145 38t51 110q0 73 -51 110t-148 37h-76v68h42q93 0 144 33.5t51 98.5q0 68 -53.5 100t-140.5 32q-109 0 -166 -54.5t-57 -153.5v-480h-82v470q0 129 79 209.5t226 80.5q119 0 197.5 -53t78.5 -142q0 -66 -44 -112.5t-120 -57.5
q87 -7 145.5 -58t58.5 -138q0 -94 -70.5 -151.5t-190.5 -57.5q-93 0 -172 28z" />
    <glyph glyph-name="agrave" unicode="&#xe0;" horiz-adv-x="746" 
d="M160 775h134l165 -150h-78zM359 565q139 0 217 -67.5t78 -195.5v-196q0 -62 26 -106h-87q-23 39 -23 87v2q-35 -48 -99 -78.5t-148 -30.5q-48 0 -94 10t-89 31.5t-69 60.5t-26 91q0 51 26 90.5t68.5 60.5t89 31.5t94.5 10.5q84 0 148.5 -30.5t98.5 -78.5v45q0 98 -56 145
t-169 47q-115 0 -214 -63l-38 60q49 33 121 53.5t145 20.5zM572 163v20q-33 59 -99 87t-143 28q-34 0 -66.5 -5.5t-65 -18.5t-52.5 -39t-20 -62t20 -62t52.5 -39t65 -18.5t66.5 -5.5q76 0 142.5 28t99.5 87z" />
    <glyph glyph-name="aacute" unicode="&#xe1;" horiz-adv-x="746" 
d="M583 775l-221 -150h-78l165 150h134zM359 565q139 0 217 -67.5t78 -195.5v-196q0 -62 26 -106h-87q-23 39 -23 87v2q-35 -48 -99 -78.5t-148 -30.5q-48 0 -94 10t-89 31.5t-69 60.5t-26 91q0 51 26 90.5t68.5 60.5t89 31.5t94.5 10.5q84 0 148.5 -30.5t98.5 -78.5v45
q0 98 -56 145t-169 47q-115 0 -214 -63l-38 60q49 33 121 53.5t145 20.5zM572 163v20q-33 59 -99 87t-143 28q-34 0 -66.5 -5.5t-65 -18.5t-52.5 -39t-20 -62t20 -62t52.5 -39t65 -18.5t66.5 -5.5q76 0 142.5 28t99.5 87z" />
    <glyph glyph-name="acircumflex" unicode="&#xe2;" horiz-adv-x="746" 
d="M169 625h95l106 103l107 -103h95l-156 150h-91zM359 565q139 0 217 -67.5t78 -195.5v-196q0 -62 26 -106h-87q-23 39 -23 87v2q-35 -48 -99 -78.5t-148 -30.5q-48 0 -94 10t-89 31.5t-69 60.5t-26 91q0 51 26 90.5t68.5 60.5t89 31.5t94.5 10.5q84 0 148.5 -30.5
t98.5 -78.5v45q0 98 -56 145t-169 47q-115 0 -214 -63l-38 60q49 33 121 53.5t145 20.5zM572 163v20q-33 59 -99 87t-143 28q-34 0 -66.5 -5.5t-65 -18.5t-52.5 -39t-20 -62t20 -62t52.5 -39t65 -18.5t66.5 -5.5q76 0 142.5 28t99.5 87z" />
    <glyph glyph-name="atilde" unicode="&#xe3;" horiz-adv-x="746" 
d="M569 763l49 -32q-18 -35 -55 -60t-92 -25q-46 0 -107 28.5t-97 28.5q-59 0 -94 -52l-49 32q45 85 147 85q45 0 106 -28.5t98 -28.5q57 0 94 52zM359 565q139 0 217 -67.5t78 -195.5v-196q0 -62 26 -106h-87q-23 39 -23 87v2q-35 -48 -99 -78.5t-148 -30.5q-48 0 -94 10
t-89 31.5t-69 60.5t-26 91q0 51 26 90.5t68.5 60.5t89 31.5t94.5 10.5q84 0 148.5 -30.5t98.5 -78.5v45q0 98 -56 145t-169 47q-115 0 -214 -63l-38 60q49 33 121 53.5t145 20.5zM572 163v20q-33 59 -99 87t-143 28q-34 0 -66.5 -5.5t-65 -18.5t-52.5 -39t-20 -62t20 -62
t52.5 -39t65 -18.5t66.5 -5.5q76 0 142.5 28t99.5 87z" />
    <glyph glyph-name="adieresis" unicode="&#xe4;" horiz-adv-x="746" 
d="M241 638q-23 0 -38 14.5t-15 33.5q0 20 15 34.5t38 14.5q22 0 37 -14.5t15 -34.5q0 -19 -15 -33.5t-37 -14.5zM501 638q-23 0 -38 14.5t-15 33.5q0 20 15 34.5t38 14.5q22 0 37 -14.5t15 -34.5q0 -19 -15 -33.5t-37 -14.5zM359 565q139 0 217 -67.5t78 -195.5v-196
q0 -62 26 -106h-87q-23 39 -23 87v2q-35 -48 -99 -78.5t-148 -30.5q-48 0 -94 10t-89 31.5t-69 60.5t-26 91q0 51 26 90.5t68.5 60.5t89 31.5t94.5 10.5q84 0 148.5 -30.5t98.5 -78.5v45q0 98 -56 145t-169 47q-115 0 -214 -63l-38 60q49 33 121 53.5t145 20.5zM572 163v20
q-33 59 -99 87t-143 28q-34 0 -66.5 -5.5t-65 -18.5t-52.5 -39t-20 -62t20 -62t52.5 -39t65 -18.5t66.5 -5.5q76 0 142.5 28t99.5 87z" />
    <glyph glyph-name="aring" unicode="&#xe5;" horiz-adv-x="746" 
d="M371 618q-56 0 -92.5 27.5t-36.5 79.5q0 51 37 79t92 28t92 -28t37 -79q0 -52 -36.5 -79.5t-92.5 -27.5zM302 725q0 -29 19 -45t51 -16t51 16t19 45t-19 45t-51 16t-51 -16t-19 -45zM359 565q139 0 217 -67.5t78 -195.5v-196q0 -62 26 -106h-87q-23 39 -23 87v2
q-35 -48 -99 -78.5t-148 -30.5q-48 0 -94 10t-89 31.5t-69 60.5t-26 91q0 51 26 90.5t68.5 60.5t89 31.5t94.5 10.5q84 0 148.5 -30.5t98.5 -78.5v45q0 98 -56 145t-169 47q-115 0 -214 -63l-38 60q49 33 121 53.5t145 20.5zM572 163v20q-33 59 -99 87t-143 28
q-34 0 -66.5 -5.5t-65 -18.5t-52.5 -39t-20 -62t20 -62t52.5 -39t65 -18.5t66.5 -5.5q76 0 142.5 28t99.5 87z" />
    <glyph glyph-name="ae" unicode="&#xe6;" horiz-adv-x="1260" 
d="M654 255v-55q36 -151 245 -151q79 0 133.5 20t103.5 65l53 -56q-109 -99 -294 -99q-209 0 -291 135q-36 -65 -114.5 -99.5t-166.5 -34.5q-48 0 -94 10t-89 31.5t-69 60.5t-26 91q0 51 26 90.5t68.5 60.5t89 31.5t94.5 10.5q85 0 149 -31.5t98 -82.5v50q0 194 -225 194
q-116 0 -216 -64l-33 64q109 69 263 69q186 0 257 -115q85 116 274 116q147 0 232.5 -77t85.5 -216q0 -10 -2 -18h-552zM891 497q-205 0 -239 -159q1 -5 1 -13h471q-30 172 -233 172zM572 163v20q-33 60 -99 88t-143 28q-34 0 -66.5 -5.5t-65 -18.5t-52.5 -39.5t-20 -62.5
t20 -62.5t52.5 -39.5t65 -18.5t66.5 -5.5q76 0 142.5 28.5t99.5 87.5z" />
    <glyph glyph-name="ccedilla" unicode="&#xe7;" horiz-adv-x="716" 
d="M675 117q-86 -138 -287 -138q-154 0 -242 79t-88 214t88 214.5t242 79.5q192 0 284 -131l-80 -40q-28 50 -83.5 74t-119.5 24q-112 0 -180 -56.5t-68 -164.5q0 -107 68 -163.5t180 -56.5q65 0 121.5 25t83.5 76zM414 -52l-119 -158l-69 18l103 156z" />
    <glyph glyph-name="egrave" unicode="&#xe8;" horiz-adv-x="755" 
d="M473 625h-78l-221 150h134zM141 255q6 -101 73.5 -153.5t179.5 -52.5q79 0 133.5 20.5t102.5 65.5l54 -57q-109 -99 -294 -99q-157 0 -244.5 78.5t-87.5 214.5t87 215t240 79q147 0 232.5 -77t85.5 -216q0 -10 -2 -18h-560zM386 496q-97 0 -161.5 -44.5t-79.5 -128.5h475
q-17 87 -79.5 130t-154.5 43z" />
    <glyph glyph-name="eacute" unicode="&#xe9;" horiz-adv-x="755" 
d="M597 775l-221 -150h-78l165 150h134zM141 255q6 -101 73.5 -153.5t179.5 -52.5q79 0 133.5 20.5t102.5 65.5l54 -57q-109 -99 -294 -99q-157 0 -244.5 78.5t-87.5 214.5t87 215t240 79q147 0 232.5 -77t85.5 -216q0 -10 -2 -18h-560zM386 496q-97 0 -161.5 -44.5
t-79.5 -128.5h475q-17 87 -79.5 130t-154.5 43z" />
    <glyph glyph-name="ecircumflex" unicode="&#xea;" horiz-adv-x="755" 
d="M384 728l-106 -103h-95l156 150h91l156 -150h-95zM141 255q6 -101 73.5 -153.5t179.5 -52.5q79 0 133.5 20.5t102.5 65.5l54 -57q-109 -99 -294 -99q-157 0 -244.5 78.5t-87.5 214.5t87 215t240 79q147 0 232.5 -77t85.5 -216q0 -10 -2 -18h-560zM386 496
q-97 0 -161.5 -44.5t-79.5 -128.5h475q-17 87 -79.5 130t-154.5 43z" />
    <glyph glyph-name="edieresis" unicode="&#xeb;" horiz-adv-x="755" 
d="M255 638q-23 0 -38 14.5t-15 33.5q0 20 15 34.5t38 14.5q22 0 37 -14.5t15 -34.5q0 -19 -15 -33.5t-37 -14.5zM515 638q-23 0 -38 14.5t-15 33.5q0 20 15 34.5t38 14.5q22 0 37 -14.5t15 -34.5q0 -19 -15 -33.5t-37 -14.5zM141 255q6 -101 73.5 -153.5t179.5 -52.5
q79 0 133.5 20.5t102.5 65.5l54 -57q-109 -99 -294 -99q-157 0 -244.5 78.5t-87.5 214.5t87 215t240 79q147 0 232.5 -77t85.5 -216q0 -10 -2 -18h-560zM386 496q-97 0 -161.5 -44.5t-79.5 -128.5h475q-17 87 -79.5 130t-154.5 43z" />
    <glyph glyph-name="igrave" unicode="&#xec;" horiz-adv-x="286" 
d="M-68 775h134l165 -150h-78zM184 545v-545h-82v545h82z" />
    <glyph glyph-name="iacute" unicode="&#xed;" horiz-adv-x="286" 
d="M355 775l-221 -150h-78l165 150h134zM184 545v-545h-82v545h82z" />
    <glyph glyph-name="icircumflex" unicode="&#xee;" horiz-adv-x="286" 
d="M-59 625h95l106 103l107 -103h95l-156 150h-91zM184 545v-545h-82v545h82z" />
    <glyph glyph-name="idieresis" unicode="&#xef;" horiz-adv-x="286" 
d="M13 638q-23 0 -38 14.5t-15 33.5q0 20 15 34.5t38 14.5q22 0 37 -14.5t15 -34.5q0 -19 -15 -33.5t-37 -14.5zM273 638q-23 0 -38 14.5t-15 33.5q0 20 15 34.5t38 14.5q22 0 37 -14.5t15 -34.5q0 -19 -15 -33.5t-37 -14.5zM184 545v-545h-82v545h82z" />
    <glyph glyph-name="eth" unicode="&#xf0;" horiz-adv-x="779" 
d="M522 655q199 -117 199 -359q0 -317 -331 -317q-155 0 -243.5 78t-88.5 211q0 130 86 207t218 77q91 0 165 -32t108 -107q-36 136 -204 208l-166 -62l-25 55l102 38q-59 17 -130 27l13 71q134 -21 223 -59l145 54l25 -55zM389 52q113 0 181.5 55t68.5 161q0 105 -68.5 160
t-181.5 55q-112 0 -180.5 -55t-68.5 -160q0 -106 68.5 -161t180.5 -55z" />
    <glyph glyph-name="ntilde" unicode="&#xf1;" horiz-adv-x="788" 
d="M592 763l49 -32q-18 -35 -55 -60t-92 -25q-46 0 -107 28.5t-97 28.5q-59 0 -94 -52l-49 32q45 85 147 85q45 0 106 -28.5t98 -28.5q57 0 94 52zM181 0h-82v545h82v-113q39 63 106.5 98t153.5 35q123 0 186.5 -70.5t63.5 -186.5v-308h-82v302q0 190 -184 190
q-170 0 -244 -150v-342z" />
    <glyph glyph-name="ograve" unicode="&#xf2;" horiz-adv-x="778" 
d="M178 775h134l165 -150h-78zM389 -21q-155 0 -243 78.5t-88 214.5t88 215t243 79t243 -79t88 -215t-88 -214.5t-243 -78.5zM389 52q111 0 179.5 56.5t68.5 163.5t-68.5 164t-179.5 57t-179.5 -57t-68.5 -164t68.5 -163.5t179.5 -56.5z" />
    <glyph glyph-name="oacute" unicode="&#xf3;" horiz-adv-x="778" 
d="M601 775l-221 -150h-78l165 150h134zM389 -21q-155 0 -243 78.5t-88 214.5t88 215t243 79t243 -79t88 -215t-88 -214.5t-243 -78.5zM389 52q111 0 179.5 56.5t68.5 163.5t-68.5 164t-179.5 57t-179.5 -57t-68.5 -164t68.5 -163.5t179.5 -56.5z" />
    <glyph glyph-name="ocircumflex" unicode="&#xf4;" horiz-adv-x="778" 
d="M187 625h95l106 103l107 -103h95l-156 150h-91zM389 -21q-155 0 -243 78.5t-88 214.5t88 215t243 79t243 -79t88 -215t-88 -214.5t-243 -78.5zM389 52q111 0 179.5 56.5t68.5 163.5t-68.5 164t-179.5 57t-179.5 -57t-68.5 -164t68.5 -163.5t179.5 -56.5z" />
    <glyph glyph-name="otilde" unicode="&#xf5;" horiz-adv-x="778" 
d="M587 763l49 -32q-18 -35 -55 -60t-92 -25q-46 0 -107 28.5t-97 28.5q-59 0 -94 -52l-49 32q45 85 147 85q45 0 106 -28.5t98 -28.5q57 0 94 52zM389 -21q-155 0 -243 78.5t-88 214.5t88 215t243 79t243 -79t88 -215t-88 -214.5t-243 -78.5zM389 52q111 0 179.5 56.5
t68.5 163.5t-68.5 164t-179.5 57t-179.5 -57t-68.5 -164t68.5 -163.5t179.5 -56.5z" />
    <glyph glyph-name="odieresis" unicode="&#xf6;" horiz-adv-x="778" 
d="M259 638q-23 0 -38 14.5t-15 33.5q0 20 15 34.5t38 14.5q22 0 37 -14.5t15 -34.5q0 -19 -15 -33.5t-37 -14.5zM519 638q-23 0 -38 14.5t-15 33.5q0 20 15 34.5t38 14.5q22 0 37 -14.5t15 -34.5q0 -19 -15 -33.5t-37 -14.5zM389 -21q-155 0 -243 78.5t-88 214.5t88 215
t243 79t243 -79t88 -215t-88 -214.5t-243 -78.5zM389 52q111 0 179.5 56.5t68.5 163.5t-68.5 164t-179.5 57t-179.5 -57t-68.5 -164t68.5 -163.5t179.5 -56.5z" />
    <glyph glyph-name="divide" unicode="&#xf7;" horiz-adv-x="740" 
d="M370 429q-24 0 -40 16t-16 36q0 19 16 35.5t40 16.5t40 -16.5t16 -35.5q0 -20 -16 -36t-40 -16zM652 259h-563v80h563v-80zM370 65q-24 0 -40 16.5t-16 35.5q0 20 16 36t40 16t40 -16t16 -36q0 -19 -16 -35.5t-40 -16.5z" />
    <glyph glyph-name="oslash" unicode="&#xf8;" horiz-adv-x="778" 
d="M587 519q133 -76 133 -247q0 -136 -88 -214.5t-243 -78.5q-73 0 -135 19l-58 -90h-77l74 116q-135 76 -135 248q0 136 88 215t243 79q75 0 138 -20l58 91h77zM141 272q0 -124 94 -182l250 390q-42 13 -96 13q-111 0 -179.5 -57t-68.5 -164zM389 52q111 0 179.5 56.5
t68.5 163.5q0 124 -92 182l-249 -390q42 -12 93 -12z" />
    <glyph glyph-name="ugrave" unicode="&#xf9;" horiz-adv-x="788" 
d="M173 775h134l165 -150h-78zM607 545h82v-545h-82v113q-39 -63 -106.5 -98t-153.5 -35q-123 0 -186.5 70.5t-63.5 186.5v308h82v-302q0 -190 184 -190q170 0 244 150v342z" />
    <glyph glyph-name="uacute" unicode="&#xfa;" horiz-adv-x="788" 
d="M596 775l-221 -150h-78l165 150h134zM607 545h82v-545h-82v113q-39 -63 -106.5 -98t-153.5 -35q-123 0 -186.5 70.5t-63.5 186.5v308h82v-302q0 -190 184 -190q170 0 244 150v342z" />
    <glyph glyph-name="ucircumflex" unicode="&#xfb;" horiz-adv-x="788" 
d="M182 625h95l106 103l107 -103h95l-156 150h-91zM607 545h82v-545h-82v113q-39 -63 -106.5 -98t-153.5 -35q-123 0 -186.5 70.5t-63.5 186.5v308h82v-302q0 -190 184 -190q170 0 244 150v342z" />
    <glyph glyph-name="udieresis" unicode="&#xfc;" horiz-adv-x="788" 
d="M254 638q-23 0 -38 14.5t-15 33.5q0 20 15 34.5t38 14.5q22 0 37 -14.5t15 -34.5q0 -19 -15 -33.5t-37 -14.5zM514 638q-23 0 -38 14.5t-15 33.5q0 20 15 34.5t38 14.5q22 0 37 -14.5t15 -34.5q0 -19 -15 -33.5t-37 -14.5zM607 545h82v-545h-82v113q-39 -63 -106.5 -98
t-153.5 -35q-123 0 -186.5 70.5t-63.5 186.5v308h82v-302q0 -190 184 -190q170 0 244 150v342z" />
    <glyph glyph-name="yacute" unicode="&#xfd;" horiz-adv-x="707" 
d="M566 775l-221 -150h-78l165 150h134zM595 545h90l-425 -745h-89l141 238l-290 507h92l242 -424z" />
    <glyph glyph-name="thorn" unicode="&#xfe;" horiz-adv-x="798" 
d="M444 565q136 0 216 -80t80 -213t-80 -212.5t-216 -79.5q-88 0 -156.5 33.5t-106.5 91.5v-305h-82v940h82v-300q38 58 106.5 91.5t156.5 33.5zM423 53q112 0 173 57t61 162q0 106 -61 163t-173 57q-165 0 -242 -133v-173q77 -133 242 -133z" />
    <glyph glyph-name="ydieresis" unicode="&#xff;" horiz-adv-x="707" 
d="M224 638q-23 0 -38 14.5t-15 33.5q0 20 15 34.5t38 14.5q22 0 37 -14.5t15 -34.5q0 -19 -15 -33.5t-37 -14.5zM484 638q-23 0 -38 14.5t-15 33.5q0 20 15 34.5t38 14.5q22 0 37 -14.5t15 -34.5q0 -19 -15 -33.5t-37 -14.5zM595 545h90l-425 -745h-89l141 238l-290 507h92
l242 -424z" />
    <glyph glyph-name="Amacron" unicode="&#x100;" horiz-adv-x="896" 
d="M641 874v-69h-386v69h386zM785 0l-102 188h-472l-102 -188h-93l385 700h94l385 -700h-95zM252 264h390l-195 359z" />
    <glyph glyph-name="amacron" unicode="&#x101;" horiz-adv-x="746" 
d="M178 719h386v-69h-386v69zM359 565q139 0 217 -67.5t78 -195.5v-196q0 -62 26 -106h-87q-23 39 -23 87v2q-35 -48 -99 -78.5t-148 -30.5q-48 0 -94 10t-89 31.5t-69 60.5t-26 91q0 51 26 90.5t68.5 60.5t89 31.5t94.5 10.5q84 0 148.5 -30.5t98.5 -78.5v45q0 98 -56 145
t-169 47q-115 0 -214 -63l-38 60q49 33 121 53.5t145 20.5zM572 163v20q-33 59 -99 87t-143 28q-34 0 -66.5 -5.5t-65 -18.5t-52.5 -39t-20 -62t20 -62t52.5 -39t65 -18.5t66.5 -5.5q76 0 142.5 28t99.5 87z" />
    <glyph glyph-name="Abreve" unicode="&#x102;" horiz-adv-x="896" 
d="M449 775q-47 0 -82.5 16t-53.5 41t-27 50t-9 48h69q2 -37 29 -64t74 -27q46 0 73.5 27.5t28.5 63.5h70q0 -23 -9 -48t-27.5 -50t-54 -41t-81.5 -16zM785 0l-102 188h-472l-102 -188h-93l385 700h94l385 -700h-95zM252 264h390l-195 359z" />
    <glyph glyph-name="abreve" unicode="&#x103;" horiz-adv-x="746" 
d="M544 775q0 -23 -9 -48t-27.5 -50t-54 -41t-81.5 -16q-47 0 -82.5 16t-53.5 41t-27 50t-9 48h69q2 -37 29 -64t74 -27q46 0 73.5 27.5t28.5 63.5h70zM359 565q139 0 217 -67.5t78 -195.5v-196q0 -62 26 -106h-87q-23 39 -23 87v2q-35 -48 -99 -78.5t-148 -30.5
q-48 0 -94 10t-89 31.5t-69 60.5t-26 91q0 51 26 90.5t68.5 60.5t89 31.5t94.5 10.5q84 0 148.5 -30.5t98.5 -78.5v45q0 98 -56 145t-169 47q-115 0 -214 -63l-38 60q49 33 121 53.5t145 20.5zM572 163v20q-33 59 -99 87t-143 28q-34 0 -66.5 -5.5t-65 -18.5t-52.5 -39
t-20 -62t20 -62t52.5 -39t65 -18.5t66.5 -5.5q76 0 142.5 28t99.5 87z" />
    <glyph glyph-name="Aogonek" unicode="&#x104;" horiz-adv-x="896" 
d="M913 -178l20 -28q-46 -39 -111 -39q-54 0 -93 26t-39 76q0 48 31.5 86t84.5 57h-21l-102 188h-472l-102 -188h-93l385 700h94l385 -700h-1q-51 -18 -85.5 -55t-34.5 -80q0 -34 21.5 -50.5t55.5 -16.5q40 0 77 24zM252 264h390l-195 359z" />
    <glyph glyph-name="aogonek" unicode="&#x105;" horiz-adv-x="746" 
d="M713 -178l20 -28q-46 -39 -111 -39q-54 0 -93 26t-39 76q0 48 31.5 86t84.5 57h-13q-23 39 -23 87v2q-35 -48 -99 -78.5t-148 -30.5q-48 0 -94 10t-89 31.5t-69 60.5t-26 91q0 51 26 90.5t68.5 60.5t89 31.5t94.5 10.5q84 0 148.5 -30.5t98.5 -78.5v45q0 98 -56 145
t-169 47q-115 0 -214 -63l-38 60q49 33 121 53.5t145 20.5q139 0 217 -67.5t78 -195.5v-196q0 -62 26 -106h-1q-51 -18 -85.5 -55t-34.5 -80q0 -34 21.5 -50.5t55.5 -16.5q40 0 77 24zM572 163v20q-33 59 -99 87t-143 28q-34 0 -66.5 -5.5t-65 -18.5t-52.5 -39t-20 -62
t20 -62t52.5 -39t65 -18.5t66.5 -5.5q76 0 142.5 28t99.5 87z" />
    <glyph glyph-name="Cacute" unicode="&#x106;" horiz-adv-x="887" 
d="M692 931l-221 -150h-78l165 150h134zM487 57q200 0 277 134l80 -40q-51 -81 -142.5 -126.5t-216.5 -45.5q-195 0 -308 100t-113 271t113.5 271t310.5 100q123 0 214 -46t142 -126l-80 -40q-79 134 -277 134q-156 0 -246.5 -75.5t-90.5 -217.5t90.5 -217.5t246.5 -75.5z
" />
    <glyph glyph-name="cacute" unicode="&#x107;" horiz-adv-x="716" 
d="M596 775l-221 -150h-78l165 150h134zM675 117q-86 -138 -287 -138q-154 0 -242 79t-88 214t88 214.5t242 79.5q192 0 284 -131l-80 -40q-28 50 -83.5 74t-119.5 24q-112 0 -180 -56.5t-68 -164.5q0 -107 68 -163.5t180 -56.5q65 0 121.5 25t83.5 76z" />
    <glyph glyph-name="Ccircumflex" unicode="&#x108;" horiz-adv-x="887" 
d="M278 781h95l106 103l107 -103h95l-156 150h-91zM487 57q200 0 277 134l80 -40q-51 -81 -142.5 -126.5t-216.5 -45.5q-195 0 -308 100t-113 271t113.5 271t310.5 100q123 0 214 -46t142 -126l-80 -40q-79 134 -277 134q-156 0 -246.5 -75.5t-90.5 -217.5t90.5 -217.5
t246.5 -75.5z" />
    <glyph glyph-name="ccircumflex" unicode="&#x109;" horiz-adv-x="716" 
d="M182 625h95l106 103l107 -103h95l-156 150h-91zM675 117q-86 -138 -287 -138q-154 0 -242 79t-88 214t88 214.5t242 79.5q192 0 284 -131l-80 -40q-28 50 -83.5 74t-119.5 24q-112 0 -180 -56.5t-68 -164.5q0 -107 68 -163.5t180 -56.5q65 0 121.5 25t83.5 76z" />
    <glyph glyph-name="Cdotaccent" unicode="&#x10a;" horiz-adv-x="887" 
d="M480 794q-22 0 -35 11.5t-13 30.5t13 31t35 12q21 0 34 -12t13 -31t-13 -30.5t-34 -11.5zM487 57q200 0 277 134l80 -40q-51 -81 -142.5 -126.5t-216.5 -45.5q-195 0 -308 100t-113 271t113.5 271t310.5 100q123 0 214 -46t142 -126l-80 -40q-79 134 -277 134
q-156 0 -246.5 -75.5t-90.5 -217.5t90.5 -217.5t246.5 -75.5z" />
    <glyph glyph-name="cdotaccent" unicode="&#x10b;" horiz-adv-x="716" 
d="M384 638q-22 0 -35 11.5t-13 30.5t13 31t35 12q21 0 34 -12t13 -31t-13 -30.5t-34 -11.5zM675 117q-86 -138 -287 -138q-154 0 -242 79t-88 214t88 214.5t242 79.5q192 0 284 -131l-80 -40q-28 50 -83.5 74t-119.5 24q-112 0 -180 -56.5t-68 -164.5q0 -107 68 -163.5
t180 -56.5q65 0 121.5 25t83.5 76z" />
    <glyph glyph-name="Ccaron" unicode="&#x10c;" horiz-adv-x="887" 
d="M278 931l156 -150h91l156 150h-95l-107 -103l-106 103h-95zM487 57q200 0 277 134l80 -40q-51 -81 -142.5 -126.5t-216.5 -45.5q-195 0 -308 100t-113 271t113.5 271t310.5 100q123 0 214 -46t142 -126l-80 -40q-79 134 -277 134q-156 0 -246.5 -75.5t-90.5 -217.5
t90.5 -217.5t246.5 -75.5z" />
    <glyph glyph-name="ccaron" unicode="&#x10d;" horiz-adv-x="716" 
d="M182 775l156 -150h91l156 150h-95l-107 -103l-106 103h-95zM675 117q-86 -138 -287 -138q-154 0 -242 79t-88 214t88 214.5t242 79.5q192 0 284 -131l-80 -40q-28 50 -83.5 74t-119.5 24q-112 0 -180 -56.5t-68 -164.5q0 -107 68 -163.5t180 -56.5q65 0 121.5 25t83.5 76
z" />
    <glyph glyph-name="Dcaron" unicode="&#x10e;" horiz-adv-x="940" 
d="M259 930l156 -150h91l156 150h-95l-107 -103l-106 103h-95zM456 700q192 0 306 -94.5t114 -255.5t-114 -255.5t-306 -94.5h-340v700h340zM450 78q154 0 247 70.5t93 201.5t-93 201.5t-247 70.5h-250v-544h250z" />
    <glyph glyph-name="dcaron" unicode="&#x10f;" horiz-adv-x="858" 
d="M354 565q88 0 156.5 -33.5t106.5 -91.5v300h82v-740h-82v105q-38 -58 -106.5 -91.5t-156.5 -33.5q-136 0 -216 79.5t-80 212.5t80 213t216 80zM812 710q26 0 41.5 -17t15.5 -42q0 -88 -77 -161l-20 23q45 60 52 102q-4 -4 -15 -4q-22 0 -36.5 14t-14.5 35q0 22 15 36
t39 14zM375 53q165 0 242 133v173q-77 133 -242 133q-112 0 -173 -57t-61 -163q0 -105 61 -162t173 -57z" />
    <glyph glyph-name="Dcroat" unicode="&#x110;" horiz-adv-x="952" 
d="M468 700q192 0 306 -94.5t114 -255.5t-114 -255.5t-306 -94.5h-340v322h-105v70h105v308h340zM462 78q155 0 247.5 69.5t92.5 202.5t-92.5 202.5t-247.5 69.5h-250v-230h228v-70h-228v-244h250z" />
    <glyph glyph-name="dcroat" unicode="&#x111;" horiz-adv-x="797" 
d="M794 651v-57h-95v-594h-82v105q-38 -58 -106.5 -91.5t-156.5 -33.5q-136 0 -216 79.5t-80 212.5t80 213t216 80q88 0 156.5 -33.5t106.5 -91.5v154h-199v57h199v89h82v-89h95zM617 186v173q-77 133 -242 133q-112 0 -173 -57t-61 -163q0 -105 61 -162t173 -57
q165 0 242 133z" />
    <glyph glyph-name="Emacron" unicode="&#x112;" horiz-adv-x="850" 
d="M252 874h386v-69h-386v69zM200 78h593v-78h-677v700h667v-78h-583v-227h494v-78h-494v-239z" />
    <glyph glyph-name="emacron" unicode="&#x113;" horiz-adv-x="755" 
d="M578 719v-69h-386v69h386zM141 255q6 -101 73.5 -153.5t179.5 -52.5q79 0 133.5 20.5t102.5 65.5l54 -57q-109 -99 -294 -99q-157 0 -244.5 78.5t-87.5 214.5t87 215t240 79q147 0 232.5 -77t85.5 -216q0 -10 -2 -18h-560zM386 496q-97 0 -161.5 -44.5t-79.5 -128.5h475
q-17 87 -79.5 130t-154.5 43z" />
    <glyph glyph-name="Ebreve" unicode="&#x114;" horiz-adv-x="850" 
d="M618 930q0 -23 -9 -48t-27.5 -50t-54 -41t-81.5 -16q-47 0 -82.5 16t-53.5 41t-27 50t-9 48h69q2 -37 29 -64t74 -27q46 0 73.5 27.5t28.5 63.5h70zM200 78h593v-78h-677v700h667v-78h-583v-227h494v-78h-494v-239z" />
    <glyph glyph-name="ebreve" unicode="&#x115;" horiz-adv-x="755" 
d="M386 620q-47 0 -82.5 16t-53.5 41t-27 50t-9 48h69q2 -37 29 -64t74 -27q46 0 73.5 27.5t28.5 63.5h70q0 -23 -9 -48t-27.5 -50t-54 -41t-81.5 -16zM141 255q6 -101 73.5 -153.5t179.5 -52.5q79 0 133.5 20.5t102.5 65.5l54 -57q-109 -99 -294 -99q-157 0 -244.5 78.5
t-87.5 214.5t87 215t240 79q147 0 232.5 -77t85.5 -216q0 -10 -2 -18h-560zM386 496q-97 0 -161.5 -44.5t-79.5 -128.5h475q-17 87 -79.5 130t-154.5 43z" />
    <glyph glyph-name="Edotaccent" unicode="&#x116;" horiz-adv-x="850" 
d="M445 793q-22 0 -35 11.5t-13 30.5t13 31t35 12q21 0 34 -12t13 -31t-13 -30.5t-34 -11.5zM200 78h593v-78h-677v700h667v-78h-583v-227h494v-78h-494v-239z" />
    <glyph glyph-name="edotaccent" unicode="&#x117;" horiz-adv-x="755" 
d="M385 638q-22 0 -35 11.5t-13 30.5t13 31t35 12q21 0 34 -12t13 -31t-13 -30.5t-34 -11.5zM141 255q6 -101 73.5 -153.5t179.5 -52.5q79 0 133.5 20.5t102.5 65.5l54 -57q-109 -99 -294 -99q-157 0 -244.5 78.5t-87.5 214.5t87 215t240 79q147 0 232.5 -77t85.5 -216
q0 -10 -2 -18h-560zM386 496q-97 0 -161.5 -44.5t-79.5 -128.5h475q-17 87 -79.5 130t-154.5 43z" />
    <glyph glyph-name="Eogonek" unicode="&#x118;" horiz-adv-x="850" 
d="M826 -178l20 -28q-46 -39 -111 -39q-54 0 -93 26t-39 76q0 48 31.5 86t84.5 57h-603v700h667v-78h-583v-227h494v-78h-494v-239h593v-78h-1q-51 -18 -85.5 -55t-34.5 -80q0 -34 21.5 -50.5t55.5 -16.5q40 0 77 24z" />
    <glyph glyph-name="eogonek" unicode="&#x119;" horiz-adv-x="755" 
d="M141 255q6 -101 73.5 -153.5t179.5 -52.5q79 0 133.5 20.5t102.5 65.5l54 -57q-56 -52 -136 -78h2q-51 -18 -85.5 -55t-34.5 -80q0 -34 21.5 -50.5t55.5 -16.5q40 0 77 24l20 -28q-46 -39 -111 -39q-54 0 -93 26t-39 76q0 77 75 123q-15 -1 -46 -1q-157 0 -244.5 78.5
t-87.5 214.5t87 215t240 79q147 0 232.5 -77t85.5 -216q0 -10 -2 -18h-560zM386 496q-97 0 -161.5 -44.5t-79.5 -128.5h475q-17 87 -79.5 130t-154.5 43z" />
    <glyph glyph-name="Ecaron" unicode="&#x11a;" horiz-adv-x="850" 
d="M243 930l156 -150h91l156 150h-95l-107 -103l-106 103h-95zM200 78h593v-78h-677v700h667v-78h-583v-227h494v-78h-494v-239z" />
    <glyph glyph-name="ecaron" unicode="&#x11b;" horiz-adv-x="755" 
d="M430 625h-91l-156 150h95l106 -103l107 103h95zM141 255q6 -101 73.5 -153.5t179.5 -52.5q79 0 133.5 20.5t102.5 65.5l54 -57q-109 -99 -294 -99q-157 0 -244.5 78.5t-87.5 214.5t87 215t240 79q147 0 232.5 -77t85.5 -216q0 -10 -2 -18h-560zM386 496
q-97 0 -161.5 -44.5t-79.5 -128.5h475q-17 87 -79.5 130t-154.5 43z" />
    <glyph glyph-name="Gcircumflex" unicode="&#x11c;" horiz-adv-x="948" 
d="M290 781h95l106 103l107 -103h95l-156 150h-91zM887 364v-194q-45 -85 -148 -138t-244 -53q-202 0 -316.5 99.5t-114.5 271.5t114 271.5t314 99.5q231 0 356 -146l-73 -51q-95 119 -283 119q-160 0 -251 -75t-91 -218t92 -218t256 -75q231 0 305 138v91h-318v78h402z" />
    <glyph glyph-name="gcircumflex" unicode="&#x11d;" horiz-adv-x="798" 
d="M199 626h95l106 103l107 -103h95l-156 150h-91zM699 545v-485q0 -94 -45 -159t-116 -93t-162 -28q-72 0 -145 20.5t-117 52.5l39 63q96 -63 215 -63q121 0 185 49.5t64 147.5v55q-38 -57 -109.5 -91t-153.5 -34q-136 0 -216 79.5t-80 212.5t80 213t216 80
q88 0 156.5 -33.5t106.5 -91.5v105h82zM375 53q165 0 242 133v173q-77 133 -242 133q-112 0 -173 -57t-61 -163q0 -105 61 -162t173 -57z" />
    <glyph glyph-name="Gbreve" unicode="&#x11e;" horiz-adv-x="948" 
d="M665 931q0 -23 -9 -48t-27.5 -50t-54 -41t-81.5 -16q-47 0 -82.5 16t-53.5 41t-27 50t-9 48h69q2 -37 29 -64t74 -27q46 0 73.5 27.5t28.5 63.5h70zM887 364v-194q-45 -85 -148 -138t-244 -53q-202 0 -316.5 99.5t-114.5 271.5t114 271.5t314 99.5q231 0 356 -146
l-73 -51q-95 119 -283 119q-160 0 -251 -75t-91 -218t92 -218t256 -75q231 0 305 138v91h-318v78h402z" />
    <glyph glyph-name="gbreve" unicode="&#x11f;" horiz-adv-x="798" 
d="M574 776q0 -23 -9 -48t-27.5 -50t-54 -41t-81.5 -16q-47 0 -82.5 16t-53.5 41t-27 50t-9 48h69q2 -37 29 -64t74 -27q46 0 73.5 27.5t28.5 63.5h70zM699 545v-485q0 -94 -45 -159t-116 -93t-162 -28q-72 0 -145 20.5t-117 52.5l39 63q96 -63 215 -63q121 0 185 49.5
t64 147.5v55q-38 -57 -109.5 -91t-153.5 -34q-136 0 -216 79.5t-80 212.5t80 213t216 80q88 0 156.5 -33.5t106.5 -91.5v105h82zM375 53q165 0 242 133v173q-77 133 -242 133q-112 0 -173 -57t-61 -163q0 -105 61 -162t173 -57z" />
    <glyph glyph-name="Gdotaccent" unicode="&#x120;" horiz-adv-x="948" 
d="M492 794q-22 0 -35 11.5t-13 30.5t13 31t35 12q21 0 34 -12t13 -31t-13 -30.5t-34 -11.5zM887 364v-194q-45 -85 -148 -138t-244 -53q-202 0 -316.5 99.5t-114.5 271.5t114 271.5t314 99.5q231 0 356 -146l-73 -51q-95 119 -283 119q-160 0 -251 -75t-91 -218t92 -218
t256 -75q231 0 305 138v91h-318v78h402z" />
    <glyph glyph-name="gdotaccent" unicode="&#x121;" horiz-adv-x="798" 
d="M401 639q-22 0 -35 11.5t-13 30.5t13 31t35 12q21 0 34 -12t13 -31t-13 -30.5t-34 -11.5zM699 545v-485q0 -94 -45 -159t-116 -93t-162 -28q-72 0 -145 20.5t-117 52.5l39 63q96 -63 215 -63q121 0 185 49.5t64 147.5v55q-38 -57 -109.5 -91t-153.5 -34q-136 0 -216 79.5
t-80 212.5t80 213t216 80q88 0 156.5 -33.5t106.5 -91.5v105h82zM375 53q165 0 242 133v173q-77 133 -242 133q-112 0 -173 -57t-61 -163q0 -105 61 -162t173 -57z" />
    <glyph glyph-name="Gcommaaccent" unicode="&#x122;" horiz-adv-x="948" 
d="M887 364v-194q-45 -85 -148 -138t-244 -53q-202 0 -316.5 99.5t-114.5 271.5t114 271.5t314 99.5q231 0 356 -146l-73 -51q-95 119 -283 119q-160 0 -251 -75t-91 -218t92 -218t256 -75q231 0 305 138v91h-318v78h402zM493 -58q27 0 44.5 -17.5t17.5 -46.5q0 -42 -22 -92
t-60 -85l-27 23q53 61 60 111q-4 -4 -16 -4q-24 0 -40 16t-16 40q0 23 17 39t42 16z" />
    <glyph glyph-name="gcommaaccent" unicode="&#x123;" horiz-adv-x="798" 
d="M397 645q-27 0 -44.5 17.5t-17.5 46.5q0 42 22 92t60 85l27 -23q-53 -61 -60 -111q4 4 16 4q24 0 40 -16t16 -40q0 -23 -17 -39t-42 -16zM699 545v-485q0 -94 -45 -159t-116 -93t-162 -28q-72 0 -145 20.5t-117 52.5l39 63q96 -63 215 -63q121 0 185 49.5t64 147.5v55
q-38 -57 -109.5 -91t-153.5 -34q-136 0 -216 79.5t-80 212.5t80 213t216 80q88 0 156.5 -33.5t106.5 -91.5v105h82zM375 53q165 0 242 133v173q-77 133 -242 133q-112 0 -173 -57t-61 -163q0 -105 61 -162t173 -57z" />
    <glyph glyph-name="Hcircumflex" unicode="&#x124;" horiz-adv-x="976" 
d="M286 781h95l106 103l107 -103h95l-156 150h-91zM776 700h84v-700h-84v315h-576v-315h-84v700h84v-305h576v305z" />
    <glyph glyph-name="hcircumflex" unicode="&#x125;" horiz-adv-x="788" 
d="M246 820l-107 103l-106 -103h-95l156 150h91l156 -150h-95zM441 565q123 0 186.5 -70.5t63.5 -186.5v-308h-82v302q0 190 -184 190q-170 0 -244 -150v-342h-82v740h82v-308q39 63 106.5 98t153.5 35z" />
    <glyph glyph-name="Hbar" unicode="&#x126;" horiz-adv-x="1001" 
d="M981 568v-62h-108v-506h-84v315h-576v-315h-84v506h-109v62h109v132h84v-132h576v132h84v-132h108zM789 395v111h-576v-111h576z" />
    <glyph glyph-name="hbar" unicode="&#x127;" horiz-adv-x="788" 
d="M441 565q123 0 186.5 -70.5t63.5 -186.5v-308h-82v302q0 190 -184 190q-170 0 -244 -150v-342h-82v594h-94v57h94v89h82v-89h200v-57h-200v-162q39 63 106.5 98t153.5 35z" />
    <glyph glyph-name="Itilde" unicode="&#x128;" horiz-adv-x="316" 
d="M356 918l49 -32q-18 -35 -55 -60t-92 -25q-46 0 -107 28.5t-97 28.5q-59 0 -94 -52l-49 32q45 85 147 85q45 0 106 -28.5t98 -28.5q57 0 94 52zM200 0h-84v700h84v-700z" />
    <glyph glyph-name="itilde" unicode="&#x129;" horiz-adv-x="286" 
d="M341 763l49 -32q-18 -35 -55 -60t-92 -25q-46 0 -107 28.5t-97 28.5q-59 0 -94 -52l-49 32q45 85 147 85q45 0 106 -28.5t98 -28.5q57 0 94 52zM184 545v-545h-82v545h82z" />
    <glyph glyph-name="Imacron" unicode="&#x12a;" horiz-adv-x="316" 
d="M-35 874h386v-69h-386v69zM200 0h-84v700h84v-700z" />
    <glyph glyph-name="imacron" unicode="&#x12b;" horiz-adv-x="286" 
d="M-50 719h386v-69h-386v69zM184 545v-545h-82v545h82z" />
    <glyph glyph-name="Ibreve" unicode="&#x12c;" horiz-adv-x="316" 
d="M331 930q0 -23 -9 -48t-27.5 -50t-54 -41t-81.5 -16q-47 0 -82.5 16t-53.5 41t-27 50t-9 48h69q2 -37 29 -64t74 -27q46 0 73.5 27.5t28.5 63.5h70zM200 0h-84v700h84v-700z" />
    <glyph glyph-name="ibreve" unicode="&#x12d;" horiz-adv-x="286" 
d="M316 775q0 -23 -9 -48t-27.5 -50t-54 -41t-81.5 -16q-47 0 -82.5 16t-53.5 41t-27 50t-9 48h69q2 -37 29 -64t74 -27q46 0 73.5 27.5t28.5 63.5h70zM184 545v-545h-82v545h82z" />
    <glyph glyph-name="Iogonek" unicode="&#x12e;" horiz-adv-x="316" 
d="M233 -178l20 -28q-46 -39 -111 -39q-54 0 -93 26t-39 76q0 48 31.5 86t84.5 57h-10v700h84v-700h-1q-51 -18 -85.5 -55t-34.5 -80q0 -34 21.5 -50.5t55.5 -16.5q40 0 77 24z" />
    <glyph glyph-name="iogonek" unicode="&#x12f;" horiz-adv-x="286" 
d="M143 629q-25 0 -41.5 15.5t-16.5 37.5q0 23 16.5 38t41.5 15t41.5 -15t16.5 -38q0 -22 -16.5 -37.5t-41.5 -15.5zM217 -178l20 -28q-46 -39 -111 -39q-54 0 -93 26t-39 76q0 48 31.5 86t84.5 57h-8v545h82v-545h-1q-51 -18 -85.5 -55t-34.5 -80q0 -34 21.5 -50.5
t55.5 -16.5q40 0 77 24z" />
    <glyph glyph-name="Idotaccent" unicode="&#x130;" horiz-adv-x="316" 
d="M158 793q-22 0 -35 11.5t-13 30.5t13 31t35 12q21 0 34 -12t13 -31t-13 -30.5t-34 -11.5zM200 0h-84v700h84v-700z" />
    <glyph glyph-name="dotlessi" unicode="&#x131;" horiz-adv-x="286" 
d="M184 545v-545h-82v545h82z" />
    <glyph glyph-name="IJ" unicode="&#x132;" horiz-adv-x="1007" 
d="M200 0h-84v700h84v-700zM404 144q30 -45 75 -66t118 -21q115 0 169.5 63t54.5 175v405h84v-410q0 -66 -18 -121t-54 -98t-96.5 -67.5t-139.5 -24.5q-184 0 -264 118z" />
    <glyph glyph-name="ij" unicode="&#x133;" horiz-adv-x="572" 
d="M143 629q-25 0 -41.5 15.5t-16.5 37.5q0 23 16.5 38t41.5 15t41.5 -15t16.5 -38q0 -22 -16.5 -37.5t-41.5 -15.5zM429 629q-25 0 -41.5 15t-16.5 37t16.5 37t41.5 15t41.5 -15t16.5 -37t-16.5 -37t-41.5 -15zM184 545v-545h-82v545h82zM388 545h82v-606q0 -74 -42 -116.5
t-113 -42.5q-54 0 -96 20l25 67q22 -12 54 -12q43 0 66.5 26.5t23.5 72.5v591z" />
    <glyph glyph-name="Jcircumflex" unicode="&#x134;" horiz-adv-x="691" 
d="M345 780h95l106 103l107 -103h95l-156 150h-91zM88 144q30 -45 75 -66t118 -21q115 0 169.5 63t54.5 175v405h84v-410q0 -66 -18 -121t-54 -98t-96.5 -67.5t-139.5 -24.5q-184 0 -264 118z" />
    <glyph glyph-name="jcircumflex" unicode="&#x135;" horiz-adv-x="422" 
d="M-66 625h95l106 103l107 -103h95l-156 150h-91zM101 545h81v-606q0 -74 -41.5 -116.5t-109.5 -42.5q-58 0 -100 20l15 50q30 -14 69 -14q40 0 63 27t23 72v610z" />
    <glyph glyph-name="Kcommaaccent" unicode="&#x136;" horiz-adv-x="881" 
d="M501 425l371 -425h-107l-332 376l-233 -182v-194h-84v700h84v-410l530 410h120zM470 -58q27 0 44.5 -17.5t17.5 -46.5q0 -42 -22 -92t-60 -85l-27 23q53 61 60 111q-4 -4 -16 -4q-24 0 -40 16t-16 40q0 23 17 39t42 16z" />
    <glyph glyph-name="kcommaaccent" unicode="&#x137;" horiz-adv-x="694" 
d="M409 330l277 -330h-100l-241 283l-164 -128v-155h-82v740h82v-502l380 307h108zM369 -58q27 0 44.5 -17.5t17.5 -46.5q0 -42 -22 -92t-60 -85l-27 23q53 61 60 111q-4 -4 -16 -4q-24 0 -40 16t-16 40q0 23 17 39t42 16z" />
    <glyph glyph-name="kgreenlandic" unicode="&#x138;" horiz-adv-x="694" 
d="M587 0l-242 283l-164 -128v-155h-82v545h82v-307l384 307h104l-260 -215l277 -330h-99z" />
    <glyph glyph-name="Lacute" unicode="&#x139;" horiz-adv-x="759" 
d="M370 930l-221 -150h-78l165 150h134zM200 78h536v-78h-620v700h84v-622z" />
    <glyph glyph-name="lacute" unicode="&#x13a;" horiz-adv-x="286" 
d="M355 970l-221 -150h-78l165 150h134zM184 0h-82v740h82v-740z" />
    <glyph glyph-name="Lcommaaccent" unicode="&#x13b;" horiz-adv-x="759" 
d="M200 78h536v-78h-620v700h84v-622zM426 -58q27 0 44.5 -17.5t17.5 -46.5q0 -42 -22 -92t-60 -85l-27 23q53 61 60 111q-4 -4 -16 -4q-24 0 -40 16t-16 40q0 23 17 39t42 16z" />
    <glyph glyph-name="lcommaaccent" unicode="&#x13c;" horiz-adv-x="286" 
d="M184 0h-82v740h82v-740zM144 -58q27 0 44.5 -17.5t17.5 -46.5q0 -42 -22 -92t-60 -85l-27 23q53 61 60 111q-4 -4 -16 -4q-24 0 -40 16t-16 40q0 23 17 39t42 16z" />
    <glyph glyph-name="Lcaron" unicode="&#x13d;" horiz-adv-x="759" 
d="M455 720q27 0 44.5 -17.5t17.5 -46.5q0 -42 -22 -92t-60 -85l-27 23q53 61 60 111q-4 -4 -16 -4q-24 0 -40 16t-16 40q0 23 17 39t42 16zM200 78h536v-78h-620v700h84v-622z" />
    <glyph glyph-name="lcaron" unicode="&#x13e;" horiz-adv-x="342" 
d="M184 0h-82v740h82v-740zM296 710q26 0 41.5 -17t15.5 -42q0 -88 -77 -161l-20 23q45 60 52 102q-4 -4 -15 -4q-22 0 -36.5 14t-14.5 35q0 22 15 36t39 14z" />
    <glyph glyph-name="Ldot" unicode="&#x13f;" horiz-adv-x="759" 
d="M200 78h536v-78h-620v700h84v-622zM441 326q-26 0 -43 16t-17 40t17 40t43 16t43 -16t17 -40t-17 -40t-43 -16z" />
    <glyph glyph-name="ldot" unicode="&#x140;" horiz-adv-x="369" 
d="M184 0h-82v740h82v-740zM317 365q-26 0 -43 16t-17 40t17 40t43 16t43 -16t17 -40t-17 -40t-43 -16z" />
    <glyph glyph-name="Lslash" unicode="&#x141;" horiz-adv-x="777" 
d="M218 78h536v-78h-620v315l-102 -48v71l102 48v314h84v-274l201 96v-72l-201 -95v-277z" />
    <glyph glyph-name="lslash" unicode="&#x142;" horiz-adv-x="339" 
d="M320 492v-74l-110 -52v-366h-82v327l-109 -51v75l109 51v338h82v-300z" />
    <glyph glyph-name="Nacute" unicode="&#x143;" horiz-adv-x="976" 
d="M701 930l-221 -150h-78l165 150h134zM778 700h82v-700h-74l-588 593v-593h-82v700h91l571 -577v577z" />
    <glyph glyph-name="nacute" unicode="&#x144;" horiz-adv-x="788" 
d="M606 775l-221 -150h-78l165 150h134zM181 0h-82v545h82v-113q39 63 106.5 98t153.5 35q123 0 186.5 -70.5t63.5 -186.5v-308h-82v302q0 190 -184 190q-170 0 -244 -150v-342z" />
    <glyph glyph-name="Ncommaaccent" unicode="&#x145;" horiz-adv-x="976" 
d="M778 700h82v-700h-74l-588 593v-593h-82v700h91l571 -577v577zM490 -58q27 0 44.5 -17.5t17.5 -46.5q0 -42 -22 -92t-60 -85l-27 23q53 61 60 111q-4 -4 -16 -4q-24 0 -40 16t-16 40q0 23 17 39t42 16z" />
    <glyph glyph-name="ncommaaccent" unicode="&#x146;" horiz-adv-x="788" 
d="M181 0h-82v545h82v-113q39 63 106.5 98t153.5 35q123 0 186.5 -70.5t63.5 -186.5v-308h-82v302q0 190 -184 190q-170 0 -244 -150v-342zM393 -58q27 0 44.5 -17.5t17.5 -46.5q0 -42 -22 -92t-60 -85l-27 23q53 61 60 111q-4 -4 -16 -4q-24 0 -40 16t-16 40q0 23 17 39
t42 16z" />
    <glyph glyph-name="Ncaron" unicode="&#x147;" horiz-adv-x="976" 
d="M287 930l156 -150h91l156 150h-95l-107 -103l-106 103h-95zM778 700h82v-700h-74l-588 593v-593h-82v700h91l571 -577v577z" />
    <glyph glyph-name="ncaron" unicode="&#x148;" horiz-adv-x="788" 
d="M192 775l156 -150h91l156 150h-95l-107 -103l-106 103h-95zM181 0h-82v545h82v-113q39 63 106.5 98t153.5 35q123 0 186.5 -70.5t63.5 -186.5v-308h-82v302q0 190 -184 190q-170 0 -244 -150v-342z" />
    <glyph glyph-name="napostrophe" unicode="&#x149;" horiz-adv-x="876" 
d="M102 713q26 0 42 -17t16 -43q0 -99 -78 -174l-23 23q48 60 55 113q-3 -5 -16 -5q-22 0 -37 15t-15 37t15.5 36.5t40.5 14.5zM269 0h-82v545h82v-121q38 68 105.5 104.5t154.5 36.5q123 0 186.5 -70.5t63.5 -186.5v-308h-82v304q0 190 -184 190q-81 0 -144 -38.5
t-100 -113.5v-342z" />
    <glyph glyph-name="Eng" unicode="&#x14a;" horiz-adv-x="976" 
d="M777 700h83v-683v-58q0 -85 -46 -132t-125 -47q-62 0 -100 18l20 63q24 -11 64 -11q53 0 79.5 24.5t26.5 80.5v52l-581 586v-593h-82v700h91l570 -577v577z" />
    <glyph glyph-name="eng" unicode="&#x14b;" horiz-adv-x="788" 
d="M441 565q123 0 186.5 -70.5t63.5 -186.5v-308v-61q0 -74 -42.5 -116.5t-113.5 -42.5q-50 0 -95 20l24 62q26 -10 55 -10q43 0 66.5 22t23.5 61v139v230q0 190 -184 190q-81 0 -144 -38.5t-100 -113.5v-342h-82v545h82v-121q38 68 105.5 104.5t154.5 36.5z" />
    <glyph glyph-name="Omacron" unicode="&#x14c;" horiz-adv-x="980" 
d="M297 874h386v-69h-386v69zM490 -21q-199 0 -312.5 99.5t-113.5 271.5t113.5 271.5t312.5 99.5t312.5 -99.5t113.5 -271.5t-113.5 -271.5t-312.5 -99.5zM490 57q157 0 248.5 77t91.5 216t-91.5 216t-248.5 77t-248.5 -77t-91.5 -216t91.5 -216t248.5 -77z" />
    <glyph glyph-name="omacron" unicode="&#x14d;" horiz-adv-x="778" 
d="M196 719h386v-69h-386v69zM389 -21q-155 0 -243 78.5t-88 214.5t88 215t243 79t243 -79t88 -215t-88 -214.5t-243 -78.5zM389 52q111 0 179.5 56.5t68.5 163.5t-68.5 164t-179.5 57t-179.5 -57t-68.5 -164t68.5 -163.5t179.5 -56.5z" />
    <glyph glyph-name="Obreve" unicode="&#x14e;" horiz-adv-x="980" 
d="M663 930q0 -23 -9 -48t-27.5 -50t-54 -41t-81.5 -16q-47 0 -82.5 16t-53.5 41t-27 50t-9 48h69q2 -37 29 -64t74 -27q46 0 73.5 27.5t28.5 63.5h70zM490 -21q-199 0 -312.5 99.5t-113.5 271.5t113.5 271.5t312.5 99.5t312.5 -99.5t113.5 -271.5t-113.5 -271.5
t-312.5 -99.5zM490 57q157 0 248.5 77t91.5 216t-91.5 216t-248.5 77t-248.5 -77t-91.5 -216t91.5 -216t248.5 -77z" />
    <glyph glyph-name="obreve" unicode="&#x14f;" horiz-adv-x="778" 
d="M562 775q0 -23 -9 -48t-27.5 -50t-54 -41t-81.5 -16q-47 0 -82.5 16t-53.5 41t-27 50t-9 48h69q2 -37 29 -64t74 -27q46 0 73.5 27.5t28.5 63.5h70zM389 -21q-155 0 -243 78.5t-88 214.5t88 215t243 79t243 -79t88 -215t-88 -214.5t-243 -78.5zM389 52q111 0 179.5 56.5
t68.5 163.5t-68.5 164t-179.5 57t-179.5 -57t-68.5 -164t68.5 -163.5t179.5 -56.5z" />
    <glyph glyph-name="Ohungarumlaut" unicode="&#x150;" horiz-adv-x="980" 
d="M557 930l-164 -150h-87l164 150h87zM754 930l-164 -150h-87l164 150h87zM490 -21q-199 0 -312.5 99.5t-113.5 271.5t113.5 271.5t312.5 99.5t312.5 -99.5t113.5 -271.5t-113.5 -271.5t-312.5 -99.5zM490 57q157 0 248.5 77t91.5 216t-91.5 216t-248.5 77t-248.5 -77
t-91.5 -216t91.5 -216t248.5 -77z" />
    <glyph glyph-name="ohungarumlaut" unicode="&#x151;" horiz-adv-x="778" 
d="M456 775l-164 -150h-87l164 150h87zM653 775l-164 -150h-87l164 150h87zM389 -21q-155 0 -243 78.5t-88 214.5t88 215t243 79t243 -79t88 -215t-88 -214.5t-243 -78.5zM389 52q111 0 179.5 56.5t68.5 163.5t-68.5 164t-179.5 57t-179.5 -57t-68.5 -164t68.5 -163.5
t179.5 -56.5z" />
    <glyph glyph-name="OE" unicode="&#x152;" horiz-adv-x="1474" 
d="M824 78h593v-78h-677h-256q-192 0 -306 94.5t-114 255.5t114 255.5t306 94.5h340h583v-78h-583v-227h494v-78h-494v-239zM740 78v544h-250q-155 0 -247.5 -69.5t-92.5 -202.5t92.5 -202.5t247.5 -69.5h250z" />
    <glyph glyph-name="oe" unicode="&#x153;" horiz-adv-x="1334" 
d="M720 255q6 -101 73.5 -153.5t179.5 -52.5q79 0 133.5 20t103.5 65l53 -56q-109 -99 -294 -99q-207 0 -291 134q-82 -134 -289 -134q-155 0 -243 78.5t-88 214.5t88 215t243 79q207 0 289 -134q82 134 286 134q147 0 232.5 -77t85.5 -216q0 -10 -2 -18h-560zM965 496
q-97 0 -161.5 -44.5t-79.5 -128.5h475q-17 87 -79.5 130t-154.5 43zM389 52q111 0 179.5 56.5t68.5 163.5t-68.5 164t-179.5 57t-179.5 -57t-68.5 -164t68.5 -163.5t179.5 -56.5z" />
    <glyph glyph-name="Racute" unicode="&#x154;" horiz-adv-x="925" 
d="M659 930l-221 -150h-78l165 150h134zM876 0h-110l-232 268h-333v-268h-85v700h470q120 0 194 -57.5t74 -158.5q0 -90 -59 -145.5t-158 -67.5zM200 346h380q88 0 138 34.5t50 103.5t-50 103.5t-138 34.5h-380v-276z" />
    <glyph glyph-name="racute" unicode="&#x155;" horiz-adv-x="470" 
d="M485 775l-221 -150h-78l165 150h134zM181 0h-82v545h82v-134q32 68 106.5 106.5t164.5 38.5v-74q-96 0 -168.5 -42t-102.5 -122v-318z" />
    <glyph glyph-name="Rcommaaccent" unicode="&#x156;" horiz-adv-x="925" 
d="M876 0h-110l-232 268h-333v-268h-85v700h470q120 0 194 -57.5t74 -158.5q0 -90 -59 -145.5t-158 -67.5zM200 346h380q88 0 138 34.5t50 103.5t-50 103.5t-138 34.5h-380v-276zM469 -58q27 0 44.5 -17.5t17.5 -46.5q0 -42 -22 -92t-60 -85l-27 23q53 61 60 111
q-4 -4 -16 -4q-24 0 -40 16t-16 40q0 23 17 39t42 16z" />
    <glyph glyph-name="rcommaaccent" unicode="&#x157;" horiz-adv-x="470" 
d="M181 0h-82v545h82v-134q32 68 106.5 106.5t164.5 38.5v-74q-96 0 -168.5 -42t-102.5 -122v-318zM141 -58q27 0 44.5 -17.5t17.5 -46.5q0 -42 -22 -92t-60 -85l-27 23q53 61 60 111q-4 -4 -16 -4q-24 0 -40 16t-16 40q0 23 17 39t42 16z" />
    <glyph glyph-name="Rcaron" unicode="&#x158;" horiz-adv-x="925" 
d="M492 780h-91l-156 150h95l106 -103l107 103h95zM876 0h-110l-232 268h-333v-268h-85v700h470q120 0 194 -57.5t74 -158.5q0 -90 -59 -145.5t-158 -67.5zM200 346h380q88 0 138 34.5t50 103.5t-50 103.5t-138 34.5h-380v-276z" />
    <glyph glyph-name="rcaron" unicode="&#x159;" horiz-adv-x="470" 
d="M71 775l156 -150h91l156 150h-95l-107 -103l-106 103h-95zM181 0h-82v545h82v-134q32 68 106.5 106.5t164.5 38.5v-74q-96 0 -168.5 -42t-102.5 -122v-318z" />
    <glyph glyph-name="Sacute" unicode="&#x15a;" horiz-adv-x="864" 
d="M646 930l-221 -150h-78l165 150h134zM455 399q86 -7 147.5 -19t112 -33.5t76 -57.5t25.5 -86q0 -99 -96 -161.5t-263 -62.5q-245 0 -409 144l59 63q146 -129 355 -129q126 0 197 37.5t71 102.5q0 31 -18 52.5t-58.5 34.5t-89 20.5t-126.5 14.5t-137.5 18.5t-114.5 33
t-84.5 57.5t-29.5 86q0 95 103 151t250 56q109 0 201.5 -34t156.5 -91l-66 -56q-103 101 -288 103q-49 0 -95.5 -7t-86.5 -21t-64.5 -39.5t-24.5 -58.5q0 -31 21.5 -53t67 -34.5t91 -18.5t117.5 -12z" />
    <glyph glyph-name="sacute" unicode="&#x15b;" horiz-adv-x="691" 
d="M558 775l-221 -150h-78l165 150h134zM363 316q284 -23 284 -160q0 -77 -75 -127t-210 -50q-185 0 -318 117l52 49q116 -98 268 -98q88 0 145 26.5t57 74.5t-52.5 68t-167.5 30q-60 5 -105.5 14t-88 25.5t-65 46t-22.5 69.5q0 78 78 121.5t203 43.5q78 0 151 -26.5
t122 -66.5l-52 -55q-91 79 -225 80q-47 1 -88.5 -6.5t-74.5 -29.5t-33 -56q0 -25 16 -41.5t49.5 -26t66.5 -14t85 -8.5z" />
    <glyph glyph-name="Scircumflex" unicode="&#x15c;" horiz-adv-x="864" 
d="M232 780h95l106 103l107 -103h95l-156 150h-91zM455 399q86 -7 147.5 -19t112 -33.5t76 -57.5t25.5 -86q0 -99 -96 -161.5t-263 -62.5q-245 0 -409 144l59 63q146 -129 355 -129q126 0 197 37.5t71 102.5q0 31 -18 52.5t-58.5 34.5t-89 20.5t-126.5 14.5t-137.5 18.5
t-114.5 33t-84.5 57.5t-29.5 86q0 95 103 151t250 56q109 0 201.5 -34t156.5 -91l-66 -56q-103 101 -288 103q-49 0 -95.5 -7t-86.5 -21t-64.5 -39.5t-24.5 -58.5q0 -31 21.5 -53t67 -34.5t91 -18.5t117.5 -12z" />
    <glyph glyph-name="scircumflex" unicode="&#x15d;" horiz-adv-x="691" 
d="M144 625h95l106 103l107 -103h95l-156 150h-91zM363 316q284 -23 284 -160q0 -77 -75 -127t-210 -50q-185 0 -318 117l52 49q116 -98 268 -98q88 0 145 26.5t57 74.5t-52.5 68t-167.5 30q-60 5 -105.5 14t-88 25.5t-65 46t-22.5 69.5q0 78 78 121.5t203 43.5
q78 0 151 -26.5t122 -66.5l-52 -55q-91 79 -225 80q-47 1 -88.5 -6.5t-74.5 -29.5t-33 -56q0 -25 16 -41.5t49.5 -26t66.5 -14t85 -8.5z" />
    <glyph glyph-name="Scedilla" unicode="&#x15e;" horiz-adv-x="864" 
d="M455 399q86 -7 147.5 -19t112 -33.5t76 -57.5t25.5 -86q0 -99 -96 -161.5t-263 -62.5q-245 0 -409 144l59 63q146 -129 355 -129q126 0 197 37.5t71 102.5q0 31 -18 52.5t-58.5 34.5t-89 20.5t-126.5 14.5t-137.5 18.5t-114.5 33t-84.5 57.5t-29.5 86q0 95 103 151
t250 56q109 0 201.5 -34t156.5 -91l-66 -56q-103 101 -288 103q-49 0 -95.5 -7t-86.5 -21t-64.5 -39.5t-24.5 -58.5q0 -31 21.5 -53t67 -34.5t91 -18.5t117.5 -12zM475 -52l-119 -158l-69 18l103 156z" />
    <glyph glyph-name="scedilla" unicode="&#x15f;" horiz-adv-x="691" 
d="M363 316q284 -23 284 -160q0 -77 -75 -127t-210 -50q-185 0 -318 117l52 49q116 -98 268 -98q88 0 145 26.5t57 74.5t-52.5 68t-167.5 30q-60 5 -105.5 14t-88 25.5t-65 46t-22.5 69.5q0 78 78 121.5t203 43.5q78 0 151 -26.5t122 -66.5l-52 -55q-91 79 -225 80
q-47 1 -88.5 -6.5t-74.5 -29.5t-33 -56q0 -25 16 -41.5t49.5 -26t66.5 -14t85 -8.5zM382 -52l-119 -158l-69 18l103 156z" />
    <glyph glyph-name="Scaron" unicode="&#x160;" horiz-adv-x="864" 
d="M232 930l156 -150h91l156 150h-95l-107 -103l-106 103h-95zM455 399q86 -7 147.5 -19t112 -33.5t76 -57.5t25.5 -86q0 -99 -96 -161.5t-263 -62.5q-245 0 -409 144l59 63q146 -129 355 -129q126 0 197 37.5t71 102.5q0 31 -18 52.5t-58.5 34.5t-89 20.5t-126.5 14.5
t-137.5 18.5t-114.5 33t-84.5 57.5t-29.5 86q0 95 103 151t250 56q109 0 201.5 -34t156.5 -91l-66 -56q-103 101 -288 103q-49 0 -95.5 -7t-86.5 -21t-64.5 -39.5t-24.5 -58.5q0 -31 21.5 -53t67 -34.5t91 -18.5t117.5 -12z" />
    <glyph glyph-name="scaron" unicode="&#x161;" horiz-adv-x="691" 
d="M144 775l156 -150h91l156 150h-95l-107 -103l-106 103h-95zM363 316q284 -23 284 -160q0 -77 -75 -127t-210 -50q-185 0 -318 117l52 49q116 -98 268 -98q88 0 145 26.5t57 74.5t-52.5 68t-167.5 30q-60 5 -105.5 14t-88 25.5t-65 46t-22.5 69.5q0 78 78 121.5t203 43.5
q78 0 151 -26.5t122 -66.5l-52 -55q-91 79 -225 80q-47 1 -88.5 -6.5t-74.5 -29.5t-33 -56q0 -25 16 -41.5t49.5 -26t66.5 -14t85 -8.5z" />
    <glyph glyph-name="uni0162" unicode="&#x162;" horiz-adv-x="789" 
d="M767 700v-76h-331v-624h-84v624h-330v76h745zM425 -43l-119 -158l-69 18l103 156z" />
    <glyph glyph-name="uni0163" unicode="&#x163;" horiz-adv-x="483" 
d="M438 90l29 -59q-73 -51 -158 -51q-78 0 -128.5 41t-50.5 117v335h-110v72h110v127h82v-127h251v-72h-251v-323q0 -48 31.5 -72.5t79.5 -24.5q52 0 115 37zM113 -192l103 156l85 -16l-119 -158z" />
    <glyph glyph-name="Tcaron" unicode="&#x164;" horiz-adv-x="789" 
d="M192 930l156 -150h91l156 150h-95l-107 -103l-106 103h-95zM767 700v-76h-331v-624h-84v624h-330v76h745z" />
    <glyph glyph-name="tcaron" unicode="&#x165;" horiz-adv-x="496" 
d="M345 717q-22 0 -36.5 14.5t-14.5 35.5t15 35t39 14q26 0 41.5 -17t15.5 -41q0 -89 -77 -162l-20 23q45 60 52 103q-3 -5 -15 -5zM438 90l29 -59q-73 -51 -158 -51q-78 0 -128.5 41t-50.5 117v335h-110v72h110v127h82v-127h251v-72h-251v-323q0 -48 31.5 -72.5t79.5 -24.5
q52 0 115 37z" />
    <glyph glyph-name="Tbar" unicode="&#x166;" horiz-adv-x="789" 
d="M767 624h-331v-240h151v-69h-151v-315h-84v315h-151v69h151v240h-330v76h745v-76z" />
    <glyph glyph-name="tbar" unicode="&#x167;" horiz-adv-x="483" 
d="M438 90l29 -59q-73 -51 -158 -51q-78 0 -128.5 41t-50.5 117v180h-80v58h80v97h-110v72h110v127h82v-127h251v-72h-251v-97h214v-58h-214v-168q0 -48 31.5 -72.5t79.5 -24.5q52 0 115 37z" />
    <glyph glyph-name="Utilde" unicode="&#x168;" horiz-adv-x="943" 
d="M670 918l49 -32q-18 -35 -55 -60t-92 -25q-46 0 -107 28.5t-97 28.5q-59 0 -94 -52l-49 32q45 85 147 85q45 0 106 -28.5t98 -28.5q57 0 94 52zM757 700h84v-370q0 -158 -96.5 -254.5t-272.5 -96.5t-273 96.5t-97 254.5v370h84v-365q0 -130 75 -204t211 -74q135 0 210 74
t75 204v365z" />
    <glyph glyph-name="utilde" unicode="&#x169;" horiz-adv-x="788" 
d="M582 763l49 -32q-18 -35 -55 -60t-92 -25q-46 0 -107 28.5t-97 28.5q-59 0 -94 -52l-49 32q45 85 147 85q45 0 106 -28.5t98 -28.5q57 0 94 52zM607 545h82v-545h-82v113q-39 -63 -106.5 -98t-153.5 -35q-123 0 -186.5 70.5t-63.5 186.5v308h82v-302q0 -190 184 -190
q170 0 244 150v342z" />
    <glyph glyph-name="Umacron" unicode="&#x16a;" horiz-adv-x="943" 
d="M279 874h386v-69h-386v69zM757 700h84v-370q0 -158 -96.5 -254.5t-272.5 -96.5t-273 96.5t-97 254.5v370h84v-365q0 -130 75 -204t211 -74q135 0 210 74t75 204v365z" />
    <glyph glyph-name="umacron" unicode="&#x16b;" horiz-adv-x="788" 
d="M191 719h386v-69h-386v69zM607 545h82v-545h-82v113q-39 -63 -106.5 -98t-153.5 -35q-123 0 -186.5 70.5t-63.5 186.5v308h82v-302q0 -190 184 -190q170 0 244 150v342z" />
    <glyph glyph-name="Ubreve" unicode="&#x16c;" horiz-adv-x="943" 
d="M645 930q0 -23 -9 -48t-27.5 -50t-54 -41t-81.5 -16q-47 0 -82.5 16t-53.5 41t-27 50t-9 48h69q2 -37 29 -64t74 -27q46 0 73.5 27.5t28.5 63.5h70zM757 700h84v-370q0 -158 -96.5 -254.5t-272.5 -96.5t-273 96.5t-97 254.5v370h84v-365q0 -130 75 -204t211 -74
q135 0 210 74t75 204v365z" />
    <glyph glyph-name="ubreve" unicode="&#x16d;" horiz-adv-x="788" 
d="M557 775q0 -23 -9 -48t-27.5 -50t-54 -41t-81.5 -16q-47 0 -82.5 16t-53.5 41t-27 50t-9 48h69q2 -37 29 -64t74 -27q46 0 73.5 27.5t28.5 63.5h70zM607 545h82v-545h-82v113q-39 -63 -106.5 -98t-153.5 -35q-123 0 -186.5 70.5t-63.5 186.5v308h82v-302q0 -190 184 -190
q170 0 244 150v342z" />
    <glyph glyph-name="Uring" unicode="&#x16e;" horiz-adv-x="943" 
d="M472 773q-56 0 -92.5 27.5t-36.5 79.5q0 51 37 79t92 28t92 -28t37 -79q0 -52 -36.5 -79.5t-92.5 -27.5zM403 880q0 -29 19 -45t51 -16t51 16t19 45t-19 45t-51 16t-51 -16t-19 -45zM757 700h84v-370q0 -158 -96.5 -254.5t-272.5 -96.5t-273 96.5t-97 254.5v370h84v-365
q0 -130 75 -204t211 -74q135 0 210 74t75 204v365z" />
    <glyph glyph-name="uring" unicode="&#x16f;" horiz-adv-x="788" 
d="M384 618q-56 0 -92.5 27.5t-36.5 79.5q0 51 37 79t92 28t92 -28t37 -79q0 -52 -36.5 -79.5t-92.5 -27.5zM315 725q0 -29 19 -45t51 -16t51 16t19 45t-19 45t-51 16t-51 -16t-19 -45zM607 545h82v-545h-82v113q-39 -63 -106.5 -98t-153.5 -35q-123 0 -186.5 70.5
t-63.5 186.5v308h82v-302q0 -190 184 -190q170 0 244 150v342z" />
    <glyph glyph-name="Uhungarumlaut" unicode="&#x170;" horiz-adv-x="943" 
d="M539 930l-164 -150h-87l164 150h87zM736 930l-164 -150h-87l164 150h87zM757 700h84v-370q0 -158 -96.5 -254.5t-272.5 -96.5t-273 96.5t-97 254.5v370h84v-365q0 -130 75 -204t211 -74q135 0 210 74t75 204v365z" />
    <glyph glyph-name="uhungarumlaut" unicode="&#x171;" horiz-adv-x="788" 
d="M451 775l-164 -150h-87l164 150h87zM648 775l-164 -150h-87l164 150h87zM607 545h82v-545h-82v113q-39 -63 -106.5 -98t-153.5 -35q-123 0 -186.5 70.5t-63.5 186.5v308h82v-302q0 -190 184 -190q170 0 244 150v342z" />
    <glyph glyph-name="Uogonek" unicode="&#x172;" horiz-adv-x="943" 
d="M757 700h84v-370q0 -122 -58.5 -209t-169.5 -122q-50 -18 -83.5 -54.5t-33.5 -79.5q0 -34 21.5 -50.5t55.5 -16.5q40 0 77 24l20 -28q-46 -39 -111 -39q-54 0 -93 26t-39 76q0 75 74 123q-10 -1 -29 -1q-176 0 -273 96.5t-97 254.5v370h84v-365q0 -130 75 -204t211 -74
q135 0 210 74t75 204v365z" />
    <glyph glyph-name="uogonek" unicode="&#x173;" horiz-adv-x="788" 
d="M713 -178l20 -28q-46 -39 -111 -39q-54 0 -93 26t-39 76q0 48 32 86.5t85 56.5v113q-39 -63 -106.5 -98t-153.5 -35q-123 0 -186.5 70.5t-63.5 186.5v308h82v-302q0 -190 184 -190q170 0 244 150v342h82v-545h-10q-51 -18 -85.5 -55t-34.5 -80q0 -34 21.5 -50.5
t55.5 -16.5q40 0 77 24z" />
    <glyph glyph-name="Wcircumflex" unicode="&#x174;" horiz-adv-x="1203" 
d="M400 780h95l106 103l107 -103h95l-156 150h-91zM1083 700h90l-257 -700h-89l-225 599l-226 -599h-89l-257 700h92l211 -598l227 598h85l226 -598z" />
    <glyph glyph-name="wcircumflex" unicode="&#x175;" horiz-adv-x="988" 
d="M293 625h95l106 103l107 -103h95l-156 150h-91zM873 545h83l-204 -545h-84l-173 456l-175 -456h-84l-204 545h85l166 -452l172 452h80l172 -452z" />
    <glyph glyph-name="Ycircumflex" unicode="&#x176;" horiz-adv-x="823" 
d="M211 780h95l106 103l107 -103h95l-156 150h-91zM18 700h101l294 -379l292 379h100l-351 -455v-245h-84v245z" />
    <glyph glyph-name="ycircumflex" unicode="&#x177;" horiz-adv-x="707" 
d="M152 625h95l106 103l107 -103h95l-156 150h-91zM595 545h90l-425 -745h-89l141 238l-290 507h92l242 -424z" />
    <glyph glyph-name="Ydieresis" unicode="&#x178;" horiz-adv-x="823" 
d="M283 793q-23 0 -38 14.5t-15 33.5q0 20 15 34.5t38 14.5q22 0 37 -14.5t15 -34.5q0 -19 -15 -33.5t-37 -14.5zM543 793q-23 0 -38 14.5t-15 33.5q0 20 15 34.5t38 14.5q22 0 37 -14.5t15 -34.5q0 -19 -15 -33.5t-37 -14.5zM18 700h101l294 -379l292 379h100l-351 -455
v-245h-84v245z" />
    <glyph glyph-name="Zacute" unicode="&#x179;" horiz-adv-x="848" 
d="M656 930l-221 -150h-78l165 150h134zM778 700v-62l-596 -562h612v-76h-740v62l596 562h-578v76h706z" />
    <glyph glyph-name="zacute" unicode="&#x17a;" horiz-adv-x="667" 
d="M553 775l-221 -150h-78l165 150h134zM609 545v-60l-446 -414h458v-72h-577v60l446 414h-432v72h551z" />
    <glyph glyph-name="Zdotaccent" unicode="&#x17b;" horiz-adv-x="848" 
d="M444 793q-22 0 -35 11.5t-13 30.5t13 31t35 12q21 0 34 -12t13 -31t-13 -30.5t-34 -11.5zM778 700v-62l-596 -562h612v-76h-740v62l596 562h-578v76h706z" />
    <glyph glyph-name="zdotaccent" unicode="&#x17c;" horiz-adv-x="667" 
d="M341 638q-22 0 -35 11.5t-13 30.5t13 31t35 12q21 0 34 -12t13 -31t-13 -30.5t-34 -11.5zM609 545v-60l-446 -414h458v-72h-577v60l446 414h-432v72h551z" />
    <glyph glyph-name="Zcaron" unicode="&#x17d;" horiz-adv-x="848" 
d="M242 930l156 -150h91l156 150h-95l-107 -103l-106 103h-95zM778 700v-62l-596 -562h612v-76h-740v62l596 562h-578v76h706z" />
    <glyph glyph-name="zcaron" unicode="&#x17e;" horiz-adv-x="667" 
d="M139 775l156 -150h91l156 150h-95l-107 -103l-106 103h-95zM609 545v-60l-446 -414h458v-72h-577v60l446 414h-432v72h551z" />
    <glyph glyph-name="florin" unicode="&#x192;" horiz-adv-x="664" 
d="M528 651q-47 0 -78.5 -23t-36.5 -71l-18 -170h191l-5 -57h-192l-20 -197q-8 -72 -60 -113t-120 -41q-75 0 -131 33l30 61q39 -24 85 -24q47 0 78.5 23t36.5 71l20 187h-192l5 57h193l19 180q7 72 58.5 113t119.5 41q77 0 131 -33l-30 -61q-46 24 -84 24z" />
    <glyph glyph-name="Aringacute" unicode="&#x1fa;" horiz-adv-x="896" 
d="M448 773q-56 0 -92.5 27.5t-36.5 79.5q0 50 38 80l128 126h94l-125 -99q54 -2 88.5 -29.5t34.5 -77.5q0 -52 -36.5 -79.5t-92.5 -27.5zM519 880q0 29 -19 45t-51 16t-51 -16t-19 -45t19 -45t51 -16t51 16t19 45zM785 0l-102 188h-472l-102 -188h-93l385 700h94l385 -700
h-95zM252 264h390l-195 359z" />
    <glyph glyph-name="aringacute" unicode="&#x1fb;" horiz-adv-x="746" 
d="M371 618q-56 0 -92.5 27.5t-36.5 79.5q0 50 38 80l128 126h94l-125 -99q54 -2 88.5 -29.5t34.5 -77.5q0 -52 -36.5 -79.5t-92.5 -27.5zM442 725q0 29 -19 45t-51 16t-51 -16t-19 -45t19 -45t51 -16t51 16t19 45zM654 106q0 -62 26 -106h-87q-23 39 -23 87v2
q-35 -48 -99 -78.5t-148 -30.5q-48 0 -94 10t-89 31.5t-69 60.5t-26 91q0 51 26 90.5t68.5 60.5t89 31.5t94.5 10.5q84 0 148.5 -30.5t98.5 -78.5v45q0 98 -56 145t-169 47q-115 0 -214 -63l-38 60q49 33 121 53.5t145 20.5q139 0 217 -67.5t78 -195.5v-196zM572 163v20
q-33 59 -99 87t-143 28q-34 0 -66.5 -5.5t-65 -18.5t-52.5 -39t-20 -62t20 -62t52.5 -39t65 -18.5t66.5 -5.5q76 0 142.5 28t99.5 87z" />
    <glyph glyph-name="AEacute" unicode="&#x1fc;" horiz-adv-x="1386" 
d="M1159 930l-221 -150h-78l165 150h134zM736 78h593v-78h-677v178h-400l-156 -178h-102l616 700h57h652v-78h-583v-227h494v-78h-494v-239zM319 254h333v380z" />
    <glyph glyph-name="aeacute" unicode="&#x1fd;" horiz-adv-x="1260" 
d="M825 775l-221 -150h-78l165 150h134zM654 255v-55q36 -151 245 -151q79 0 133.5 20t103.5 65l53 -56q-109 -99 -294 -99q-209 0 -291 135q-36 -65 -114.5 -99.5t-166.5 -34.5q-48 0 -94 10t-89 31.5t-69 60.5t-26 91q0 51 26 90.5t68.5 60.5t89 31.5t94.5 10.5
q85 0 149 -31.5t98 -82.5v50q0 194 -225 194q-116 0 -216 -64l-33 64q109 69 263 69q186 0 257 -115q85 116 274 116q147 0 232.5 -77t85.5 -216q0 -10 -2 -18h-552zM891 497q-205 0 -239 -159q1 -5 1 -13h471q-30 172 -233 172zM572 163v20q-33 60 -99 88t-143 28
q-34 0 -66.5 -5.5t-65 -18.5t-52.5 -39.5t-20 -62.5t20 -62.5t52.5 -39.5t65 -18.5t66.5 -5.5q76 0 142.5 28.5t99.5 87.5z" />
    <glyph glyph-name="Oslashacute" unicode="&#x1fe;" horiz-adv-x="980" 
d="M701 930l-221 -150h-78l165 150h134zM764 651q152 -99 152 -301q0 -172 -113.5 -271.5t-312.5 -99.5q-118 0 -209 37l-82 -108h-91l108 142q-152 98 -152 300q0 172 113.5 271.5t312.5 99.5q117 0 208 -37l82 108h91zM150 350q0 -157 116 -234l382 502q-72 25 -158 25
q-157 0 -248.5 -77t-91.5 -216zM490 57q157 0 248.5 77t91.5 216q0 156 -117 235l-381 -502q70 -26 158 -26z" />
    <glyph glyph-name="oslashacute" unicode="&#x1ff;" horiz-adv-x="778" 
d="M602 775l-221 -150h-78l165 150h134zM587 519q133 -76 133 -247q0 -136 -88 -214.5t-243 -78.5q-73 0 -135 19l-58 -90h-77l74 116q-135 76 -135 248q0 136 88 215t243 79q75 0 138 -20l58 91h77zM141 272q0 -124 94 -182l250 390q-42 13 -96 13q-111 0 -179.5 -57
t-68.5 -164zM389 52q111 0 179.5 56.5t68.5 163.5q0 124 -92 182l-249 -390q42 -12 93 -12z" />
    <glyph glyph-name="Scommaaccent" unicode="&#x218;" horiz-adv-x="864" 
d="M455 399q86 -7 147.5 -19t112 -33.5t76 -57.5t25.5 -86q0 -99 -96 -161.5t-263 -62.5q-245 0 -409 144l59 63q146 -129 355 -129q126 0 197 37.5t71 102.5q0 31 -18 52.5t-58.5 34.5t-89 20.5t-126.5 14.5t-137.5 18.5t-114.5 33t-84.5 57.5t-29.5 86q0 95 103 151
t250 56q109 0 201.5 -34t156.5 -91l-66 -56q-103 101 -288 103q-49 0 -95.5 -7t-86.5 -21t-64.5 -39.5t-24.5 -58.5q0 -31 21.5 -53t67 -34.5t91 -18.5t117.5 -12zM448 -58q27 0 44.5 -17.5t17.5 -46.5q0 -42 -22 -92t-60 -85l-27 23q53 61 60 111q-4 -4 -16 -4
q-24 0 -40 16t-16 40q0 23 17 39t42 16z" />
    <glyph glyph-name="scommaaccent" unicode="&#x219;" horiz-adv-x="691" 
d="M363 316q284 -23 284 -160q0 -77 -75 -127t-210 -50q-185 0 -318 117l52 49q116 -98 268 -98q88 0 145 26.5t57 74.5t-52.5 68t-167.5 30q-60 5 -105.5 14t-88 25.5t-65 46t-22.5 69.5q0 78 78 121.5t203 43.5q78 0 151 -26.5t122 -66.5l-52 -55q-91 79 -225 80
q-47 1 -88.5 -6.5t-74.5 -29.5t-33 -56q0 -25 16 -41.5t49.5 -26t66.5 -14t85 -8.5zM355 -58q27 0 44.5 -17.5t17.5 -46.5q0 -42 -22 -92t-60 -85l-27 23q53 61 60 111q-4 -4 -16 -4q-24 0 -40 16t-16 40q0 23 17 39t42 16z" />
    <glyph glyph-name="uni021B" unicode="&#x21b;" horiz-adv-x="483" 
d="M467 31q-73 -51 -158 -51q-78 0 -128.5 41t-50.5 117v335h-110v72h110v127h82v-127h251v-72h-251v-323q0 -48 31.5 -72.5t79.5 -24.5q52 0 115 37zM274 -58q27 0 44.5 -17.5t17.5 -46.5q0 -42 -22 -92t-60 -85l-27 23q53 61 60 111q-4 -4 -16 -4q-24 0 -40 16t-16 40
q0 23 17 39t42 16z" />
    <glyph glyph-name="uni0237" unicode="&#x237;" horiz-adv-x="286" 
d="M102 545h82v-606q0 -74 -42 -116.5t-113 -42.5q-54 0 -96 20l25 67q22 -12 54 -12q43 0 66.5 26.5t23.5 72.5v591z" />
    <glyph glyph-name="circumflex" unicode="&#x2c6;" horiz-adv-x="568" 
d="M82 780h95l106 103l107 -103h95l-156 150h-91z" />
    <glyph glyph-name="caron" unicode="&#x2c7;" horiz-adv-x="568" 
d="M82 930l156 -150h91l156 150h-95l-107 -103l-106 103h-95z" />
    <glyph glyph-name="breve" unicode="&#x2d8;" horiz-adv-x="568" 
d="M470 930q0 -23 -9 -48t-27.5 -50t-54 -41t-81.5 -16q-47 0 -82.5 16t-53.5 41t-27 50t-9 48h69q2 -37 29 -64t74 -27q46 0 73.5 27.5t28.5 63.5h70z" />
    <glyph glyph-name="dotaccent" unicode="&#x2d9;" horiz-adv-x="568" 
d="M284 793q-22 0 -35 11.5t-13 30.5t13 31t35 12q21 0 34 -12t13 -31t-13 -30.5t-34 -11.5z" />
    <glyph glyph-name="ring" unicode="&#x2da;" horiz-adv-x="568" 
d="M300 773q-56 0 -92.5 27.5t-36.5 79.5q0 51 37 79t92 28t92 -28t37 -79q0 -52 -36.5 -79.5t-92.5 -27.5zM231 880q0 -29 19 -45t51 -16t51 16t19 45t-19 45t-51 16t-51 -16t-19 -45z" />
    <glyph glyph-name="ogonek" unicode="&#x2db;" horiz-adv-x="575" 
d="M368 -206q-46 -39 -111 -39q-54 0 -93 26t-39 76q0 54 40 95.5t103 55.5l46 -8q-51 -18 -85.5 -55t-34.5 -80q0 -34 21.5 -50.5t55.5 -16.5q40 0 77 24z" />
    <glyph glyph-name="tilde" unicode="&#x2dc;" horiz-adv-x="586" 
d="M491 918l49 -32q-18 -35 -55 -60t-92 -25q-46 0 -107 28.5t-97 28.5q-59 0 -94 -52l-49 32q45 85 147 85q45 0 106 -28.5t98 -28.5q57 0 94 52z" />
    <glyph glyph-name="hungarumlaut" unicode="&#x2dd;" horiz-adv-x="573" 
d="M314 930l-164 -150h-87l164 150h87zM511 930l-164 -150h-87l164 150h87z" />
    <glyph glyph-name="uni0326" unicode="&#x326;" horiz-adv-x="0" 
d="M-323 -58q27 0 44.5 -17.5t17.5 -46.5q0 -42 -22 -92t-60 -85l-27 23q53 61 60 111q-4 -4 -16 -4q-24 0 -40 16t-16 40q0 23 17 39t42 16z" />
    <glyph glyph-name="uni0394" unicode="&#x394;" horiz-adv-x="871" 
d="M436 718l419 -718h-86h-679h-74zM141 68h589l-294 512z" />
    <glyph glyph-name="uni03A9" unicode="&#x3a9;" horiz-adv-x="996" 
d="M924 363q0 -95 -43 -169t-123 -118h142v-76h-293v76q231 60 231 275q0 140 -91 216t-249 76q-157 0 -248.5 -76t-91.5 -216q0 -213 231 -275v-76h-293v76h142q-80 44 -123 118t-43 169q0 163 114 260.5t312 97.5t312 -97.5t114 -260.5z" />
    <glyph glyph-name="uni03BC" unicode="&#x3bc;" horiz-adv-x="790" 
d="M609 545h82v-545h-82v115q-39 -64 -105 -99.5t-148 -35.5q-109 0 -175 63v-243h-82v745h82v-304q0 -188 184 -188q170 0 244 150v342z" />
    <glyph glyph-name="pi" unicode="&#x3c0;" horiz-adv-x="931" 
d="M894 473h-195v-327q0 -46 23.5 -71t69.5 -25q31 0 53 11l21 -60q-40 -21 -92 -21q-66 0 -110 40.5t-44 111.5v341h-329v-473h-79v473h-194v72h273h408h195v-72z" />
    <glyph glyph-name="Wgrave" unicode="&#x1e80;" horiz-adv-x="1203" 
d="M391 930h134l165 -150h-78zM1083 700h90l-257 -700h-89l-225 599l-226 -599h-89l-257 700h92l211 -598l227 598h85l226 -598z" />
    <glyph glyph-name="wgrave" unicode="&#x1e81;" horiz-adv-x="988" 
d="M284 775h134l165 -150h-78zM873 545h83l-204 -545h-84l-173 456l-175 -456h-84l-204 545h85l166 -452l172 452h80l172 -452z" />
    <glyph glyph-name="Wacute" unicode="&#x1e82;" horiz-adv-x="1203" 
d="M814 930l-221 -150h-78l165 150h134zM1083 700h90l-257 -700h-89l-225 599l-226 -599h-89l-257 700h92l211 -598l227 598h85l226 -598z" />
    <glyph glyph-name="wacute" unicode="&#x1e83;" horiz-adv-x="988" 
d="M707 775l-221 -150h-78l165 150h134zM873 545h83l-204 -545h-84l-173 456l-175 -456h-84l-204 545h85l166 -452l172 452h80l172 -452z" />
    <glyph glyph-name="Wdieresis" unicode="&#x1e84;" horiz-adv-x="1203" 
d="M472 793q-23 0 -38 14.5t-15 33.5q0 20 15 34.5t38 14.5q22 0 37 -14.5t15 -34.5q0 -19 -15 -33.5t-37 -14.5zM732 793q-23 0 -38 14.5t-15 33.5q0 20 15 34.5t38 14.5q22 0 37 -14.5t15 -34.5q0 -19 -15 -33.5t-37 -14.5zM1083 700h90l-257 -700h-89l-225 599l-226 -599
h-89l-257 700h92l211 -598l227 598h85l226 -598z" />
    <glyph glyph-name="wdieresis" unicode="&#x1e85;" horiz-adv-x="988" 
d="M365 638q-23 0 -38 14.5t-15 33.5q0 20 15 34.5t38 14.5q22 0 37 -14.5t15 -34.5q0 -19 -15 -33.5t-37 -14.5zM625 638q-23 0 -38 14.5t-15 33.5q0 20 15 34.5t38 14.5q22 0 37 -14.5t15 -34.5q0 -19 -15 -33.5t-37 -14.5zM873 545h83l-204 -545h-84l-173 456l-175 -456
h-84l-204 545h85l166 -452l172 452h80l172 -452z" />
    <glyph glyph-name="Ygrave" unicode="&#x1ef2;" horiz-adv-x="823" 
d="M202 930h134l165 -150h-78zM18 700h101l294 -379l292 379h100l-351 -455v-245h-84v245z" />
    <glyph glyph-name="ygrave" unicode="&#x1ef3;" horiz-adv-x="707" 
d="M143 775h134l165 -150h-78zM595 545h90l-425 -745h-89l141 238l-290 507h92l242 -424z" />
    <glyph glyph-name="endash" unicode="&#x2013;" horiz-adv-x="794" 
d="M708 263h-623v72h623v-72z" />
    <glyph glyph-name="emdash" unicode="&#x2014;" horiz-adv-x="1011" 
d="M925 263h-840v72h840v-72z" />
    <glyph glyph-name="quoteleft" unicode="&#x2018;" horiz-adv-x="263" 
d="M136 506q-27 0 -44.5 17.5t-17.5 46.5q0 42 22 92t60 85l27 -23q-53 -61 -60 -111q4 4 16 4q24 0 40 -16t16 -40q0 -23 -17 -39t-42 -16z" />
    <glyph glyph-name="quoteright" unicode="&#x2019;" horiz-adv-x="263" 
d="M133 720q27 0 44.5 -17.5t17.5 -46.5q0 -42 -22 -92t-60 -85l-27 23q53 61 60 111q-4 -4 -16 -4q-24 0 -40 16t-16 40q0 23 17 39t42 16z" />
    <glyph glyph-name="quotesinglbase" unicode="&#x201a;" horiz-adv-x="263" 
d="M133 101q27 0 44.5 -17.5t17.5 -46.5q0 -42 -22 -92t-60 -85l-27 23q53 61 60 111q-4 -4 -16 -4q-24 0 -40 16t-16 40q0 23 17 39t42 16z" />
    <glyph glyph-name="quotedblleft" unicode="&#x201c;" horiz-adv-x="412" 
d="M136 502q-27 0 -44.5 17.5t-17.5 46.5q0 42 22 92t60 85l27 -23q-53 -61 -60 -111q4 4 16 4q24 0 40 -16t16 -40q0 -23 -17 -39t-42 -16zM285 502q-27 0 -44.5 17.5t-17.5 46.5q0 42 22 92t60 85l27 -23q-53 -61 -60 -111q4 4 16 4q24 0 40 -16t16 -40q0 -23 -17 -39
t-42 -16z" />
    <glyph glyph-name="quotedblright" unicode="&#x201d;" horiz-adv-x="412" 
d="M133 720q27 0 44.5 -17.5t17.5 -46.5q0 -42 -22 -92t-60 -85l-27 23q53 61 60 111q-4 -4 -16 -4q-24 0 -40 16t-16 40q0 23 17 39t42 16zM282 720q27 0 44.5 -17.5t17.5 -46.5q0 -42 -22 -92t-60 -85l-27 23q53 61 60 111q-4 -4 -16 -4q-24 0 -40 16t-16 40q0 23 17 39
t42 16z" />
    <glyph glyph-name="quotedblbase" unicode="&#x201e;" horiz-adv-x="412" 
d="M133 101q27 0 44.5 -17.5t17.5 -46.5q0 -42 -22 -92t-60 -85l-27 23q53 61 60 111q-4 -4 -16 -4q-24 0 -40 16t-16 40q0 23 17 39t42 16zM282 101q27 0 44.5 -17.5t17.5 -46.5q0 -42 -22 -92t-60 -85l-27 23q53 61 60 111q-4 -4 -16 -4q-24 0 -40 16t-16 40q0 23 17 39
t42 16z" />
    <glyph glyph-name="dagger" unicode="&#x2020;" horiz-adv-x="435" 
d="M362 618v-56h-116v-213h-60v213h-113v56h113v122h60v-122h116z" />
    <glyph glyph-name="daggerdbl" unicode="&#x2021;" horiz-adv-x="435" 
d="M362 588h-116v-87h116v-54h-116v-98h-60v98h-113v54h113v87h-113v54h113v98h60v-98h116v-54z" />
    <glyph glyph-name="bullet" unicode="&#x2022;" horiz-adv-x="371" 
d="M186 188q-41 0 -69 26.5t-28 64.5q0 39 28 65.5t69 26.5t68.5 -26.5t27.5 -65.5q0 -38 -28 -64.5t-68 -26.5z" />
    <glyph glyph-name="ellipsis" unicode="&#x2026;" horiz-adv-x="746" 
d="M128 -10q-26 0 -43 15.5t-17 39.5t17 40t43 16t43 -16t17 -40t-17 -39.5t-43 -15.5zM373 -10q-26 0 -43 15.5t-17 39.5t17 40t43 16t43 -16t17 -40t-17 -39.5t-43 -15.5zM618 -10q-26 0 -43 15.5t-17 39.5t17 40t43 16t43 -16t17 -40t-17 -39.5t-43 -15.5z" />
    <glyph glyph-name="perthousand" unicode="&#x2030;" horiz-adv-x="1313" 
d="M219 396q-77 0 -126 45.5t-49 112.5t49 112.5t126 45.5t126 -45.5t49 -112.5t-49 -112.5t-126 -45.5zM689 700h78l-542 -700h-78zM219 454q49 0 80 27t31 73t-31 73t-80 27t-80 -27t-31 -73t31 -73t80 -27zM695 -12q-77 0 -126 45.5t-49 112.5t49 112.5t126 45.5
t126 -45.5t49 -112.5t-49 -112.5t-126 -45.5zM1094 -12q-77 0 -126 45.5t-49 112.5t49 112.5t126 45.5t126 -45.5t49 -112.5t-49 -112.5t-126 -45.5zM695 46q49 0 80 27t31 73t-31 73t-80 27t-80 -27t-31 -73t31 -73t80 -27zM1094 46q49 0 80 27t31 73t-31 73t-80 27
t-80 -27t-31 -73t31 -73t80 -27z" />
    <glyph glyph-name="minute" unicode="&#x2032;" horiz-adv-x="283" 
d="M160 700h79l-97 -263h-79z" />
    <glyph glyph-name="second" unicode="&#x2033;" horiz-adv-x="459" 
d="M160 700h79l-97 -263h-79zM336 700h79l-97 -263h-79z" />
    <glyph glyph-name="guilsinglleft" unicode="&#x2039;" horiz-adv-x="412" 
d="M258 513l-211 -214l211 -214h92l-212 214l212 214h-92z" />
    <glyph glyph-name="guilsinglright" unicode="&#x203a;" horiz-adv-x="412" 
d="M154 513h-92l212 -214l-212 -214h92l211 214z" />
    <glyph glyph-name="uni203D" unicode="&#x203d;" horiz-adv-x="739" 
d="M386 720q79 0 146.5 -22t112.5 -68.5t45 -109.5q0 -86 -79.5 -136t-210.5 -59v-124h-74v185v213h74v-206q204 25 204 127q0 42 -32.5 71.5t-81 42t-107.5 12.5q-187 0 -280 -135l-65 41q53 78 143 123t205 45zM365 101q26 0 43 -16t17 -40t-17 -39.5t-43 -15.5t-43 15.5
t-17 39.5t17 40t43 16z" />
    <glyph glyph-name="fraction" unicode="&#x2044;" horiz-adv-x="206" 
d="M-85 0h-65l437 700h65z" />
    <glyph glyph-name="uni2070" unicode="&#x2070;" horiz-adv-x="543" 
d="M272 456q-108 0 -168.5 58t-60.5 159q0 100 61 158.5t168 58.5t168 -58.5t61 -158.5q0 -101 -60.5 -159t-168.5 -58zM272 508q79 0 125 43t46 122t-46 122t-125 43t-125 -43t-46 -122q0 -80 46 -122.5t125 -42.5z" />
    <glyph glyph-name="uni2074" unicode="&#x2074;" horiz-adv-x="495" 
d="M468 617v-48h-83v-101h-55v101h-308v36l313 272h50v-260h83zM101 617h229v192z" />
    <glyph glyph-name="uni2075" unicode="&#x2075;" horiz-adv-x="478" 
d="M74 578q72 -72 168 -72q65 0 105 24t40 67t-38.5 64t-103.5 21q-78 0 -153 -37l-42 19l39 213h316v-49h-273l-25 -137q65 37 152 37q83 0 134.5 -33.5t51.5 -97.5q0 -62 -52 -101.5t-142 -39.5q-131 0 -216 87z" />
    <glyph glyph-name="uni2076" unicode="&#x2076;" horiz-adv-x="508" 
d="M279 730q85 0 138 -33.5t53 -101.5q0 -61 -54.5 -100t-145.5 -39q-107 0 -167.5 58.5t-60.5 158.5t61 158.5t167 58.5q122 0 186 -72l-41 -33q-50 57 -142 57q-79 0 -126 -42.5t-47 -126.5q0 -19 1 -27q25 39 74.5 61.5t103.5 22.5zM270 504q64 0 103 24t39 65
q0 90 -142 90q-46 0 -90.5 -20t-70.5 -55q32 -104 161 -104z" />
    <glyph glyph-name="uni2077" unicode="&#x2077;" horiz-adv-x="432" 
d="M124 468l221 359h-325v50h394v-40l-225 -369h-65z" />
    <glyph glyph-name="uni2078" unicode="&#x2078;" horiz-adv-x="509" 
d="M344 687q52 -7 87.5 -33t35.5 -76q0 -55 -58.5 -88.5t-153.5 -33.5t-154 33.5t-59 88.5q0 49 35.5 75.5t87.5 33.5q-46 3 -77 29t-31 67q0 50 57.5 78.5t140.5 28.5t140 -28.5t57 -78.5q0 -41 -30.5 -67t-77.5 -29zM114 776q0 -69 141 -69q140 0 140 69q0 33 -40.5 50.5
t-99.5 17.5q-60 0 -100.5 -17.5t-40.5 -50.5zM254 502q68 0 111.5 22t43.5 60q0 81 -155 81q-154 0 -154 -81q0 -38 43 -60t111 -22z" />
    <glyph glyph-name="uni2079" unicode="&#x2079;" horiz-adv-x="508" 
d="M230 889q107 0 167.5 -58.5t60.5 -158.5t-61 -158.5t-167 -58.5q-122 0 -186 72l41 33q50 -57 142 -57q79 0 126 42.5t47 126.5q0 19 -1 27q-25 -39 -74.5 -61.5t-103.5 -22.5q-85 0 -138 33.5t-53 101.5q0 61 54.5 100t145.5 39zM230 662q46 0 90.5 20t70.5 55
q-32 104 -161 104q-64 0 -103 -24t-39 -65q0 -90 142 -90z" />
    <glyph glyph-name="uni20A8" unicode="&#x20a8;" horiz-adv-x="900" 
d="M848 700v-65h-187q56 -47 65 -120h122v-65h-123q-10 -74 -66 -121.5t-144 -60.5l235 -268h-94l-228 263h-345v65h363q185 0 206 122h-569v65h569q-22 120 -206 120h-363v65h765z" />
    <glyph glyph-name="Euro" unicode="&#x20ac;" horiz-adv-x="909" 
d="M527 57q170 0 253 133l71 -41q-111 -170 -323 -170q-152 0 -248.5 72.5t-123.5 202.5h-108v56h101q-2 26 -2 40t2 40h-101v56h108q27 130 123.5 202.5t248.5 72.5q212 0 323 -170l-71 -41q-83 133 -253 133q-115 0 -187.5 -50t-95.5 -147h426v-56h-435q-2 -26 -2 -40
t2 -40h435v-56h-426q23 -97 95.5 -147t187.5 -50z" />
    <glyph glyph-name="uni2113" unicode="&#x2113;" horiz-adv-x="569" 
d="M345 46q77 0 112 64l53 -34q-22 -47 -68.5 -71.5t-100.5 -24.5q-73 0 -126 45.5t-53 139.5v20q-57 -26 -109 -46l-20 54q69 28 129 56v326q0 94 53.5 139.5t125.5 45.5q71 0 124.5 -46t53.5 -141q0 -198 -199 -312q-29 -16 -86 -44v-47q0 -124 111 -124zM234 570v-288
q64 33 77 41q70 43 103 108.5t33 138.5q0 124 -106 124q-107 0 -107 -124z" />
    <glyph glyph-name="uni2117" unicode="&#x2117;" horiz-adv-x="978" 
d="M489 -21q-197 0 -311 101t-114 270t114 270t311 101t311 -101t114 -270t-114 -270t-311 -101zM489 14q179 0 283 88.5t104 247.5t-104 247.5t-283 88.5t-283.5 -88.5t-104.5 -247.5t104.5 -247.5t283.5 -88.5zM576 588q90 0 145 -40t55 -114t-54.5 -114t-145.5 -40h-246
v-166h-68v474h314zM571 340q137 0 137 94t-137 94h-241v-188h241z" />
    <glyph glyph-name="trademark" unicode="&#x2122;" horiz-adv-x="973" 
d="M400 700v-50h-152v-292h-54v292h-152v50h358zM825 700h52v-342h-52v265l-160 -202h-3l-159 202v-265h-51v342h54l158 -206z" />
    <glyph glyph-name="estimated" unicode="&#x212e;" horiz-adv-x="927" 
d="M253 329v-248q85 -54 217 -54q213 0 329 147l38 -34q-129 -161 -367 -161q-188 0 -297 100t-109 271t109 271t297 100q185 0 293 -105t113 -287h-623zM686 614q-86 59 -216 59q-132 0 -217 -54v-244h433v239z" />
    <glyph glyph-name="oneeighth" unicode="&#x215b;" horiz-adv-x="1044" 
d="M145 291v338q-43 -37 -120 -49v50q71 10 134 70h43v-409h-57zM232 0h-65l437 700h65zM879 219q52 -7 87.5 -33t35.5 -76q0 -55 -58.5 -88.5t-153.5 -33.5t-154 33.5t-59 88.5q0 49 35.5 75.5t87.5 33.5q-46 3 -77 29t-31 67q0 50 57 78.5t141 28.5q83 0 140 -28.5
t57 -78.5q0 -41 -30.5 -67t-77.5 -29zM649 308q0 -69 141 -69q140 0 140 69q0 33 -40.5 50.5t-99.5 17.5q-60 0 -100.5 -17.5t-40.5 -50.5zM789 34q68 0 111.5 22t43.5 60q0 81 -155 81q-154 0 -154 -81q0 -38 43 -60t111 -22z" />
    <glyph glyph-name="threeeighths" unicode="&#x215c;" horiz-adv-x="1222" 
d="M82 403q48 -75 159 -75q59 0 100 22t41 61q0 74 -148 74h-52v46h52q134 0 134 64q0 34 -38.5 51.5t-92.5 17.5q-98 0 -144 -66l-45 27q23 40 76.5 64t118.5 24q75 0 129 -29.5t54 -80.5q0 -39 -30.5 -65t-71.5 -29q47 -6 82.5 -32t35.5 -72q0 -57 -56 -91.5t-143 -34.5
q-70 0 -126.5 28t-83.5 74zM417 0h-65l437 700h65zM1057 219q52 -7 87.5 -33t35.5 -76q0 -55 -58.5 -88.5t-153.5 -33.5t-154 33.5t-59 88.5q0 49 35.5 75.5t87.5 33.5q-46 3 -77 29t-31 67q0 50 57 78.5t141 28.5q83 0 140 -28.5t57 -78.5q0 -41 -30.5 -67t-77.5 -29z
M827 308q0 -69 141 -69q140 0 140 69q0 33 -40.5 50.5t-99.5 17.5q-60 0 -100.5 -17.5t-40.5 -50.5zM967 34q68 0 111.5 22t43.5 60q0 81 -155 81q-154 0 -154 -81q0 -38 43 -60t111 -22z" />
    <glyph glyph-name="fiveeighths" unicode="&#x215d;" horiz-adv-x="1209" 
d="M74 401q72 -72 168 -72q65 0 105 24t40 67t-38.5 64t-103.5 21q-78 0 -153 -37l-42 19l39 213h316v-49h-273l-25 -137q65 37 152 37q83 0 134.5 -33.5t51.5 -97.5q0 -62 -52 -101.5t-142 -39.5q-131 0 -216 87zM404 0h-65l437 700h65zM1044 219q52 -7 87.5 -33t35.5 -76
q0 -55 -58.5 -88.5t-153.5 -33.5t-154 33.5t-59 88.5q0 49 35.5 75.5t87.5 33.5q-46 3 -77 29t-31 67q0 50 57.5 78.5t140.5 28.5t140 -28.5t57 -78.5q0 -41 -30.5 -67t-77.5 -29zM814 308q0 -69 141 -69q140 0 140 69q0 33 -40.5 50.5t-99.5 17.5q-60 0 -100.5 -17.5
t-40.5 -50.5zM954 34q68 0 111.5 22t43.5 60q0 81 -155 81q-154 0 -154 -81q0 -38 43 -60t111 -22z" />
    <glyph glyph-name="seveneighths" unicode="&#x215e;" horiz-adv-x="1077" 
d="M124 291l221 359h-325v50h394v-40l-225 -369h-65zM272 0h-65l437 700h65zM912 219q52 -7 87.5 -33t35.5 -76q0 -55 -58.5 -88.5t-153.5 -33.5t-154 33.5t-59 88.5q0 49 35.5 75.5t87.5 33.5q-46 3 -77 29t-31 67q0 50 57.5 78.5t140.5 28.5t140 -28.5t57 -78.5
q0 -41 -30.5 -67t-77.5 -29zM682 308q0 -69 141 -69q140 0 140 69q0 33 -40.5 50.5t-99.5 17.5q-60 0 -100.5 -17.5t-40.5 -50.5zM822 34q68 0 111.5 22t43.5 60q0 81 -155 81q-154 0 -154 -81q0 -38 43 -60t111 -22z" />
    <glyph glyph-name="arrowleft" unicode="&#x2190;" horiz-adv-x="968" 
d="M861 404v-78h-646l260 -252l-52 -52l-342 343l342 342l52 -52l-260 -251h646z" />
    <glyph glyph-name="arrowup" unicode="&#x2191;" horiz-adv-x="968" 
d="M827 398l-52 -52l-252 260v-646h-78v646l-251 -260l-52 52l342 342z" />
    <glyph glyph-name="arrowright" unicode="&#x2192;" horiz-adv-x="968" 
d="M545 707l342 -342l-342 -343l-52 52l260 252h-646v78h646l-260 251z" />
    <glyph glyph-name="arrowdown" unicode="&#x2193;" horiz-adv-x="968" 
d="M775 354l52 -52l-343 -342l-342 342l52 52l251 -260v646h78v-646z" />
    <glyph glyph-name="uni2196" unicode="&#x2196;" horiz-adv-x="969" 
d="M801 108l-52 -52l-457 456v-362h-70v484h484v-70h-362z" />
    <glyph glyph-name="uni2197" unicode="&#x2197;" horiz-adv-x="969" 
d="M263 634h484v-484h-70v362l-457 -456l-52 52l457 456h-362v70z" />
    <glyph glyph-name="uni2198" unicode="&#x2198;" horiz-adv-x="969" 
d="M677 553h70v-484h-484v70h362l-457 456l52 52l457 -456v362z" />
    <glyph glyph-name="uni2199" unicode="&#x2199;" horiz-adv-x="969" 
d="M801 595l-457 -456h362v-70h-484v484h70v-362l457 456z" />
    <glyph glyph-name="partialdiff" unicode="&#x2202;" horiz-adv-x="779" 
d="M721 296q0 -317 -331 -317q-155 0 -243.5 78t-88.5 211q0 130 86 207t218 77q91 0 165 -32t108 -107q-56 211 -423 266l13 71q260 -41 378 -155t118 -299zM389 52q113 0 181.5 55t68.5 161q0 105 -68.5 160t-181.5 55q-112 0 -180.5 -55t-68.5 -160q0 -106 68.5 -161
t180.5 -55z" />
    <glyph glyph-name="emptyset" unicode="&#x2205;" horiz-adv-x="784" 
d="M718 627l-81 -81q68 -71 68 -190q0 -130 -82.5 -204.5t-230.5 -74.5q-104 0 -179 39l-95 -97l-52 48l90 90q-77 74 -77 199q0 130 82.5 204.5t230.5 74.5q113 0 191 -45l83 85zM159 356q0 -92 52 -144l176 177l141 144q-53 28 -136 28q-111 0 -172 -52t-61 -153zM625 356
q0 84 -43 135l-147 -148l-166 -170q51 -21 123 -21q112 0 172.5 51.5t60.5 152.5z" />
    <glyph glyph-name="product" unicode="&#x220f;" horiz-adv-x="852" 
d="M736 700v-820h-78v748h-464v-748h-78v820h620z" />
    <glyph glyph-name="summation" unicode="&#x2211;" horiz-adv-x="700" 
d="M645 628h-479l353 -309v-48l-356 -319h485v-72h-605v61l392 354l-389 344v61h599v-72z" />
    <glyph glyph-name="minus" unicode="&#x2212;" horiz-adv-x="740" 
d="M652 261h-563v76h563v-76z" />
    <glyph glyph-name="radical" unicode="&#x221a;" horiz-adv-x="738" 
d="M646 700h82l-337 -820h-69l-193 425h-103v73h121h32l175 -394z" />
    <glyph glyph-name="infinity" unicode="&#x221e;" horiz-adv-x="1031" 
d="M749 489q92 0 153 -53.5t61 -142.5t-61 -142.5t-153 -53.5q-75 0 -128 36.5t-106 103.5q-52 -66 -105.5 -103t-128.5 -37q-92 0 -153 53.5t-61 142.5t61 142.5t153 53.5q75 0 128.5 -37t105.5 -103q53 67 106 103.5t128 36.5zM282 163q57 0 99.5 33t91.5 97
q-49 64 -91.5 97t-99.5 33q-61 0 -102 -34.5t-41 -95.5t41 -95.5t102 -34.5zM748 163q62 0 102.5 34.5t40.5 95.5t-40.5 95.5t-102.5 34.5q-57 0 -99 -33t-91 -97q49 -64 91 -97t99 -33z" />
    <glyph glyph-name="integral" unicode="&#x222b;" horiz-adv-x="405" 
d="M324 760q41 0 73 -11l-14 -62q-20 6 -36 6q-46 0 -75.5 -25t-29.5 -73v-503v-97q0 -72 -47 -113.5t-114 -41.5q-41 0 -73 11l14 62q20 -6 36 -6q46 0 75.5 25t29.5 73v503v97q0 72 47 113.5t114 41.5z" />
    <glyph glyph-name="approxequal" unicode="&#x2248;" horiz-adv-x="739" 
d="M610 477l49 -44q-21 -34 -62 -58.5t-99 -24.5q-48 0 -129.5 28.5t-125.5 28.5q-78 0 -110 -54l-49 44q22 34 62 58.5t97 24.5q49 0 130.5 -28.5t126.5 -28.5q76 0 110 54zM610 245l49 -44q-21 -34 -62 -58.5t-99 -24.5q-48 0 -129.5 28.5t-125.5 28.5q-78 0 -110 -54
l-49 44q22 34 62 58.5t97 24.5q49 0 130.5 -28.5t126.5 -28.5q76 0 110 54z" />
    <glyph glyph-name="notequal" unicode="&#x2260;" horiz-adv-x="740" 
d="M652 382h-203l-86 -159h289v-76h-330l-65 -121h-72l65 121h-161v76h202l86 159h-288v76h328l65 120h72l-65 -120h163v-76z" />
    <glyph glyph-name="lessequal" unicode="&#x2264;" horiz-adv-x="740" 
d="M623 627l-520 -208v-66l520 -208v74l-434 167l434 167v74zM103 22v66h520v-66h-520z" />
    <glyph glyph-name="greaterequal" unicode="&#x2265;" horiz-adv-x="740" 
d="M117 627v-74l434 -167l-434 -167v-74l520 208v66zM637 22h-520v66h520v-66z" />
    <glyph glyph-name="lozenge" unicode="&#x25ca;" horiz-adv-x="734" 
d="M416 700l281 -344l-281 -356h-97l-281 356l281 344h97zM368 60l237 296l-237 286l-238 -286z" />
    <glyph glyph-name="germandbls.case" horiz-adv-x="851" 
d="M330 87q83 -29 178 -29q201 0 201 140t-199 140h-126v66h92q194 0 194 123t-213 123q-131 0 -201 -65t-70 -173v-412h-84v405q0 138 93 227t261 89q80 0 145.5 -19t109.5 -62.5t44 -105.5t-40.5 -104.5t-116.5 -52.5q88 -7 142.5 -53.5t54.5 -133.5q0 -94 -74 -149
t-195 -55q-106 0 -216 36z" />
    <glyph glyph-name="a.ss01" horiz-adv-x="798" 
d="M354 565q88 0 156.5 -33.5t106.5 -91.5v105h82v-545h-82v105q-38 -58 -106.5 -91.5t-156.5 -33.5q-136 0 -216 79.5t-80 212.5t80 213t216 80zM375 53q165 0 242 133v173q-77 133 -242 133q-112 0 -173 -57t-61 -163q0 -105 61 -162t173 -57z" />
    <glyph glyph-name="aacute.ss01" horiz-adv-x="798" 
d="M614 775l-221 -150h-78l165 150h134zM354 565q88 0 156.5 -33.5t106.5 -91.5v105h82v-545h-82v105q-38 -58 -106.5 -91.5t-156.5 -33.5q-136 0 -216 79.5t-80 212.5t80 213t216 80zM375 53q165 0 242 133v173q-77 133 -242 133q-112 0 -173 -57t-61 -163q0 -105 61 -162
t173 -57z" />
    <glyph glyph-name="abreve.ss01" horiz-adv-x="798" 
d="M575 775q0 -23 -9 -48t-27.5 -50t-54 -41t-81.5 -16q-47 0 -82.5 16t-53.5 41t-27 50t-9 48h69q2 -37 29 -64t74 -27q46 0 73.5 27.5t28.5 63.5h70zM354 565q88 0 156.5 -33.5t106.5 -91.5v105h82v-545h-82v105q-38 -58 -106.5 -91.5t-156.5 -33.5q-136 0 -216 79.5
t-80 212.5t80 213t216 80zM375 53q165 0 242 133v173q-77 133 -242 133q-112 0 -173 -57t-61 -163q0 -105 61 -162t173 -57z" />
    <glyph glyph-name="acircumflex.ss01" horiz-adv-x="798" 
d="M200 625h95l106 103l107 -103h95l-156 150h-91zM354 565q88 0 156.5 -33.5t106.5 -91.5v105h82v-545h-82v105q-38 -58 -106.5 -91.5t-156.5 -33.5q-136 0 -216 79.5t-80 212.5t80 213t216 80zM375 53q165 0 242 133v173q-77 133 -242 133q-112 0 -173 -57t-61 -163
q0 -105 61 -162t173 -57z" />
    <glyph glyph-name="adieresis.ss01" horiz-adv-x="798" 
d="M272 638q-23 0 -38 14.5t-15 33.5q0 20 15 34.5t38 14.5q22 0 37 -14.5t15 -34.5q0 -19 -15 -33.5t-37 -14.5zM532 638q-23 0 -38 14.5t-15 33.5q0 20 15 34.5t38 14.5q22 0 37 -14.5t15 -34.5q0 -19 -15 -33.5t-37 -14.5zM354 565q88 0 156.5 -33.5t106.5 -91.5v105h82
v-545h-82v105q-38 -58 -106.5 -91.5t-156.5 -33.5q-136 0 -216 79.5t-80 212.5t80 213t216 80zM375 53q165 0 242 133v173q-77 133 -242 133q-112 0 -173 -57t-61 -163q0 -105 61 -162t173 -57z" />
    <glyph glyph-name="agrave.ss01" horiz-adv-x="798" 
d="M191 775h134l165 -150h-78zM354 565q88 0 156.5 -33.5t106.5 -91.5v105h82v-545h-82v105q-38 -58 -106.5 -91.5t-156.5 -33.5q-136 0 -216 79.5t-80 212.5t80 213t216 80zM375 53q165 0 242 133v173q-77 133 -242 133q-112 0 -173 -57t-61 -163q0 -105 61 -162t173 -57z
" />
    <glyph glyph-name="amacron.ss01" horiz-adv-x="798" 
d="M209 719h386v-69h-386v69zM354 565q88 0 156.5 -33.5t106.5 -91.5v105h82v-545h-82v105q-38 -58 -106.5 -91.5t-156.5 -33.5q-136 0 -216 79.5t-80 212.5t80 213t216 80zM375 53q165 0 242 133v173q-77 133 -242 133q-112 0 -173 -57t-61 -163q0 -105 61 -162t173 -57z
" />
    <glyph glyph-name="aogonek.ss01" horiz-adv-x="798" 
d="M732 -178l20 -28q-46 -39 -111 -39q-54 0 -93 26t-39 76q0 48 31.5 86t84.5 57h-8v105q-38 -58 -106.5 -91.5t-156.5 -33.5q-136 0 -216 79.5t-80 212.5t80 213t216 80q88 0 156.5 -33.5t106.5 -91.5v105h82v-545h-1q-51 -18 -85.5 -55t-34.5 -80q0 -34 21.5 -50.5
t55.5 -16.5q40 0 77 24zM617 186v173q-77 133 -242 133q-112 0 -173 -57t-61 -163q0 -105 61 -162t173 -57q165 0 242 133z" />
    <glyph glyph-name="aring.ss01" horiz-adv-x="798" 
d="M402 618q-56 0 -92.5 27.5t-36.5 79.5q0 51 37 79t92 28t92 -28t37 -79q0 -52 -36.5 -79.5t-92.5 -27.5zM333 725q0 -29 19 -45t51 -16t51 16t19 45t-19 45t-51 16t-51 -16t-19 -45zM354 565q88 0 156.5 -33.5t106.5 -91.5v105h82v-545h-82v105q-38 -58 -106.5 -91.5
t-156.5 -33.5q-136 0 -216 79.5t-80 212.5t80 213t216 80zM375 53q165 0 242 133v173q-77 133 -242 133q-112 0 -173 -57t-61 -163q0 -105 61 -162t173 -57z" />
    <glyph glyph-name="aringacute.ss01" horiz-adv-x="798" 
d="M402 618q-56 0 -92.5 27.5t-36.5 79.5q0 50 38 80l128 126h94l-125 -99q54 -2 88.5 -29.5t34.5 -77.5q0 -52 -36.5 -79.5t-92.5 -27.5zM473 725q0 29 -19 45t-51 16t-51 -16t-19 -45t19 -45t51 -16t51 16t19 45zM617 545h82v-545h-82v105q-38 -58 -106.5 -91.5
t-156.5 -33.5q-136 0 -216 79.5t-80 212.5t80 213t216 80q88 0 156.5 -33.5t106.5 -91.5v105zM617 186v173q-77 133 -242 133q-112 0 -173 -57t-61 -163q0 -105 61 -162t173 -57q165 0 242 133z" />
    <glyph glyph-name="atilde.ss01" horiz-adv-x="798" 
d="M600 763l49 -32q-18 -35 -55 -60t-92 -25q-46 0 -107 28.5t-97 28.5q-59 0 -94 -52l-49 32q45 85 147 85q45 0 106 -28.5t98 -28.5q57 0 94 52zM354 565q88 0 156.5 -33.5t106.5 -91.5v105h82v-545h-82v105q-38 -58 -106.5 -91.5t-156.5 -33.5q-136 0 -216 79.5
t-80 212.5t80 213t216 80zM375 53q165 0 242 133v173q-77 133 -242 133q-112 0 -173 -57t-61 -163q0 -105 61 -162t173 -57z" />
    <glyph glyph-name="a.sc" horiz-adv-x="827" 
d="M712 0l-88 156h-422l-89 -156h-93l347 605h94l346 -605h-95zM244 231h337l-168 297z" />
    <glyph glyph-name="aacute.sc" horiz-adv-x="827" 
d="M626 835l-221 -150h-78l165 150h134zM712 0l-88 156h-422l-89 -156h-93l347 605h94l346 -605h-95zM244 231h337l-168 297z" />
    <glyph glyph-name="abreve.sc" horiz-adv-x="827" 
d="M415 680q-47 0 -82.5 16t-53.5 41t-27 50t-9 48h69q2 -37 29 -64t74 -27q46 0 73.5 27.5t28.5 63.5h70q0 -23 -9 -48t-27.5 -50t-54 -41t-81.5 -16zM712 0l-88 156h-422l-89 -156h-93l347 605h94l346 -605h-95zM244 231h337l-168 297z" />
    <glyph glyph-name="acircumflex.sc" horiz-adv-x="827" 
d="M413 788l-106 -103h-95l156 150h91l156 -150h-95zM712 0l-88 156h-422l-89 -156h-93l347 605h94l346 -605h-95zM244 231h337l-168 297z" />
    <glyph glyph-name="adieresis.sc" horiz-adv-x="827" 
d="M284 698q-23 0 -38 14.5t-15 33.5q0 20 15 34.5t38 14.5q22 0 37 -14.5t15 -34.5q0 -19 -15 -33.5t-37 -14.5zM544 698q-23 0 -38 14.5t-15 33.5q0 20 15 34.5t38 14.5q22 0 37 -14.5t15 -34.5q0 -19 -15 -33.5t-37 -14.5zM712 0l-88 156h-422l-89 -156h-93l347 605h94
l346 -605h-95zM244 231h337l-168 297z" />
    <glyph glyph-name="agrave.sc" horiz-adv-x="827" 
d="M502 685h-78l-221 150h134zM712 0l-88 156h-422l-89 -156h-93l347 605h94l346 -605h-95zM244 231h337l-168 297z" />
    <glyph glyph-name="amacron.sc" horiz-adv-x="827" 
d="M607 779v-69h-386v69h386zM712 0l-88 156h-422l-89 -156h-93l347 605h94l346 -605h-95zM244 231h337l-168 297z" />
    <glyph glyph-name="aogonek.sc" horiz-adv-x="827" 
d="M840 -178l20 -28q-46 -39 -111 -39q-54 0 -93 26t-39 76q0 48 31.5 86t84.5 57h-21l-88 156h-422l-89 -156h-93l347 605h94l346 -605h-1q-51 -18 -85.5 -55t-34.5 -80q0 -34 21.5 -50.5t55.5 -16.5q40 0 77 24zM244 231h337l-168 297z" />
    <glyph glyph-name="aring.sc" horiz-adv-x="827" 
d="M414 678q-56 0 -92.5 27.5t-36.5 79.5q0 51 37 79t92 28t92 -28t37 -79q0 -52 -36.5 -79.5t-92.5 -27.5zM415 846q-32 0 -51 -16t-19 -45t19 -45t51 -16t51 16t19 45t-19 45t-51 16zM712 0l-88 156h-422l-89 -156h-93l347 605h94l346 -605h-95zM244 231h337l-168 297z
" />
    <glyph glyph-name="aringacute.sc" horiz-adv-x="827" 
d="M414 678q-56 0 -92.5 27.5t-36.5 79.5q0 50 38 80l128 126h94l-125 -99q54 -2 88.5 -29.5t34.5 -77.5q0 -52 -36.5 -79.5t-92.5 -27.5zM485 785q0 29 -19 45t-51 16t-51 -16t-19 -45t19 -45t51 -16t51 16t19 45zM712 0l-88 156h-422l-89 -156h-93l347 605h94l346 -605
h-95zM244 231h337l-168 297z" />
    <glyph glyph-name="atilde.sc" horiz-adv-x="827" 
d="M310 763q-59 0 -94 -52l-49 32q45 85 147 85q45 0 106 -28.5t98 -28.5q57 0 94 52l49 -32q-18 -35 -55 -60t-92 -25q-46 0 -107 28.5t-97 28.5zM712 0l-88 156h-422l-89 -156h-93l347 605h94l346 -605h-95zM244 231h337l-168 297z" />
    <glyph glyph-name="ae.sc" horiz-adv-x="1272" 
d="M679 76h533v-76h-617v148h-359l-136 -148h-102l554 605h57h594v-76h-524v-184h433v-75h-433v-194zM306 224h289v315z" />
    <glyph glyph-name="aeacute.sc" horiz-adv-x="1272" 
d="M1073 835l-221 -150h-78l165 150h134zM679 76h533v-76h-617v148h-359l-136 -148h-102l554 605h57h594v-76h-524v-184h433v-75h-433v-194zM306 224h289v315z" />
    <glyph glyph-name="b.sc" horiz-adv-x="855" 
d="M624 317q74 -5 121.5 -41.5t47.5 -108.5q0 -81 -63.5 -124t-176.5 -43h-443v605h407q112 0 176 -38.5t64 -111.5q0 -55 -36 -93.5t-97 -44.5zM193 533v-183h312q85 0 126.5 19.5t41.5 71.5q0 51 -42 71.5t-126 20.5h-312zM538 72q84 0 126 23t42 79q0 58 -42 81t-126 23
h-345v-206h345z" />
    <glyph glyph-name="c.sc" horiz-adv-x="817" 
d="M446 58q176 0 247 111l78 -39q-46 -69 -130 -109.5t-197 -40.5q-176 0 -279 87t-103 235t103.5 235.5t281.5 87.5q110 0 193.5 -41.5t129.5 -109.5l-78 -39q-72 112 -246 112q-138 0 -218 -63t-80 -182q0 -118 80 -181t218 -63z" />
    <glyph glyph-name="cacute.sc" horiz-adv-x="817" 
d="M653 836l-221 -150h-78l165 150h134zM446 58q176 0 247 111l78 -39q-46 -69 -130 -109.5t-197 -40.5q-176 0 -279 87t-103 235t103.5 235.5t281.5 87.5q110 0 193.5 -41.5t129.5 -109.5l-78 -39q-72 112 -246 112q-138 0 -218 -63t-80 -182q0 -118 80 -181t218 -63z" />
    <glyph glyph-name="ccaron.sc" horiz-adv-x="817" 
d="M239 836l156 -150h91l156 150h-95l-107 -103l-106 103h-95zM446 58q176 0 247 111l78 -39q-46 -69 -130 -109.5t-197 -40.5q-176 0 -279 87t-103 235t103.5 235.5t281.5 87.5q110 0 193.5 -41.5t129.5 -109.5l-78 -39q-72 112 -246 112q-138 0 -218 -63t-80 -182
q0 -118 80 -181t218 -63z" />
    <glyph glyph-name="ccedilla.sc" horiz-adv-x="817" 
d="M446 58q176 0 247 111l78 -39q-46 -69 -130 -109.5t-197 -40.5q-176 0 -279 87t-103 235t103.5 235.5t281.5 87.5q110 0 193.5 -41.5t129.5 -109.5l-78 -39q-72 112 -246 112q-138 0 -218 -63t-80 -182q0 -118 80 -181t218 -63zM474 -52l-119 -158l-69 18l103 156z" />
    <glyph glyph-name="ccircumflex.sc" horiz-adv-x="817" 
d="M239 686h95l106 103l107 -103h95l-156 150h-91zM446 58q176 0 247 111l78 -39q-46 -69 -130 -109.5t-197 -40.5q-176 0 -279 87t-103 235t103.5 235.5t281.5 87.5q110 0 193.5 -41.5t129.5 -109.5l-78 -39q-72 112 -246 112q-138 0 -218 -63t-80 -182q0 -118 80 -181
t218 -63z" />
    <glyph glyph-name="cdotaccent.sc" horiz-adv-x="817" 
d="M441 699q-22 0 -35 11.5t-13 30.5t13 31t35 12q21 0 34 -12t13 -31t-13 -30.5t-34 -11.5zM446 58q176 0 247 111l78 -39q-46 -69 -130 -109.5t-197 -40.5q-176 0 -279 87t-103 235t103.5 235.5t281.5 87.5q110 0 193.5 -41.5t129.5 -109.5l-78 -39q-72 112 -246 112
q-138 0 -218 -63t-80 -182q0 -118 80 -181t218 -63z" />
    <glyph glyph-name="d.sc" horiz-adv-x="865" 
d="M421 605q175 0 278.5 -81.5t103.5 -221.5q0 -139 -103.5 -220.5t-278.5 -81.5h-311v605h311zM415 78q138 0 220 57t82 167q0 111 -82 168t-220 57h-221v-449h221z" />
    <glyph glyph-name="eth.sc" horiz-adv-x="877" 
d="M433 605q175 0 278.5 -81.5t103.5 -221.5q0 -139 -103.5 -220.5t-278.5 -81.5h-311v274h-94v69h94v262h311zM427 78q138 0 220 57t82 167q0 111 -82 168t-220 57h-221v-184h204v-69h-204v-196h221z" />
    <glyph glyph-name="dcaron.sc" horiz-adv-x="865" 
d="M223 835l156 -150h91l156 150h-95l-107 -103l-106 103h-95zM421 605q175 0 278.5 -81.5t103.5 -221.5q0 -139 -103.5 -220.5t-278.5 -81.5h-311v605h311zM415 78q138 0 220 57t82 167q0 111 -82 168t-220 57h-221v-449h221z" />
    <glyph glyph-name="dcroat.sc" horiz-adv-x="877" 
d="M433 605q175 0 278.5 -81.5t103.5 -221.5q0 -139 -103.5 -220.5t-278.5 -81.5h-311v274h-94v69h94v262h311zM427 78q138 0 220 57t82 167q0 111 -82 168t-220 57h-221v-184h204v-69h-204v-196h221z" />
    <glyph glyph-name="e.sc" horiz-adv-x="787" 
d="M194 76h533v-76h-617v605h608v-76h-524v-184h442v-76h-442v-193z" />
    <glyph glyph-name="eacute.sc" horiz-adv-x="787" 
d="M622 835l-221 -150h-78l165 150h134zM194 76h533v-76h-617v605h608v-76h-524v-184h442v-76h-442v-193z" />
    <glyph glyph-name="ebreve.sc" horiz-adv-x="787" 
d="M583 835q0 -23 -9 -48t-27.5 -50t-54 -41t-81.5 -16q-47 0 -82.5 16t-53.5 41t-27 50t-9 48h69q2 -37 29 -64t74 -27q46 0 73.5 27.5t28.5 63.5h70zM194 76h533v-76h-617v605h608v-76h-524v-184h442v-76h-442v-193z" />
    <glyph glyph-name="ecaron.sc" horiz-adv-x="787" 
d="M208 835l156 -150h91l156 150h-95l-107 -103l-106 103h-95zM194 76h533v-76h-617v605h608v-76h-524v-184h442v-76h-442v-193z" />
    <glyph glyph-name="ecircumflex.sc" horiz-adv-x="787" 
d="M208 685h95l106 103l107 -103h95l-156 150h-91zM194 76h533v-76h-617v605h608v-76h-524v-184h442v-76h-442v-193z" />
    <glyph glyph-name="edieresis.sc" horiz-adv-x="787" 
d="M280 698q-23 0 -38 14.5t-15 33.5q0 20 15 34.5t38 14.5q22 0 37 -14.5t15 -34.5q0 -19 -15 -33.5t-37 -14.5zM540 698q-23 0 -38 14.5t-15 33.5q0 20 15 34.5t38 14.5q22 0 37 -14.5t15 -34.5q0 -19 -15 -33.5t-37 -14.5zM194 76h533v-76h-617v605h608v-76h-524v-184
h442v-76h-442v-193z" />
    <glyph glyph-name="edotaccent.sc" horiz-adv-x="787" 
d="M410 698q-22 0 -35 11.5t-13 30.5t13 31t35 12q21 0 34 -12t13 -31t-13 -30.5t-34 -11.5zM194 76h533v-76h-617v605h608v-76h-524v-184h442v-76h-442v-193z" />
    <glyph glyph-name="egrave.sc" horiz-adv-x="787" 
d="M199 835h134l165 -150h-78zM194 76h533v-76h-617v605h608v-76h-524v-184h442v-76h-442v-193z" />
    <glyph glyph-name="emacron.sc" horiz-adv-x="787" 
d="M217 779h386v-69h-386v69zM194 76h533v-76h-617v605h608v-76h-524v-184h442v-76h-442v-193z" />
    <glyph glyph-name="eogonek.sc" horiz-adv-x="787" 
d="M759 -178l20 -28q-46 -39 -111 -39q-54 0 -93 26t-39 76q0 48 31.5 86t84.5 57h-542v605h608v-76h-524v-184h442v-76h-442v-193h533v-76h-2q-51 -18 -85.5 -55t-34.5 -80q0 -34 21.5 -50.5t55.5 -16.5q40 0 77 24z" />
    <glyph glyph-name="f.sc" horiz-adv-x="755" 
d="M717 529h-523v-200h442v-76h-442v-253h-84v605h607v-76z" />
    <glyph glyph-name="fi.sc" horiz-adv-x="1059" 
d="M717 529h-523v-200h442v-76h-442v-253h-84v605h607v-76zM949 0h-84v605h84v-605z" />
    <glyph glyph-name="fl.sc" horiz-adv-x="1458" 
d="M717 529h-523v-200h442v-76h-442v-253h-84v605h607v-76zM949 78h481v-78h-565v605h84v-527z" />
    <glyph glyph-name="g.sc" horiz-adv-x="873" 
d="M810 316v-170q-40 -74 -134.5 -120t-221.5 -46q-183 0 -287.5 86.5t-104.5 235.5t104.5 236t287.5 87q215 0 324 -124l-70 -52q-90 99 -251 99q-146 0 -227.5 -63t-81.5 -183q0 -119 82 -182t227 -63q206 0 269 114v69h-281v76h365z" />
    <glyph glyph-name="gbreve.sc" horiz-adv-x="873" 
d="M625 836q0 -23 -9 -48t-27.5 -50t-54 -41t-81.5 -16q-47 0 -82.5 16t-53.5 41t-27 50t-9 48h69q2 -37 29 -64t74 -27q46 0 73.5 27.5t28.5 63.5h70zM810 316v-170q-40 -74 -134.5 -120t-221.5 -46q-183 0 -287.5 86.5t-104.5 235.5t104.5 236t287.5 87q215 0 324 -124
l-70 -52q-90 99 -251 99q-146 0 -227.5 -63t-81.5 -183q0 -119 82 -182t227 -63q206 0 269 114v69h-281v76h365z" />
    <glyph glyph-name="gcircumflex.sc" horiz-adv-x="873" 
d="M250 686h95l106 103l107 -103h95l-156 150h-91zM810 316v-170q-40 -74 -134.5 -120t-221.5 -46q-183 0 -287.5 86.5t-104.5 235.5t104.5 236t287.5 87q215 0 324 -124l-70 -52q-90 99 -251 99q-146 0 -227.5 -63t-81.5 -183q0 -119 82 -182t227 -63q206 0 269 114v69
h-281v76h365z" />
    <glyph glyph-name="gcommaaccent.sc" horiz-adv-x="873" 
d="M810 316v-170q-40 -74 -134.5 -120t-221.5 -46q-183 0 -287.5 86.5t-104.5 235.5t104.5 236t287.5 87q215 0 324 -124l-70 -52q-90 99 -251 99q-146 0 -227.5 -63t-81.5 -183q0 -119 82 -182t227 -63q206 0 269 114v69h-281v76h365zM453 -58q27 0 44.5 -17.5t17.5 -46.5
q0 -42 -22 -92t-60 -85l-27 23q53 61 60 111q-4 -4 -16 -4q-24 0 -40 16t-16 40q0 23 17 39t42 16z" />
    <glyph glyph-name="gdotaccent.sc" horiz-adv-x="873" 
d="M452 699q-22 0 -35 11.5t-13 30.5t13 31t35 12q21 0 34 -12t13 -31t-13 -30.5t-34 -11.5zM810 316v-170q-40 -74 -134.5 -120t-221.5 -46q-183 0 -287.5 86.5t-104.5 235.5t104.5 236t287.5 87q215 0 324 -124l-70 -52q-90 99 -251 99q-146 0 -227.5 -63t-81.5 -183
q0 -119 82 -182t227 -63q206 0 269 114v69h-281v76h365z" />
    <glyph glyph-name="h.sc" 
d="M705 605h84v-605h-84v267h-511v-267h-84v605h84v-258h511v258z" />
    <glyph glyph-name="hbar.sc" horiz-adv-x="931" 
d="M903 495v-62h-98v-433h-84v267h-511v-267h-84v433h-98v62h98v110h84v-110h511v110h84v-110h98zM721 347v86h-511v-86h511z" />
    <glyph glyph-name="hcircumflex.sc" 
d="M248 686h95l106 103l107 -103h95l-156 150h-91zM705 605h84v-605h-84v267h-511v-267h-84v605h84v-258h511v258z" />
    <glyph glyph-name="i.sc" horiz-adv-x="304" 
d="M194 0h-84v605h84v-605z" />
    <glyph glyph-name="iacute.sc" horiz-adv-x="304" 
d="M363 835l-221 -150h-78l165 150h134zM194 0h-84v605h84v-605z" />
    <glyph glyph-name="ibreve.sc" horiz-adv-x="304" 
d="M324 835q0 -23 -9 -48t-27.5 -50t-54 -41t-81.5 -16q-47 0 -82.5 16t-53.5 41t-27 50t-9 48h69q2 -37 29 -64t74 -27q46 0 73.5 27.5t28.5 63.5h70zM194 0h-84v605h84v-605z" />
    <glyph glyph-name="icircumflex.sc" horiz-adv-x="304" 
d="M-51 685h95l106 103l107 -103h95l-156 150h-91zM194 0h-84v605h84v-605z" />
    <glyph glyph-name="idieresis.sc" horiz-adv-x="304" 
d="M21 698q-23 0 -38 14.5t-15 33.5q0 20 15 34.5t38 14.5q22 0 37 -14.5t15 -34.5q0 -19 -15 -33.5t-37 -14.5zM281 698q-23 0 -38 14.5t-15 33.5q0 20 15 34.5t38 14.5q22 0 37 -14.5t15 -34.5q0 -19 -15 -33.5t-37 -14.5zM194 0h-84v605h84v-605z" />
    <glyph glyph-name="i.sc.loclTRK" horiz-adv-x="304" 
d="M151 698q-22 0 -35 11.5t-13 30.5t13 31t35 12q21 0 34 -12t13 -31t-13 -30.5t-34 -11.5zM194 0h-84v605h84v-605z" />
    <glyph glyph-name="igrave.sc" horiz-adv-x="304" 
d="M-60 835h134l165 -150h-78zM194 0h-84v605h84v-605z" />
    <glyph glyph-name="ij.sc" horiz-adv-x="948" 
d="M194 0h-84v605h84v-605zM394 130q25 -38 65.5 -55t107.5 -17q102 0 150.5 53t48.5 147v347h84v-353q0 -120 -71 -196t-212 -76q-165 0 -242 105z" />
    <glyph glyph-name="imacron.sc" horiz-adv-x="316" 
d="M-35 874h386v-69h-386v69zM200 0h-84v700h84v-700z" />
    <glyph glyph-name="iogonek.sc" horiz-adv-x="316" 
d="M233 -178l20 -28q-46 -39 -111 -39q-54 0 -93 26t-39 76q0 48 31.5 86t84.5 57h-10v700h84v-700h-1q-51 -18 -85.5 -55t-34.5 -80q0 -34 21.5 -50.5t55.5 -16.5q40 0 77 24z" />
    <glyph glyph-name="itilde.sc" horiz-adv-x="316" 
d="M356 918l49 -32q-18 -35 -55 -60t-92 -25q-46 0 -107 28.5t-97 28.5q-59 0 -94 -52l-49 32q45 85 147 85q45 0 106 -28.5t98 -28.5q57 0 94 52zM200 0h-84v700h84v-700z" />
    <glyph glyph-name="j.sc" horiz-adv-x="644" 
d="M90 130q25 -38 65.5 -55t107.5 -17q102 0 150.5 53t48.5 147v347h84v-353q0 -120 -71 -196t-212 -76q-165 0 -242 105z" />
    <glyph glyph-name="jcircumflex.sc" horiz-adv-x="644" 
d="M302 685h95l106 103l107 -103h95l-156 150h-91zM90 130q25 -38 65.5 -55t107.5 -17q102 0 150.5 53t48.5 147v347h84v-353q0 -120 -71 -196t-212 -76q-165 0 -242 105z" />
    <glyph glyph-name="k.sc" horiz-adv-x="813" 
d="M799 0h-106l-294 319l-205 -154v-165h-84v605h84v-345l468 345h118l-313 -238z" />
    <glyph glyph-name="kcommaaccent.sc" horiz-adv-x="813" 
d="M467 367l332 -367h-106l-294 319l-205 -154v-165h-84v605h84v-345l468 345h118zM433 -58q27 0 44.5 -17.5t17.5 -46.5q0 -42 -22 -92t-60 -85l-27 23q53 61 60 111q-4 -4 -16 -4q-24 0 -40 16t-16 40q0 23 17 39t42 16z" />
    <glyph glyph-name="l.sc" horiz-adv-x="703" 
d="M194 78h481v-78h-565v605h84v-527z" />
    <glyph glyph-name="lacute.sc" horiz-adv-x="703" 
d="M364 835l-221 -150h-78l165 150h134zM194 78h481v-78h-565v605h84v-527z" />
    <glyph glyph-name="lcaron.sc" horiz-adv-x="703" 
d="M436 635q27 0 44.5 -17.5t17.5 -46.5q0 -42 -22 -92t-60 -85l-27 23q53 61 60 111q-4 -4 -16 -4q-24 0 -40 16t-16 40q0 23 17 39t42 16zM194 78h481v-78h-565v605h84v-527z" />
    <glyph glyph-name="lcommaaccent.sc" horiz-adv-x="703" 
d="M194 78h481v-78h-565v605h84v-527zM393 -58q27 0 44.5 -17.5t17.5 -46.5q0 -42 -22 -92t-60 -85l-27 23q53 61 60 111q-4 -4 -16 -4q-24 0 -40 16t-16 40q0 23 17 39t42 16z" />
    <glyph glyph-name="ldot.sc" horiz-adv-x="703" 
d="M194 78h481v-78h-565v605h84v-527zM401 289q-26 0 -43 16t-17 40t17 40t43 16t43 -16t17 -40t-17 -40t-43 -16z" />
    <glyph glyph-name="lslash.sc" horiz-adv-x="734" 
d="M225 78h481v-78h-565v235l-103 -51v69l103 51v301h84v-260l186 92v-70l-186 -91v-198z" />
    <glyph glyph-name="m.sc" horiz-adv-x="1026" 
d="M825 605h91v-605h-84v487l-317 -364h-6l-317 364v-487h-82v605h92l312 -361z" />
    <glyph glyph-name="n.sc" 
d="M707 605h82v-605h-74l-523 498v-498h-82v605h91l506 -482v482z" />
    <glyph glyph-name="nacute.sc" 
d="M662 835l-221 -150h-78l165 150h134zM707 605h82v-605h-74l-523 498v-498h-82v605h91l506 -482v482z" />
    <glyph glyph-name="ncaron.sc" 
d="M248 835l156 -150h91l156 150h-95l-107 -103l-106 103h-95zM707 605h82v-605h-74l-523 498v-498h-82v605h91l506 -482v482z" />
    <glyph glyph-name="ncommaaccent.sc" 
d="M707 605h82v-605h-74l-523 498v-498h-82v605h91l506 -482v482zM451 -58q27 0 44.5 -17.5t17.5 -46.5q0 -42 -22 -92t-60 -85l-27 23q53 61 60 111q-4 -4 -16 -4q-24 0 -40 16t-16 40q0 23 17 39t42 16z" />
    <glyph glyph-name="eng.sc" 
d="M706 605h83v-587v-48q0 -75 -43.5 -117.5t-116.5 -42.5q-59 0 -93 15l20 63q19 -8 57 -8q49 0 72 19.5t22 66.5v42l-515 490v-498h-82v605h91l505 -482v96l-1 253h1v133z" />
    <glyph glyph-name="ntilde.sc" 
d="M648 823l49 -32q-18 -35 -55 -60t-92 -25q-46 0 -107 28.5t-97 28.5q-59 0 -94 -52l-49 32q45 85 147 85q45 0 106 -28.5t98 -28.5q57 0 94 52zM707 605h82v-605h-74l-523 498v-498h-82v605h91l506 -482v482z" />
    <glyph glyph-name="o.sc" 
d="M450 -20q-181 0 -284.5 87t-103.5 235q0 149 103.5 236t284.5 87q180 0 283.5 -87t103.5 -236q0 -148 -103.5 -235t-283.5 -87zM450 58q138 0 219.5 64.5t81.5 179.5q0 116 -81 180.5t-220 64.5t-220.5 -64.5t-81.5 -180.5t81.5 -180t220.5 -64z" />
    <glyph glyph-name="oacute.sc" 
d="M662 835l-221 -150h-78l165 150h134zM450 -20q-181 0 -284.5 87t-103.5 235q0 149 103.5 236t284.5 87q180 0 283.5 -87t103.5 -236q0 -148 -103.5 -235t-283.5 -87zM450 58q138 0 219.5 64.5t81.5 179.5q0 116 -81 180.5t-220 64.5t-220.5 -64.5t-81.5 -180.5t81.5 -180
t220.5 -64z" />
    <glyph glyph-name="obreve.sc" 
d="M623 835q0 -23 -9 -48t-27.5 -50t-54 -41t-81.5 -16q-47 0 -82.5 16t-53.5 41t-27 50t-9 48h69q2 -37 29 -64t74 -27q46 0 73.5 27.5t28.5 63.5h70zM450 -20q-181 0 -284.5 87t-103.5 235q0 149 103.5 236t284.5 87q180 0 283.5 -87t103.5 -236q0 -148 -103.5 -235
t-283.5 -87zM450 58q138 0 219.5 64.5t81.5 179.5q0 116 -81 180.5t-220 64.5t-220.5 -64.5t-81.5 -180.5t81.5 -180t220.5 -64z" />
    <glyph glyph-name="ocircumflex.sc" 
d="M248 685h95l106 103l107 -103h95l-156 150h-91zM450 -20q-181 0 -284.5 87t-103.5 235q0 149 103.5 236t284.5 87q180 0 283.5 -87t103.5 -236q0 -148 -103.5 -235t-283.5 -87zM450 58q138 0 219.5 64.5t81.5 179.5q0 116 -81 180.5t-220 64.5t-220.5 -64.5t-81.5 -180.5
t81.5 -180t220.5 -64z" />
    <glyph glyph-name="odieresis.sc" 
d="M320 698q-23 0 -38 14.5t-15 33.5q0 20 15 34.5t38 14.5q22 0 37 -14.5t15 -34.5q0 -19 -15 -33.5t-37 -14.5zM580 698q-23 0 -38 14.5t-15 33.5q0 20 15 34.5t38 14.5q22 0 37 -14.5t15 -34.5q0 -19 -15 -33.5t-37 -14.5zM450 -20q-181 0 -284.5 87t-103.5 235
q0 149 103.5 236t284.5 87q180 0 283.5 -87t103.5 -236q0 -148 -103.5 -235t-283.5 -87zM450 58q138 0 219.5 64.5t81.5 179.5q0 116 -81 180.5t-220 64.5t-220.5 -64.5t-81.5 -180.5t81.5 -180t220.5 -64z" />
    <glyph glyph-name="ograve.sc" 
d="M239 835h134l165 -150h-78zM450 -20q-181 0 -284.5 87t-103.5 235q0 149 103.5 236t284.5 87q180 0 283.5 -87t103.5 -236q0 -148 -103.5 -235t-283.5 -87zM450 58q138 0 219.5 64.5t81.5 179.5q0 116 -81 180.5t-220 64.5t-220.5 -64.5t-81.5 -180.5t81.5 -180
t220.5 -64z" />
    <glyph glyph-name="ohungarumlaut.sc" 
d="M517 835l-164 -150h-87l164 150h87zM714 835l-164 -150h-87l164 150h87zM450 -20q-181 0 -284.5 87t-103.5 235q0 149 103.5 236t284.5 87q180 0 283.5 -87t103.5 -236q0 -148 -103.5 -235t-283.5 -87zM450 58q138 0 219.5 64.5t81.5 179.5q0 116 -81 180.5t-220 64.5
t-220.5 -64.5t-81.5 -180.5t81.5 -180t220.5 -64z" />
    <glyph glyph-name="omacron.sc" 
d="M257 779h386v-69h-386v69zM450 -20q-181 0 -284.5 87t-103.5 235q0 149 103.5 236t284.5 87q180 0 283.5 -87t103.5 -236q0 -148 -103.5 -235t-283.5 -87zM450 58q138 0 219.5 64.5t81.5 179.5q0 116 -81 180.5t-220 64.5t-220.5 -64.5t-81.5 -180.5t81.5 -180t220.5 -64
z" />
    <glyph glyph-name="oslash.sc" 
d="M690 569q147 -86 147 -267q0 -148 -103.5 -235t-283.5 -87q-97 0 -173 26l-72 -98h-84l92 126q-151 86 -151 268q0 149 103.5 236t284.5 87q98 0 177 -28l73 100h84zM148 302q0 -137 114 -202l315 430q-57 17 -127 17q-139 0 -220.5 -64.5t-81.5 -180.5zM450 58
q138 0 219.5 64.5t81.5 179.5q0 136 -110 200l-314 -428q52 -16 123 -16z" />
    <glyph glyph-name="oslashacute.sc" 
d="M661 835l-221 -150h-78l165 150h134zM690 569q147 -86 147 -267q0 -148 -103.5 -235t-283.5 -87q-97 0 -173 26l-72 -98h-84l92 126q-151 86 -151 268q0 149 103.5 236t284.5 87q98 0 177 -28l73 100h84zM148 302q0 -137 114 -202l315 430q-57 17 -127 17
q-139 0 -220.5 -64.5t-81.5 -180.5zM450 58q138 0 219.5 64.5t81.5 179.5q0 136 -110 200l-314 -428q52 -16 123 -16z" />
    <glyph glyph-name="otilde.sc" 
d="M648 823l49 -32q-18 -35 -55 -60t-92 -25q-46 0 -107 28.5t-97 28.5q-59 0 -94 -52l-49 32q45 85 147 85q45 0 106 -28.5t98 -28.5q57 0 94 52zM450 -20q-181 0 -284.5 87t-103.5 235q0 149 103.5 236t284.5 87q180 0 283.5 -87t103.5 -236q0 -148 -103.5 -235
t-283.5 -87zM450 58q138 0 219.5 64.5t81.5 179.5q0 116 -81 180.5t-220 64.5t-220.5 -64.5t-81.5 -180.5t81.5 -180t220.5 -64z" />
    <glyph glyph-name="oe.sc" horiz-adv-x="1348" 
d="M755 76h533v-76h-617h-227q-175 0 -278.5 81.5t-103.5 220.5q0 140 103.5 221.5t278.5 81.5h311h524v-76h-524v-184h442v-76h-442v-193zM671 78v449h-221q-138 0 -220 -57t-82 -168q0 -110 82 -167t220 -57h221z" />
    <glyph glyph-name="p.sc" horiz-adv-x="825" 
d="M534 605q113 0 180 -51.5t67 -142.5t-67 -142.5t-180 -51.5h-340v-217h-84v605h424zM528 291q167 0 167 120t-167 120h-334v-240h334z" />
    <glyph glyph-name="thorn.sc" horiz-adv-x="825" 
d="M527 502q117 0 185.5 -51.5t68.5 -142.5q0 -92 -68.5 -143t-185.5 -51h-333v-114h-84v605h84v-103h333zM521 188q174 0 174 120t-174 120h-327v-240h327z" />
    <glyph glyph-name="q.sc" 
d="M837 302q0 -171 -132 -256l94 -98l-55 -48l-107 111q-82 -31 -187 -31q-181 0 -284.5 87t-103.5 235q0 149 103.5 236t284.5 87q180 0 283.5 -87t103.5 -236zM450 58q67 0 126 17l-101 104l55 48l117 -121q104 65 104 196q0 116 -81 180.5t-220 64.5t-220.5 -64.5
t-81.5 -180.5t81.5 -180t220.5 -64z" />
    <glyph glyph-name="r.sc" horiz-adv-x="855" 
d="M803 0h-110l-206 227h-293v-227h-84v605h428q109 0 177 -50t68 -139q0 -78 -52.5 -126t-140.5 -60zM193 301h339q165 0 165 115t-165 115h-339v-230z" />
    <glyph glyph-name="racute.sc" horiz-adv-x="855" 
d="M624 835l-221 -150h-78l165 150h134zM803 0h-110l-206 227h-293v-227h-84v605h428q109 0 177 -50t68 -139q0 -78 -52.5 -126t-140.5 -60zM193 301h339q165 0 165 115t-165 115h-339v-230z" />
    <glyph glyph-name="rcaron.sc" horiz-adv-x="855" 
d="M457 685h-91l-156 150h95l106 -103l107 103h95zM803 0h-110l-206 227h-293v-227h-84v605h428q109 0 177 -50t68 -139q0 -78 -52.5 -126t-140.5 -60zM193 301h339q165 0 165 115t-165 115h-339v-230z" />
    <glyph glyph-name="rcommaaccent.sc" horiz-adv-x="855" 
d="M590 230l213 -230h-110l-206 227h-293v-227h-84v605h428q109 0 177 -50t68 -139q0 -78 -52.5 -126t-140.5 -60zM193 301h339q165 0 165 115t-165 115h-339v-230zM432 -58q27 0 44.5 -17.5t17.5 -46.5q0 -42 -22 -92t-60 -85l-27 23q53 61 60 111q-4 -4 -16 -4
q-24 0 -40 16t-16 40q0 23 17 39t42 16z" />
    <glyph glyph-name="s.sc" horiz-adv-x="799" 
d="M420 350q78 -6 134 -16.5t102.5 -30t69.5 -51t23 -75.5q0 -87 -87 -141t-240 -54q-224 0 -372 123l57 58q132 -107 320 -107q111 0 173.5 30.5t62.5 83.5q0 26 -15.5 43.5t-51.5 28.5t-79 17.5t-112 12.5q-70 6 -124.5 16.5t-104.5 29t-77 51t-27 75.5q0 56 44.5 98
t116.5 62.5t159 20.5q99 0 184 -29t143 -77l-59 -55q-97 85 -263 87q-60 1 -112 -8.5t-89.5 -34t-37.5 -60.5q0 -26 19 -43.5t58.5 -28t80.5 -16t104 -10.5z" />
    <glyph glyph-name="sacute.sc" horiz-adv-x="799" 
d="M614 835l-221 -150h-78l165 150h134zM420 350q78 -6 134 -16.5t102.5 -30t69.5 -51t23 -75.5q0 -87 -87 -141t-240 -54q-224 0 -372 123l57 58q132 -107 320 -107q111 0 173.5 30.5t62.5 83.5q0 26 -15.5 43.5t-51.5 28.5t-79 17.5t-112 12.5q-70 6 -124.5 16.5
t-104.5 29t-77 51t-27 75.5q0 56 44.5 98t116.5 62.5t159 20.5q99 0 184 -29t143 -77l-59 -55q-97 85 -263 87q-60 1 -112 -8.5t-89.5 -34t-37.5 -60.5q0 -26 19 -43.5t58.5 -28t80.5 -16t104 -10.5z" />
    <glyph glyph-name="scaron.sc" horiz-adv-x="799" 
d="M200 835l156 -150h91l156 150h-95l-107 -103l-106 103h-95zM420 350q78 -6 134 -16.5t102.5 -30t69.5 -51t23 -75.5q0 -87 -87 -141t-240 -54q-224 0 -372 123l57 58q132 -107 320 -107q111 0 173.5 30.5t62.5 83.5q0 26 -15.5 43.5t-51.5 28.5t-79 17.5t-112 12.5
q-70 6 -124.5 16.5t-104.5 29t-77 51t-27 75.5q0 56 44.5 98t116.5 62.5t159 20.5q99 0 184 -29t143 -77l-59 -55q-97 85 -263 87q-60 1 -112 -8.5t-89.5 -34t-37.5 -60.5q0 -26 19 -43.5t58.5 -28t80.5 -16t104 -10.5z" />
    <glyph glyph-name="scedilla.sc" horiz-adv-x="799" 
d="M420 350q78 -6 134 -16.5t102.5 -30t69.5 -51t23 -75.5q0 -87 -87 -141t-240 -54q-224 0 -372 123l57 58q132 -107 320 -107q111 0 173.5 30.5t62.5 83.5q0 26 -15.5 43.5t-51.5 28.5t-79 17.5t-112 12.5q-70 6 -124.5 16.5t-104.5 29t-77 51t-27 75.5q0 56 44.5 98
t116.5 62.5t159 20.5q99 0 184 -29t143 -77l-59 -55q-97 85 -263 87q-60 1 -112 -8.5t-89.5 -34t-37.5 -60.5q0 -26 19 -43.5t58.5 -28t80.5 -16t104 -10.5zM442 -52l-119 -158l-69 18l103 156z" />
    <glyph glyph-name="scircumflex.sc" horiz-adv-x="799" 
d="M200 685h95l106 103l107 -103h95l-156 150h-91zM420 350q78 -6 134 -16.5t102.5 -30t69.5 -51t23 -75.5q0 -87 -87 -141t-240 -54q-224 0 -372 123l57 58q132 -107 320 -107q111 0 173.5 30.5t62.5 83.5q0 26 -15.5 43.5t-51.5 28.5t-79 17.5t-112 12.5
q-70 6 -124.5 16.5t-104.5 29t-77 51t-27 75.5q0 56 44.5 98t116.5 62.5t159 20.5q99 0 184 -29t143 -77l-59 -55q-97 85 -263 87q-60 1 -112 -8.5t-89.5 -34t-37.5 -60.5q0 -26 19 -43.5t58.5 -28t80.5 -16t104 -10.5z" />
    <glyph glyph-name="scommaaccent.sc" horiz-adv-x="799" 
d="M420 350q78 -6 134 -16.5t102.5 -30t69.5 -51t23 -75.5q0 -87 -87 -141t-240 -54q-224 0 -372 123l57 58q132 -107 320 -107q111 0 173.5 30.5t62.5 83.5q0 26 -15.5 43.5t-51.5 28.5t-79 17.5t-112 12.5q-70 6 -124.5 16.5t-104.5 29t-77 51t-27 75.5q0 56 44.5 98
t116.5 62.5t159 20.5q99 0 184 -29t143 -77l-59 -55q-97 85 -263 87q-60 1 -112 -8.5t-89.5 -34t-37.5 -60.5q0 -26 19 -43.5t58.5 -28t80.5 -16t104 -10.5zM415 -58q27 0 44.5 -17.5t17.5 -46.5q0 -42 -22 -92t-60 -85l-27 23q53 61 60 111q-4 -4 -16 -4q-24 0 -40 16
t-16 40q0 23 17 39t42 16z" />
    <glyph glyph-name="germandbls.sc" horiz-adv-x="1598" 
d="M420 350q78 -6 134 -16.5t102.5 -30t69.5 -51t23 -75.5q0 -87 -87 -141t-240 -54q-224 0 -372 123l57 58q132 -107 320 -107q111 0 173.5 30.5t62.5 83.5q0 26 -15.5 43.5t-51.5 28.5t-79 17.5t-112 12.5q-70 6 -124.5 16.5t-104.5 29t-77 51t-27 75.5q0 56 44.5 98
t116.5 62.5t159 20.5q99 0 184 -29t143 -77l-59 -55q-97 85 -263 87q-60 1 -112 -8.5t-89.5 -34t-37.5 -60.5q0 -26 19 -43.5t58.5 -28t80.5 -16t104 -10.5zM1219 350q78 -6 134 -16.5t102.5 -30t69.5 -51t23 -75.5q0 -87 -87 -141t-240 -54q-223 0 -372 123l57 58
q132 -107 320 -107q111 0 173.5 30.5t62.5 83.5q0 26 -15.5 43.5t-51.5 28.5t-79 17.5t-112 12.5q-70 6 -124.5 16.5t-104.5 29t-77 51t-27 75.5q0 56 44.5 98t116.5 62.5t159 20.5q99 0 184 -29t143 -77l-59 -55q-97 85 -263 87q-60 1 -112 -8.5t-89.5 -34t-37.5 -60.5
q0 -26 19 -43.5t58.5 -28t80.5 -16t104 -10.5z" />
    <glyph glyph-name="t.sc" horiz-adv-x="731" 
d="M704 605v-76h-297v-529h-84v529h-296v76h677z" />
    <glyph glyph-name="tbar.sc" horiz-adv-x="721" 
d="M699 529h-297v-165h157v-69h-157v-295h-84v295h-145v69h145v165h-296v76h677v-76z" />
    <glyph glyph-name="tcaron.sc" horiz-adv-x="731" 
d="M164 835l156 -150h91l156 150h-95l-107 -103l-106 103h-95zM704 605v-76h-297v-529h-84v529h-296v76h677z" />
    <glyph glyph-name="uni0163.sc" horiz-adv-x="731" 
d="M704 605v-76h-297v-529h-84v529h-296v76h677zM396 -44l-119 -158l-69 18l103 156z" />
    <glyph glyph-name="u.sc" horiz-adv-x="870" 
d="M688 605h84v-320q0 -137 -88 -221t-249 -84q-160 0 -248.5 84t-88.5 221v320h84v-315q0 -108 66.5 -170t186.5 -62t186.5 62t66.5 170v315z" />
    <glyph glyph-name="uacute.sc" horiz-adv-x="870" 
d="M647 835l-221 -150h-78l165 150h134zM688 605h84v-320q0 -137 -88 -221t-249 -84q-160 0 -248.5 84t-88.5 221v320h84v-315q0 -108 66.5 -170t186.5 -62t186.5 62t66.5 170v315z" />
    <glyph glyph-name="ubreve.sc" horiz-adv-x="870" 
d="M608 835q0 -23 -9 -48t-27.5 -50t-54 -41t-81.5 -16q-47 0 -82.5 16t-53.5 41t-27 50t-9 48h69q2 -37 29 -64t74 -27q46 0 73.5 27.5t28.5 63.5h70zM688 605h84v-320q0 -137 -88 -221t-249 -84q-160 0 -248.5 84t-88.5 221v320h84v-315q0 -108 66.5 -170t186.5 -62
t186.5 62t66.5 170v315z" />
    <glyph glyph-name="ucircumflex.sc" horiz-adv-x="870" 
d="M233 685h95l106 103l107 -103h95l-156 150h-91zM688 605h84v-320q0 -137 -88 -221t-249 -84q-160 0 -248.5 84t-88.5 221v320h84v-315q0 -108 66.5 -170t186.5 -62t186.5 62t66.5 170v315z" />
    <glyph glyph-name="udieresis.sc" horiz-adv-x="870" 
d="M305 698q-23 0 -38 14.5t-15 33.5q0 20 15 34.5t38 14.5q22 0 37 -14.5t15 -34.5q0 -19 -15 -33.5t-37 -14.5zM565 698q-23 0 -38 14.5t-15 33.5q0 20 15 34.5t38 14.5q22 0 37 -14.5t15 -34.5q0 -19 -15 -33.5t-37 -14.5zM688 605h84v-320q0 -137 -88 -221t-249 -84
q-160 0 -248.5 84t-88.5 221v320h84v-315q0 -108 66.5 -170t186.5 -62t186.5 62t66.5 170v315z" />
    <glyph glyph-name="ugrave.sc" horiz-adv-x="870" 
d="M224 835h134l165 -150h-78zM688 605h84v-320q0 -137 -88 -221t-249 -84q-160 0 -248.5 84t-88.5 221v320h84v-315q0 -108 66.5 -170t186.5 -62t186.5 62t66.5 170v315z" />
    <glyph glyph-name="uhungarumlaut.sc" horiz-adv-x="870" 
d="M502 835l-164 -150h-87l164 150h87zM699 835l-164 -150h-87l164 150h87zM688 605h84v-320q0 -137 -88 -221t-249 -84q-160 0 -248.5 84t-88.5 221v320h84v-315q0 -108 66.5 -170t186.5 -62t186.5 62t66.5 170v315z" />
    <glyph glyph-name="umacron.sc" horiz-adv-x="870" 
d="M242 779h386v-69h-386v69zM688 605h84v-320q0 -137 -88 -221t-249 -84q-160 0 -248.5 84t-88.5 221v320h84v-315q0 -108 66.5 -170t186.5 -62t186.5 62t66.5 170v315z" />
    <glyph glyph-name="uogonek.sc" horiz-adv-x="870" 
d="M688 605h84v-320q0 -104 -52 -179.5t-150 -106.5q-50 -18 -84 -55t-34 -79q0 -34 21.5 -50.5t55.5 -16.5q40 0 77 24l20 -28q-46 -39 -111 -39q-54 0 -93 26t-39 76q0 77 75 123h-23q-160 0 -248.5 84t-88.5 221v320h84v-315q0 -108 66.5 -170t186.5 -62t186.5 62
t66.5 170v315z" />
    <glyph glyph-name="uring.sc" horiz-adv-x="870" 
d="M435 678q-56 0 -92.5 27.5t-36.5 79.5q0 51 37 79t92 28t92 -28t37 -79q0 -52 -36.5 -79.5t-92.5 -27.5zM366 785q0 -29 19 -45t51 -16t51 16t19 45t-19 45t-51 16t-51 -16t-19 -45zM688 605h84v-320q0 -137 -88 -221t-249 -84q-160 0 -248.5 84t-88.5 221v320h84v-315
q0 -108 66.5 -170t186.5 -62t186.5 62t66.5 170v315z" />
    <glyph glyph-name="utilde.sc" horiz-adv-x="870" 
d="M633 823l49 -32q-18 -35 -55 -60t-92 -25q-46 0 -107 28.5t-97 28.5q-59 0 -94 -52l-49 32q45 85 147 85q45 0 106 -28.5t98 -28.5q57 0 94 52zM688 605h84v-320q0 -137 -88 -221t-249 -84q-160 0 -248.5 84t-88.5 221v320h84v-315q0 -108 66.5 -170t186.5 -62t186.5 62
t66.5 170v315z" />
    <glyph glyph-name="v.sc" horiz-adv-x="799" 
d="M20 605h95l285 -514l286 514h93l-333 -605h-93z" />
    <glyph glyph-name="w.sc" horiz-adv-x="1105" 
d="M984 605h89l-232 -605h-89l-199 506l-200 -506h-89l-232 605h91l187 -507l202 507h83l201 -507z" />
    <glyph glyph-name="wacute.sc" horiz-adv-x="1105" 
d="M765 835l-221 -150h-78l165 150h134zM984 605h89l-232 -605h-89l-199 506l-200 -506h-89l-232 605h91l187 -507l202 507h83l201 -507z" />
    <glyph glyph-name="wcircumflex.sc" horiz-adv-x="1105" 
d="M351 685h95l106 103l107 -103h95l-156 150h-91zM984 605h89l-232 -605h-89l-199 506l-200 -506h-89l-232 605h91l187 -507l202 507h83l201 -507z" />
    <glyph glyph-name="wdieresis.sc" horiz-adv-x="1105" 
d="M423 698q-23 0 -38 14.5t-15 33.5q0 20 15 34.5t38 14.5q22 0 37 -14.5t15 -34.5q0 -19 -15 -33.5t-37 -14.5zM683 698q-23 0 -38 14.5t-15 33.5q0 20 15 34.5t38 14.5q22 0 37 -14.5t15 -34.5q0 -19 -15 -33.5t-37 -14.5zM984 605h89l-232 -605h-89l-199 506l-200 -506
h-89l-232 605h91l187 -507l202 507h83l201 -507z" />
    <glyph glyph-name="wgrave.sc" horiz-adv-x="1105" 
d="M342 835h134l165 -150h-78zM984 605h89l-232 -605h-89l-199 506l-200 -506h-89l-232 605h91l187 -507l202 507h83l201 -507z" />
    <glyph glyph-name="x.sc" horiz-adv-x="751" 
d="M725 605l-296 -299l298 -306h-108l-245 249l-245 -249h-105l298 304l-296 301h108l243 -246l243 246h105z" />
    <glyph glyph-name="y.sc" horiz-adv-x="761" 
d="M22 605h101l259 -321l257 321h100l-316 -394v-211h-84v211z" />
    <glyph glyph-name="yacute.sc" horiz-adv-x="761" 
d="M593 835l-221 -150h-78l165 150h134zM22 605h101l259 -321l257 321h100l-316 -394v-211h-84v211z" />
    <glyph glyph-name="ycircumflex.sc" horiz-adv-x="761" 
d="M179 685h95l106 103l107 -103h95l-156 150h-91zM22 605h101l259 -321l257 321h100l-316 -394v-211h-84v211z" />
    <glyph glyph-name="ydieresis.sc" horiz-adv-x="761" 
d="M251 698q-23 0 -38 14.5t-15 33.5q0 20 15 34.5t38 14.5q22 0 37 -14.5t15 -34.5q0 -19 -15 -33.5t-37 -14.5zM511 698q-23 0 -38 14.5t-15 33.5q0 20 15 34.5t38 14.5q22 0 37 -14.5t15 -34.5q0 -19 -15 -33.5t-37 -14.5zM22 605h101l259 -321l257 321h100l-316 -394
v-211h-84v211z" />
    <glyph glyph-name="ygrave.sc" horiz-adv-x="761" 
d="M170 835h134l165 -150h-78zM22 605h101l259 -321l257 321h100l-316 -394v-211h-84v211z" />
    <glyph glyph-name="z.sc" horiz-adv-x="767" 
d="M705 605v-62l-531 -467h545v-76h-673v62l530 467h-514v76h643z" />
    <glyph glyph-name="zacute.sc" horiz-adv-x="767" 
d="M613 835l-221 -150h-78l165 150h134zM705 605v-62l-531 -467h545v-76h-673v62l530 467h-514v76h643z" />
    <glyph glyph-name="zcaron.sc" horiz-adv-x="767" 
d="M199 835l156 -150h91l156 150h-95l-107 -103l-106 103h-95zM705 605v-62l-531 -467h545v-76h-673v62l530 467h-514v76h643z" />
    <glyph glyph-name="zdotaccent.sc" horiz-adv-x="767" 
d="M401 698q-22 0 -35 11.5t-13 30.5t13 31t35 12q21 0 34 -12t13 -31t-13 -30.5t-34 -11.5zM705 605v-62l-531 -467h545v-76h-673v62l530 467h-514v76h643z" />
    <glyph glyph-name="zero.osf" horiz-adv-x="885" 
d="M443 -21q-174 0 -276.5 87t-102.5 241t102.5 239t276.5 85t276 -85t102 -239t-102.5 -241t-275.5 -87zM443 57q134 0 213.5 62.5t79.5 185.5t-79.5 185.5t-213.5 62.5t-213.5 -62.5t-79.5 -185.5t79.5 -185.5t213.5 -62.5z" />
    <glyph glyph-name="one.osf" horiz-adv-x="455" 
d="M255 0v505q-86 -71 -218 -92v76q121 18 238 121h64v-610h-84z" />
    <glyph glyph-name="two.osf" horiz-adv-x="797" 
d="M67 471q41 67 135.5 113t209.5 46q75 0 144.5 -19.5t118.5 -64t49 -104.5q0 -32 -15.5 -60t-38.5 -47.5t-62.5 -39t-75 -32.5t-87.5 -29q-125 -39 -198 -77.5t-88 -85.5h579v-71h-689v40q15 78 109 146t240 113q15 5 41 12.5t40 12t36 12t34.5 13t29 13.5t25.5 16
t18 17.5t12.5 21t3.5 24.5q0 39 -37 66t-86.5 37.5t-105.5 10.5q-90 0 -162.5 -32t-115.5 -91z" />
    <glyph glyph-name="three.osf" horiz-adv-x="834" 
d="M118 102q40 -65 123.5 -101.5t189.5 -36.5q107 0 179 37.5t72 107.5q0 129 -280 129h-91v74h91q109 0 182.5 31.5t73.5 90.5q0 39 -35.5 67.5t-87 41.5t-109.5 13q-202 0 -289 -125l-73 39q111 160 350 160q139 0 234.5 -52t95.5 -140q0 -66 -53 -109.5t-121 -50.5
q35 -4 68 -15t64 -31t50 -52.5t19 -74.5q0 -99 -97.5 -157t-245.5 -58q-132 0 -229 45.5t-155 126.5z" />
    <glyph glyph-name="four.osf" horiz-adv-x="858" 
d="M821 155v-72h-153v-173h-84v173h-555v57l565 470h74v-455h153zM156 155h428v352z" />
    <glyph glyph-name="five.osf" horiz-adv-x="832" 
d="M113 107q50 -68 133.5 -105t186.5 -37q118 0 190 40.5t72 117.5q0 78 -75.5 118t-206.5 40t-264 -58l-70 31l60 356h569v-75h-499l-41 -241q66 33 128.5 45t143.5 12q148 0 244.5 -58.5t96.5 -171.5q0 -100 -95 -166t-253 -66q-121 0 -221 47t-164 126z" />
    <glyph glyph-name="six.osf" horiz-adv-x="881" 
d="M512 444q130 0 221.5 -58.5t91.5 -168.5q0 -106 -97 -172t-260 -66q-189 0 -296.5 100.5t-107.5 270.5t107.5 270.5t296.5 100.5q216 0 329 -125l-66 -49q-92 102 -259 102q-149 0 -235.5 -75t-86.5 -224q0 -26 3 -50q58 67 150 105.5t209 38.5zM468 51q124 0 197.5 43.5
t73.5 122.5t-68.5 117.5t-176.5 38.5q-93 0 -182.5 -38t-143.5 -104q30 -90 108 -135t192 -45z" />
    <glyph glyph-name="seven.osf" horiz-adv-x="748" 
d="M215 -90l407 624h-596v76h702v-62l-412 -638h-101z" />
    <glyph glyph-name="eight.osf" horiz-adv-x="883" 
d="M614 369q48 -4 92.5 -22.5t79 -59.5t34.5 -95q0 -99 -104 -156t-274 -57q-171 0 -274.5 57t-103.5 156q0 54 34.5 95t79 59.5t92.5 22.5q-73 7 -126 47.5t-53 109.5q0 91 99 143t252 52t252 -52.5t99 -142.5q0 -69 -53 -109.5t-126 -47.5zM176 524q0 -63 75 -94t191 -31
t191 31t75 94t-75 94t-191 31t-191 -31t-75 -94zM441 51q134 0 212.5 35t78.5 105q0 66 -79.5 103t-211.5 37q-131 0 -210.5 -37t-79.5 -103t79.5 -103t210.5 -37z" />
    <glyph glyph-name="nine.osf" horiz-adv-x="881" 
d="M413 631q189 0 296.5 -100.5t107.5 -270.5t-107.5 -270.5t-296.5 -100.5q-217 0 -329 125l66 49q92 -102 259 -102q149 0 235.5 75t86.5 224q0 26 -3 50q-58 -67 -150 -105.5t-209 -38.5q-130 0 -221.5 58.5t-91.5 168.5q0 106 97 172t260 66zM387 237q93 0 182.5 38
t143.5 104q-30 90 -108 135t-192 45q-124 0 -197.5 -43.5t-73.5 -122.5t68.5 -117.5t176.5 -38.5z" />
    <glyph glyph-name="zero.subs" horiz-adv-x="543" 
d="M272 -122q-108 0 -168.5 58t-60.5 159q0 100 61 158.5t168 58.5t168 -58.5t61 -158.5q0 -101 -60.5 -159t-168.5 -58zM272 -70q79 0 125 43t46 122t-46 122t-125 43t-125 -43t-46 -122q0 -80 46 -122.5t125 -42.5z" />
    <glyph glyph-name="one.subs" horiz-adv-x="273" 
d="M145 -110v338q-43 -37 -120 -49v50q71 10 134 70h43v-409h-57z" />
    <glyph glyph-name="two.subs" horiz-adv-x="469" 
d="M44 213q70 99 198 99q72 0 125.5 -32.5t53.5 -88.5q0 -49 -39 -80.5t-115 -60.5q-75 -29 -115.5 -54t-49.5 -56h328v-50h-396v34q18 101 199 169q85 34 105 50q26 20 26 47q0 34 -37.5 53.5t-87.5 19.5q-95 0 -152 -76z" />
    <glyph glyph-name="three.subs" horiz-adv-x="484" 
d="M82 2q48 -75 159 -75q59 0 100 22t41 61q0 74 -148 74h-52v46h52q134 0 134 64q0 34 -38.5 51.5t-92.5 17.5q-98 0 -144 -66l-45 27q23 40 76.5 64t118.5 24q75 0 129 -29.5t54 -80.5q0 -39 -30.5 -65t-71.5 -29q47 -6 82.5 -32t35.5 -72q0 -57 -56 -91.5t-143 -34.5
q-70 0 -126.5 28t-83.5 74z" />
    <glyph glyph-name="four.subs" horiz-adv-x="495" 
d="M468 39v-48h-83v-101h-55v101h-308v36l313 272h50v-260h83zM101 39h229v192z" />
    <glyph glyph-name="five.subs" horiz-adv-x="478" 
d="M74 0q72 -72 168 -72q65 0 105 24t40 67t-38.5 64t-103.5 21q-78 0 -153 -37l-42 19l39 213h316v-49h-273l-25 -137q65 37 152 37q83 0 134.5 -33.5t51.5 -97.5q0 -62 -52 -101.5t-142 -39.5q-131 0 -216 87z" />
    <glyph glyph-name="six.subs" horiz-adv-x="508" 
d="M279 152q85 0 138 -33.5t53 -101.5q0 -61 -54.5 -100t-145.5 -39q-107 0 -167.5 58.5t-60.5 158.5t61 158.5t167 58.5q122 0 186 -72l-41 -33q-50 57 -142 57q-79 0 -126 -42.5t-47 -126.5q0 -19 1 -27q25 39 74.5 61.5t103.5 22.5zM270 -74q64 0 103 24t39 65
q0 90 -142 90q-46 0 -90.5 -20t-70.5 -55q32 -104 161 -104z" />
    <glyph glyph-name="seven.subs" horiz-adv-x="432" 
d="M124 -110l221 359h-325v50h394v-40l-225 -369h-65z" />
    <glyph glyph-name="eight.subs" horiz-adv-x="509" 
d="M344 109q52 -7 87.5 -33t35.5 -76q0 -55 -58.5 -88.5t-153.5 -33.5t-154 33.5t-59 88.5q0 49 35.5 75.5t87.5 33.5q-46 3 -77 29t-31 67q0 50 57.5 78.5t140.5 28.5t140 -28.5t57 -78.5q0 -41 -30.5 -67t-77.5 -29zM114 198q0 -69 141 -69q140 0 140 69q0 33 -40.5 50.5
t-99.5 17.5q-60 0 -100.5 -17.5t-40.5 -50.5zM254 -76q68 0 111.5 22t43.5 60q0 81 -155 81q-154 0 -154 -81q0 -38 43 -60t111 -22z" />
    <glyph glyph-name="nine.subs" horiz-adv-x="508" 
d="M230 312q107 0 167.5 -58.5t60.5 -158.5t-61 -158.5t-167 -58.5q-122 0 -186 72l41 33q50 -57 142 -57q79 0 126 42.5t47 126.5q0 19 -1 27q-25 -39 -74.5 -61.5t-103.5 -22.5q-85 0 -138 33.5t-53 101.5q0 61 54.5 100t145.5 39zM230 85q46 0 90.5 20t70.5 55
q-32 104 -161 104q-64 0 -103 -24t-39 -65q0 -90 142 -90z" />
    <glyph glyph-name="zero.dnom" horiz-adv-x="543" 
d="M272 -12q-108 0 -168.5 58t-60.5 159q0 100 61 158.5t168 58.5t168 -58.5t61 -158.5q0 -101 -60.5 -159t-168.5 -58zM272 40q79 0 125 43t46 122t-46 122t-125 43t-125 -43t-46 -122q0 -80 46 -122.5t125 -42.5z" />
    <glyph glyph-name="one.dnom" horiz-adv-x="273" 
d="M145 0v338q-43 -37 -120 -49v50q71 10 134 70h43v-409h-57z" />
    <glyph glyph-name="two.dnom" horiz-adv-x="469" 
d="M44 323q70 99 198 99q72 0 125.5 -32.5t53.5 -88.5q0 -49 -39 -80.5t-115 -60.5q-75 -29 -115.5 -54t-49.5 -56h328v-50h-396v34q18 101 199 169q85 34 105 50q26 20 26 47q0 34 -37.5 53.5t-87.5 19.5q-95 0 -152 -76z" />
    <glyph glyph-name="three.dnom" horiz-adv-x="484" 
d="M82 112q48 -75 159 -75q59 0 100 22t41 61q0 74 -148 74h-52v46h52q134 0 134 64q0 34 -38.5 51.5t-92.5 17.5q-98 0 -144 -66l-45 27q23 40 76.5 64t118.5 24q75 0 129 -29.5t54 -80.5q0 -39 -30.5 -65t-71.5 -29q47 -6 82.5 -32t35.5 -72q0 -57 -56 -91.5t-143 -34.5
q-70 0 -126.5 28t-83.5 74z" />
    <glyph glyph-name="four.dnom" horiz-adv-x="495" 
d="M468 149v-48h-83v-101h-55v101h-308v36l313 272h50v-260h83zM101 149h229v192z" />
    <glyph glyph-name="five.dnom" horiz-adv-x="478" 
d="M74 110q72 -72 168 -72q65 0 105 24t40 67t-38.5 64t-103.5 21q-78 0 -153 -37l-42 19l39 213h316v-49h-273l-25 -137q65 37 152 37q83 0 134.5 -33.5t51.5 -97.5q0 -62 -52 -101.5t-142 -39.5q-131 0 -216 87z" />
    <glyph glyph-name="six.dnom" horiz-adv-x="508" 
d="M279 262q85 0 138 -33.5t53 -101.5q0 -61 -54.5 -100t-145.5 -39q-107 0 -167.5 58.5t-60.5 158.5t61 158.5t167 58.5q122 0 186 -72l-41 -33q-50 57 -142 57q-79 0 -126 -42.5t-47 -126.5q0 -19 1 -27q25 39 74.5 61.5t103.5 22.5zM270 36q64 0 103 24t39 65
q0 90 -142 90q-46 0 -90.5 -20t-70.5 -55q32 -104 161 -104z" />
    <glyph glyph-name="seven.dnom" horiz-adv-x="432" 
d="M124 0l221 359h-325v50h394v-40l-225 -369h-65z" />
    <glyph glyph-name="eight.dnom" horiz-adv-x="509" 
d="M344 219q52 -7 87.5 -33t35.5 -76q0 -55 -58.5 -88.5t-153.5 -33.5t-154 33.5t-59 88.5q0 49 35.5 75.5t87.5 33.5q-46 3 -77 29t-31 67q0 50 57.5 78.5t140.5 28.5t140 -28.5t57 -78.5q0 -41 -30.5 -67t-77.5 -29zM114 308q0 -69 141 -69q140 0 140 69q0 33 -40.5 50.5
t-99.5 17.5q-60 0 -100.5 -17.5t-40.5 -50.5zM254 34q68 0 111.5 22t43.5 60q0 81 -155 81q-154 0 -154 -81q0 -38 43 -60t111 -22z" />
    <glyph glyph-name="nine.dnom" horiz-adv-x="508" 
d="M230 421q107 0 167.5 -58.5t60.5 -158.5t-61 -158.5t-167 -58.5q-122 0 -186 72l41 33q50 -57 142 -57q79 0 126 42.5t47 126.5q0 19 -1 27q-25 -39 -74.5 -61.5t-103.5 -22.5q-85 0 -138 33.5t-53 101.5q0 61 54.5 100t145.5 39zM230 194q46 0 90.5 20t70.5 55
q-32 104 -161 104q-64 0 -103 -24t-39 -65q0 -90 142 -90z" />
    <glyph glyph-name="zero.numr" horiz-adv-x="543" 
d="M272 279q-108 0 -168.5 58t-60.5 159q0 100 61 158.5t168 58.5t168 -58.5t61 -158.5q0 -101 -60.5 -159t-168.5 -58zM272 331q79 0 125 43t46 122t-46 122t-125 43t-125 -43t-46 -122q0 -80 46 -122.5t125 -42.5z" />
    <glyph glyph-name="one.numr" horiz-adv-x="273" 
d="M145 291v338q-43 -37 -120 -49v50q71 10 134 70h43v-409h-57z" />
    <glyph glyph-name="two.numr" horiz-adv-x="469" 
d="M44 614q70 99 198 99q72 0 125.5 -32.5t53.5 -88.5q0 -49 -39 -80.5t-115 -60.5q-75 -29 -115.5 -54t-49.5 -56h328v-50h-396v34q18 101 199 169q85 34 105 50q26 20 26 47q0 34 -37.5 53.5t-87.5 19.5q-95 0 -152 -76z" />
    <glyph glyph-name="three.numr" horiz-adv-x="484" 
d="M82 403q48 -75 159 -75q59 0 100 22t41 61q0 74 -148 74h-52v46h52q134 0 134 64q0 34 -38.5 51.5t-92.5 17.5q-98 0 -144 -66l-45 27q23 40 76.5 64t118.5 24q75 0 129 -29.5t54 -80.5q0 -39 -30.5 -65t-71.5 -29q47 -6 82.5 -32t35.5 -72q0 -57 -56 -91.5t-143 -34.5
q-70 0 -126.5 28t-83.5 74z" />
    <glyph glyph-name="four.numr" horiz-adv-x="495" 
d="M468 440v-48h-83v-101h-55v101h-308v36l313 272h50v-260h83zM101 440h229v192z" />
    <glyph glyph-name="five.numr" horiz-adv-x="478" 
d="M74 401q72 -72 168 -72q65 0 105 24t40 67t-38.5 64t-103.5 21q-78 0 -153 -37l-42 19l39 213h316v-49h-273l-25 -137q65 37 152 37q83 0 134.5 -33.5t51.5 -97.5q0 -62 -52 -101.5t-142 -39.5q-131 0 -216 87z" />
    <glyph glyph-name="six.numr" horiz-adv-x="508" 
d="M279 553q85 0 138 -33.5t53 -101.5q0 -61 -54.5 -100t-145.5 -39q-107 0 -167.5 58.5t-60.5 158.5t61 158.5t167 58.5q122 0 186 -72l-41 -33q-50 57 -142 57q-79 0 -126 -42.5t-47 -126.5q0 -19 1 -27q25 39 74.5 61.5t103.5 22.5zM270 327q64 0 103 24t39 65
q0 90 -142 90q-46 0 -90.5 -20t-70.5 -55q32 -104 161 -104z" />
    <glyph glyph-name="seven.numr" horiz-adv-x="432" 
d="M124 291l221 359h-325v50h394v-40l-225 -369h-65z" />
    <glyph glyph-name="eight.numr" horiz-adv-x="509" 
d="M344 510q52 -7 87.5 -33t35.5 -76q0 -55 -58.5 -88.5t-153.5 -33.5t-154 33.5t-59 88.5q0 49 35.5 75.5t87.5 33.5q-46 3 -77 29t-31 67q0 50 57.5 78.5t140.5 28.5t140 -28.5t57 -78.5q0 -41 -30.5 -67t-77.5 -29zM114 599q0 -69 141 -69q140 0 140 69q0 33 -40.5 50.5
t-99.5 17.5q-60 0 -100.5 -17.5t-40.5 -50.5zM254 325q68 0 111.5 22t43.5 60q0 81 -155 81q-154 0 -154 -81q0 -38 43 -60t111 -22z" />
    <glyph glyph-name="nine.numr" horiz-adv-x="508" 
d="M230 712q107 0 167.5 -58.5t60.5 -158.5t-61 -158.5t-167 -58.5q-122 0 -186 72l41 33q50 -57 142 -57q79 0 126 42.5t47 126.5q0 19 -1 27q-25 -39 -74.5 -61.5t-103.5 -22.5q-85 0 -138 33.5t-53 101.5q0 61 54.5 100t145.5 39zM230 485q46 0 90.5 20t70.5 55
q-32 104 -161 104q-64 0 -103 -24t-39 -65q0 -90 142 -90z" />
    <glyph glyph-name="zero.sc" horiz-adv-x="869" 
d="M434 -20q-173 0 -271 86.5t-98 235.5t98 236t271 87q174 0 272 -87t98 -236t-98 -235.5t-272 -86.5zM434 55q133 0 208.5 64t75.5 183q0 120 -75.5 184t-208.5 64t-208 -64t-75 -184q0 -119 75.5 -183t207.5 -64z" />
    <glyph glyph-name="one.sc" horiz-adv-x="431" 
d="M235 0v505q-79 -60 -197 -78v73q109 15 217 105h64v-605h-84z" />
    <glyph glyph-name="two.sc" horiz-adv-x="753" 
d="M70 471q38 68 118 110.5t193 42.5q122 0 210 -48t88 -130q0 -72 -64.5 -119.5t-190.5 -91.5q-124 -43 -188.5 -80t-79.5 -84h537v-71h-641v40q15 78 99 143.5t226 114.5q45 16 61 21.5t49.5 19t46 22.5t30 23t23.5 28.5t6 32.5q0 52 -62 80t-153 28q-87 0 -144.5 -29.5
t-98.5 -89.5z" />
    <glyph glyph-name="three.sc" horiz-adv-x="778" 
d="M121 170q52 -60 114 -89.5t155 -29.5q103 0 169.5 32.5t66.5 91.5q0 112 -247 112h-84v69h84q96 0 160.5 25.5t64.5 74.5q0 48 -63.5 72.5t-156.5 24.5q-160 0 -244 -106l-68 40q100 137 317 137q123 0 212 -43t89 -115q0 -61 -49 -98.5t-121 -43.5q79 -8 137 -47.5
t58 -109.5q0 -88 -90 -137t-231 -49q-114 0 -202 40.5t-139 111.5z" />
    <glyph glyph-name="four.sc" horiz-adv-x="796" 
d="M755 215v-69h-138v-146h-83v146h-500v55l509 404h74v-390h138zM153 215h381v296z" />
    <glyph glyph-name="five.sc" horiz-adv-x="770" 
d="M110 173q58 -60 124.5 -90t160.5 -30q109 0 174 34t65 98t-66.5 97.5t-182.5 33.5t-236 -49l-68 29l54 309h519v-72h-450l-36 -200q105 50 245 50q133 0 220 -51t87 -149q0 -87 -87.5 -145t-237.5 -58q-211 0 -344 148z" />
    <glyph glyph-name="six.sc" horiz-adv-x="816" 
d="M451 385q133 0 220 -49.5t87 -146.5q0 -93 -88.5 -151t-236.5 -58q-172 0 -270 87.5t-98 234.5q0 148 98 235.5t270 87.5q194 0 300 -109l-62 -48q-85 88 -234 88q-132 0 -209 -63.5t-77 -190.5q0 -25 3 -46q42 60 122.5 94.5t174.5 34.5zM433 48q109 0 174 37t65 103
q0 67 -63 98.5t-171 31.5q-80 0 -154 -30t-119 -83q26 -78 96 -117.5t172 -39.5z" />
    <glyph glyph-name="seven.sc" horiz-adv-x="694" 
d="M197 0l366 532h-533v73h638v-59l-371 -546h-100z" />
    <glyph glyph-name="eight.sc" horiz-adv-x="816" 
d="M570 323q42 -4 81.5 -20.5t70 -54t30.5 -87.5q0 -80 -95.5 -130.5t-248.5 -50.5t-248.5 50.5t-95.5 130.5q0 50 30.5 87.5t70 54t81.5 20.5q-63 7 -110.5 45t-47.5 98q0 72 93 115.5t227 43.5q133 0 226 -43.5t93 -115.5q0 -60 -47 -98t-110 -45zM173 456
q0 -102 235 -102t235 102q0 49 -67.5 75t-167.5 26t-167.5 -26t-67.5 -75zM407 48q114 0 185.5 33.5t71.5 88.5q0 61 -69 91t-188 30q-118 0 -187 -30t-69 -91q0 -55 71.5 -88.5t184.5 -33.5z" />
    <glyph glyph-name="nine.sc" horiz-adv-x="816" 
d="M375 625q172 0 270 -87.5t98 -234.5q0 -148 -98 -235.5t-270 -87.5q-194 0 -300 109l62 48q85 -88 234 -88q132 0 209 63.5t77 190.5q0 25 -3 46q-42 -60 -122.5 -94.5t-174.5 -34.5q-133 0 -220 49.5t-87 146.5q0 93 88.5 151t236.5 58zM370 287q80 0 154 30t119 83
q-26 78 -96 117.5t-172 39.5q-109 0 -174 -37t-65 -103q0 -67 63 -98.5t171 -31.5z" />
    <glyph glyph-name="periodcentered.case" horiz-adv-x="256" 
d="M128 302q-26 0 -43 15.5t-17 39.5t17 40t43 16t43 -16t17 -40t-17 -39.5t-43 -15.5z" />
    <glyph glyph-name="bullet.case" horiz-adv-x="368" 
d="M185 264q-41 0 -69 26.5t-28 64.5q0 39 28 65.5t69 26.5t68.5 -26.5t27.5 -65.5q0 -38 -28 -64.5t-68 -26.5z" />
    <glyph glyph-name="exclamdown.case" horiz-adv-x="314" 
d="M150 710q26 0 43 -15.5t17 -39.5t-17 -40t-43 -16t-43 16t-17 40t17 39.5t43 15.5zM98 0l17 507h70l17 -507h-104z" />
    <glyph glyph-name="questiondown.case" horiz-adv-x="739" 
d="M374 712q26 0 43 -15.5t17 -39.5t-17 -40t-43 -16t-43 16t-17 40t17 39.5t43 15.5zM413 501v-185q-278 -17 -278 -134q0 -42 32.5 -71.5t81 -42t107.5 -12.5q187 0 280 135l65 -41q-53 -78 -143 -123t-205 -45q-79 0 -146.5 22t-112.5 68.5t-45 109.5q0 86 79.5 136
t210.5 59v124h74z" />
    <glyph glyph-name="braceleft.case" horiz-adv-x="454" 
d="M261 538q0 -88 -42 -136.5t-112 -50.5q70 -4 112 -52.5t42 -135.5q0 -71 30.5 -114t89.5 -43h30v-66h-39q-87 0 -134.5 53.5t-47.5 152.5q0 54 -14 91.5t-40 55.5t-54 25.5t-64 7.5v49q36 0 64 7.5t54 25.5t40 55.5t14 91.5q0 99 47.5 152t134.5 53h39v-66h-30
q-59 0 -89.5 -43t-30.5 -113z" />
    <glyph glyph-name="braceright.case" horiz-adv-x="454" 
d="M193 538q0 70 -30.5 113t-89.5 43h-30v66h39q87 0 134.5 -53t47.5 -152q0 -54 14 -91.5t40 -55.5t54 -25.5t64 -7.5v-49q-36 0 -64 -7.5t-54 -25.5t-40 -55.5t-14 -91.5q0 -99 -47.5 -152.5t-134.5 -53.5h-39v66h30q59 0 89.5 43t30.5 114q0 87 42 135.5t112 52.5
q-70 2 -112 50.5t-42 136.5z" />
    <glyph glyph-name="bracketleft.case" horiz-adv-x="429" 
d="M386 694h-200v-688h200v-66h-270v820h270v-66z" />
    <glyph glyph-name="bracketright.case" horiz-adv-x="429" 
d="M43 694v66h270v-820h-270v66h200v688h-200z" />
    <glyph glyph-name="parenleft.case" horiz-adv-x="430" 
d="M135 350q0 -137 67.5 -233t184.5 -136l-27 -59q-136 40 -217.5 156t-81.5 272t81.5 272t217.5 156l27 -59q-117 -40 -184.5 -136t-67.5 -233z" />
    <glyph glyph-name="parenright.case" horiz-adv-x="430" 
d="M295 350q0 137 -67.5 233t-184.5 136l27 59q136 -40 217.5 -156t81.5 -272t-81.5 -272t-217.5 -156l-27 59q117 40 184.5 136t67.5 233z" />
    <glyph glyph-name="emdash.case" horiz-adv-x="1011" 
d="M925 319h-840v72h840v-72z" />
    <glyph glyph-name="endash.case" horiz-adv-x="794" 
d="M708 319h-623v72h623v-72z" />
    <glyph glyph-name="hyphen.case" horiz-adv-x="598" 
d="M512 319h-427v72h427v-72z" />
    <glyph glyph-name="guillemotleft.case" horiz-adv-x="635" 
d="M258 569l-211 -214l211 -214h92l-212 214l212 214h-92zM481 569l-211 -214l211 -214h92l-212 214l212 214h-92z" />
    <glyph glyph-name="guillemotright.case" horiz-adv-x="635" 
d="M154 569h-92l212 -214l-212 -214h92l211 214zM377 569h-92l212 -214l-212 -214h92l211 214z" />
    <glyph glyph-name="guilsinglleft.case" horiz-adv-x="412" 
d="M258 569l-211 -214l211 -214h92l-212 214l212 214h-92z" />
    <glyph glyph-name="guilsinglright.case" horiz-adv-x="412" 
d="M154 569h-92l212 -214l-212 -214h92l211 214z" />
    <glyph glyph-name="backslash.sc" horiz-adv-x="604" 
d="M127 705l484 -805h-93l-485 805h94z" />
    <glyph glyph-name="exclam.sc" horiz-adv-x="315" 
d="M107 605h104l-17 -412h-70zM159 -10q-26 0 -43 15.5t-17 39.5t17 40t43 16t43 -16t17 -40t-17 -39.5t-43 -15.5z" />
    <glyph glyph-name="exclamdown.sc" horiz-adv-x="314" 
d="M150 615q26 0 43 -15.5t17 -39.5t-17 -40t-43 -16t-43 16t-17 40t17 39.5t43 15.5zM98 0l17 412h70l17 -412h-104z" />
    <glyph glyph-name="numbersign.sc" horiz-adv-x="874" 
d="M817 384h-155l-46 -152h171v-63h-189l-51 -169h-74l51 169h-256l-51 -169h-74l51 169h-138v63h156l46 152h-171v63h190l47 158h74l-47 -158h256l47 158h74l-47 -158h136v-63zM542 232l46 152h-256l-46 -152h256z" />
    <glyph glyph-name="question.sc" horiz-adv-x="675" 
d="M296 177v158q247 16 247 115q0 51 -57 78t-138 27q-166 0 -250 -114l-62 41q49 67 130 105t185 38q113 0 195.5 -46.5t82.5 -128.5q0 -75 -72 -118.5t-189 -51.5v-103h-72zM332 -10q-26 0 -43 15.5t-17 39.5t17 40t43 16t43 -16t17 -40t-17 -39.5t-43 -15.5z" />
    <glyph glyph-name="questiondown.sc" horiz-adv-x="674" 
d="M343 615q26 0 43 -15.5t17 -39.5t-17 -40t-43 -16t-43 16t-17 40t17 39.5t43 15.5zM379 428v-158q-247 -16 -247 -115q0 -51 57 -78t138 -27q166 0 250 114l62 -41q-49 -67 -130 -105t-185 -38q-113 0 -195.5 46.5t-82.5 128.5q0 75 72 118.5t189 51.5v103h72z" />
    <glyph glyph-name="slash.sc" horiz-adv-x="642" 
d="M127 -100h-94l485 805h93z" />
    <glyph glyph-name="percent.osf" horiz-adv-x="919" 
d="M219 306q-77 0 -126 45.5t-49 112.5t49 112.5t126 45.5t126 -45.5t49 -112.5t-49 -112.5t-126 -45.5zM688 610h80l-537 -610h-80zM219 364q49 0 80 27t31 73t-31 73t-80 27t-80 -27t-31 -73t31 -73t80 -27zM700 -12q-77 0 -126 45.5t-49 112.5t49 112.5t126 45.5
t126 -45.5t49 -112.5t-49 -112.5t-126 -45.5zM700 46q49 0 80 27t31 73t-31 73t-80 27t-80 -27t-31 -73t31 -73t80 -27z" />
    <glyph glyph-name="perthousand.osf" horiz-adv-x="1313" 
d="M219 306q-77 0 -126 45.5t-49 112.5t49 112.5t126 45.5t126 -45.5t49 -112.5t-49 -112.5t-126 -45.5zM688 610h80l-537 -610h-80zM219 364q49 0 80 27t31 73t-31 73t-80 27t-80 -27t-31 -73t31 -73t80 -27zM700 -12q-77 0 -126 45.5t-49 112.5t49 112.5t126 45.5
t126 -45.5t49 -112.5t-49 -112.5t-126 -45.5zM1094 -12q-77 0 -126 45.5t-49 112.5t49 112.5t126 45.5t126 -45.5t49 -112.5t-49 -112.5t-126 -45.5zM700 46q49 0 80 27t31 73t-31 73t-80 27t-80 -27t-31 -73t31 -73t80 -27zM1094 46q49 0 80 27t31 73t-31 73t-80 27
t-80 -27t-31 -73t31 -73t80 -27z" />
    <glyph glyph-name="bar.case" horiz-adv-x="294" 
d="M108 -60v820h78v-820h-78z" />
    <glyph glyph-name="brokenbar.case" horiz-adv-x="294" 
d="M108 433v327h78v-327h-78zM186 272v-332h-78v332h78z" />
    <glyph glyph-name="at.case" horiz-adv-x="1039" 
d="M773 29q-97 -50 -256 -50q-207 0 -331 103.5t-124 267.5t124 267.5t331 103.5t330.5 -105.5t123.5 -275.5q0 -97 -35.5 -159.5t-101.5 -62.5q-52 0 -87 34.5t-42 84.5q-31 -56 -90.5 -89t-135.5 -33q-105 0 -178.5 63t-73.5 174q0 110 73 173t179 63q75 0 133.5 -33
t90.5 -89l16 103h51v-284q0 -65 24.5 -93t53.5 -28q36 0 58 50.5t22 125.5q0 162 -113.5 251.5t-297.5 89.5t-298 -88t-114 -243t114 -243t298 -88q135 0 238 45zM495 174q145 0 207 135v84q-62 135 -207 135q-88 0 -143 -44t-55 -133t55 -133t143 -44z" />
    <glyph glyph-name="registered.case" horiz-adv-x="978" 
d="M489 721q197 0 311 -101t114 -270t-114 -270t-311 -101t-311 101t-114 270t114 270t311 101zM489 14q179 0 283 88.5t104 247.5t-104 247.5t-283 88.5t-283.5 -88.5t-104.5 -247.5t104.5 -247.5t283.5 -88.5zM760 436q0 -60 -36 -97.5t-100 -49.5l146 -175h-83l-135 169
h-238v-169h-68v474h314q91 0 145.5 -39t54.5 -113zM314 526v-181h242q67 0 101 20.5t34 69.5t-34.5 70t-100.5 21h-242z" />
    <glyph glyph-name="dagger.case" horiz-adv-x="555" 
d="M482 485v-68h-170v-417h-72v417h-167v68h167v215h72v-215h170z" />
    <glyph glyph-name="daggerdbl.case" horiz-adv-x="555" 
d="M482 468h-170v-236h170v-68h-170v-164h-72v164h-167v68h167v236h-167v68h167v164h72v-164h170v-68z" />
    <glyph glyph-name="bar.sc" horiz-adv-x="294" 
d="M108 -100v820h78v-820h-78z" />
    <glyph glyph-name="brokenbar.sc" horiz-adv-x="294" 
d="M108 393v327h78v-327h-78zM186 232v-332h-78v332h78z" />
    <glyph glyph-name="at.sc" horiz-adv-x="941" 
d="M709 26q-92 -46 -234 -46q-186 0 -299 90.5t-113 231.5q0 142 113 232.5t299 90.5q187 0 300 -90.5t113 -232.5q0 -90 -32 -144.5t-91 -54.5q-45 0 -79 30.5t-42 77.5q-28 -52 -81.5 -81t-122.5 -29q-96 0 -162 54t-66 149t66 149.5t162 54.5q69 0 121.5 -29.5
t80.5 -82.5l17 96h47v-245q0 -57 21 -85.5t49 -28.5q36 0 55.5 48t19.5 121q0 135 -105 212.5t-271 77.5t-270.5 -77.5t-104.5 -212.5t104.5 -212t270.5 -77q121 0 217 44zM456 151q130 0 185 116v73q-55 115 -185 115q-79 0 -128.5 -38.5t-49.5 -113.5t49.5 -113.5
t128.5 -38.5z" />
    <glyph glyph-name="ampersand.sc" horiz-adv-x="824" 
d="M808 0h-122l-65 46q-91 -63 -240 -63q-137 0 -228 57.5t-91 143.5q0 53 35.5 97.5t96.5 68.5q-55 48 -55 108q0 73 65 118.5t169 45.5q106 0 173 -44.5t99 -114.5l-73 -30q-54 118 -199 118q-70 0 -111.5 -25t-41.5 -67q0 -10 3 -19t6 -16t12 -16.5t14.5 -15t19.5 -16
t21 -15.5t25.5 -18t27.5 -19l263 -186q46 56 47 146h80q-2 -114 -64 -190zM386 54q105 0 170 37l-286 202l-24 17q-98 -40 -98 -120q0 -67 68.5 -101.5t169.5 -34.5z" />
    <glyph glyph-name="paragraph.sc" horiz-adv-x="867" 
d="M298 605h459v-605h-70v540h-153v-540h-70v209h-166q-118 0 -186 50.5t-68 148.5q0 96 68 146.5t186 50.5zM464 274v266h-163q-186 0 -186 -133t186 -133h163z" />
    <glyph glyph-name="copyright.sc" horiz-adv-x="897" 
d="M448 -18q-179 0 -282.5 87.5t-103.5 233.5q0 147 103.5 234.5t282.5 87.5t283 -87.5t104 -234.5q0 -146 -104 -233.5t-283 -87.5zM448 13q162 0 257 76.5t95 213.5t-95 214t-257 77q-161 0 -256 -77t-95 -214t95 -213.5t256 -76.5zM687 193q-81 -111 -240 -111
q-119 0 -190 59.5t-71 162.5t71 163t190 60q81 0 141.5 -30t94.5 -80l-60 -29q-57 80 -171 80q-91 0 -144.5 -42.5t-53.5 -121.5q0 -78 53.5 -120.5t144.5 -42.5q115 0 173 82z" />
    <glyph glyph-name="registered.sc" horiz-adv-x="895" 
d="M447 625q179 0 282.5 -88t103.5 -235q0 -146 -103.5 -234t-282.5 -88q-178 0 -281.5 88t-103.5 234q0 147 103.5 235t281.5 88zM447 8q162 0 259 78t97 216t-97 216.5t-259 78.5q-161 0 -257.5 -78.5t-96.5 -216.5t96.5 -216t257.5 -78zM695 374q0 -52 -33 -85t-91 -44
l132 -147h-82l-122 142h-206v-142h-66v410h285q83 0 133 -35t50 -99zM293 450v-152h215q119 0 119 76q0 37 -31.5 56.5t-87.5 19.5h-215z" />
    <glyph glyph-name="uni2117.sc" horiz-adv-x="895" 
d="M447 -18q-179 0 -282 87t-103 233q0 147 103 234t282 87t282.5 -87t103.5 -234q0 -146 -103.5 -233t-282.5 -87zM447 10q162 0 259 77.5t97 214.5q0 138 -97 215.5t-259 77.5t-258 -77.5t-96 -215.5t96.5 -215t257.5 -77zM526 508q83 0 133.5 -35t50.5 -99
q0 -65 -50.5 -99.5t-133.5 -34.5h-218v-142h-66v410h284zM521 298q60 0 90.5 16.5t30.5 59.5q0 42 -30.5 59t-90.5 17h-213v-152h213z" />
    <glyph glyph-name="section.sc" horiz-adv-x="675" 
d="M519 140q89 -36 89 -107q0 -67 -68.5 -111t-192.5 -44q-168 0 -288 99l51 47q100 -82 239 -82q79 0 129.5 22t50.5 61t-46.5 56t-148.5 25q-55 4 -96.5 12t-80 23t-59 40.5t-20.5 60.5q0 87 104 128q-98 34 -98 109q0 68 71.5 106t185.5 38q71 0 137.5 -22.5t110.5 -56.5
l-47 -52q-87 66 -202 67q-47 1 -84.5 -5.5t-64.5 -24t-27 -45.5q0 -38 48 -53t144 -22q258 -19 258 -139q0 -41 -24.5 -75t-70.5 -55zM158 252q0 -27 27.5 -44t66 -24t97.5 -12q46 -4 71 -8q52 11 83.5 36.5t31.5 56.5q0 40 -48.5 59.5t-146.5 26.5l-31 3q-65 -6 -108 -30.5
t-43 -63.5z" />
    <glyph glyph-name="degree.sc" horiz-adv-x="431" 
d="M216 339q-69 0 -112 39t-43 100q0 60 43 99.5t112 39.5q68 0 111 -39t43 -100t-42.5 -100t-111.5 -39zM215 393q45 0 70 23t25 62t-25 62t-70 23q-44 0 -69 -23t-25 -62t25 -62t69 -23z" />
    <glyph glyph-name="cent.sc" horiz-adv-x="671" 
d="M614 186q-69 -110 -228 -120v-66h-63v66q-122 8 -191 70.5t-69 165.5q0 104 68.5 166.5t191.5 70.5v66h63v-66q156 -10 227 -118l-65 -29q-52 74 -162 80v-339q108 6 162 82zM136 302q0 -77 49 -119t138 -50v339q-89 -8 -138 -50.5t-49 -119.5z" />
    <glyph glyph-name="currency.sc" horiz-adv-x="746" 
d="M646 308q0 -102 -65 -164l88 -85l-43 -39l-95 88q-67 -36 -157 -36q-91 0 -158 36l-94 -88l-44 39l89 85q-66 61 -66 164q0 91 55 152l-78 75l44 40l81 -75q69 43 171 43q100 0 171 -44l81 76l43 -40l-78 -75q55 -61 55 -152zM172 308q0 -84 54 -127.5t148 -43.5
q93 0 147 43.5t54 127.5q0 83 -54 126.5t-147 43.5q-94 0 -148 -43.5t-54 -126.5z" />
    <glyph glyph-name="dagger.sc" horiz-adv-x="555" 
d="M482 396v-57h-173v-339h-66v339h-170v57h170v209h66v-209h173z" />
    <glyph glyph-name="daggerdbl.sc" horiz-adv-x="555" 
d="M482 403h-173v-186h173v-55h-173v-162h-66v162h-170v55h170v186h-170v55h170v162h66v-162h173v-55z" />
    <glyph glyph-name="dollar.sc" horiz-adv-x="806" 
d="M753 186q0 -82 -81.5 -132.5t-223.5 -54.5v-89h-67v90q-196 13 -327 123l57 57q118 -95 270 -107v202q-68 6 -116.5 15.5t-94.5 26.5t-70 46.5t-24 70.5q0 80 87.5 125t217.5 47v80h67v-82q163 -13 275 -103l-58 -53q-84 72 -217 84v-187q75 -6 125.5 -15t94 -26
t64.5 -46.5t21 -71.5zM161 437q0 -23 15.5 -39t49 -25t67 -14t88.5 -9v184q-42 -1 -79 -6.5t-69.5 -16t-52 -30t-19.5 -44.5zM448 71q104 2 162 30t58 78q0 45 -50 62.5t-170 28.5v-199z" />
    <glyph glyph-name="Euro.sc" horiz-adv-x="839" 
d="M485 56q151 0 225 113l70 -39q-100 -148 -294 -148q-138 0 -225.5 62.5t-111.5 174.5h-98v50h90q-1 11 -1 34q0 22 1 33h-90v50h97q24 112 112 175.5t226 63.5q194 0 294 -148l-70 -39q-75 113 -225 113q-101 0 -165 -42.5t-85 -122.5h376v-50h-385q-1 -11 -1 -33
q0 -12 2 -34h384v-50h-376q45 -163 250 -163z" />
    <glyph glyph-name="minute.sc" horiz-adv-x="283" 
d="M160 605h79l-97 -263h-79z" />
    <glyph glyph-name="percent.sc" horiz-adv-x="919" 
d="M219 301q-77 0 -126 45.5t-49 112.5t49 112.5t126 45.5t126 -45.5t49 -112.5t-49 -112.5t-126 -45.5zM688 605h80l-537 -605h-80zM219 359q49 0 80 27t31 73t-31 73t-80 27t-80 -27t-31 -73t31 -73t80 -27zM700 -12q-77 0 -126 45.5t-49 112.5t49 112.5t126 45.5
t126 -45.5t49 -112.5t-49 -112.5t-126 -45.5zM700 46q49 0 80 27t31 73t-31 73t-80 27t-80 -27t-31 -73t31 -73t80 -27z" />
    <glyph glyph-name="perthousand.sc" horiz-adv-x="1313" 
d="M219 301q-77 0 -126 45.5t-49 112.5t49 112.5t126 45.5t126 -45.5t49 -112.5t-49 -112.5t-126 -45.5zM688 605h80l-537 -605h-80zM219 359q49 0 80 27t31 73t-31 73t-80 27t-80 -27t-31 -73t31 -73t80 -27zM700 -12q-77 0 -126 45.5t-49 112.5t49 112.5t126 45.5
t126 -45.5t49 -112.5t-49 -112.5t-126 -45.5zM1094 -12q-77 0 -126 45.5t-49 112.5t49 112.5t126 45.5t126 -45.5t49 -112.5t-49 -112.5t-126 -45.5zM700 46q49 0 80 27t31 73t-31 73t-80 27t-80 -27t-31 -73t31 -73t80 -27zM1094 46q49 0 80 27t31 73t-31 73t-80 27
t-80 -27t-31 -73t31 -73t80 -27z" />
    <glyph glyph-name="uni20A8.sc" horiz-adv-x="832" 
d="M777 605v-68h-157q38 -36 47 -89h110v-68h-111q-12 -62 -60.5 -101.5t-125.5 -51.5l209 -227h-97l-201 222h-308v68h327q157 0 181 90h-508v68h508q-23 89 -181 89h-327v68h694z" />
    <glyph glyph-name="second.sc" horiz-adv-x="459" 
d="M160 605h79l-97 -263h-79zM336 605h79l-97 -263h-79z" />
    <glyph glyph-name="sterling.sc" horiz-adv-x="689" 
d="M247 69h375v-69h-457h-107v69h107v205h-107v63h107v52q0 97 63 165.5t180 68.5q64 0 119.5 -23.5t87.5 -62.5l-46 -50q-65 66 -155 66q-83 0 -125 -46t-42 -126v-44h322v-63h-322v-205z" />
    <glyph glyph-name="yen.sc" horiz-adv-x="772" 
d="M737 605l-265 -322h169v-45h-206l-7 -8v-59h213v-45h-213v-126h-84v126h-212v45h212v59l-7 8h-205v45h168l-265 322h101l251 -311l250 311h100z" />
    <glyph glyph-name="florin.sc" horiz-adv-x="617" 
d="M471 556q-42 0 -70.5 -19.5t-32.5 -59.5l-15 -140h171l-5 -54h-172l-18 -165q-7 -64 -55 -100t-111 -36q-71 0 -121 29l28 58q36 -20 77 -20q42 0 70 19.5t32 60.5l17 154h-171l5 54h172l17 150q7 64 54 100t110 36q72 0 122 -29l-28 -58q-44 20 -76 20z" />
    <glyph glyph-name="A.ss01" horiz-adv-x="896" 
d="M785 0l-86 158h-504l-86 -158h-93l385 700h94l385 -700h-95zM236 234h422l-211 389z" />
    <glyph glyph-name="Aacute.ss01" horiz-adv-x="896" 
d="M660 930l-221 -150h-78l165 150h134zM785 0l-86 158h-504l-86 -158h-93l385 700h94l385 -700h-95zM236 234h422l-211 389z" />
    <glyph glyph-name="Abreve.ss01" horiz-adv-x="896" 
d="M449 775q-47 0 -82.5 16t-53.5 41t-27 50t-9 48h69q2 -37 29 -64t74 -27q46 0 73.5 27.5t28.5 63.5h70q0 -23 -9 -48t-27.5 -50t-54 -41t-81.5 -16zM785 0l-86 158h-504l-86 -158h-93l385 700h94l385 -700h-95zM236 234h422l-211 389z" />
    <glyph glyph-name="Acircumflex.ss01" horiz-adv-x="896" 
d="M447 883l-106 -103h-95l156 150h91l156 -150h-95zM785 0l-86 158h-504l-86 -158h-93l385 700h94l385 -700h-95zM236 234h422l-211 389z" />
    <glyph glyph-name="Adieresis.ss01" horiz-adv-x="896" 
d="M318 793q-23 0 -38 14.5t-15 33.5q0 20 15 34.5t38 14.5q22 0 37 -14.5t15 -34.5q0 -19 -15 -33.5t-37 -14.5zM578 793q-23 0 -38 14.5t-15 33.5q0 20 15 34.5t38 14.5q22 0 37 -14.5t15 -34.5q0 -19 -15 -33.5t-37 -14.5zM785 0l-86 158h-504l-86 -158h-93l385 700h94
l385 -700h-95zM236 234h422l-211 389z" />
    <glyph glyph-name="Agrave.ss01" horiz-adv-x="896" 
d="M536 780h-78l-221 150h134zM785 0l-86 158h-504l-86 -158h-93l385 700h94l385 -700h-95zM236 234h422l-211 389z" />
    <glyph glyph-name="Amacron.ss01" horiz-adv-x="896" 
d="M641 874v-69h-386v69h386zM785 0l-86 158h-504l-86 -158h-93l385 700h94l385 -700h-95zM236 234h422l-211 389z" />
    <glyph glyph-name="Aogonek.ss01" horiz-adv-x="896" 
d="M913 -178l20 -28q-46 -39 -111 -39q-54 0 -93 26t-39 76q0 48 31.5 86t84.5 57h-21l-86 158h-504l-86 -158h-93l385 700h94l385 -700h-1q-51 -18 -85.5 -55t-34.5 -80q0 -34 21.5 -50.5t55.5 -16.5q40 0 77 24zM236 234h422l-211 389z" />
    <glyph glyph-name="Aring.ss01" horiz-adv-x="896" 
d="M448 773q-56 0 -92.5 27.5t-36.5 79.5q0 51 37 79t92 28t92 -28t37 -79q0 -52 -36.5 -79.5t-92.5 -27.5zM449 941q-32 0 -51 -16t-19 -45t19 -45t51 -16t51 16t19 45t-19 45t-51 16zM785 0l-86 158h-504l-86 -158h-93l385 700h94l385 -700h-95zM236 234h422l-211 389z
" />
    <glyph glyph-name="Aringacute.ss01" horiz-adv-x="896" 
d="M448 773q-56 0 -92.5 27.5t-36.5 79.5q0 50 38 80l128 126h94l-125 -99q54 -2 88.5 -29.5t34.5 -77.5q0 -52 -36.5 -79.5t-92.5 -27.5zM519 880q0 29 -19 45t-51 16t-51 -16t-19 -45t19 -45t51 -16t51 16t19 45zM785 0l-86 158h-504l-86 -158h-93l385 700h94l385 -700
h-95zM236 234h422l-211 389z" />
    <glyph glyph-name="Atilde.ss01" horiz-adv-x="896" 
d="M344 858q-59 0 -94 -52l-49 32q45 85 147 85q45 0 106 -28.5t98 -28.5q57 0 94 52l49 -32q-18 -35 -55 -60t-92 -25q-46 0 -107 28.5t-97 28.5zM785 0l-86 158h-504l-86 -158h-93l385 700h94l385 -700h-95zM236 234h422l-211 389z" />
    <glyph glyph-name="AE.ss01" horiz-adv-x="1386" 
d="M736 78h593v-78h-677v148h-426l-130 -148h-102l616 700h57h652v-78h-583v-257h494v-78h-494v-209zM292 224h360v410z" />
    <glyph glyph-name="AEacute.ss01" horiz-adv-x="1386" 
d="M1159 930l-221 -150h-78l165 150h134zM736 78h593v-78h-677v148h-426l-130 -148h-102l616 700h57h652v-78h-583v-257h494v-78h-494v-209zM292 224h360v410z" />
    <glyph glyph-name="E.ss01" horiz-adv-x="850" 
d="M200 78h593v-78h-677v700h667v-78h-583v-257h494v-78h-494v-209z" />
    <glyph glyph-name="Eacute.ss01" horiz-adv-x="850" 
d="M657 930l-221 -150h-78l165 150h134zM200 78h593v-78h-677v700h667v-78h-583v-257h494v-78h-494v-209z" />
    <glyph glyph-name="Ebreve.ss01" horiz-adv-x="850" 
d="M618 930q0 -23 -9 -48t-27.5 -50t-54 -41t-81.5 -16q-47 0 -82.5 16t-53.5 41t-27 50t-9 48h69q2 -37 29 -64t74 -27q46 0 73.5 27.5t28.5 63.5h70zM200 78h593v-78h-677v700h667v-78h-583v-257h494v-78h-494v-209z" />
    <glyph glyph-name="Ecaron.ss01" horiz-adv-x="850" 
d="M243 930l156 -150h91l156 150h-95l-107 -103l-106 103h-95zM200 78h593v-78h-677v700h667v-78h-583v-257h494v-78h-494v-209z" />
    <glyph glyph-name="Ecircumflex.ss01" horiz-adv-x="850" 
d="M243 780h95l106 103l107 -103h95l-156 150h-91zM200 78h593v-78h-677v700h667v-78h-583v-257h494v-78h-494v-209z" />
    <glyph glyph-name="Edieresis.ss01" horiz-adv-x="850" 
d="M315 793q-23 0 -38 14.5t-15 33.5q0 20 15 34.5t38 14.5q22 0 37 -14.5t15 -34.5q0 -19 -15 -33.5t-37 -14.5zM575 793q-23 0 -38 14.5t-15 33.5q0 20 15 34.5t38 14.5q22 0 37 -14.5t15 -34.5q0 -19 -15 -33.5t-37 -14.5zM200 78h593v-78h-677v700h667v-78h-583v-257
h494v-78h-494v-209z" />
    <glyph glyph-name="Edotaccent.ss01" horiz-adv-x="850" 
d="M445 793q-22 0 -35 11.5t-13 30.5t13 31t35 12q21 0 34 -12t13 -31t-13 -30.5t-34 -11.5zM200 78h593v-78h-677v700h667v-78h-583v-257h494v-78h-494v-209z" />
    <glyph glyph-name="Egrave.ss01" horiz-adv-x="850" 
d="M234 930h134l165 -150h-78zM200 78h593v-78h-677v700h667v-78h-583v-257h494v-78h-494v-209z" />
    <glyph glyph-name="Emacron.ss01" horiz-adv-x="850" 
d="M252 874h386v-69h-386v69zM200 78h593v-78h-677v700h667v-78h-583v-257h494v-78h-494v-209z" />
    <glyph glyph-name="Eogonek.ss01" horiz-adv-x="850" 
d="M826 -178l20 -28q-46 -39 -111 -39q-54 0 -93 26t-39 76q0 48 31.5 86t84.5 57h-603v700h667v-78h-583v-257h494v-78h-494v-209h593v-78h-1q-51 -18 -85.5 -55t-34.5 -80q0 -34 21.5 -50.5t55.5 -16.5q40 0 77 24z" />
    <glyph glyph-name="F.ss01" horiz-adv-x="818" 
d="M782 622h-582v-275h494v-78h-494v-269h-84v700h666v-78z" />
    <glyph glyph-name="G.ss01" horiz-adv-x="948" 
d="M887 334v-164q-45 -85 -148 -138t-244 -53q-202 0 -316.5 99.5t-114.5 271.5t114 271.5t314 99.5q231 0 356 -146l-73 -51q-95 119 -283 119q-160 0 -251 -75t-91 -218t92 -218t256 -75q231 0 305 138v61h-318v78h402z" />
    <glyph glyph-name="Gbreve.ss01" horiz-adv-x="948" 
d="M665 931q0 -23 -9 -48t-27.5 -50t-54 -41t-81.5 -16q-47 0 -82.5 16t-53.5 41t-27 50t-9 48h69q2 -37 29 -64t74 -27q46 0 73.5 27.5t28.5 63.5h70zM887 334v-164q-45 -85 -148 -138t-244 -53q-202 0 -316.5 99.5t-114.5 271.5t114 271.5t314 99.5q231 0 356 -146
l-73 -51q-95 119 -283 119q-160 0 -251 -75t-91 -218t92 -218t256 -75q231 0 305 138v61h-318v78h402z" />
    <glyph glyph-name="Gcircumflex.ss01" horiz-adv-x="948" 
d="M290 781h95l106 103l107 -103h95l-156 150h-91zM887 334v-164q-45 -85 -148 -138t-244 -53q-202 0 -316.5 99.5t-114.5 271.5t114 271.5t314 99.5q231 0 356 -146l-73 -51q-95 119 -283 119q-160 0 -251 -75t-91 -218t92 -218t256 -75q231 0 305 138v61h-318v78h402z" />
    <glyph glyph-name="Gcommaaccent.ss01" horiz-adv-x="948" 
d="M887 334v-164q-45 -85 -148 -138t-244 -53q-202 0 -316.5 99.5t-114.5 271.5t114 271.5t314 99.5q231 0 356 -146l-73 -51q-95 119 -283 119q-160 0 -251 -75t-91 -218t92 -218t256 -75q231 0 305 138v61h-318v78h402zM493 -58q27 0 44.5 -17.5t17.5 -46.5q0 -42 -22 -92
t-60 -85l-27 23q53 61 60 111q-4 -4 -16 -4q-24 0 -40 16t-16 40q0 23 17 39t42 16z" />
    <glyph glyph-name="Gdotaccent.ss01" horiz-adv-x="948" 
d="M492 794q-22 0 -35 11.5t-13 30.5t13 31t35 12q21 0 34 -12t13 -31t-13 -30.5t-34 -11.5zM887 334v-164q-45 -85 -148 -138t-244 -53q-202 0 -316.5 99.5t-114.5 271.5t114 271.5t314 99.5q231 0 356 -146l-73 -51q-95 119 -283 119q-160 0 -251 -75t-91 -218t92 -218
t256 -75q231 0 305 138v61h-318v78h402z" />
    <glyph glyph-name="H.ss01" horiz-adv-x="976" 
d="M776 700h84v-700h-84v275h-576v-275h-84v700h84v-345h576v345z" />
    <glyph glyph-name="Hbar.ss01" horiz-adv-x="1001" 
d="M981 558v-62h-108v-496h-84v275h-576v-275h-84v496h-109v62h109v142h84v-142h576v142h84v-142h108zM789 355v141h-576v-141h576z" />
    <glyph glyph-name="Hcircumflex.ss01" horiz-adv-x="976" 
d="M286 781h95l106 103l107 -103h95l-156 150h-91zM776 700h84v-700h-84v275h-576v-275h-84v700h84v-345h576v345z" />
    <glyph glyph-name="OE.ss01" horiz-adv-x="1474" 
d="M824 78h593v-78h-677h-256q-192 0 -306 94.5t-114 255.5t114 255.5t306 94.5h340h583v-78h-583v-257h494v-78h-494v-209zM740 78v544h-250q-155 0 -247.5 -69.5t-92.5 -202.5t92.5 -202.5t247.5 -69.5h250z" />
    <glyph glyph-name="P.ss01" horiz-adv-x="895" 
d="M584 700q120 0 194 -68t74 -174t-74 -174t-194 -68h-384v-216h-84v700h468zM578 294q85 0 136.5 45t51.5 119t-51.5 119t-136.5 45h-378v-328h378z" />
    <glyph glyph-name="Thorn.ss01" horiz-adv-x="895" 
d="M585 599q118 0 192.5 -68.5t74.5 -173.5q0 -106 -74 -174t-193 -68h-385v-115h-84v700h84v-101h385zM579 189q85 0 136 46t51 122t-51 122t-136 46h-379v-336h379z" />
    <glyph glyph-name="Q.ss01" horiz-adv-x="980" 
d="M916 350q0 -162 -102.5 -261t-282.5 -109v-130h-82v130q-180 10 -282.5 109t-102.5 261q0 172 113.5 271.5t312.5 99.5t312.5 -99.5t113.5 -271.5zM531 58q139 11 219 87t80 205q0 139 -91.5 216t-248.5 77t-248.5 -77t-91.5 -216q0 -129 80 -205t219 -87v155h82v-155z
" />
    <glyph glyph-name="R.ss01" horiz-adv-x="925" 
d="M871 0h-110l-198 228h-362v-228h-85v700h470q117 0 192.5 -66.5t75.5 -169.5q0 -85 -52.5 -146.5t-138.5 -81.5zM200 306h380q85 0 136.5 43.5t51.5 114.5t-51.5 114.5t-136.5 43.5h-380v-316z" />
    <glyph glyph-name="Racute.ss01" horiz-adv-x="925" 
d="M659 930l-221 -150h-78l165 150h134zM871 0h-110l-198 228h-362v-228h-85v700h470q117 0 192.5 -66.5t75.5 -169.5q0 -85 -52.5 -146.5t-138.5 -81.5zM200 306h380q85 0 136.5 43.5t51.5 114.5t-51.5 114.5t-136.5 43.5h-380v-316z" />
    <glyph glyph-name="Rcaron.ss01" horiz-adv-x="925" 
d="M492 780h-91l-156 150h95l106 -103l107 103h95zM871 0h-110l-198 228h-362v-228h-85v700h470q117 0 192.5 -66.5t75.5 -169.5q0 -85 -52.5 -146.5t-138.5 -81.5zM200 306h380q85 0 136.5 43.5t51.5 114.5t-51.5 114.5t-136.5 43.5h-380v-316z" />
    <glyph glyph-name="Rcommaaccent.ss01" horiz-adv-x="925" 
d="M871 0h-110l-198 228h-362v-228h-85v700h470q117 0 192.5 -66.5t75.5 -169.5q0 -85 -52.5 -146.5t-138.5 -81.5zM200 306h380q85 0 136.5 43.5t51.5 114.5t-51.5 114.5t-136.5 43.5h-380v-316zM469 -58q27 0 44.5 -17.5t17.5 -46.5q0 -42 -22 -92t-60 -85l-27 23
q53 61 60 111q-4 -4 -16 -4q-24 0 -40 16t-16 40q0 23 17 39t42 16z" />
    <glyph glyph-name="a.sc.ss01" horiz-adv-x="827" 
d="M712 0l-77 136h-445l-77 -136h-93l347 605h94l346 -605h-95zM233 211h360l-180 317z" />
    <glyph glyph-name="aacute.sc.ss01" horiz-adv-x="827" 
d="M626 835l-221 -150h-78l165 150h134zM712 0l-77 136h-445l-77 -136h-93l347 605h94l346 -605h-95zM233 211h360l-180 317z" />
    <glyph glyph-name="abreve.sc.ss01" horiz-adv-x="827" 
d="M415 680q-47 0 -82.5 16t-53.5 41t-27 50t-9 48h69q2 -37 29 -64t74 -27q46 0 73.5 27.5t28.5 63.5h70q0 -23 -9 -48t-27.5 -50t-54 -41t-81.5 -16zM712 0l-77 136h-445l-77 -136h-93l347 605h94l346 -605h-95zM233 211h360l-180 317z" />
    <glyph glyph-name="acircumflex.sc.ss01" horiz-adv-x="827" 
d="M413 788l-106 -103h-95l156 150h91l156 -150h-95zM712 0l-77 136h-445l-77 -136h-93l347 605h94l346 -605h-95zM233 211h360l-180 317z" />
    <glyph glyph-name="adieresis.sc.ss01" horiz-adv-x="827" 
d="M284 698q-23 0 -38 14.5t-15 33.5q0 20 15 34.5t38 14.5q22 0 37 -14.5t15 -34.5q0 -19 -15 -33.5t-37 -14.5zM544 698q-23 0 -38 14.5t-15 33.5q0 20 15 34.5t38 14.5q22 0 37 -14.5t15 -34.5q0 -19 -15 -33.5t-37 -14.5zM712 0l-77 136h-445l-77 -136h-93l347 605h94
l346 -605h-95zM233 211h360l-180 317z" />
    <glyph glyph-name="agrave.sc.ss01" horiz-adv-x="827" 
d="M502 685h-78l-221 150h134zM712 0l-77 136h-445l-77 -136h-93l347 605h94l346 -605h-95zM233 211h360l-180 317z" />
    <glyph glyph-name="amacron.sc.ss01" horiz-adv-x="827" 
d="M607 779v-69h-386v69h386zM712 0l-77 136h-445l-77 -136h-93l347 605h94l346 -605h-95zM233 211h360l-180 317z" />
    <glyph glyph-name="aogonek.sc.ss01" horiz-adv-x="827" 
d="M840 -178l20 -28q-46 -39 -111 -39q-54 0 -93 26t-39 76q0 48 31.5 86t84.5 57h-21l-77 136h-445l-77 -136h-93l347 605h94l346 -605h-1q-51 -18 -85.5 -55t-34.5 -80q0 -34 21.5 -50.5t55.5 -16.5q40 0 77 24zM233 211h360l-180 317z" />
    <glyph glyph-name="aring.sc.ss01" horiz-adv-x="827" 
d="M414 678q-56 0 -92.5 27.5t-36.5 79.5q0 51 37 79t92 28t92 -28t37 -79q0 -52 -36.5 -79.5t-92.5 -27.5zM415 846q-32 0 -51 -16t-19 -45t19 -45t51 -16t51 16t19 45t-19 45t-51 16zM712 0l-77 136h-445l-77 -136h-93l347 605h94l346 -605h-95zM233 211h360l-180 317z
" />
    <glyph glyph-name="aringacute.sc.ss01" horiz-adv-x="827" 
d="M414 678q-56 0 -92.5 27.5t-36.5 79.5q0 50 38 80l128 126h94l-125 -99q54 -2 88.5 -29.5t34.5 -77.5q0 -52 -36.5 -79.5t-92.5 -27.5zM485 785q0 29 -19 45t-51 16t-51 -16t-19 -45t19 -45t51 -16t51 16t19 45zM712 0l-77 136h-445l-77 -136h-93l347 605h94l346 -605
h-95zM233 211h360l-180 317z" />
    <glyph glyph-name="atilde.sc.ss01" horiz-adv-x="827" 
d="M310 763q-59 0 -94 -52l-49 32q45 85 147 85q45 0 106 -28.5t98 -28.5q57 0 94 52l49 -32q-18 -35 -55 -60t-92 -25q-46 0 -107 28.5t-97 28.5zM712 0l-77 136h-445l-77 -136h-93l347 605h94l346 -605h-95zM233 211h360l-180 317z" />
    <glyph glyph-name="ae.sc.ss01" horiz-adv-x="1272" 
d="M679 76h533v-76h-617v148h-359l-136 -148h-102l554 605h57h594v-76h-524v-203h433v-75h-433v-175zM306 224h289v315z" />
    <glyph glyph-name="aeacute.sc.ss01" horiz-adv-x="1272" 
d="M1073 835l-221 -150h-78l165 150h134zM679 76h533v-76h-617v148h-359l-136 -148h-102l554 605h57h594v-76h-524v-184h433v-75h-433v-194zM306 224h289v315z" />
    <glyph glyph-name="e.sc.ss01" horiz-adv-x="787" 
d="M194 76h533v-76h-617v605h608v-76h-524v-203h442v-76h-442v-174z" />
    <glyph glyph-name="eacute.sc.ss01" horiz-adv-x="787" 
d="M622 835l-221 -150h-78l165 150h134zM194 76h533v-76h-617v605h608v-76h-524v-203h442v-76h-442v-174z" />
    <glyph glyph-name="ebreve.sc.ss01" horiz-adv-x="787" 
d="M583 835q0 -23 -9 -48t-27.5 -50t-54 -41t-81.5 -16q-47 0 -82.5 16t-53.5 41t-27 50t-9 48h69q2 -37 29 -64t74 -27q46 0 73.5 27.5t28.5 63.5h70zM194 76h533v-76h-617v605h608v-76h-524v-203h442v-76h-442v-174z" />
    <glyph glyph-name="ecaron.sc.ss01" horiz-adv-x="787" 
d="M208 835l156 -150h91l156 150h-95l-107 -103l-106 103h-95zM194 76h533v-76h-617v605h608v-76h-524v-203h442v-76h-442v-174z" />
    <glyph glyph-name="ecircumflex.sc.ss01" horiz-adv-x="787" 
d="M208 685h95l106 103l107 -103h95l-156 150h-91zM194 76h533v-76h-617v605h608v-76h-524v-203h442v-76h-442v-174z" />
    <glyph glyph-name="edieresis.sc.ss01" horiz-adv-x="787" 
d="M280 698q-23 0 -38 14.5t-15 33.5q0 20 15 34.5t38 14.5q22 0 37 -14.5t15 -34.5q0 -19 -15 -33.5t-37 -14.5zM540 698q-23 0 -38 14.5t-15 33.5q0 20 15 34.5t38 14.5q22 0 37 -14.5t15 -34.5q0 -19 -15 -33.5t-37 -14.5zM194 76h533v-76h-617v605h608v-76h-524v-203
h442v-76h-442v-174z" />
    <glyph glyph-name="edotaccent.sc.ss01" horiz-adv-x="787" 
d="M410 698q-22 0 -35 11.5t-13 30.5t13 31t35 12q21 0 34 -12t13 -31t-13 -30.5t-34 -11.5zM194 76h533v-76h-617v605h608v-76h-524v-203h442v-76h-442v-174z" />
    <glyph glyph-name="egrave.sc.ss01" horiz-adv-x="787" 
d="M199 835h134l165 -150h-78zM194 76h533v-76h-617v605h608v-76h-524v-203h442v-76h-442v-174z" />
    <glyph glyph-name="emacron.sc.ss01" horiz-adv-x="787" 
d="M217 779h386v-69h-386v69zM194 76h533v-76h-617v605h608v-76h-524v-203h442v-76h-442v-174z" />
    <glyph glyph-name="eogonek.sc.ss01" horiz-adv-x="787" 
d="M759 -178l20 -28q-46 -39 -111 -39q-54 0 -93 26t-39 76q0 48 31.5 86t84.5 57h-542v605h608v-76h-524v-203h442v-76h-442v-174h533v-76h-2q-51 -18 -85.5 -55t-34.5 -80q0 -34 21.5 -50.5t55.5 -16.5q40 0 77 24z" />
    <glyph glyph-name="f.sc.ss01" horiz-adv-x="755" 
d="M717 529h-523v-226h442v-76h-442v-227h-84v605h607v-76z" />
    <glyph glyph-name="fi.sc.ss01" horiz-adv-x="1059" 
d="M717 529h-523v-226h442v-76h-442v-227h-84v605h607v-76zM949 0h-84v605h84v-605z" />
    <glyph glyph-name="fl.sc.ss01" horiz-adv-x="1458" 
d="M717 529h-523v-226h442v-76h-442v-227h-84v605h607v-76zM949 78h481v-78h-565v605h84v-527z" />
    <glyph glyph-name="g.sc.ss01" horiz-adv-x="873" 
d="M810 296v-150q-40 -74 -134.5 -120t-221.5 -46q-183 0 -287.5 86.5t-104.5 235.5t104.5 236t287.5 87q215 0 324 -124l-70 -52q-90 99 -251 99q-146 0 -227.5 -63t-81.5 -183q0 -119 82 -182t227 -63q206 0 269 114v49h-281v76h365z" />
    <glyph glyph-name="gbreve.sc.ss01" horiz-adv-x="873" 
d="M625 836q0 -23 -9 -48t-27.5 -50t-54 -41t-81.5 -16q-47 0 -82.5 16t-53.5 41t-27 50t-9 48h69q2 -37 29 -64t74 -27q46 0 73.5 27.5t28.5 63.5h70zM810 296v-150q-40 -74 -134.5 -120t-221.5 -46q-183 0 -287.5 86.5t-104.5 235.5t104.5 236t287.5 87q215 0 324 -124
l-70 -52q-90 99 -251 99q-146 0 -227.5 -63t-81.5 -183q0 -119 82 -182t227 -63q206 0 269 114v49h-281v76h365z" />
    <glyph glyph-name="gcircumflex.sc.ss01" horiz-adv-x="873" 
d="M250 686h95l106 103l107 -103h95l-156 150h-91zM810 296v-150q-40 -74 -134.5 -120t-221.5 -46q-183 0 -287.5 86.5t-104.5 235.5t104.5 236t287.5 87q215 0 324 -124l-70 -52q-90 99 -251 99q-146 0 -227.5 -63t-81.5 -183q0 -119 82 -182t227 -63q206 0 269 114v49
h-281v76h365z" />
    <glyph glyph-name="gcommaaccent.sc.ss01" horiz-adv-x="873" 
d="M810 296v-150q-40 -74 -134.5 -120t-221.5 -46q-183 0 -287.5 86.5t-104.5 235.5t104.5 236t287.5 87q215 0 324 -124l-70 -52q-90 99 -251 99q-146 0 -227.5 -63t-81.5 -183q0 -119 82 -182t227 -63q206 0 269 114v49h-281v76h365zM453 -58q27 0 44.5 -17.5t17.5 -46.5
q0 -42 -22 -92t-60 -85l-27 23q53 61 60 111q-4 -4 -16 -4q-24 0 -40 16t-16 40q0 23 17 39t42 16z" />
    <glyph glyph-name="gdotaccent.sc.ss01" horiz-adv-x="873" 
d="M452 699q-22 0 -35 11.5t-13 30.5t13 31t35 12q21 0 34 -12t13 -31t-13 -30.5t-34 -11.5zM810 296v-150q-40 -74 -134.5 -120t-221.5 -46q-183 0 -287.5 86.5t-104.5 235.5t104.5 236t287.5 87q215 0 324 -124l-70 -52q-90 99 -251 99q-146 0 -227.5 -63t-81.5 -183
q0 -119 82 -182t227 -63q206 0 269 114v49h-281v76h365z" />
    <glyph glyph-name="h.sc.ss01" 
d="M705 605h84v-605h-84v243h-511v-243h-84v605h84v-282h511v282z" />
    <glyph glyph-name="hbar.sc.ss01" horiz-adv-x="931" 
d="M903 495v-62h-98v-433h-84v243h-511v-243h-84v433h-98v62h98v110h84v-110h511v110h84v-110h98zM721 323v110h-511v-110h511z" />
    <glyph glyph-name="hcircumflex.sc.ss01" 
d="M248 686h95l106 103l107 -103h95l-156 150h-91zM705 605h84v-605h-84v243h-511v-243h-84v605h84v-282h511v282z" />
    <glyph glyph-name="oe.sc.ss01" horiz-adv-x="1348" 
d="M755 76h533v-76h-617h-227q-175 0 -278.5 81.5t-103.5 220.5q0 140 103.5 221.5t278.5 81.5h311h524v-76h-524v-203h442v-76h-442v-174zM671 78v449h-221q-138 0 -220 -57t-82 -168q0 -110 82 -167t220 -57h221z" />
    <glyph glyph-name="p.sc.ss01" horiz-adv-x="825" 
d="M534 605q111 0 179 -58t68 -151t-68 -151t-179 -58h-340v-187h-84v605h424zM528 261q77 0 122 35.5t45 99.5q0 63 -45 99t-122 36h-334v-270h334z" />
    <glyph glyph-name="thorn.sc.ss01" horiz-adv-x="825" 
d="M527 514q115 0 184.5 -56.5t69.5 -149.5t-69.5 -149.5t-184.5 -56.5h-333v-102h-84v605h84v-91h333zM521 176q82 0 128 34.5t46 97.5t-46 97.5t-128 34.5h-327v-264h327z" />
    <glyph glyph-name="q.sc.ss01" 
d="M837 302q0 -140 -92.5 -225.5t-254.5 -95.5v-111h-81v111q-163 10 -255 95.5t-92 225.5q0 149 103.5 236t284.5 87q180 0 283.5 -87t103.5 -236zM490 59q121 10 191 73.5t70 169.5q0 116 -81 180.5t-220 64.5t-220.5 -64.5t-81.5 -180.5q0 -107 69.5 -170t191.5 -72v133
h81v-134z" />
    <glyph glyph-name="r.sc.ss01" horiz-adv-x="855" 
d="M803 0h-110l-179 197h-320v-197h-84v605h428q107 0 176 -57t69 -147q0 -73 -46.5 -125.5t-123.5 -70.5zM193 271h339q75 0 120 34.5t45 95.5t-45 95.5t-120 34.5h-339v-260z" />
    <glyph glyph-name="racute.sc.ss01" horiz-adv-x="855" 
d="M624 835l-221 -150h-78l165 150h134zM803 0h-110l-179 197h-320v-197h-84v605h428q107 0 176 -57t69 -147q0 -73 -46.5 -125.5t-123.5 -70.5zM193 271h339q75 0 120 34.5t45 95.5t-45 95.5t-120 34.5h-339v-260z" />
    <glyph glyph-name="rcaron.sc.ss01" horiz-adv-x="855" 
d="M457 685h-91l-156 150h95l106 -103l107 103h95zM803 0h-110l-179 197h-320v-197h-84v605h428q107 0 176 -57t69 -147q0 -73 -46.5 -125.5t-123.5 -70.5zM193 271h339q75 0 120 34.5t45 95.5t-45 95.5t-120 34.5h-339v-260z" />
    <glyph glyph-name="rcommaaccent.sc.ss01" horiz-adv-x="855" 
d="M803 0h-110l-179 197h-320v-197h-84v605h428q107 0 176 -57t69 -147q0 -73 -46.5 -125.5t-123.5 -70.5zM193 271h339q75 0 120 34.5t45 95.5t-45 95.5t-120 34.5h-339v-260zM432 -58q27 0 44.5 -17.5t17.5 -46.5q0 -42 -22 -92t-60 -85l-27 23q53 61 60 111q-4 -4 -16 -4
q-24 0 -40 16t-16 40q0 23 17 39t42 16z" />
    <glyph glyph-name="uni20A8.ss01" horiz-adv-x="900" 
d="M848 700v-65h-194q62 -51 72 -130h122v-65h-123q-10 -72 -62 -122t-133 -67l220 -251h-94l-211 243h-362v65h363q89 0 142 34.5t64 97.5h-569v65h569q-11 62 -64 96t-142 34h-363v65h765z" />
    <glyph glyph-name="registered.ss01" horiz-adv-x="579" 
d="M289 710q99 0 162.5 -56.5t63.5 -149.5t-63.5 -149.5t-162.5 -56.5t-162 56.5t-63 149.5t63 149.5t162 56.5zM289 321q89 0 144.5 49.5t55.5 133.5t-55.5 133.5t-144.5 49.5q-90 0 -145 -49.5t-55 -133.5t55 -133.5t145 -49.5zM410 539q0 -55 -56 -71l61 -68h-45l-57 64
h-92v-64h-37v213h140q39 0 62.5 -20.5t23.5 -53.5zM220 494h94q57 0 57 45q0 44 -57 44h-94v-89z" />
    <glyph glyph-name="uni2117.ss01" horiz-adv-x="978" 
d="M489 -21q-197 0 -311 101t-114 270t114 270t311 101t311 -101t114 -270t-114 -270t-311 -101zM489 14q179 0 283 88.5t104 247.5t-104 247.5t-283 88.5t-283.5 -88.5t-104.5 -247.5t104.5 -247.5t283.5 -88.5zM576 588q89 0 144.5 -44.5t55.5 -119.5t-55.5 -119.5
t-144.5 -44.5h-246v-146h-68v474h314zM571 320q65 0 101 26.5t36 77.5t-36.5 77.5t-100.5 26.5h-241v-208h241z" />
    <glyph glyph-name="registered.case.ss01" horiz-adv-x="978" 
d="M489 721q197 0 311 -101t114 -270t-114 -270t-311 -101t-311 101t-114 270t114 270t311 101zM489 14q179 0 283 88.5t104 247.5t-104 247.5t-283 88.5t-283.5 -88.5t-104.5 -247.5t104.5 -247.5t283.5 -88.5zM760 426q0 -57 -33 -97t-90 -56l133 -159h-83l-119 149h-8
h-246v-149h-68v474h314q89 0 144.5 -43.5t55.5 -118.5zM314 526v-201h242q135 0 135 100q0 50 -35.5 75.5t-99.5 25.5h-242z" />
    <glyph glyph-name="uni2117.sc.001" horiz-adv-x="895" 
d="M447 -18q-179 0 -282 87t-103 233q0 147 103 234t282 87t282.5 -87t103.5 -234q0 -146 -103.5 -233t-282.5 -87zM447 10q162 0 259 77.5t97 214.5q0 138 -97 215.5t-259 77.5t-258 -77.5t-96 -215.5t96.5 -215t257.5 -77zM526 508q81 0 132.5 -39.5t51.5 -104.5
q0 -66 -51 -105t-133 -39h-218v-122h-66v410h284zM521 278q121 0 121 86t-121 86h-213v-172h213z" />
    <glyph glyph-name="registered.sc.ss01" horiz-adv-x="895" 
d="M447 625q179 0 282.5 -88t103.5 -235q0 -146 -103.5 -234t-282.5 -88q-178 0 -281.5 88t-103.5 234q0 147 103.5 235t281.5 88zM447 8q162 0 259 78t97 216t-97 216.5t-259 78.5q-161 0 -257.5 -78.5t-96.5 -216.5t96.5 -216t257.5 -78zM695 364q0 -49 -29.5 -84.5
t-80.5 -49.5l118 -132h-82l-104 122h-5h-219v-122h-66v410h285q81 0 132 -39.5t51 -104.5zM293 450v-172h215q56 0 87.5 22.5t31.5 63.5q0 38 -32 62t-87 24h-215z" />
    <glyph glyph-name="uni20A8.sc.ss01" horiz-adv-x="832" 
d="M777 605v-68h-169q47 -43 58 -105h111v-68h-111q-10 -59 -52.5 -102t-109.5 -61l185 -201h-97l-172 190h-6h-331v68h327q76 0 122.5 28t58.5 78h-508v68h508q-12 50 -58.5 77.5t-122.5 27.5h-327v68h694z" />
    </font>
</defs>
</svg>
